G04 #@! TF.GenerationSoftware,KiCad,Pcbnew,5.1.5+dfsg1-2build2*
G04 #@! TF.CreationDate,2022-11-08T08:09:59+00:00*
G04 #@! TF.ProjectId,datapack-tool1,64617461-7061-4636-9b2d-746f6f6c312e,rev?*
G04 #@! TF.SameCoordinates,Original*
G04 #@! TF.FileFunction,Copper,L2,Bot*
G04 #@! TF.FilePolarity,Positive*
%FSLAX46Y46*%
G04 Gerber Fmt 4.6, Leading zero omitted, Abs format (unit mm)*
G04 Created by KiCad (PCBNEW 5.1.5+dfsg1-2build2) date 2022-11-08 08:09:59*
%MOMM*%
%LPD*%
G04 APERTURE LIST*
%ADD10O,1.700000X1.700000*%
%ADD11R,1.700000X1.700000*%
%ADD12C,0.800000*%
%ADD13C,0.500000*%
%ADD14C,0.250000*%
G04 APERTURE END LIST*
D10*
X182626000Y-127762000D03*
X185166000Y-127762000D03*
X187706000Y-127762000D03*
D11*
X190246000Y-127762000D03*
D10*
X127640000Y-157400000D03*
D11*
X125100000Y-157400000D03*
D10*
X122560000Y-157400000D03*
X133990000Y-109370000D03*
X133990000Y-111910000D03*
D11*
X133990000Y-114450000D03*
D10*
X133990000Y-116990000D03*
X133990000Y-119530000D03*
X133990000Y-122070000D03*
X133990000Y-124610000D03*
D11*
X133990000Y-127150000D03*
D10*
X133990000Y-129690000D03*
X133990000Y-132230000D03*
X133990000Y-134770000D03*
X133990000Y-137310000D03*
D11*
X133990000Y-139850000D03*
D10*
X133990000Y-142390000D03*
X133990000Y-144930000D03*
X133990000Y-147470000D03*
X133990000Y-150010000D03*
D11*
X133990000Y-152550000D03*
D10*
X133990000Y-155090000D03*
X133990000Y-157630000D03*
X116210000Y-157630000D03*
X116210000Y-155090000D03*
D11*
X116210000Y-152550000D03*
D10*
X116210000Y-150010000D03*
X116210000Y-147470000D03*
X116210000Y-144930000D03*
X116210000Y-142390000D03*
D11*
X116210000Y-139850000D03*
D10*
X116210000Y-137310000D03*
X116210000Y-134770000D03*
X116210000Y-132230000D03*
X116210000Y-129690000D03*
D11*
X116210000Y-127150000D03*
D10*
X116210000Y-124610000D03*
X116210000Y-122070000D03*
X116210000Y-119530000D03*
X116210000Y-116990000D03*
D11*
X116210000Y-114450000D03*
D10*
X116210000Y-111910000D03*
X116210000Y-109370000D03*
D11*
X87800000Y-115600000D03*
D10*
X85260000Y-115600000D03*
X87800000Y-118140000D03*
X85260000Y-118140000D03*
X87800000Y-120680000D03*
X85260000Y-120680000D03*
X87800000Y-123220000D03*
X85260000Y-123220000D03*
X87800000Y-125760000D03*
X85260000Y-125760000D03*
X87800000Y-128300000D03*
X85260000Y-128300000D03*
X87800000Y-130840000D03*
X85260000Y-130840000D03*
X87800000Y-133380000D03*
X85260000Y-133380000D03*
X106880000Y-160600000D03*
X104340000Y-160600000D03*
D11*
X101800000Y-160600000D03*
D12*
X94996000Y-130556000D03*
X94996000Y-127508000D03*
X95250000Y-138938000D03*
X94234000Y-145542000D03*
X118364000Y-152654000D03*
X118872000Y-139954000D03*
X124714000Y-152400000D03*
X131064000Y-114808000D03*
X131064000Y-127254000D03*
X119126000Y-114554000D03*
X118872000Y-127254000D03*
X163830000Y-139700000D03*
X164592000Y-124294000D03*
X158307959Y-115889959D03*
X163322000Y-116332000D03*
X167132000Y-139700000D03*
X167386000Y-158242000D03*
X178054000Y-124460000D03*
X182372000Y-124460000D03*
X97200000Y-123114990D03*
X150368000Y-120650000D03*
X150114000Y-124968000D03*
X170180000Y-123444000D03*
X170434000Y-113538000D03*
X118872000Y-160948000D03*
X119380000Y-156173000D03*
X170180000Y-107188000D03*
X173736000Y-110744000D03*
X80010000Y-134112000D03*
X78740000Y-102616000D03*
X146558000Y-102870000D03*
X146558000Y-128270000D03*
X118110000Y-157480000D03*
X117602000Y-162648000D03*
X193548000Y-162052000D03*
X112268000Y-127508000D03*
X112522000Y-110744000D03*
X113030000Y-105918000D03*
X97028000Y-153162000D03*
X97028000Y-157988000D03*
X111506000Y-158242000D03*
X111760000Y-161798000D03*
X144272000Y-161798000D03*
X142494000Y-119634000D03*
X97536000Y-141224000D03*
X111760000Y-141224000D03*
X196596000Y-127000000D03*
X196596000Y-148590000D03*
X140716000Y-105664000D03*
X120396000Y-154686000D03*
X120650000Y-160782000D03*
X185420000Y-160274000D03*
X182372000Y-154940000D03*
X183642000Y-150622000D03*
X141224000Y-124460000D03*
X141224000Y-156718000D03*
X142240000Y-129794000D03*
X143256000Y-152146000D03*
X199644000Y-133858000D03*
X201930000Y-151384000D03*
X162052000Y-154940000D03*
X161544000Y-129032000D03*
X102870000Y-114300000D03*
X102870000Y-109220000D03*
X85090000Y-109220000D03*
X102162892Y-115007108D03*
X101600000Y-109945000D03*
X87630000Y-109945000D03*
X109220000Y-121158000D03*
X109474000Y-132080000D03*
X110114429Y-120105000D03*
X109982000Y-129540000D03*
X91304847Y-119000153D03*
X91440000Y-125185000D03*
X95250000Y-117475000D03*
X95250000Y-125185000D03*
X111125000Y-125095000D03*
X111125000Y-122555000D03*
X109220000Y-117475000D03*
X109220000Y-119380000D03*
X99060000Y-115314990D03*
X99060000Y-107950000D03*
X110490000Y-107950000D03*
X110490000Y-116840000D03*
X100875000Y-113665000D03*
X100965000Y-105955000D03*
X111760000Y-105955000D03*
X111760000Y-111760000D03*
X99785000Y-113030000D03*
X100052918Y-107225000D03*
X115570000Y-106680000D03*
X93980000Y-111506000D03*
X94742000Y-143256000D03*
X110236000Y-143256000D03*
X110490000Y-150114000D03*
X103886000Y-126545001D03*
X103886000Y-130302000D03*
X102362000Y-128016000D03*
X102362000Y-131572000D03*
X90424000Y-131826000D03*
X90424000Y-133604000D03*
X92456000Y-129286000D03*
X92710000Y-134874000D03*
X83312000Y-125730000D03*
X83312000Y-136398000D03*
X91498054Y-134329000D03*
X91440000Y-144526000D03*
X109474000Y-144526000D03*
X109474000Y-147828000D03*
X95504000Y-132588000D03*
X96520000Y-145251000D03*
X99859000Y-131572000D03*
X99822000Y-142748000D03*
X100584000Y-130302000D03*
X100838000Y-137414000D03*
X101346000Y-129035010D03*
X101600000Y-136655010D03*
X132080000Y-155448000D03*
X132080000Y-147320000D03*
X100076000Y-155448000D03*
X100584000Y-138684000D03*
X101092000Y-156464000D03*
X102108000Y-146558000D03*
X126746000Y-146050000D03*
X126746000Y-142748000D03*
X131064000Y-153416000D03*
X131064000Y-149860000D03*
X128778000Y-148336000D03*
X129032000Y-144780000D03*
X129794000Y-151130000D03*
X130048000Y-157734000D03*
X129540000Y-132842000D03*
X185166000Y-122428000D03*
D13*
X94996000Y-130556000D02*
X94996000Y-127508000D01*
X94996000Y-127508000D02*
X97200000Y-125304000D01*
X94596001Y-138284001D02*
X95250000Y-138938000D01*
X94596001Y-130955999D02*
X94596001Y-138284001D01*
X94996000Y-130556000D02*
X94596001Y-130955999D01*
X95649999Y-144126001D02*
X94234000Y-145542000D01*
X95649999Y-139337999D02*
X95649999Y-144126001D01*
X95250000Y-138938000D02*
X95649999Y-139337999D01*
X118872000Y-152146000D02*
X118872000Y-139954000D01*
X118364000Y-152654000D02*
X118872000Y-152146000D01*
X124714000Y-157014000D02*
X125100000Y-157400000D01*
X124714000Y-152400000D02*
X124714000Y-157014000D01*
X131064000Y-114808000D02*
X131064000Y-127254000D01*
X119126000Y-127000000D02*
X118872000Y-127254000D01*
X119126000Y-114554000D02*
X119126000Y-127000000D01*
X118872000Y-127254000D02*
X118872000Y-139954000D01*
X164592000Y-138938000D02*
X164592000Y-124294000D01*
X163830000Y-139700000D02*
X164592000Y-138938000D01*
X158750000Y-116332000D02*
X163322000Y-116332000D01*
X158307959Y-115889959D02*
X158750000Y-116332000D01*
X167132000Y-157988000D02*
X167386000Y-158242000D01*
X167132000Y-139700000D02*
X167132000Y-157988000D01*
X178054000Y-124460000D02*
X182372000Y-124460000D01*
X97200000Y-125304000D02*
X97200000Y-123114990D01*
X150368000Y-124714000D02*
X150114000Y-124968000D01*
X150368000Y-120650000D02*
X150368000Y-124714000D01*
X170180000Y-113792000D02*
X170434000Y-113538000D01*
X170180000Y-123444000D02*
X170180000Y-113792000D01*
D14*
X119380000Y-160440000D02*
X119380000Y-156173000D01*
X118872000Y-160948000D02*
X119380000Y-160440000D01*
D13*
X170180000Y-107188000D02*
X173736000Y-110744000D01*
D14*
X78740000Y-132842000D02*
X78740000Y-102616000D01*
X80010000Y-134112000D02*
X78740000Y-132842000D01*
X146558000Y-102870000D02*
X146558000Y-128016000D01*
X146558000Y-128016000D02*
X146558000Y-128270000D01*
X117602000Y-157988000D02*
X117602000Y-162648000D01*
X118110000Y-157480000D02*
X117602000Y-157988000D01*
X190200000Y-158704000D02*
X190200000Y-130800000D01*
X193548000Y-162052000D02*
X190200000Y-158704000D01*
X190246000Y-130754000D02*
X190246000Y-127762000D01*
X190200000Y-130800000D02*
X190246000Y-130754000D01*
D13*
X112667999Y-110889999D02*
X112522000Y-110744000D01*
X112667999Y-127108001D02*
X112667999Y-110889999D01*
X112268000Y-127508000D02*
X112667999Y-127108001D01*
X112522000Y-106426000D02*
X113030000Y-105918000D01*
X112522000Y-110744000D02*
X112522000Y-106426000D01*
X97028000Y-153162000D02*
X97028000Y-157988000D01*
X111506000Y-161544000D02*
X111760000Y-161798000D01*
X111506000Y-158242000D02*
X111506000Y-161544000D01*
X144272000Y-121412000D02*
X142494000Y-119634000D01*
X144272000Y-161798000D02*
X144272000Y-121412000D01*
X97536000Y-152654000D02*
X97536000Y-141224000D01*
X97028000Y-153162000D02*
X97536000Y-152654000D01*
X111760000Y-128016000D02*
X112268000Y-127508000D01*
X111760000Y-141224000D02*
X111760000Y-128016000D01*
D14*
X196596000Y-127000000D02*
X196596000Y-148590000D01*
D13*
X142494000Y-107442000D02*
X142494000Y-119634000D01*
X140716000Y-105664000D02*
X142494000Y-107442000D01*
D14*
X120396000Y-160528000D02*
X120650000Y-160782000D01*
X120396000Y-154686000D02*
X120396000Y-160528000D01*
X187660000Y-129840000D02*
X187706000Y-129794000D01*
X187660000Y-135174000D02*
X187660000Y-129840000D01*
X187706000Y-129794000D02*
X187706000Y-127762000D01*
X185420000Y-137414000D02*
X187660000Y-135174000D01*
X185420000Y-160274000D02*
X185420000Y-137414000D01*
X183642000Y-153670000D02*
X183642000Y-150622000D01*
X182372000Y-154940000D02*
X183642000Y-153670000D01*
X141224000Y-124460000D02*
X141224000Y-156718000D01*
X143256000Y-130810000D02*
X143256000Y-152146000D01*
X142240000Y-129794000D02*
X143256000Y-130810000D01*
X199644000Y-149098000D02*
X201930000Y-151384000D01*
X199644000Y-133858000D02*
X199644000Y-149098000D01*
X161544000Y-154432000D02*
X161544000Y-129032000D01*
X162052000Y-154940000D02*
X161544000Y-154432000D01*
X102870000Y-114300000D02*
X102870000Y-109220000D01*
X85090000Y-115430000D02*
X85260000Y-115600000D01*
X85090000Y-109220000D02*
X85090000Y-115430000D01*
X101600000Y-114444216D02*
X101600000Y-109945000D01*
X102162892Y-115007108D02*
X101600000Y-114444216D01*
X87630000Y-115430000D02*
X87800000Y-115600000D01*
X87630000Y-109945000D02*
X87630000Y-115430000D01*
X109220000Y-131826000D02*
X109474000Y-132080000D01*
X109220000Y-121158000D02*
X109220000Y-131826000D01*
X110114429Y-129407571D02*
X109982000Y-129540000D01*
X110114429Y-120105000D02*
X110114429Y-129407571D01*
X91304847Y-125049847D02*
X91440000Y-125185000D01*
X91304847Y-119000153D02*
X91304847Y-125049847D01*
X95250000Y-117475000D02*
X95250000Y-125185000D01*
X111125000Y-125095000D02*
X111125000Y-122555000D01*
X109220000Y-117475000D02*
X109220000Y-119380000D01*
X99060000Y-115314990D02*
X99060000Y-107950000D01*
X110490000Y-107950000D02*
X110490000Y-116840000D01*
X100875000Y-106045000D02*
X100965000Y-105955000D01*
X100875000Y-113665000D02*
X100875000Y-106045000D01*
X111760000Y-105955000D02*
X111760000Y-111760000D01*
X99785000Y-107492918D02*
X100052918Y-107225000D01*
X99785000Y-113030000D02*
X99785000Y-107492918D01*
X115570000Y-108730000D02*
X116210000Y-109370000D01*
X115570000Y-106680000D02*
X115570000Y-108730000D01*
X93980000Y-142494000D02*
X94742000Y-143256000D01*
X93980000Y-111506000D02*
X93980000Y-142494000D01*
X110236000Y-149860000D02*
X110490000Y-150114000D01*
X110236000Y-143256000D02*
X110236000Y-149860000D01*
X103886000Y-126545001D02*
X103886000Y-130302000D01*
X102362000Y-128016000D02*
X102362000Y-131572000D01*
X90424000Y-131826000D02*
X90424000Y-133604000D01*
X92456000Y-134620000D02*
X92710000Y-134874000D01*
X92456000Y-129286000D02*
X92456000Y-134620000D01*
X83312000Y-125730000D02*
X83312000Y-136398000D01*
X91498054Y-144467946D02*
X91440000Y-144526000D01*
X91498054Y-134329000D02*
X91498054Y-144467946D01*
X109474000Y-144526000D02*
X109474000Y-147828000D01*
X96520000Y-133604000D02*
X96520000Y-145251000D01*
X95504000Y-132588000D02*
X96520000Y-133604000D01*
X99859000Y-142711000D02*
X99822000Y-142748000D01*
X99859000Y-131572000D02*
X99859000Y-142711000D01*
X100584000Y-137160000D02*
X100838000Y-137414000D01*
X100584000Y-130302000D02*
X100584000Y-137160000D01*
X101346000Y-136401010D02*
X101600000Y-136655010D01*
X101346000Y-129035010D02*
X101346000Y-136401010D01*
X132080000Y-155448000D02*
X132080000Y-147320000D01*
X100584000Y-154940000D02*
X100584000Y-138684000D01*
X100076000Y-155448000D02*
X100584000Y-154940000D01*
X102108000Y-155448000D02*
X102108000Y-146558000D01*
X101092000Y-156464000D02*
X102108000Y-155448000D01*
X126746000Y-146050000D02*
X126746000Y-142748000D01*
X131064000Y-153416000D02*
X131064000Y-149860000D01*
X128778000Y-145034000D02*
X129032000Y-144780000D01*
X128778000Y-148336000D02*
X128778000Y-145034000D01*
X129794000Y-157480000D02*
X130048000Y-157734000D01*
X129794000Y-151130000D02*
X129794000Y-157480000D01*
X129140001Y-132442001D02*
X129140001Y-110889999D01*
X129540000Y-132842000D02*
X129140001Y-132442001D01*
X130660000Y-109370000D02*
X133990000Y-109370000D01*
X129140001Y-110889999D02*
X130660000Y-109370000D01*
X185166000Y-127452000D02*
X185120000Y-127498000D01*
X185166000Y-122428000D02*
X185166000Y-127762000D01*
M02*
