G04 #@! TF.GenerationSoftware,KiCad,Pcbnew,5.1.5+dfsg1-2build2*
G04 #@! TF.CreationDate,2022-11-08T08:09:59+00:00*
G04 #@! TF.ProjectId,datapack-tool1,64617461-7061-4636-9b2d-746f6f6c312e,rev?*
G04 #@! TF.SameCoordinates,Original*
G04 #@! TF.FileFunction,Soldermask,Top*
G04 #@! TF.FilePolarity,Negative*
%FSLAX46Y46*%
G04 Gerber Fmt 4.6, Leading zero omitted, Abs format (unit mm)*
G04 Created by KiCad (PCBNEW 5.1.5+dfsg1-2build2) date 2022-11-08 08:09:59*
%MOMM*%
%LPD*%
G04 APERTURE LIST*
%ADD10C,0.100000*%
G04 APERTURE END LIST*
D10*
G36*
X86351000Y-162601000D02*
G01*
X84049000Y-162601000D01*
X84049000Y-161299000D01*
X86351000Y-161299000D01*
X86351000Y-162601000D01*
G37*
G36*
X95551000Y-161901000D02*
G01*
X94049000Y-161901000D01*
X94049000Y-160199000D01*
X95551000Y-160199000D01*
X95551000Y-161901000D01*
G37*
G36*
X104453512Y-159703927D02*
G01*
X104602812Y-159733624D01*
X104766784Y-159801544D01*
X104914354Y-159900147D01*
X105039853Y-160025646D01*
X105138456Y-160173216D01*
X105206376Y-160337188D01*
X105241000Y-160511259D01*
X105241000Y-160688741D01*
X105206376Y-160862812D01*
X105138456Y-161026784D01*
X105039853Y-161174354D01*
X104914354Y-161299853D01*
X104766784Y-161398456D01*
X104602812Y-161466376D01*
X104453512Y-161496073D01*
X104428742Y-161501000D01*
X104251258Y-161501000D01*
X104226488Y-161496073D01*
X104077188Y-161466376D01*
X103913216Y-161398456D01*
X103765646Y-161299853D01*
X103640147Y-161174354D01*
X103541544Y-161026784D01*
X103473624Y-160862812D01*
X103439000Y-160688741D01*
X103439000Y-160511259D01*
X103473624Y-160337188D01*
X103541544Y-160173216D01*
X103640147Y-160025646D01*
X103765646Y-159900147D01*
X103913216Y-159801544D01*
X104077188Y-159733624D01*
X104226488Y-159703927D01*
X104251258Y-159699000D01*
X104428742Y-159699000D01*
X104453512Y-159703927D01*
G37*
G36*
X102701000Y-161501000D02*
G01*
X100899000Y-161501000D01*
X100899000Y-159699000D01*
X102701000Y-159699000D01*
X102701000Y-161501000D01*
G37*
G36*
X106993512Y-159703927D02*
G01*
X107142812Y-159733624D01*
X107306784Y-159801544D01*
X107454354Y-159900147D01*
X107579853Y-160025646D01*
X107678456Y-160173216D01*
X107746376Y-160337188D01*
X107781000Y-160511259D01*
X107781000Y-160688741D01*
X107746376Y-160862812D01*
X107678456Y-161026784D01*
X107579853Y-161174354D01*
X107454354Y-161299853D01*
X107306784Y-161398456D01*
X107142812Y-161466376D01*
X106993512Y-161496073D01*
X106968742Y-161501000D01*
X106791258Y-161501000D01*
X106766488Y-161496073D01*
X106617188Y-161466376D01*
X106453216Y-161398456D01*
X106305646Y-161299853D01*
X106180147Y-161174354D01*
X106081544Y-161026784D01*
X106013624Y-160862812D01*
X105979000Y-160688741D01*
X105979000Y-160511259D01*
X106013624Y-160337188D01*
X106081544Y-160173216D01*
X106180147Y-160025646D01*
X106305646Y-159900147D01*
X106453216Y-159801544D01*
X106617188Y-159733624D01*
X106766488Y-159703927D01*
X106791258Y-159699000D01*
X106968742Y-159699000D01*
X106993512Y-159703927D01*
G37*
G36*
X123461000Y-160101000D02*
G01*
X121659000Y-160101000D01*
X121659000Y-156499000D01*
X123461000Y-156499000D01*
X123461000Y-160101000D01*
G37*
G36*
X128541000Y-160101000D02*
G01*
X126739000Y-160101000D01*
X126739000Y-156499000D01*
X128541000Y-156499000D01*
X128541000Y-160101000D01*
G37*
G36*
X126001000Y-160101000D02*
G01*
X124199000Y-160101000D01*
X124199000Y-156499000D01*
X126001000Y-156499000D01*
X126001000Y-160101000D01*
G37*
G36*
X202016000Y-158931000D02*
G01*
X200864000Y-158931000D01*
X200864000Y-158179000D01*
X202016000Y-158179000D01*
X202016000Y-158931000D01*
G37*
G36*
X197891000Y-158931000D02*
G01*
X196739000Y-158931000D01*
X196739000Y-158179000D01*
X197891000Y-158179000D01*
X197891000Y-158931000D01*
G37*
G36*
X192491000Y-158931000D02*
G01*
X191339000Y-158931000D01*
X191339000Y-158179000D01*
X192491000Y-158179000D01*
X192491000Y-158931000D01*
G37*
G36*
X188366000Y-158931000D02*
G01*
X187214000Y-158931000D01*
X187214000Y-158179000D01*
X188366000Y-158179000D01*
X188366000Y-158931000D01*
G37*
G36*
X182458000Y-158931000D02*
G01*
X181306000Y-158931000D01*
X181306000Y-158179000D01*
X182458000Y-158179000D01*
X182458000Y-158931000D01*
G37*
G36*
X178333000Y-158931000D02*
G01*
X177181000Y-158931000D01*
X177181000Y-158179000D01*
X178333000Y-158179000D01*
X178333000Y-158931000D01*
G37*
G36*
X136691000Y-158531000D02*
G01*
X133089000Y-158531000D01*
X133089000Y-156729000D01*
X136691000Y-156729000D01*
X136691000Y-158531000D01*
G37*
G36*
X117111000Y-158531000D02*
G01*
X113509000Y-158531000D01*
X113509000Y-156729000D01*
X117111000Y-156729000D01*
X117111000Y-158531000D01*
G37*
G36*
X96151000Y-156801000D02*
G01*
X94449000Y-156801000D01*
X94449000Y-155999000D01*
X96151000Y-155999000D01*
X96151000Y-156801000D01*
G37*
G36*
X202041000Y-156781000D02*
G01*
X200889000Y-156781000D01*
X200889000Y-156029000D01*
X202041000Y-156029000D01*
X202041000Y-156781000D01*
G37*
G36*
X178333000Y-156781000D02*
G01*
X177181000Y-156781000D01*
X177181000Y-156029000D01*
X178333000Y-156029000D01*
X178333000Y-156781000D01*
G37*
G36*
X188366000Y-156781000D02*
G01*
X187214000Y-156781000D01*
X187214000Y-156029000D01*
X188366000Y-156029000D01*
X188366000Y-156781000D01*
G37*
G36*
X192516000Y-156781000D02*
G01*
X191364000Y-156781000D01*
X191364000Y-156029000D01*
X192516000Y-156029000D01*
X192516000Y-156781000D01*
G37*
G36*
X197891000Y-156781000D02*
G01*
X196739000Y-156781000D01*
X196739000Y-156029000D01*
X197891000Y-156029000D01*
X197891000Y-156781000D01*
G37*
G36*
X182483000Y-156781000D02*
G01*
X181331000Y-156781000D01*
X181331000Y-156029000D01*
X182483000Y-156029000D01*
X182483000Y-156781000D01*
G37*
G36*
X117111000Y-155991000D02*
G01*
X113509000Y-155991000D01*
X113509000Y-154189000D01*
X117111000Y-154189000D01*
X117111000Y-155991000D01*
G37*
G36*
X136691000Y-155991000D02*
G01*
X133089000Y-155991000D01*
X133089000Y-154189000D01*
X136691000Y-154189000D01*
X136691000Y-155991000D01*
G37*
G36*
X96151000Y-155701000D02*
G01*
X94449000Y-155701000D01*
X94449000Y-154899000D01*
X96151000Y-154899000D01*
X96151000Y-155701000D01*
G37*
G36*
X96151000Y-154601000D02*
G01*
X94449000Y-154601000D01*
X94449000Y-153799000D01*
X96151000Y-153799000D01*
X96151000Y-154601000D01*
G37*
G36*
X96151000Y-153501000D02*
G01*
X94449000Y-153501000D01*
X94449000Y-152699000D01*
X96151000Y-152699000D01*
X96151000Y-153501000D01*
G37*
G36*
X117111000Y-153451000D02*
G01*
X113509000Y-153451000D01*
X113509000Y-151649000D01*
X117111000Y-151649000D01*
X117111000Y-153451000D01*
G37*
G36*
X136691000Y-153451000D02*
G01*
X133089000Y-153451000D01*
X133089000Y-151649000D01*
X136691000Y-151649000D01*
X136691000Y-153451000D01*
G37*
G36*
X96151000Y-152401000D02*
G01*
X94449000Y-152401000D01*
X94449000Y-151599000D01*
X96151000Y-151599000D01*
X96151000Y-152401000D01*
G37*
G36*
X201241162Y-150571144D02*
G01*
X201280608Y-150583110D01*
X201316953Y-150602537D01*
X201348815Y-150628685D01*
X201374963Y-150660547D01*
X201394390Y-150696892D01*
X201406356Y-150736338D01*
X201411000Y-150783493D01*
X201411000Y-151476507D01*
X201406356Y-151523662D01*
X201394390Y-151563108D01*
X201374963Y-151599453D01*
X201348815Y-151631315D01*
X201316953Y-151657463D01*
X201280608Y-151676890D01*
X201241162Y-151688856D01*
X201194007Y-151693500D01*
X200125993Y-151693500D01*
X200078838Y-151688856D01*
X200039392Y-151676890D01*
X200003047Y-151657463D01*
X199971185Y-151631315D01*
X199945037Y-151599453D01*
X199925610Y-151563108D01*
X199913644Y-151523662D01*
X199909000Y-151476507D01*
X199909000Y-150783493D01*
X199913644Y-150736338D01*
X199925610Y-150696892D01*
X199945037Y-150660547D01*
X199971185Y-150628685D01*
X200003047Y-150602537D01*
X200039392Y-150583110D01*
X200078838Y-150571144D01*
X200125993Y-150566500D01*
X201194007Y-150566500D01*
X201241162Y-150571144D01*
G37*
G36*
X96151000Y-151301000D02*
G01*
X94449000Y-151301000D01*
X94449000Y-150499000D01*
X96151000Y-150499000D01*
X96151000Y-151301000D01*
G37*
G36*
X192381162Y-149936144D02*
G01*
X192420608Y-149948110D01*
X192456953Y-149967537D01*
X192488815Y-149993685D01*
X192514963Y-150025547D01*
X192534390Y-150061892D01*
X192546356Y-150101338D01*
X192551000Y-150148493D01*
X192551000Y-150841507D01*
X192546356Y-150888662D01*
X192534390Y-150928108D01*
X192514963Y-150964453D01*
X192488815Y-150996315D01*
X192456953Y-151022463D01*
X192420608Y-151041890D01*
X192381162Y-151053856D01*
X192334007Y-151058500D01*
X191265993Y-151058500D01*
X191218838Y-151053856D01*
X191179392Y-151041890D01*
X191143047Y-151022463D01*
X191111185Y-150996315D01*
X191085037Y-150964453D01*
X191065610Y-150928108D01*
X191053644Y-150888662D01*
X191049000Y-150841507D01*
X191049000Y-150148493D01*
X191053644Y-150101338D01*
X191065610Y-150061892D01*
X191085037Y-150025547D01*
X191111185Y-149993685D01*
X191143047Y-149967537D01*
X191179392Y-149948110D01*
X191218838Y-149936144D01*
X191265993Y-149931500D01*
X192334007Y-149931500D01*
X192381162Y-149936144D01*
G37*
G36*
X182826162Y-149936144D02*
G01*
X182865608Y-149948110D01*
X182901953Y-149967537D01*
X182933815Y-149993685D01*
X182959963Y-150025547D01*
X182979390Y-150061892D01*
X182991356Y-150101338D01*
X182996000Y-150148493D01*
X182996000Y-150841507D01*
X182991356Y-150888662D01*
X182979390Y-150928108D01*
X182959963Y-150964453D01*
X182933815Y-150996315D01*
X182901953Y-151022463D01*
X182865608Y-151041890D01*
X182826162Y-151053856D01*
X182779007Y-151058500D01*
X181710993Y-151058500D01*
X181663838Y-151053856D01*
X181624392Y-151041890D01*
X181588047Y-151022463D01*
X181556185Y-150996315D01*
X181530037Y-150964453D01*
X181510610Y-150928108D01*
X181498644Y-150888662D01*
X181494000Y-150841507D01*
X181494000Y-150148493D01*
X181498644Y-150101338D01*
X181510610Y-150061892D01*
X181530037Y-150025547D01*
X181556185Y-149993685D01*
X181588047Y-149967537D01*
X181624392Y-149948110D01*
X181663838Y-149936144D01*
X181710993Y-149931500D01*
X182779007Y-149931500D01*
X182826162Y-149936144D01*
G37*
G36*
X136691000Y-150911000D02*
G01*
X133089000Y-150911000D01*
X133089000Y-149109000D01*
X136691000Y-149109000D01*
X136691000Y-150911000D01*
G37*
G36*
X117111000Y-150911000D02*
G01*
X113509000Y-150911000D01*
X113509000Y-149109000D01*
X117111000Y-149109000D01*
X117111000Y-150911000D01*
G37*
G36*
X96151000Y-150201000D02*
G01*
X94449000Y-150201000D01*
X94449000Y-149399000D01*
X96151000Y-149399000D01*
X96151000Y-150201000D01*
G37*
G36*
X201241162Y-148746144D02*
G01*
X201280608Y-148758110D01*
X201316953Y-148777537D01*
X201348815Y-148803685D01*
X201374963Y-148835547D01*
X201394390Y-148871892D01*
X201406356Y-148911338D01*
X201411000Y-148958493D01*
X201411000Y-149651507D01*
X201406356Y-149698662D01*
X201394390Y-149738108D01*
X201374963Y-149774453D01*
X201348815Y-149806315D01*
X201316953Y-149832463D01*
X201280608Y-149851890D01*
X201241162Y-149863856D01*
X201194007Y-149868500D01*
X200125993Y-149868500D01*
X200078838Y-149863856D01*
X200039392Y-149851890D01*
X200003047Y-149832463D01*
X199971185Y-149806315D01*
X199945037Y-149774453D01*
X199925610Y-149738108D01*
X199913644Y-149698662D01*
X199909000Y-149651507D01*
X199909000Y-148958493D01*
X199913644Y-148911338D01*
X199925610Y-148871892D01*
X199945037Y-148835547D01*
X199971185Y-148803685D01*
X200003047Y-148777537D01*
X200039392Y-148758110D01*
X200078838Y-148746144D01*
X200125993Y-148741500D01*
X201194007Y-148741500D01*
X201241162Y-148746144D01*
G37*
G36*
X182826162Y-148111144D02*
G01*
X182865608Y-148123110D01*
X182901953Y-148142537D01*
X182933815Y-148168685D01*
X182959963Y-148200547D01*
X182979390Y-148236892D01*
X182991356Y-148276338D01*
X182996000Y-148323493D01*
X182996000Y-149016507D01*
X182991356Y-149063662D01*
X182979390Y-149103108D01*
X182959963Y-149139453D01*
X182933815Y-149171315D01*
X182901953Y-149197463D01*
X182865608Y-149216890D01*
X182826162Y-149228856D01*
X182779007Y-149233500D01*
X181710993Y-149233500D01*
X181663838Y-149228856D01*
X181624392Y-149216890D01*
X181588047Y-149197463D01*
X181556185Y-149171315D01*
X181530037Y-149139453D01*
X181510610Y-149103108D01*
X181498644Y-149063662D01*
X181494000Y-149016507D01*
X181494000Y-148323493D01*
X181498644Y-148276338D01*
X181510610Y-148236892D01*
X181530037Y-148200547D01*
X181556185Y-148168685D01*
X181588047Y-148142537D01*
X181624392Y-148123110D01*
X181663838Y-148111144D01*
X181710993Y-148106500D01*
X182779007Y-148106500D01*
X182826162Y-148111144D01*
G37*
G36*
X192381162Y-148111144D02*
G01*
X192420608Y-148123110D01*
X192456953Y-148142537D01*
X192488815Y-148168685D01*
X192514963Y-148200547D01*
X192534390Y-148236892D01*
X192546356Y-148276338D01*
X192551000Y-148323493D01*
X192551000Y-149016507D01*
X192546356Y-149063662D01*
X192534390Y-149103108D01*
X192514963Y-149139453D01*
X192488815Y-149171315D01*
X192456953Y-149197463D01*
X192420608Y-149216890D01*
X192381162Y-149228856D01*
X192334007Y-149233500D01*
X191265993Y-149233500D01*
X191218838Y-149228856D01*
X191179392Y-149216890D01*
X191143047Y-149197463D01*
X191111185Y-149171315D01*
X191085037Y-149139453D01*
X191065610Y-149103108D01*
X191053644Y-149063662D01*
X191049000Y-149016507D01*
X191049000Y-148323493D01*
X191053644Y-148276338D01*
X191065610Y-148236892D01*
X191085037Y-148200547D01*
X191111185Y-148168685D01*
X191143047Y-148142537D01*
X191179392Y-148123110D01*
X191218838Y-148111144D01*
X191265993Y-148106500D01*
X192334007Y-148106500D01*
X192381162Y-148111144D01*
G37*
G36*
X96151000Y-149101000D02*
G01*
X94449000Y-149101000D01*
X94449000Y-148299000D01*
X96151000Y-148299000D01*
X96151000Y-149101000D01*
G37*
G36*
X117111000Y-148371000D02*
G01*
X113509000Y-148371000D01*
X113509000Y-146569000D01*
X117111000Y-146569000D01*
X117111000Y-148371000D01*
G37*
G36*
X136691000Y-148371000D02*
G01*
X133089000Y-148371000D01*
X133089000Y-146569000D01*
X136691000Y-146569000D01*
X136691000Y-148371000D01*
G37*
G36*
X95551000Y-147074001D02*
G01*
X95553402Y-147098387D01*
X95560515Y-147121836D01*
X95572066Y-147143447D01*
X95587611Y-147162389D01*
X95606553Y-147177934D01*
X95628164Y-147189485D01*
X95651613Y-147196598D01*
X95675999Y-147199000D01*
X96151000Y-147199000D01*
X96151000Y-148001000D01*
X94449000Y-148001000D01*
X94449000Y-147225999D01*
X94446598Y-147201613D01*
X94439485Y-147178164D01*
X94427934Y-147156553D01*
X94412389Y-147137611D01*
X94393447Y-147122066D01*
X94371836Y-147110515D01*
X94348387Y-147103402D01*
X94324001Y-147101000D01*
X94049000Y-147101000D01*
X94049000Y-145799000D01*
X95551000Y-145799000D01*
X95551000Y-147074001D01*
G37*
G36*
X86351000Y-147101000D02*
G01*
X84049000Y-147101000D01*
X84049000Y-145799000D01*
X86351000Y-145799000D01*
X86351000Y-147101000D01*
G37*
G36*
X117111000Y-145831000D02*
G01*
X113509000Y-145831000D01*
X113509000Y-144029000D01*
X117111000Y-144029000D01*
X117111000Y-145831000D01*
G37*
G36*
X136691000Y-145831000D02*
G01*
X133089000Y-145831000D01*
X133089000Y-144029000D01*
X136691000Y-144029000D01*
X136691000Y-145831000D01*
G37*
G36*
X136691000Y-143291000D02*
G01*
X133089000Y-143291000D01*
X133089000Y-141489000D01*
X136691000Y-141489000D01*
X136691000Y-143291000D01*
G37*
G36*
X117111000Y-143291000D02*
G01*
X113509000Y-143291000D01*
X113509000Y-141489000D01*
X117111000Y-141489000D01*
X117111000Y-143291000D01*
G37*
G36*
X136691000Y-140751000D02*
G01*
X133089000Y-140751000D01*
X133089000Y-138949000D01*
X136691000Y-138949000D01*
X136691000Y-140751000D01*
G37*
G36*
X117111000Y-140751000D02*
G01*
X113509000Y-140751000D01*
X113509000Y-138949000D01*
X117111000Y-138949000D01*
X117111000Y-140751000D01*
G37*
G36*
X107609928Y-138766764D02*
G01*
X107631009Y-138773160D01*
X107650445Y-138783548D01*
X107667476Y-138797524D01*
X107681452Y-138814555D01*
X107691840Y-138833991D01*
X107698236Y-138855072D01*
X107701000Y-138883140D01*
X107701000Y-139346860D01*
X107698236Y-139374928D01*
X107691840Y-139396009D01*
X107681452Y-139415445D01*
X107667476Y-139432476D01*
X107650445Y-139446452D01*
X107631009Y-139456840D01*
X107609928Y-139463236D01*
X107581860Y-139466000D01*
X105818140Y-139466000D01*
X105790072Y-139463236D01*
X105768991Y-139456840D01*
X105749555Y-139446452D01*
X105732524Y-139432476D01*
X105718548Y-139415445D01*
X105708160Y-139396009D01*
X105701764Y-139374928D01*
X105699000Y-139346860D01*
X105699000Y-138883140D01*
X105701764Y-138855072D01*
X105708160Y-138833991D01*
X105718548Y-138814555D01*
X105732524Y-138797524D01*
X105749555Y-138783548D01*
X105768991Y-138773160D01*
X105790072Y-138766764D01*
X105818140Y-138764000D01*
X107581860Y-138764000D01*
X107609928Y-138766764D01*
G37*
G36*
X98409928Y-138766764D02*
G01*
X98431009Y-138773160D01*
X98450445Y-138783548D01*
X98467476Y-138797524D01*
X98481452Y-138814555D01*
X98491840Y-138833991D01*
X98498236Y-138855072D01*
X98501000Y-138883140D01*
X98501000Y-139346860D01*
X98498236Y-139374928D01*
X98491840Y-139396009D01*
X98481452Y-139415445D01*
X98467476Y-139432476D01*
X98450445Y-139446452D01*
X98431009Y-139456840D01*
X98409928Y-139463236D01*
X98381860Y-139466000D01*
X96618140Y-139466000D01*
X96590072Y-139463236D01*
X96568991Y-139456840D01*
X96549555Y-139446452D01*
X96532524Y-139432476D01*
X96518548Y-139415445D01*
X96508160Y-139396009D01*
X96501764Y-139374928D01*
X96499000Y-139346860D01*
X96499000Y-138883140D01*
X96501764Y-138855072D01*
X96508160Y-138833991D01*
X96518548Y-138814555D01*
X96532524Y-138797524D01*
X96549555Y-138783548D01*
X96568991Y-138773160D01*
X96590072Y-138766764D01*
X96618140Y-138764000D01*
X98381860Y-138764000D01*
X98409928Y-138766764D01*
G37*
G36*
X136691000Y-138211000D02*
G01*
X133089000Y-138211000D01*
X133089000Y-136409000D01*
X136691000Y-136409000D01*
X136691000Y-138211000D01*
G37*
G36*
X117111000Y-138211000D02*
G01*
X113509000Y-138211000D01*
X113509000Y-136409000D01*
X117111000Y-136409000D01*
X117111000Y-138211000D01*
G37*
G36*
X98409928Y-137496764D02*
G01*
X98431009Y-137503160D01*
X98450445Y-137513548D01*
X98467476Y-137527524D01*
X98481452Y-137544555D01*
X98491840Y-137563991D01*
X98498236Y-137585072D01*
X98501000Y-137613140D01*
X98501000Y-138076860D01*
X98498236Y-138104928D01*
X98491840Y-138126009D01*
X98481452Y-138145445D01*
X98467476Y-138162476D01*
X98450445Y-138176452D01*
X98431009Y-138186840D01*
X98409928Y-138193236D01*
X98381860Y-138196000D01*
X96618140Y-138196000D01*
X96590072Y-138193236D01*
X96568991Y-138186840D01*
X96549555Y-138176452D01*
X96532524Y-138162476D01*
X96518548Y-138145445D01*
X96508160Y-138126009D01*
X96501764Y-138104928D01*
X96499000Y-138076860D01*
X96499000Y-137613140D01*
X96501764Y-137585072D01*
X96508160Y-137563991D01*
X96518548Y-137544555D01*
X96532524Y-137527524D01*
X96549555Y-137513548D01*
X96568991Y-137503160D01*
X96590072Y-137496764D01*
X96618140Y-137494000D01*
X98381860Y-137494000D01*
X98409928Y-137496764D01*
G37*
G36*
X107609928Y-137496764D02*
G01*
X107631009Y-137503160D01*
X107650445Y-137513548D01*
X107667476Y-137527524D01*
X107681452Y-137544555D01*
X107691840Y-137563991D01*
X107698236Y-137585072D01*
X107701000Y-137613140D01*
X107701000Y-138076860D01*
X107698236Y-138104928D01*
X107691840Y-138126009D01*
X107681452Y-138145445D01*
X107667476Y-138162476D01*
X107650445Y-138176452D01*
X107631009Y-138186840D01*
X107609928Y-138193236D01*
X107581860Y-138196000D01*
X105818140Y-138196000D01*
X105790072Y-138193236D01*
X105768991Y-138186840D01*
X105749555Y-138176452D01*
X105732524Y-138162476D01*
X105718548Y-138145445D01*
X105708160Y-138126009D01*
X105701764Y-138104928D01*
X105699000Y-138076860D01*
X105699000Y-137613140D01*
X105701764Y-137585072D01*
X105708160Y-137563991D01*
X105718548Y-137544555D01*
X105732524Y-137527524D01*
X105749555Y-137513548D01*
X105768991Y-137503160D01*
X105790072Y-137496764D01*
X105818140Y-137494000D01*
X107581860Y-137494000D01*
X107609928Y-137496764D01*
G37*
G36*
X98409928Y-136226764D02*
G01*
X98431009Y-136233160D01*
X98450445Y-136243548D01*
X98467476Y-136257524D01*
X98481452Y-136274555D01*
X98491840Y-136293991D01*
X98498236Y-136315072D01*
X98501000Y-136343140D01*
X98501000Y-136806860D01*
X98498236Y-136834928D01*
X98491840Y-136856009D01*
X98481452Y-136875445D01*
X98467476Y-136892476D01*
X98450445Y-136906452D01*
X98431009Y-136916840D01*
X98409928Y-136923236D01*
X98381860Y-136926000D01*
X96618140Y-136926000D01*
X96590072Y-136923236D01*
X96568991Y-136916840D01*
X96549555Y-136906452D01*
X96532524Y-136892476D01*
X96518548Y-136875445D01*
X96508160Y-136856009D01*
X96501764Y-136834928D01*
X96499000Y-136806860D01*
X96499000Y-136343140D01*
X96501764Y-136315072D01*
X96508160Y-136293991D01*
X96518548Y-136274555D01*
X96532524Y-136257524D01*
X96549555Y-136243548D01*
X96568991Y-136233160D01*
X96590072Y-136226764D01*
X96618140Y-136224000D01*
X98381860Y-136224000D01*
X98409928Y-136226764D01*
G37*
G36*
X107609928Y-136226764D02*
G01*
X107631009Y-136233160D01*
X107650445Y-136243548D01*
X107667476Y-136257524D01*
X107681452Y-136274555D01*
X107691840Y-136293991D01*
X107698236Y-136315072D01*
X107701000Y-136343140D01*
X107701000Y-136806860D01*
X107698236Y-136834928D01*
X107691840Y-136856009D01*
X107681452Y-136875445D01*
X107667476Y-136892476D01*
X107650445Y-136906452D01*
X107631009Y-136916840D01*
X107609928Y-136923236D01*
X107581860Y-136926000D01*
X105818140Y-136926000D01*
X105790072Y-136923236D01*
X105768991Y-136916840D01*
X105749555Y-136906452D01*
X105732524Y-136892476D01*
X105718548Y-136875445D01*
X105708160Y-136856009D01*
X105701764Y-136834928D01*
X105699000Y-136806860D01*
X105699000Y-136343140D01*
X105701764Y-136315072D01*
X105708160Y-136293991D01*
X105718548Y-136274555D01*
X105732524Y-136257524D01*
X105749555Y-136243548D01*
X105768991Y-136233160D01*
X105790072Y-136226764D01*
X105818140Y-136224000D01*
X107581860Y-136224000D01*
X107609928Y-136226764D01*
G37*
G36*
X136691000Y-135671000D02*
G01*
X133089000Y-135671000D01*
X133089000Y-133869000D01*
X136691000Y-133869000D01*
X136691000Y-135671000D01*
G37*
G36*
X117111000Y-135671000D02*
G01*
X113509000Y-135671000D01*
X113509000Y-133869000D01*
X117111000Y-133869000D01*
X117111000Y-135671000D01*
G37*
G36*
X98409928Y-134956764D02*
G01*
X98431009Y-134963160D01*
X98450445Y-134973548D01*
X98467476Y-134987524D01*
X98481452Y-135004555D01*
X98491840Y-135023991D01*
X98498236Y-135045072D01*
X98501000Y-135073140D01*
X98501000Y-135536860D01*
X98498236Y-135564928D01*
X98491840Y-135586009D01*
X98481452Y-135605445D01*
X98467476Y-135622476D01*
X98450445Y-135636452D01*
X98431009Y-135646840D01*
X98409928Y-135653236D01*
X98381860Y-135656000D01*
X96618140Y-135656000D01*
X96590072Y-135653236D01*
X96568991Y-135646840D01*
X96549555Y-135636452D01*
X96532524Y-135622476D01*
X96518548Y-135605445D01*
X96508160Y-135586009D01*
X96501764Y-135564928D01*
X96499000Y-135536860D01*
X96499000Y-135073140D01*
X96501764Y-135045072D01*
X96508160Y-135023991D01*
X96518548Y-135004555D01*
X96532524Y-134987524D01*
X96549555Y-134973548D01*
X96568991Y-134963160D01*
X96590072Y-134956764D01*
X96618140Y-134954000D01*
X98381860Y-134954000D01*
X98409928Y-134956764D01*
G37*
G36*
X107609928Y-134956764D02*
G01*
X107631009Y-134963160D01*
X107650445Y-134973548D01*
X107667476Y-134987524D01*
X107681452Y-135004555D01*
X107691840Y-135023991D01*
X107698236Y-135045072D01*
X107701000Y-135073140D01*
X107701000Y-135536860D01*
X107698236Y-135564928D01*
X107691840Y-135586009D01*
X107681452Y-135605445D01*
X107667476Y-135622476D01*
X107650445Y-135636452D01*
X107631009Y-135646840D01*
X107609928Y-135653236D01*
X107581860Y-135656000D01*
X105818140Y-135656000D01*
X105790072Y-135653236D01*
X105768991Y-135646840D01*
X105749555Y-135636452D01*
X105732524Y-135622476D01*
X105718548Y-135605445D01*
X105708160Y-135586009D01*
X105701764Y-135564928D01*
X105699000Y-135536860D01*
X105699000Y-135073140D01*
X105701764Y-135045072D01*
X105708160Y-135023991D01*
X105718548Y-135004555D01*
X105732524Y-134987524D01*
X105749555Y-134973548D01*
X105768991Y-134963160D01*
X105790072Y-134956764D01*
X105818140Y-134954000D01*
X107581860Y-134954000D01*
X107609928Y-134956764D01*
G37*
G36*
X107609928Y-133686764D02*
G01*
X107631009Y-133693160D01*
X107650445Y-133703548D01*
X107667476Y-133717524D01*
X107681452Y-133734555D01*
X107691840Y-133753991D01*
X107698236Y-133775072D01*
X107701000Y-133803140D01*
X107701000Y-134266860D01*
X107698236Y-134294928D01*
X107691840Y-134316009D01*
X107681452Y-134335445D01*
X107667476Y-134352476D01*
X107650445Y-134366452D01*
X107631009Y-134376840D01*
X107609928Y-134383236D01*
X107581860Y-134386000D01*
X105818140Y-134386000D01*
X105790072Y-134383236D01*
X105768991Y-134376840D01*
X105749555Y-134366452D01*
X105732524Y-134352476D01*
X105718548Y-134335445D01*
X105708160Y-134316009D01*
X105701764Y-134294928D01*
X105699000Y-134266860D01*
X105699000Y-133803140D01*
X105701764Y-133775072D01*
X105708160Y-133753991D01*
X105718548Y-133734555D01*
X105732524Y-133717524D01*
X105749555Y-133703548D01*
X105768991Y-133693160D01*
X105790072Y-133686764D01*
X105818140Y-133684000D01*
X107581860Y-133684000D01*
X107609928Y-133686764D01*
G37*
G36*
X98409928Y-133686764D02*
G01*
X98431009Y-133693160D01*
X98450445Y-133703548D01*
X98467476Y-133717524D01*
X98481452Y-133734555D01*
X98491840Y-133753991D01*
X98498236Y-133775072D01*
X98501000Y-133803140D01*
X98501000Y-134266860D01*
X98498236Y-134294928D01*
X98491840Y-134316009D01*
X98481452Y-134335445D01*
X98467476Y-134352476D01*
X98450445Y-134366452D01*
X98431009Y-134376840D01*
X98409928Y-134383236D01*
X98381860Y-134386000D01*
X96618140Y-134386000D01*
X96590072Y-134383236D01*
X96568991Y-134376840D01*
X96549555Y-134366452D01*
X96532524Y-134352476D01*
X96518548Y-134335445D01*
X96508160Y-134316009D01*
X96501764Y-134294928D01*
X96499000Y-134266860D01*
X96499000Y-133803140D01*
X96501764Y-133775072D01*
X96508160Y-133753991D01*
X96518548Y-133734555D01*
X96532524Y-133717524D01*
X96549555Y-133703548D01*
X96568991Y-133693160D01*
X96590072Y-133686764D01*
X96618140Y-133684000D01*
X98381860Y-133684000D01*
X98409928Y-133686764D01*
G37*
G36*
X87913512Y-132483927D02*
G01*
X88062812Y-132513624D01*
X88226784Y-132581544D01*
X88374354Y-132680147D01*
X88499853Y-132805646D01*
X88598456Y-132953216D01*
X88666376Y-133117188D01*
X88701000Y-133291259D01*
X88701000Y-133468741D01*
X88666376Y-133642812D01*
X88598456Y-133806784D01*
X88499853Y-133954354D01*
X88374354Y-134079853D01*
X88226784Y-134178456D01*
X88062812Y-134246376D01*
X87913512Y-134276073D01*
X87888742Y-134281000D01*
X87711258Y-134281000D01*
X87686488Y-134276073D01*
X87537188Y-134246376D01*
X87373216Y-134178456D01*
X87225646Y-134079853D01*
X87100147Y-133954354D01*
X87001544Y-133806784D01*
X86933624Y-133642812D01*
X86899000Y-133468741D01*
X86899000Y-133291259D01*
X86933624Y-133117188D01*
X87001544Y-132953216D01*
X87100147Y-132805646D01*
X87225646Y-132680147D01*
X87373216Y-132581544D01*
X87537188Y-132513624D01*
X87686488Y-132483927D01*
X87711258Y-132479000D01*
X87888742Y-132479000D01*
X87913512Y-132483927D01*
G37*
G36*
X85373512Y-132483927D02*
G01*
X85522812Y-132513624D01*
X85686784Y-132581544D01*
X85834354Y-132680147D01*
X85959853Y-132805646D01*
X86058456Y-132953216D01*
X86126376Y-133117188D01*
X86161000Y-133291259D01*
X86161000Y-133468741D01*
X86126376Y-133642812D01*
X86058456Y-133806784D01*
X85959853Y-133954354D01*
X85834354Y-134079853D01*
X85686784Y-134178456D01*
X85522812Y-134246376D01*
X85373512Y-134276073D01*
X85348742Y-134281000D01*
X85171258Y-134281000D01*
X85146488Y-134276073D01*
X84997188Y-134246376D01*
X84833216Y-134178456D01*
X84685646Y-134079853D01*
X84560147Y-133954354D01*
X84461544Y-133806784D01*
X84393624Y-133642812D01*
X84359000Y-133468741D01*
X84359000Y-133291259D01*
X84393624Y-133117188D01*
X84461544Y-132953216D01*
X84560147Y-132805646D01*
X84685646Y-132680147D01*
X84833216Y-132581544D01*
X84997188Y-132513624D01*
X85146488Y-132483927D01*
X85171258Y-132479000D01*
X85348742Y-132479000D01*
X85373512Y-132483927D01*
G37*
G36*
X117111000Y-133131000D02*
G01*
X113509000Y-133131000D01*
X113509000Y-131329000D01*
X117111000Y-131329000D01*
X117111000Y-133131000D01*
G37*
G36*
X136691000Y-133131000D02*
G01*
X133089000Y-133131000D01*
X133089000Y-131329000D01*
X136691000Y-131329000D01*
X136691000Y-133131000D01*
G37*
G36*
X107609928Y-132416764D02*
G01*
X107631009Y-132423160D01*
X107650445Y-132433548D01*
X107667476Y-132447524D01*
X107681452Y-132464555D01*
X107691840Y-132483991D01*
X107698236Y-132505072D01*
X107701000Y-132533140D01*
X107701000Y-132996860D01*
X107698236Y-133024928D01*
X107691840Y-133046009D01*
X107681452Y-133065445D01*
X107667476Y-133082476D01*
X107650445Y-133096452D01*
X107631009Y-133106840D01*
X107609928Y-133113236D01*
X107581860Y-133116000D01*
X105818140Y-133116000D01*
X105790072Y-133113236D01*
X105768991Y-133106840D01*
X105749555Y-133096452D01*
X105732524Y-133082476D01*
X105718548Y-133065445D01*
X105708160Y-133046009D01*
X105701764Y-133024928D01*
X105699000Y-132996860D01*
X105699000Y-132533140D01*
X105701764Y-132505072D01*
X105708160Y-132483991D01*
X105718548Y-132464555D01*
X105732524Y-132447524D01*
X105749555Y-132433548D01*
X105768991Y-132423160D01*
X105790072Y-132416764D01*
X105818140Y-132414000D01*
X107581860Y-132414000D01*
X107609928Y-132416764D01*
G37*
G36*
X98409928Y-132416764D02*
G01*
X98431009Y-132423160D01*
X98450445Y-132433548D01*
X98467476Y-132447524D01*
X98481452Y-132464555D01*
X98491840Y-132483991D01*
X98498236Y-132505072D01*
X98501000Y-132533140D01*
X98501000Y-132996860D01*
X98498236Y-133024928D01*
X98491840Y-133046009D01*
X98481452Y-133065445D01*
X98467476Y-133082476D01*
X98450445Y-133096452D01*
X98431009Y-133106840D01*
X98409928Y-133113236D01*
X98381860Y-133116000D01*
X96618140Y-133116000D01*
X96590072Y-133113236D01*
X96568991Y-133106840D01*
X96549555Y-133096452D01*
X96532524Y-133082476D01*
X96518548Y-133065445D01*
X96508160Y-133046009D01*
X96501764Y-133024928D01*
X96499000Y-132996860D01*
X96499000Y-132533140D01*
X96501764Y-132505072D01*
X96508160Y-132483991D01*
X96518548Y-132464555D01*
X96532524Y-132447524D01*
X96549555Y-132433548D01*
X96568991Y-132423160D01*
X96590072Y-132416764D01*
X96618140Y-132414000D01*
X98381860Y-132414000D01*
X98409928Y-132416764D01*
G37*
G36*
X155193662Y-130853644D02*
G01*
X155233108Y-130865610D01*
X155269453Y-130885037D01*
X155301315Y-130911185D01*
X155327463Y-130943047D01*
X155346890Y-130979392D01*
X155358856Y-131018838D01*
X155363500Y-131065993D01*
X155363500Y-132134007D01*
X155358856Y-132181162D01*
X155346890Y-132220608D01*
X155327463Y-132256953D01*
X155301315Y-132288815D01*
X155269453Y-132314963D01*
X155233108Y-132334390D01*
X155193662Y-132346356D01*
X155146507Y-132351000D01*
X154453493Y-132351000D01*
X154406338Y-132346356D01*
X154366892Y-132334390D01*
X154330547Y-132314963D01*
X154298685Y-132288815D01*
X154272537Y-132256953D01*
X154253110Y-132220608D01*
X154241144Y-132181162D01*
X154236500Y-132134007D01*
X154236500Y-131065993D01*
X154241144Y-131018838D01*
X154253110Y-130979392D01*
X154272537Y-130943047D01*
X154298685Y-130911185D01*
X154330547Y-130885037D01*
X154366892Y-130865610D01*
X154406338Y-130853644D01*
X154453493Y-130849000D01*
X155146507Y-130849000D01*
X155193662Y-130853644D01*
G37*
G36*
X153368662Y-130853644D02*
G01*
X153408108Y-130865610D01*
X153444453Y-130885037D01*
X153476315Y-130911185D01*
X153502463Y-130943047D01*
X153521890Y-130979392D01*
X153533856Y-131018838D01*
X153538500Y-131065993D01*
X153538500Y-132134007D01*
X153533856Y-132181162D01*
X153521890Y-132220608D01*
X153502463Y-132256953D01*
X153476315Y-132288815D01*
X153444453Y-132314963D01*
X153408108Y-132334390D01*
X153368662Y-132346356D01*
X153321507Y-132351000D01*
X152628493Y-132351000D01*
X152581338Y-132346356D01*
X152541892Y-132334390D01*
X152505547Y-132314963D01*
X152473685Y-132288815D01*
X152447537Y-132256953D01*
X152428110Y-132220608D01*
X152416144Y-132181162D01*
X152411500Y-132134007D01*
X152411500Y-131065993D01*
X152416144Y-131018838D01*
X152428110Y-130979392D01*
X152447537Y-130943047D01*
X152473685Y-130911185D01*
X152505547Y-130885037D01*
X152541892Y-130865610D01*
X152581338Y-130853644D01*
X152628493Y-130849000D01*
X153321507Y-130849000D01*
X153368662Y-130853644D01*
G37*
G36*
X107609928Y-131146764D02*
G01*
X107631009Y-131153160D01*
X107650445Y-131163548D01*
X107667476Y-131177524D01*
X107681452Y-131194555D01*
X107691840Y-131213991D01*
X107698236Y-131235072D01*
X107701000Y-131263140D01*
X107701000Y-131726860D01*
X107698236Y-131754928D01*
X107691840Y-131776009D01*
X107681452Y-131795445D01*
X107667476Y-131812476D01*
X107650445Y-131826452D01*
X107631009Y-131836840D01*
X107609928Y-131843236D01*
X107581860Y-131846000D01*
X105818140Y-131846000D01*
X105790072Y-131843236D01*
X105768991Y-131836840D01*
X105749555Y-131826452D01*
X105732524Y-131812476D01*
X105718548Y-131795445D01*
X105708160Y-131776009D01*
X105701764Y-131754928D01*
X105699000Y-131726860D01*
X105699000Y-131263140D01*
X105701764Y-131235072D01*
X105708160Y-131213991D01*
X105718548Y-131194555D01*
X105732524Y-131177524D01*
X105749555Y-131163548D01*
X105768991Y-131153160D01*
X105790072Y-131146764D01*
X105818140Y-131144000D01*
X107581860Y-131144000D01*
X107609928Y-131146764D01*
G37*
G36*
X98409928Y-131146764D02*
G01*
X98431009Y-131153160D01*
X98450445Y-131163548D01*
X98467476Y-131177524D01*
X98481452Y-131194555D01*
X98491840Y-131213991D01*
X98498236Y-131235072D01*
X98501000Y-131263140D01*
X98501000Y-131726860D01*
X98498236Y-131754928D01*
X98491840Y-131776009D01*
X98481452Y-131795445D01*
X98467476Y-131812476D01*
X98450445Y-131826452D01*
X98431009Y-131836840D01*
X98409928Y-131843236D01*
X98381860Y-131846000D01*
X96618140Y-131846000D01*
X96590072Y-131843236D01*
X96568991Y-131836840D01*
X96549555Y-131826452D01*
X96532524Y-131812476D01*
X96518548Y-131795445D01*
X96508160Y-131776009D01*
X96501764Y-131754928D01*
X96499000Y-131726860D01*
X96499000Y-131263140D01*
X96501764Y-131235072D01*
X96508160Y-131213991D01*
X96518548Y-131194555D01*
X96532524Y-131177524D01*
X96549555Y-131163548D01*
X96568991Y-131153160D01*
X96590072Y-131146764D01*
X96618140Y-131144000D01*
X98381860Y-131144000D01*
X98409928Y-131146764D01*
G37*
G36*
X87913512Y-129943927D02*
G01*
X88062812Y-129973624D01*
X88226784Y-130041544D01*
X88374354Y-130140147D01*
X88499853Y-130265646D01*
X88598456Y-130413216D01*
X88666376Y-130577188D01*
X88696073Y-130726488D01*
X88701000Y-130751258D01*
X88701000Y-130928742D01*
X88696073Y-130953512D01*
X88666376Y-131102812D01*
X88598456Y-131266784D01*
X88499853Y-131414354D01*
X88374354Y-131539853D01*
X88226784Y-131638456D01*
X88062812Y-131706376D01*
X87913512Y-131736073D01*
X87888742Y-131741000D01*
X87711258Y-131741000D01*
X87686488Y-131736073D01*
X87537188Y-131706376D01*
X87373216Y-131638456D01*
X87225646Y-131539853D01*
X87100147Y-131414354D01*
X87001544Y-131266784D01*
X86933624Y-131102812D01*
X86903927Y-130953512D01*
X86899000Y-130928742D01*
X86899000Y-130751258D01*
X86903927Y-130726488D01*
X86933624Y-130577188D01*
X87001544Y-130413216D01*
X87100147Y-130265646D01*
X87225646Y-130140147D01*
X87373216Y-130041544D01*
X87537188Y-129973624D01*
X87686488Y-129943927D01*
X87711258Y-129939000D01*
X87888742Y-129939000D01*
X87913512Y-129943927D01*
G37*
G36*
X85373512Y-129943927D02*
G01*
X85522812Y-129973624D01*
X85686784Y-130041544D01*
X85834354Y-130140147D01*
X85959853Y-130265646D01*
X86058456Y-130413216D01*
X86126376Y-130577188D01*
X86156073Y-130726488D01*
X86161000Y-130751258D01*
X86161000Y-130928742D01*
X86156073Y-130953512D01*
X86126376Y-131102812D01*
X86058456Y-131266784D01*
X85959853Y-131414354D01*
X85834354Y-131539853D01*
X85686784Y-131638456D01*
X85522812Y-131706376D01*
X85373512Y-131736073D01*
X85348742Y-131741000D01*
X85171258Y-131741000D01*
X85146488Y-131736073D01*
X84997188Y-131706376D01*
X84833216Y-131638456D01*
X84685646Y-131539853D01*
X84560147Y-131414354D01*
X84461544Y-131266784D01*
X84393624Y-131102812D01*
X84363927Y-130953512D01*
X84359000Y-130928742D01*
X84359000Y-130751258D01*
X84363927Y-130726488D01*
X84393624Y-130577188D01*
X84461544Y-130413216D01*
X84560147Y-130265646D01*
X84685646Y-130140147D01*
X84833216Y-130041544D01*
X84997188Y-129973624D01*
X85146488Y-129943927D01*
X85171258Y-129939000D01*
X85348742Y-129939000D01*
X85373512Y-129943927D01*
G37*
G36*
X136691000Y-130591000D02*
G01*
X133089000Y-130591000D01*
X133089000Y-128789000D01*
X136691000Y-128789000D01*
X136691000Y-130591000D01*
G37*
G36*
X117111000Y-130591000D02*
G01*
X113509000Y-130591000D01*
X113509000Y-128789000D01*
X117111000Y-128789000D01*
X117111000Y-130591000D01*
G37*
G36*
X107609928Y-129876764D02*
G01*
X107631009Y-129883160D01*
X107650445Y-129893548D01*
X107667476Y-129907524D01*
X107681452Y-129924555D01*
X107691840Y-129943991D01*
X107698236Y-129965072D01*
X107701000Y-129993140D01*
X107701000Y-130456860D01*
X107698236Y-130484928D01*
X107691840Y-130506009D01*
X107681452Y-130525445D01*
X107667476Y-130542476D01*
X107650445Y-130556452D01*
X107631009Y-130566840D01*
X107609928Y-130573236D01*
X107581860Y-130576000D01*
X105818140Y-130576000D01*
X105790072Y-130573236D01*
X105768991Y-130566840D01*
X105749555Y-130556452D01*
X105732524Y-130542476D01*
X105718548Y-130525445D01*
X105708160Y-130506009D01*
X105701764Y-130484928D01*
X105699000Y-130456860D01*
X105699000Y-129993140D01*
X105701764Y-129965072D01*
X105708160Y-129943991D01*
X105718548Y-129924555D01*
X105732524Y-129907524D01*
X105749555Y-129893548D01*
X105768991Y-129883160D01*
X105790072Y-129876764D01*
X105818140Y-129874000D01*
X107581860Y-129874000D01*
X107609928Y-129876764D01*
G37*
G36*
X98409928Y-129876764D02*
G01*
X98431009Y-129883160D01*
X98450445Y-129893548D01*
X98467476Y-129907524D01*
X98481452Y-129924555D01*
X98491840Y-129943991D01*
X98498236Y-129965072D01*
X98501000Y-129993140D01*
X98501000Y-130456860D01*
X98498236Y-130484928D01*
X98491840Y-130506009D01*
X98481452Y-130525445D01*
X98467476Y-130542476D01*
X98450445Y-130556452D01*
X98431009Y-130566840D01*
X98409928Y-130573236D01*
X98381860Y-130576000D01*
X96618140Y-130576000D01*
X96590072Y-130573236D01*
X96568991Y-130566840D01*
X96549555Y-130556452D01*
X96532524Y-130542476D01*
X96518548Y-130525445D01*
X96508160Y-130506009D01*
X96501764Y-130484928D01*
X96499000Y-130456860D01*
X96499000Y-129993140D01*
X96501764Y-129965072D01*
X96508160Y-129943991D01*
X96518548Y-129924555D01*
X96532524Y-129907524D01*
X96549555Y-129893548D01*
X96568991Y-129883160D01*
X96590072Y-129876764D01*
X96618140Y-129874000D01*
X98381860Y-129874000D01*
X98409928Y-129876764D01*
G37*
G36*
X98409928Y-128606764D02*
G01*
X98431009Y-128613160D01*
X98450445Y-128623548D01*
X98467476Y-128637524D01*
X98481452Y-128654555D01*
X98491840Y-128673991D01*
X98498236Y-128695072D01*
X98501000Y-128723140D01*
X98501000Y-129186860D01*
X98498236Y-129214928D01*
X98491840Y-129236009D01*
X98481452Y-129255445D01*
X98467476Y-129272476D01*
X98450445Y-129286452D01*
X98431009Y-129296840D01*
X98409928Y-129303236D01*
X98381860Y-129306000D01*
X96618140Y-129306000D01*
X96590072Y-129303236D01*
X96568991Y-129296840D01*
X96549555Y-129286452D01*
X96532524Y-129272476D01*
X96518548Y-129255445D01*
X96508160Y-129236009D01*
X96501764Y-129214928D01*
X96499000Y-129186860D01*
X96499000Y-128723140D01*
X96501764Y-128695072D01*
X96508160Y-128673991D01*
X96518548Y-128654555D01*
X96532524Y-128637524D01*
X96549555Y-128623548D01*
X96568991Y-128613160D01*
X96590072Y-128606764D01*
X96618140Y-128604000D01*
X98381860Y-128604000D01*
X98409928Y-128606764D01*
G37*
G36*
X107609928Y-128606764D02*
G01*
X107631009Y-128613160D01*
X107650445Y-128623548D01*
X107667476Y-128637524D01*
X107681452Y-128654555D01*
X107691840Y-128673991D01*
X107698236Y-128695072D01*
X107701000Y-128723140D01*
X107701000Y-129186860D01*
X107698236Y-129214928D01*
X107691840Y-129236009D01*
X107681452Y-129255445D01*
X107667476Y-129272476D01*
X107650445Y-129286452D01*
X107631009Y-129296840D01*
X107609928Y-129303236D01*
X107581860Y-129306000D01*
X105818140Y-129306000D01*
X105790072Y-129303236D01*
X105768991Y-129296840D01*
X105749555Y-129286452D01*
X105732524Y-129272476D01*
X105718548Y-129255445D01*
X105708160Y-129236009D01*
X105701764Y-129214928D01*
X105699000Y-129186860D01*
X105699000Y-128723140D01*
X105701764Y-128695072D01*
X105708160Y-128673991D01*
X105718548Y-128654555D01*
X105732524Y-128637524D01*
X105749555Y-128623548D01*
X105768991Y-128613160D01*
X105790072Y-128606764D01*
X105818140Y-128604000D01*
X107581860Y-128604000D01*
X107609928Y-128606764D01*
G37*
G36*
X87913512Y-127403927D02*
G01*
X88062812Y-127433624D01*
X88226784Y-127501544D01*
X88374354Y-127600147D01*
X88499853Y-127725646D01*
X88598456Y-127873216D01*
X88666376Y-128037188D01*
X88701000Y-128211259D01*
X88701000Y-128388741D01*
X88666376Y-128562812D01*
X88598456Y-128726784D01*
X88499853Y-128874354D01*
X88374354Y-128999853D01*
X88226784Y-129098456D01*
X88062812Y-129166376D01*
X87913512Y-129196073D01*
X87888742Y-129201000D01*
X87711258Y-129201000D01*
X87686488Y-129196073D01*
X87537188Y-129166376D01*
X87373216Y-129098456D01*
X87225646Y-128999853D01*
X87100147Y-128874354D01*
X87001544Y-128726784D01*
X86933624Y-128562812D01*
X86899000Y-128388741D01*
X86899000Y-128211259D01*
X86933624Y-128037188D01*
X87001544Y-127873216D01*
X87100147Y-127725646D01*
X87225646Y-127600147D01*
X87373216Y-127501544D01*
X87537188Y-127433624D01*
X87686488Y-127403927D01*
X87711258Y-127399000D01*
X87888742Y-127399000D01*
X87913512Y-127403927D01*
G37*
G36*
X85373512Y-127403927D02*
G01*
X85522812Y-127433624D01*
X85686784Y-127501544D01*
X85834354Y-127600147D01*
X85959853Y-127725646D01*
X86058456Y-127873216D01*
X86126376Y-128037188D01*
X86161000Y-128211259D01*
X86161000Y-128388741D01*
X86126376Y-128562812D01*
X86058456Y-128726784D01*
X85959853Y-128874354D01*
X85834354Y-128999853D01*
X85686784Y-129098456D01*
X85522812Y-129166376D01*
X85373512Y-129196073D01*
X85348742Y-129201000D01*
X85171258Y-129201000D01*
X85146488Y-129196073D01*
X84997188Y-129166376D01*
X84833216Y-129098456D01*
X84685646Y-128999853D01*
X84560147Y-128874354D01*
X84461544Y-128726784D01*
X84393624Y-128562812D01*
X84359000Y-128388741D01*
X84359000Y-128211259D01*
X84393624Y-128037188D01*
X84461544Y-127873216D01*
X84560147Y-127725646D01*
X84685646Y-127600147D01*
X84833216Y-127501544D01*
X84997188Y-127433624D01*
X85146488Y-127403927D01*
X85171258Y-127399000D01*
X85348742Y-127399000D01*
X85373512Y-127403927D01*
G37*
G36*
X151551000Y-128701000D02*
G01*
X150649000Y-128701000D01*
X150649000Y-127699000D01*
X151551000Y-127699000D01*
X151551000Y-128701000D01*
G37*
G36*
X182737918Y-126865610D02*
G01*
X182888812Y-126895624D01*
X183052784Y-126963544D01*
X183200354Y-127062147D01*
X183325853Y-127187646D01*
X183424456Y-127335216D01*
X183492376Y-127499188D01*
X183522073Y-127648488D01*
X183527000Y-127673258D01*
X183527000Y-127850742D01*
X183525059Y-127860500D01*
X183492376Y-128024812D01*
X183424456Y-128188784D01*
X183325853Y-128336354D01*
X183200354Y-128461853D01*
X183052784Y-128560456D01*
X182888812Y-128628376D01*
X182739512Y-128658073D01*
X182714742Y-128663000D01*
X182537258Y-128663000D01*
X182512488Y-128658073D01*
X182363188Y-128628376D01*
X182199216Y-128560456D01*
X182051646Y-128461853D01*
X181926147Y-128336354D01*
X181827544Y-128188784D01*
X181759624Y-128024812D01*
X181726941Y-127860500D01*
X181725000Y-127850742D01*
X181725000Y-127673258D01*
X181729927Y-127648488D01*
X181759624Y-127499188D01*
X181827544Y-127335216D01*
X181926147Y-127187646D01*
X182051646Y-127062147D01*
X182199216Y-126963544D01*
X182363188Y-126895624D01*
X182514082Y-126865610D01*
X182537258Y-126861000D01*
X182714742Y-126861000D01*
X182737918Y-126865610D01*
G37*
G36*
X185277918Y-126865610D02*
G01*
X185428812Y-126895624D01*
X185592784Y-126963544D01*
X185740354Y-127062147D01*
X185865853Y-127187646D01*
X185964456Y-127335216D01*
X186032376Y-127499188D01*
X186062073Y-127648488D01*
X186067000Y-127673258D01*
X186067000Y-127850742D01*
X186065059Y-127860500D01*
X186032376Y-128024812D01*
X185964456Y-128188784D01*
X185865853Y-128336354D01*
X185740354Y-128461853D01*
X185592784Y-128560456D01*
X185428812Y-128628376D01*
X185279512Y-128658073D01*
X185254742Y-128663000D01*
X185077258Y-128663000D01*
X185052488Y-128658073D01*
X184903188Y-128628376D01*
X184739216Y-128560456D01*
X184591646Y-128461853D01*
X184466147Y-128336354D01*
X184367544Y-128188784D01*
X184299624Y-128024812D01*
X184266941Y-127860500D01*
X184265000Y-127850742D01*
X184265000Y-127673258D01*
X184269927Y-127648488D01*
X184299624Y-127499188D01*
X184367544Y-127335216D01*
X184466147Y-127187646D01*
X184591646Y-127062147D01*
X184739216Y-126963544D01*
X184903188Y-126895624D01*
X185054082Y-126865610D01*
X185077258Y-126861000D01*
X185254742Y-126861000D01*
X185277918Y-126865610D01*
G37*
G36*
X187817918Y-126865610D02*
G01*
X187968812Y-126895624D01*
X188132784Y-126963544D01*
X188280354Y-127062147D01*
X188405853Y-127187646D01*
X188504456Y-127335216D01*
X188572376Y-127499188D01*
X188602073Y-127648488D01*
X188607000Y-127673258D01*
X188607000Y-127850742D01*
X188605059Y-127860500D01*
X188572376Y-128024812D01*
X188504456Y-128188784D01*
X188405853Y-128336354D01*
X188280354Y-128461853D01*
X188132784Y-128560456D01*
X187968812Y-128628376D01*
X187819512Y-128658073D01*
X187794742Y-128663000D01*
X187617258Y-128663000D01*
X187592488Y-128658073D01*
X187443188Y-128628376D01*
X187279216Y-128560456D01*
X187131646Y-128461853D01*
X187006147Y-128336354D01*
X186907544Y-128188784D01*
X186839624Y-128024812D01*
X186806941Y-127860500D01*
X186805000Y-127850742D01*
X186805000Y-127673258D01*
X186809927Y-127648488D01*
X186839624Y-127499188D01*
X186907544Y-127335216D01*
X187006147Y-127187646D01*
X187131646Y-127062147D01*
X187279216Y-126963544D01*
X187443188Y-126895624D01*
X187594082Y-126865610D01*
X187617258Y-126861000D01*
X187794742Y-126861000D01*
X187817918Y-126865610D01*
G37*
G36*
X191147000Y-128663000D02*
G01*
X189345000Y-128663000D01*
X189345000Y-126861000D01*
X191147000Y-126861000D01*
X191147000Y-128663000D01*
G37*
G36*
X136691000Y-128051000D02*
G01*
X133089000Y-128051000D01*
X133089000Y-126249000D01*
X136691000Y-126249000D01*
X136691000Y-128051000D01*
G37*
G36*
X117111000Y-128051000D02*
G01*
X113509000Y-128051000D01*
X113509000Y-126249000D01*
X117111000Y-126249000D01*
X117111000Y-128051000D01*
G37*
G36*
X107609928Y-127336764D02*
G01*
X107631009Y-127343160D01*
X107650445Y-127353548D01*
X107667476Y-127367524D01*
X107681452Y-127384555D01*
X107691840Y-127403991D01*
X107698236Y-127425072D01*
X107701000Y-127453140D01*
X107701000Y-127916860D01*
X107698236Y-127944928D01*
X107691840Y-127966009D01*
X107681452Y-127985445D01*
X107667476Y-128002476D01*
X107650445Y-128016452D01*
X107631009Y-128026840D01*
X107609928Y-128033236D01*
X107581860Y-128036000D01*
X105818140Y-128036000D01*
X105790072Y-128033236D01*
X105768991Y-128026840D01*
X105749555Y-128016452D01*
X105732524Y-128002476D01*
X105718548Y-127985445D01*
X105708160Y-127966009D01*
X105701764Y-127944928D01*
X105699000Y-127916860D01*
X105699000Y-127453140D01*
X105701764Y-127425072D01*
X105708160Y-127403991D01*
X105718548Y-127384555D01*
X105732524Y-127367524D01*
X105749555Y-127353548D01*
X105768991Y-127343160D01*
X105790072Y-127336764D01*
X105818140Y-127334000D01*
X107581860Y-127334000D01*
X107609928Y-127336764D01*
G37*
G36*
X98409928Y-127336764D02*
G01*
X98431009Y-127343160D01*
X98450445Y-127353548D01*
X98467476Y-127367524D01*
X98481452Y-127384555D01*
X98491840Y-127403991D01*
X98498236Y-127425072D01*
X98501000Y-127453140D01*
X98501000Y-127916860D01*
X98498236Y-127944928D01*
X98491840Y-127966009D01*
X98481452Y-127985445D01*
X98467476Y-128002476D01*
X98450445Y-128016452D01*
X98431009Y-128026840D01*
X98409928Y-128033236D01*
X98381860Y-128036000D01*
X96618140Y-128036000D01*
X96590072Y-128033236D01*
X96568991Y-128026840D01*
X96549555Y-128016452D01*
X96532524Y-128002476D01*
X96518548Y-127985445D01*
X96508160Y-127966009D01*
X96501764Y-127944928D01*
X96499000Y-127916860D01*
X96499000Y-127453140D01*
X96501764Y-127425072D01*
X96508160Y-127403991D01*
X96518548Y-127384555D01*
X96532524Y-127367524D01*
X96549555Y-127353548D01*
X96568991Y-127343160D01*
X96590072Y-127336764D01*
X96618140Y-127334000D01*
X98381860Y-127334000D01*
X98409928Y-127336764D01*
G37*
G36*
X165281162Y-126853644D02*
G01*
X165320608Y-126865610D01*
X165356953Y-126885037D01*
X165388815Y-126911185D01*
X165414963Y-126943047D01*
X165434390Y-126979392D01*
X165446356Y-127018838D01*
X165451000Y-127065993D01*
X165451000Y-127759007D01*
X165446356Y-127806162D01*
X165434390Y-127845608D01*
X165414963Y-127881953D01*
X165388815Y-127913815D01*
X165356953Y-127939963D01*
X165320608Y-127959390D01*
X165281162Y-127971356D01*
X165234007Y-127976000D01*
X164165993Y-127976000D01*
X164118838Y-127971356D01*
X164079392Y-127959390D01*
X164043047Y-127939963D01*
X164011185Y-127913815D01*
X163985037Y-127881953D01*
X163965610Y-127845608D01*
X163953644Y-127806162D01*
X163949000Y-127759007D01*
X163949000Y-127065993D01*
X163953644Y-127018838D01*
X163965610Y-126979392D01*
X163985037Y-126943047D01*
X164011185Y-126911185D01*
X164043047Y-126885037D01*
X164079392Y-126865610D01*
X164118838Y-126853644D01*
X164165993Y-126849000D01*
X165234007Y-126849000D01*
X165281162Y-126853644D01*
G37*
G36*
X162001000Y-127801000D02*
G01*
X160999000Y-127801000D01*
X160999000Y-126899000D01*
X162001000Y-126899000D01*
X162001000Y-127801000D01*
G37*
G36*
X157293662Y-125553644D02*
G01*
X157333108Y-125565610D01*
X157369453Y-125585037D01*
X157401315Y-125611185D01*
X157427463Y-125643047D01*
X157446890Y-125679392D01*
X157458856Y-125718838D01*
X157463500Y-125765993D01*
X157463500Y-126834007D01*
X157458856Y-126881162D01*
X157446890Y-126920608D01*
X157427463Y-126956953D01*
X157401315Y-126988815D01*
X157369453Y-127014963D01*
X157333108Y-127034390D01*
X157293662Y-127046356D01*
X157246507Y-127051000D01*
X156553493Y-127051000D01*
X156506338Y-127046356D01*
X156466892Y-127034390D01*
X156430547Y-127014963D01*
X156398685Y-126988815D01*
X156372537Y-126956953D01*
X156353110Y-126920608D01*
X156341144Y-126881162D01*
X156336500Y-126834007D01*
X156336500Y-125765993D01*
X156341144Y-125718838D01*
X156353110Y-125679392D01*
X156372537Y-125643047D01*
X156398685Y-125611185D01*
X156430547Y-125585037D01*
X156466892Y-125565610D01*
X156506338Y-125553644D01*
X156553493Y-125549000D01*
X157246507Y-125549000D01*
X157293662Y-125553644D01*
G37*
G36*
X155468662Y-125553644D02*
G01*
X155508108Y-125565610D01*
X155544453Y-125585037D01*
X155576315Y-125611185D01*
X155602463Y-125643047D01*
X155621890Y-125679392D01*
X155633856Y-125718838D01*
X155638500Y-125765993D01*
X155638500Y-126834007D01*
X155633856Y-126881162D01*
X155621890Y-126920608D01*
X155602463Y-126956953D01*
X155576315Y-126988815D01*
X155544453Y-127014963D01*
X155508108Y-127034390D01*
X155468662Y-127046356D01*
X155421507Y-127051000D01*
X154728493Y-127051000D01*
X154681338Y-127046356D01*
X154641892Y-127034390D01*
X154605547Y-127014963D01*
X154573685Y-126988815D01*
X154547537Y-126956953D01*
X154528110Y-126920608D01*
X154516144Y-126881162D01*
X154511500Y-126834007D01*
X154511500Y-125765993D01*
X154516144Y-125718838D01*
X154528110Y-125679392D01*
X154547537Y-125643047D01*
X154573685Y-125611185D01*
X154605547Y-125585037D01*
X154641892Y-125565610D01*
X154681338Y-125553644D01*
X154728493Y-125549000D01*
X155421507Y-125549000D01*
X155468662Y-125553644D01*
G37*
G36*
X160001000Y-126851000D02*
G01*
X158999000Y-126851000D01*
X158999000Y-125949000D01*
X160001000Y-125949000D01*
X160001000Y-126851000D01*
G37*
G36*
X152501000Y-126701000D02*
G01*
X151599000Y-126701000D01*
X151599000Y-125699000D01*
X152501000Y-125699000D01*
X152501000Y-126701000D01*
G37*
G36*
X150601000Y-126701000D02*
G01*
X149699000Y-126701000D01*
X149699000Y-125699000D01*
X150601000Y-125699000D01*
X150601000Y-126701000D01*
G37*
G36*
X85373512Y-124863927D02*
G01*
X85522812Y-124893624D01*
X85686784Y-124961544D01*
X85834354Y-125060147D01*
X85959853Y-125185646D01*
X86058456Y-125333216D01*
X86126376Y-125497188D01*
X86161000Y-125671259D01*
X86161000Y-125848741D01*
X86126376Y-126022812D01*
X86058456Y-126186784D01*
X85959853Y-126334354D01*
X85834354Y-126459853D01*
X85686784Y-126558456D01*
X85522812Y-126626376D01*
X85373512Y-126656073D01*
X85348742Y-126661000D01*
X85171258Y-126661000D01*
X85146488Y-126656073D01*
X84997188Y-126626376D01*
X84833216Y-126558456D01*
X84685646Y-126459853D01*
X84560147Y-126334354D01*
X84461544Y-126186784D01*
X84393624Y-126022812D01*
X84359000Y-125848741D01*
X84359000Y-125671259D01*
X84393624Y-125497188D01*
X84461544Y-125333216D01*
X84560147Y-125185646D01*
X84685646Y-125060147D01*
X84833216Y-124961544D01*
X84997188Y-124893624D01*
X85146488Y-124863927D01*
X85171258Y-124859000D01*
X85348742Y-124859000D01*
X85373512Y-124863927D01*
G37*
G36*
X87913512Y-124863927D02*
G01*
X88062812Y-124893624D01*
X88226784Y-124961544D01*
X88374354Y-125060147D01*
X88499853Y-125185646D01*
X88598456Y-125333216D01*
X88666376Y-125497188D01*
X88701000Y-125671259D01*
X88701000Y-125848741D01*
X88666376Y-126022812D01*
X88598456Y-126186784D01*
X88499853Y-126334354D01*
X88374354Y-126459853D01*
X88226784Y-126558456D01*
X88062812Y-126626376D01*
X87913512Y-126656073D01*
X87888742Y-126661000D01*
X87711258Y-126661000D01*
X87686488Y-126656073D01*
X87537188Y-126626376D01*
X87373216Y-126558456D01*
X87225646Y-126459853D01*
X87100147Y-126334354D01*
X87001544Y-126186784D01*
X86933624Y-126022812D01*
X86899000Y-125848741D01*
X86899000Y-125671259D01*
X86933624Y-125497188D01*
X87001544Y-125333216D01*
X87100147Y-125185646D01*
X87225646Y-125060147D01*
X87373216Y-124961544D01*
X87537188Y-124893624D01*
X87686488Y-124863927D01*
X87711258Y-124859000D01*
X87888742Y-124859000D01*
X87913512Y-124863927D01*
G37*
G36*
X165281162Y-125028644D02*
G01*
X165320608Y-125040610D01*
X165356953Y-125060037D01*
X165388815Y-125086185D01*
X165414963Y-125118047D01*
X165434390Y-125154392D01*
X165446356Y-125193838D01*
X165451000Y-125240993D01*
X165451000Y-125934007D01*
X165446356Y-125981162D01*
X165434390Y-126020608D01*
X165414963Y-126056953D01*
X165388815Y-126088815D01*
X165356953Y-126114963D01*
X165320608Y-126134390D01*
X165281162Y-126146356D01*
X165234007Y-126151000D01*
X164165993Y-126151000D01*
X164118838Y-126146356D01*
X164079392Y-126134390D01*
X164043047Y-126114963D01*
X164011185Y-126088815D01*
X163985037Y-126056953D01*
X163965610Y-126020608D01*
X163953644Y-125981162D01*
X163949000Y-125934007D01*
X163949000Y-125240993D01*
X163953644Y-125193838D01*
X163965610Y-125154392D01*
X163985037Y-125118047D01*
X164011185Y-125086185D01*
X164043047Y-125060037D01*
X164079392Y-125040610D01*
X164118838Y-125028644D01*
X164165993Y-125024000D01*
X165234007Y-125024000D01*
X165281162Y-125028644D01*
G37*
G36*
X162001000Y-125901000D02*
G01*
X160999000Y-125901000D01*
X160999000Y-124999000D01*
X162001000Y-124999000D01*
X162001000Y-125901000D01*
G37*
G36*
X117111000Y-125511000D02*
G01*
X113509000Y-125511000D01*
X113509000Y-123709000D01*
X117111000Y-123709000D01*
X117111000Y-125511000D01*
G37*
G36*
X136691000Y-125511000D02*
G01*
X133089000Y-125511000D01*
X133089000Y-123709000D01*
X136691000Y-123709000D01*
X136691000Y-125511000D01*
G37*
G36*
X85373512Y-122323927D02*
G01*
X85522812Y-122353624D01*
X85686784Y-122421544D01*
X85834354Y-122520147D01*
X85959853Y-122645646D01*
X86058456Y-122793216D01*
X86126376Y-122957188D01*
X86156073Y-123106488D01*
X86161000Y-123131258D01*
X86161000Y-123308742D01*
X86157518Y-123326248D01*
X86126376Y-123482812D01*
X86058456Y-123646784D01*
X85959853Y-123794354D01*
X85834354Y-123919853D01*
X85686784Y-124018456D01*
X85522812Y-124086376D01*
X85373512Y-124116073D01*
X85348742Y-124121000D01*
X85171258Y-124121000D01*
X85146488Y-124116073D01*
X84997188Y-124086376D01*
X84833216Y-124018456D01*
X84685646Y-123919853D01*
X84560147Y-123794354D01*
X84461544Y-123646784D01*
X84393624Y-123482812D01*
X84362482Y-123326248D01*
X84359000Y-123308742D01*
X84359000Y-123131258D01*
X84363927Y-123106488D01*
X84393624Y-122957188D01*
X84461544Y-122793216D01*
X84560147Y-122645646D01*
X84685646Y-122520147D01*
X84833216Y-122421544D01*
X84997188Y-122353624D01*
X85146488Y-122323927D01*
X85171258Y-122319000D01*
X85348742Y-122319000D01*
X85373512Y-122323927D01*
G37*
G36*
X87913512Y-122323927D02*
G01*
X88062812Y-122353624D01*
X88226784Y-122421544D01*
X88374354Y-122520147D01*
X88499853Y-122645646D01*
X88598456Y-122793216D01*
X88666376Y-122957188D01*
X88696073Y-123106488D01*
X88701000Y-123131258D01*
X88701000Y-123308742D01*
X88697518Y-123326248D01*
X88666376Y-123482812D01*
X88598456Y-123646784D01*
X88499853Y-123794354D01*
X88374354Y-123919853D01*
X88226784Y-124018456D01*
X88062812Y-124086376D01*
X87913512Y-124116073D01*
X87888742Y-124121000D01*
X87711258Y-124121000D01*
X87686488Y-124116073D01*
X87537188Y-124086376D01*
X87373216Y-124018456D01*
X87225646Y-123919853D01*
X87100147Y-123794354D01*
X87001544Y-123646784D01*
X86933624Y-123482812D01*
X86902482Y-123326248D01*
X86899000Y-123308742D01*
X86899000Y-123131258D01*
X86903927Y-123106488D01*
X86933624Y-122957188D01*
X87001544Y-122793216D01*
X87100147Y-122645646D01*
X87225646Y-122520147D01*
X87373216Y-122421544D01*
X87537188Y-122353624D01*
X87686488Y-122323927D01*
X87711258Y-122319000D01*
X87888742Y-122319000D01*
X87913512Y-122323927D01*
G37*
G36*
X193513976Y-122831572D02*
G01*
X193533181Y-122837398D01*
X193550893Y-122846865D01*
X193566405Y-122859595D01*
X193579135Y-122875107D01*
X193588602Y-122892819D01*
X193594428Y-122912024D01*
X193597000Y-122938140D01*
X193597000Y-123441860D01*
X193594428Y-123467976D01*
X193588602Y-123487181D01*
X193579135Y-123504893D01*
X193566405Y-123520405D01*
X193550893Y-123533135D01*
X193533181Y-123542602D01*
X193513976Y-123548428D01*
X193487860Y-123551000D01*
X193044140Y-123551000D01*
X193018024Y-123548428D01*
X192998819Y-123542602D01*
X192981107Y-123533135D01*
X192965595Y-123520405D01*
X192952865Y-123504893D01*
X192943398Y-123487181D01*
X192937572Y-123467976D01*
X192935000Y-123441860D01*
X192935000Y-122938140D01*
X192937572Y-122912024D01*
X192943398Y-122892819D01*
X192952865Y-122875107D01*
X192965595Y-122859595D01*
X192981107Y-122846865D01*
X192998819Y-122837398D01*
X193018024Y-122831572D01*
X193044140Y-122829000D01*
X193487860Y-122829000D01*
X193513976Y-122831572D01*
G37*
G36*
X192553976Y-122831572D02*
G01*
X192573181Y-122837398D01*
X192590893Y-122846865D01*
X192606405Y-122859595D01*
X192619135Y-122875107D01*
X192628602Y-122892819D01*
X192634428Y-122912024D01*
X192637000Y-122938140D01*
X192637000Y-123441860D01*
X192634428Y-123467976D01*
X192628602Y-123487181D01*
X192619135Y-123504893D01*
X192606405Y-123520405D01*
X192590893Y-123533135D01*
X192573181Y-123542602D01*
X192553976Y-123548428D01*
X192527860Y-123551000D01*
X192084140Y-123551000D01*
X192058024Y-123548428D01*
X192038819Y-123542602D01*
X192021107Y-123533135D01*
X192005595Y-123520405D01*
X191992865Y-123504893D01*
X191983398Y-123487181D01*
X191977572Y-123467976D01*
X191975000Y-123441860D01*
X191975000Y-122938140D01*
X191977572Y-122912024D01*
X191983398Y-122892819D01*
X191992865Y-122875107D01*
X192005595Y-122859595D01*
X192021107Y-122846865D01*
X192038819Y-122837398D01*
X192058024Y-122831572D01*
X192084140Y-122829000D01*
X192527860Y-122829000D01*
X192553976Y-122831572D01*
G37*
G36*
X107309928Y-122666764D02*
G01*
X107331009Y-122673160D01*
X107350445Y-122683548D01*
X107367476Y-122697524D01*
X107381452Y-122714555D01*
X107391840Y-122733991D01*
X107398236Y-122755072D01*
X107401000Y-122783140D01*
X107401000Y-123246860D01*
X107398236Y-123274928D01*
X107391840Y-123296009D01*
X107381452Y-123315445D01*
X107367476Y-123332476D01*
X107350445Y-123346452D01*
X107331009Y-123356840D01*
X107309928Y-123363236D01*
X107281860Y-123366000D01*
X105518140Y-123366000D01*
X105490072Y-123363236D01*
X105468991Y-123356840D01*
X105449555Y-123346452D01*
X105432524Y-123332476D01*
X105418548Y-123315445D01*
X105408160Y-123296009D01*
X105401764Y-123274928D01*
X105399000Y-123246860D01*
X105399000Y-122783140D01*
X105401764Y-122755072D01*
X105408160Y-122733991D01*
X105418548Y-122714555D01*
X105432524Y-122697524D01*
X105449555Y-122683548D01*
X105468991Y-122673160D01*
X105490072Y-122666764D01*
X105518140Y-122664000D01*
X107281860Y-122664000D01*
X107309928Y-122666764D01*
G37*
G36*
X98109928Y-122666764D02*
G01*
X98131009Y-122673160D01*
X98150445Y-122683548D01*
X98167476Y-122697524D01*
X98181452Y-122714555D01*
X98191840Y-122733991D01*
X98198236Y-122755072D01*
X98201000Y-122783140D01*
X98201000Y-123246860D01*
X98198236Y-123274928D01*
X98191840Y-123296009D01*
X98181452Y-123315445D01*
X98167476Y-123332476D01*
X98150445Y-123346452D01*
X98131009Y-123356840D01*
X98109928Y-123363236D01*
X98081860Y-123366000D01*
X96318140Y-123366000D01*
X96290072Y-123363236D01*
X96268991Y-123356840D01*
X96249555Y-123346452D01*
X96232524Y-123332476D01*
X96218548Y-123315445D01*
X96208160Y-123296009D01*
X96201764Y-123274928D01*
X96199000Y-123246860D01*
X96199000Y-122783140D01*
X96201764Y-122755072D01*
X96208160Y-122733991D01*
X96218548Y-122714555D01*
X96232524Y-122697524D01*
X96249555Y-122683548D01*
X96268991Y-122673160D01*
X96290072Y-122666764D01*
X96318140Y-122664000D01*
X98081860Y-122664000D01*
X98109928Y-122666764D01*
G37*
G36*
X187360000Y-121724738D02*
G01*
X187369609Y-121727653D01*
X187378473Y-121732391D01*
X187386213Y-121738743D01*
X187386214Y-121738744D01*
X187386238Y-121738764D01*
X187392641Y-121746574D01*
X187392678Y-121746629D01*
X187400481Y-121756148D01*
X187400512Y-121756123D01*
X187411854Y-121769973D01*
X187430780Y-121785538D01*
X187452378Y-121797112D01*
X187475820Y-121804250D01*
X187500203Y-121806677D01*
X187524592Y-121804301D01*
X187548048Y-121797212D01*
X187569671Y-121785683D01*
X187588629Y-121770158D01*
X187604194Y-121751232D01*
X187606030Y-121748176D01*
X187607419Y-121746487D01*
X187607420Y-121746485D01*
X187613802Y-121738726D01*
X187621574Y-121732361D01*
X187621576Y-121732359D01*
X187630400Y-121727655D01*
X187630439Y-121727634D01*
X187640056Y-121724728D01*
X187640086Y-121724719D01*
X187656114Y-121723149D01*
X188793861Y-121723149D01*
X188810000Y-121724738D01*
X188819609Y-121727653D01*
X188828473Y-121732391D01*
X188836238Y-121738764D01*
X188842611Y-121746529D01*
X188847349Y-121755393D01*
X188850264Y-121765002D01*
X188851853Y-121781141D01*
X188851853Y-123268861D01*
X188850264Y-123285000D01*
X188847349Y-123294609D01*
X188842611Y-123303473D01*
X188836238Y-123311238D01*
X188828473Y-123317611D01*
X188819609Y-123322349D01*
X188810000Y-123325264D01*
X188793861Y-123326853D01*
X187656141Y-123326853D01*
X187640002Y-123325264D01*
X187630393Y-123322349D01*
X187621529Y-123317611D01*
X187613764Y-123311238D01*
X187603117Y-123298264D01*
X187596948Y-123289033D01*
X187579620Y-123271707D01*
X187559245Y-123258094D01*
X187536606Y-123248718D01*
X187512573Y-123243938D01*
X187488069Y-123243939D01*
X187464036Y-123248721D01*
X187441397Y-123258099D01*
X187421023Y-123271714D01*
X187403697Y-123289042D01*
X187396826Y-123298318D01*
X187392641Y-123303428D01*
X187386276Y-123311200D01*
X187378517Y-123317582D01*
X187369662Y-123322327D01*
X187366624Y-123323252D01*
X187360086Y-123325243D01*
X187360083Y-123325243D01*
X187360051Y-123325253D01*
X187350001Y-123326248D01*
X187349936Y-123326248D01*
X187343826Y-123326853D01*
X186356141Y-123326853D01*
X186340002Y-123325264D01*
X186330393Y-123322349D01*
X186321529Y-123317611D01*
X186313764Y-123311238D01*
X186307391Y-123303473D01*
X186302653Y-123294609D01*
X186299738Y-123285000D01*
X186298149Y-123268861D01*
X186298149Y-121781141D01*
X186299738Y-121765002D01*
X186302653Y-121755393D01*
X186307391Y-121746529D01*
X186313764Y-121738764D01*
X186321529Y-121732391D01*
X186330393Y-121727653D01*
X186340002Y-121724738D01*
X186356141Y-121723149D01*
X187343861Y-121723149D01*
X187360000Y-121724738D01*
G37*
G36*
X181110000Y-121724738D02*
G01*
X181119609Y-121727653D01*
X181128473Y-121732391D01*
X181136213Y-121738743D01*
X181136214Y-121738744D01*
X181136238Y-121738764D01*
X181142641Y-121746574D01*
X181142678Y-121746629D01*
X181150481Y-121756148D01*
X181150512Y-121756123D01*
X181161854Y-121769973D01*
X181180780Y-121785538D01*
X181202378Y-121797112D01*
X181225820Y-121804250D01*
X181250203Y-121806677D01*
X181274592Y-121804301D01*
X181298048Y-121797212D01*
X181319671Y-121785683D01*
X181338629Y-121770158D01*
X181354194Y-121751232D01*
X181356030Y-121748176D01*
X181357419Y-121746487D01*
X181357420Y-121746485D01*
X181363802Y-121738726D01*
X181371574Y-121732361D01*
X181371576Y-121732359D01*
X181380400Y-121727655D01*
X181380439Y-121727634D01*
X181390056Y-121724728D01*
X181390086Y-121724719D01*
X181406114Y-121723149D01*
X182543861Y-121723149D01*
X182560000Y-121724738D01*
X182569609Y-121727653D01*
X182578473Y-121732391D01*
X182586238Y-121738764D01*
X182592611Y-121746529D01*
X182597349Y-121755393D01*
X182600264Y-121765002D01*
X182601853Y-121781141D01*
X182601853Y-123268861D01*
X182600264Y-123285000D01*
X182597349Y-123294609D01*
X182592611Y-123303473D01*
X182586238Y-123311238D01*
X182578473Y-123317611D01*
X182569609Y-123322349D01*
X182560000Y-123325264D01*
X182543861Y-123326853D01*
X181406141Y-123326853D01*
X181390002Y-123325264D01*
X181380393Y-123322349D01*
X181371529Y-123317611D01*
X181363764Y-123311238D01*
X181353117Y-123298264D01*
X181346948Y-123289033D01*
X181329620Y-123271707D01*
X181309245Y-123258094D01*
X181286606Y-123248718D01*
X181262573Y-123243938D01*
X181238069Y-123243939D01*
X181214036Y-123248721D01*
X181191397Y-123258099D01*
X181171023Y-123271714D01*
X181153697Y-123289042D01*
X181146826Y-123298318D01*
X181142641Y-123303428D01*
X181136276Y-123311200D01*
X181128517Y-123317582D01*
X181119662Y-123322327D01*
X181116624Y-123323252D01*
X181110086Y-123325243D01*
X181110083Y-123325243D01*
X181110051Y-123325253D01*
X181100001Y-123326248D01*
X181099936Y-123326248D01*
X181093826Y-123326853D01*
X180106141Y-123326853D01*
X180090002Y-123325264D01*
X180080393Y-123322349D01*
X180071529Y-123317611D01*
X180063764Y-123311238D01*
X180057391Y-123303473D01*
X180052653Y-123294609D01*
X180049738Y-123285000D01*
X180048149Y-123268861D01*
X180048149Y-121781141D01*
X180049738Y-121765002D01*
X180052653Y-121755393D01*
X180057391Y-121746529D01*
X180063764Y-121738764D01*
X180071529Y-121732391D01*
X180080393Y-121727653D01*
X180090002Y-121724738D01*
X180106141Y-121723149D01*
X181093861Y-121723149D01*
X181110000Y-121724738D01*
G37*
G36*
X117111000Y-122971000D02*
G01*
X113509000Y-122971000D01*
X113509000Y-121169000D01*
X117111000Y-121169000D01*
X117111000Y-122971000D01*
G37*
G36*
X136691000Y-122971000D02*
G01*
X133089000Y-122971000D01*
X133089000Y-121169000D01*
X136691000Y-121169000D01*
X136691000Y-122971000D01*
G37*
G36*
X107309928Y-121396764D02*
G01*
X107331009Y-121403160D01*
X107350445Y-121413548D01*
X107367476Y-121427524D01*
X107381452Y-121444555D01*
X107391840Y-121463991D01*
X107398236Y-121485072D01*
X107401000Y-121513140D01*
X107401000Y-121976860D01*
X107398236Y-122004928D01*
X107391840Y-122026009D01*
X107381452Y-122045445D01*
X107367476Y-122062476D01*
X107350445Y-122076452D01*
X107331009Y-122086840D01*
X107309928Y-122093236D01*
X107281860Y-122096000D01*
X105518140Y-122096000D01*
X105490072Y-122093236D01*
X105468991Y-122086840D01*
X105449555Y-122076452D01*
X105432524Y-122062476D01*
X105418548Y-122045445D01*
X105408160Y-122026009D01*
X105401764Y-122004928D01*
X105399000Y-121976860D01*
X105399000Y-121513140D01*
X105401764Y-121485072D01*
X105408160Y-121463991D01*
X105418548Y-121444555D01*
X105432524Y-121427524D01*
X105449555Y-121413548D01*
X105468991Y-121403160D01*
X105490072Y-121396764D01*
X105518140Y-121394000D01*
X107281860Y-121394000D01*
X107309928Y-121396764D01*
G37*
G36*
X98109928Y-121396764D02*
G01*
X98131009Y-121403160D01*
X98150445Y-121413548D01*
X98167476Y-121427524D01*
X98181452Y-121444555D01*
X98191840Y-121463991D01*
X98198236Y-121485072D01*
X98201000Y-121513140D01*
X98201000Y-121976860D01*
X98198236Y-122004928D01*
X98191840Y-122026009D01*
X98181452Y-122045445D01*
X98167476Y-122062476D01*
X98150445Y-122076452D01*
X98131009Y-122086840D01*
X98109928Y-122093236D01*
X98081860Y-122096000D01*
X96318140Y-122096000D01*
X96290072Y-122093236D01*
X96268991Y-122086840D01*
X96249555Y-122076452D01*
X96232524Y-122062476D01*
X96218548Y-122045445D01*
X96208160Y-122026009D01*
X96201764Y-122004928D01*
X96199000Y-121976860D01*
X96199000Y-121513140D01*
X96201764Y-121485072D01*
X96208160Y-121463991D01*
X96218548Y-121444555D01*
X96232524Y-121427524D01*
X96249555Y-121413548D01*
X96268991Y-121403160D01*
X96290072Y-121396764D01*
X96318140Y-121394000D01*
X98081860Y-121394000D01*
X98109928Y-121396764D01*
G37*
G36*
X193513976Y-121307572D02*
G01*
X193533181Y-121313398D01*
X193550893Y-121322865D01*
X193566405Y-121335595D01*
X193579135Y-121351107D01*
X193588602Y-121368819D01*
X193594428Y-121388024D01*
X193597000Y-121414140D01*
X193597000Y-121917860D01*
X193594428Y-121943976D01*
X193588602Y-121963181D01*
X193579135Y-121980893D01*
X193566405Y-121996405D01*
X193550893Y-122009135D01*
X193533181Y-122018602D01*
X193513976Y-122024428D01*
X193487860Y-122027000D01*
X193044140Y-122027000D01*
X193018024Y-122024428D01*
X192998819Y-122018602D01*
X192981107Y-122009135D01*
X192965595Y-121996405D01*
X192952865Y-121980893D01*
X192943398Y-121963181D01*
X192937572Y-121943976D01*
X192935000Y-121917860D01*
X192935000Y-121414140D01*
X192937572Y-121388024D01*
X192943398Y-121368819D01*
X192952865Y-121351107D01*
X192965595Y-121335595D01*
X192981107Y-121322865D01*
X192998819Y-121313398D01*
X193018024Y-121307572D01*
X193044140Y-121305000D01*
X193487860Y-121305000D01*
X193513976Y-121307572D01*
G37*
G36*
X192553976Y-121307572D02*
G01*
X192573181Y-121313398D01*
X192590893Y-121322865D01*
X192606405Y-121335595D01*
X192619135Y-121351107D01*
X192628602Y-121368819D01*
X192634428Y-121388024D01*
X192637000Y-121414140D01*
X192637000Y-121917860D01*
X192634428Y-121943976D01*
X192628602Y-121963181D01*
X192619135Y-121980893D01*
X192606405Y-121996405D01*
X192590893Y-122009135D01*
X192573181Y-122018602D01*
X192553976Y-122024428D01*
X192527860Y-122027000D01*
X192084140Y-122027000D01*
X192058024Y-122024428D01*
X192038819Y-122018602D01*
X192021107Y-122009135D01*
X192005595Y-121996405D01*
X191992865Y-121980893D01*
X191983398Y-121963181D01*
X191977572Y-121943976D01*
X191975000Y-121917860D01*
X191975000Y-121414140D01*
X191977572Y-121388024D01*
X191983398Y-121368819D01*
X191992865Y-121351107D01*
X192005595Y-121335595D01*
X192021107Y-121322865D01*
X192038819Y-121313398D01*
X192058024Y-121307572D01*
X192084140Y-121305000D01*
X192527860Y-121305000D01*
X192553976Y-121307572D01*
G37*
G36*
X87913512Y-119783927D02*
G01*
X88062812Y-119813624D01*
X88226784Y-119881544D01*
X88374354Y-119980147D01*
X88499853Y-120105646D01*
X88598456Y-120253216D01*
X88666376Y-120417188D01*
X88701000Y-120591259D01*
X88701000Y-120768741D01*
X88666376Y-120942812D01*
X88598456Y-121106784D01*
X88499853Y-121254354D01*
X88374354Y-121379853D01*
X88226784Y-121478456D01*
X88062812Y-121546376D01*
X87913512Y-121576073D01*
X87888742Y-121581000D01*
X87711258Y-121581000D01*
X87686488Y-121576073D01*
X87537188Y-121546376D01*
X87373216Y-121478456D01*
X87225646Y-121379853D01*
X87100147Y-121254354D01*
X87001544Y-121106784D01*
X86933624Y-120942812D01*
X86899000Y-120768741D01*
X86899000Y-120591259D01*
X86933624Y-120417188D01*
X87001544Y-120253216D01*
X87100147Y-120105646D01*
X87225646Y-119980147D01*
X87373216Y-119881544D01*
X87537188Y-119813624D01*
X87686488Y-119783927D01*
X87711258Y-119779000D01*
X87888742Y-119779000D01*
X87913512Y-119783927D01*
G37*
G36*
X85373512Y-119783927D02*
G01*
X85522812Y-119813624D01*
X85686784Y-119881544D01*
X85834354Y-119980147D01*
X85959853Y-120105646D01*
X86058456Y-120253216D01*
X86126376Y-120417188D01*
X86161000Y-120591259D01*
X86161000Y-120768741D01*
X86126376Y-120942812D01*
X86058456Y-121106784D01*
X85959853Y-121254354D01*
X85834354Y-121379853D01*
X85686784Y-121478456D01*
X85522812Y-121546376D01*
X85373512Y-121576073D01*
X85348742Y-121581000D01*
X85171258Y-121581000D01*
X85146488Y-121576073D01*
X84997188Y-121546376D01*
X84833216Y-121478456D01*
X84685646Y-121379853D01*
X84560147Y-121254354D01*
X84461544Y-121106784D01*
X84393624Y-120942812D01*
X84359000Y-120768741D01*
X84359000Y-120591259D01*
X84393624Y-120417188D01*
X84461544Y-120253216D01*
X84560147Y-120105646D01*
X84685646Y-119980147D01*
X84833216Y-119881544D01*
X84997188Y-119813624D01*
X85146488Y-119783927D01*
X85171258Y-119779000D01*
X85348742Y-119779000D01*
X85373512Y-119783927D01*
G37*
G36*
X148029434Y-119928686D02*
G01*
X148069284Y-119940774D01*
X148105999Y-119960399D01*
X148138186Y-119986814D01*
X148164601Y-120019001D01*
X148184226Y-120055716D01*
X148196314Y-120095566D01*
X148201000Y-120143141D01*
X148201000Y-121256859D01*
X148196314Y-121304434D01*
X148184226Y-121344284D01*
X148164601Y-121380999D01*
X148138186Y-121413186D01*
X148105999Y-121439601D01*
X148069284Y-121459226D01*
X148029434Y-121471314D01*
X147981859Y-121476000D01*
X147318141Y-121476000D01*
X147270566Y-121471314D01*
X147230716Y-121459226D01*
X147194001Y-121439601D01*
X147161814Y-121413186D01*
X147135399Y-121380999D01*
X147115774Y-121344284D01*
X147103686Y-121304434D01*
X147099000Y-121256859D01*
X147099000Y-120143141D01*
X147103686Y-120095566D01*
X147115774Y-120055716D01*
X147135399Y-120019001D01*
X147161814Y-119986814D01*
X147194001Y-119960399D01*
X147230716Y-119940774D01*
X147270566Y-119928686D01*
X147318141Y-119924000D01*
X147981859Y-119924000D01*
X148029434Y-119928686D01*
G37*
G36*
X149929434Y-119928686D02*
G01*
X149969284Y-119940774D01*
X150005999Y-119960399D01*
X150038186Y-119986814D01*
X150064601Y-120019001D01*
X150084226Y-120055716D01*
X150096314Y-120095566D01*
X150101000Y-120143141D01*
X150101000Y-121256859D01*
X150096314Y-121304434D01*
X150084226Y-121344284D01*
X150064601Y-121380999D01*
X150038186Y-121413186D01*
X150005999Y-121439601D01*
X149969284Y-121459226D01*
X149929434Y-121471314D01*
X149881859Y-121476000D01*
X149218141Y-121476000D01*
X149170566Y-121471314D01*
X149130716Y-121459226D01*
X149094001Y-121439601D01*
X149061814Y-121413186D01*
X149035399Y-121380999D01*
X149015774Y-121344284D01*
X149003686Y-121304434D01*
X148999000Y-121256859D01*
X148999000Y-120143141D01*
X149003686Y-120095566D01*
X149015774Y-120055716D01*
X149035399Y-120019001D01*
X149061814Y-119986814D01*
X149094001Y-119960399D01*
X149130716Y-119940774D01*
X149170566Y-119928686D01*
X149218141Y-119924000D01*
X149881859Y-119924000D01*
X149929434Y-119928686D01*
G37*
G36*
X158106162Y-119553644D02*
G01*
X158145608Y-119565610D01*
X158181953Y-119585037D01*
X158213815Y-119611185D01*
X158239963Y-119643047D01*
X158259390Y-119679392D01*
X158271356Y-119718838D01*
X158276000Y-119765993D01*
X158276000Y-120834007D01*
X158271356Y-120881162D01*
X158259390Y-120920608D01*
X158239963Y-120956953D01*
X158213815Y-120988815D01*
X158181953Y-121014963D01*
X158145608Y-121034390D01*
X158106162Y-121046356D01*
X158059007Y-121051000D01*
X157365993Y-121051000D01*
X157318838Y-121046356D01*
X157279392Y-121034390D01*
X157243047Y-121014963D01*
X157211185Y-120988815D01*
X157185037Y-120956953D01*
X157165610Y-120920608D01*
X157153644Y-120881162D01*
X157149000Y-120834007D01*
X157149000Y-119765993D01*
X157153644Y-119718838D01*
X157165610Y-119679392D01*
X157185037Y-119643047D01*
X157211185Y-119611185D01*
X157243047Y-119585037D01*
X157279392Y-119565610D01*
X157318838Y-119553644D01*
X157365993Y-119549000D01*
X158059007Y-119549000D01*
X158106162Y-119553644D01*
G37*
G36*
X152481162Y-119553644D02*
G01*
X152520608Y-119565610D01*
X152556953Y-119585037D01*
X152588815Y-119611185D01*
X152614963Y-119643047D01*
X152634390Y-119679392D01*
X152646356Y-119718838D01*
X152651000Y-119765993D01*
X152651000Y-120834007D01*
X152646356Y-120881162D01*
X152634390Y-120920608D01*
X152614963Y-120956953D01*
X152588815Y-120988815D01*
X152556953Y-121014963D01*
X152520608Y-121034390D01*
X152481162Y-121046356D01*
X152434007Y-121051000D01*
X151740993Y-121051000D01*
X151693838Y-121046356D01*
X151654392Y-121034390D01*
X151618047Y-121014963D01*
X151586185Y-120988815D01*
X151560037Y-120956953D01*
X151540610Y-120920608D01*
X151528644Y-120881162D01*
X151524000Y-120834007D01*
X151524000Y-119765993D01*
X151528644Y-119718838D01*
X151540610Y-119679392D01*
X151560037Y-119643047D01*
X151586185Y-119611185D01*
X151618047Y-119585037D01*
X151654392Y-119565610D01*
X151693838Y-119553644D01*
X151740993Y-119549000D01*
X152434007Y-119549000D01*
X152481162Y-119553644D01*
G37*
G36*
X156281162Y-119553644D02*
G01*
X156320608Y-119565610D01*
X156356953Y-119585037D01*
X156388815Y-119611185D01*
X156414963Y-119643047D01*
X156434390Y-119679392D01*
X156446356Y-119718838D01*
X156451000Y-119765993D01*
X156451000Y-120834007D01*
X156446356Y-120881162D01*
X156434390Y-120920608D01*
X156414963Y-120956953D01*
X156388815Y-120988815D01*
X156356953Y-121014963D01*
X156320608Y-121034390D01*
X156281162Y-121046356D01*
X156234007Y-121051000D01*
X155540993Y-121051000D01*
X155493838Y-121046356D01*
X155454392Y-121034390D01*
X155418047Y-121014963D01*
X155386185Y-120988815D01*
X155360037Y-120956953D01*
X155340610Y-120920608D01*
X155328644Y-120881162D01*
X155324000Y-120834007D01*
X155324000Y-119765993D01*
X155328644Y-119718838D01*
X155340610Y-119679392D01*
X155360037Y-119643047D01*
X155386185Y-119611185D01*
X155418047Y-119585037D01*
X155454392Y-119565610D01*
X155493838Y-119553644D01*
X155540993Y-119549000D01*
X156234007Y-119549000D01*
X156281162Y-119553644D01*
G37*
G36*
X154306162Y-119553644D02*
G01*
X154345608Y-119565610D01*
X154381953Y-119585037D01*
X154413815Y-119611185D01*
X154439963Y-119643047D01*
X154459390Y-119679392D01*
X154471356Y-119718838D01*
X154476000Y-119765993D01*
X154476000Y-120834007D01*
X154471356Y-120881162D01*
X154459390Y-120920608D01*
X154439963Y-120956953D01*
X154413815Y-120988815D01*
X154381953Y-121014963D01*
X154345608Y-121034390D01*
X154306162Y-121046356D01*
X154259007Y-121051000D01*
X153565993Y-121051000D01*
X153518838Y-121046356D01*
X153479392Y-121034390D01*
X153443047Y-121014963D01*
X153411185Y-120988815D01*
X153385037Y-120956953D01*
X153365610Y-120920608D01*
X153353644Y-120881162D01*
X153349000Y-120834007D01*
X153349000Y-119765993D01*
X153353644Y-119718838D01*
X153365610Y-119679392D01*
X153385037Y-119643047D01*
X153411185Y-119611185D01*
X153443047Y-119585037D01*
X153479392Y-119565610D01*
X153518838Y-119553644D01*
X153565993Y-119549000D01*
X154259007Y-119549000D01*
X154306162Y-119553644D01*
G37*
G36*
X107309928Y-120126764D02*
G01*
X107331009Y-120133160D01*
X107350445Y-120143548D01*
X107367476Y-120157524D01*
X107381452Y-120174555D01*
X107391840Y-120193991D01*
X107398236Y-120215072D01*
X107401000Y-120243140D01*
X107401000Y-120706860D01*
X107398236Y-120734928D01*
X107391840Y-120756009D01*
X107381452Y-120775445D01*
X107367476Y-120792476D01*
X107350445Y-120806452D01*
X107331009Y-120816840D01*
X107309928Y-120823236D01*
X107281860Y-120826000D01*
X105518140Y-120826000D01*
X105490072Y-120823236D01*
X105468991Y-120816840D01*
X105449555Y-120806452D01*
X105432524Y-120792476D01*
X105418548Y-120775445D01*
X105408160Y-120756009D01*
X105401764Y-120734928D01*
X105399000Y-120706860D01*
X105399000Y-120243140D01*
X105401764Y-120215072D01*
X105408160Y-120193991D01*
X105418548Y-120174555D01*
X105432524Y-120157524D01*
X105449555Y-120143548D01*
X105468991Y-120133160D01*
X105490072Y-120126764D01*
X105518140Y-120124000D01*
X107281860Y-120124000D01*
X107309928Y-120126764D01*
G37*
G36*
X98109928Y-120126764D02*
G01*
X98131009Y-120133160D01*
X98150445Y-120143548D01*
X98167476Y-120157524D01*
X98181452Y-120174555D01*
X98191840Y-120193991D01*
X98198236Y-120215072D01*
X98201000Y-120243140D01*
X98201000Y-120706860D01*
X98198236Y-120734928D01*
X98191840Y-120756009D01*
X98181452Y-120775445D01*
X98167476Y-120792476D01*
X98150445Y-120806452D01*
X98131009Y-120816840D01*
X98109928Y-120823236D01*
X98081860Y-120826000D01*
X96318140Y-120826000D01*
X96290072Y-120823236D01*
X96268991Y-120816840D01*
X96249555Y-120806452D01*
X96232524Y-120792476D01*
X96218548Y-120775445D01*
X96208160Y-120756009D01*
X96201764Y-120734928D01*
X96199000Y-120706860D01*
X96199000Y-120243140D01*
X96201764Y-120215072D01*
X96208160Y-120193991D01*
X96218548Y-120174555D01*
X96232524Y-120157524D01*
X96249555Y-120143548D01*
X96268991Y-120133160D01*
X96290072Y-120126764D01*
X96318140Y-120124000D01*
X98081860Y-120124000D01*
X98109928Y-120126764D01*
G37*
G36*
X139851999Y-118833737D02*
G01*
X139861608Y-118836652D01*
X139870472Y-118841390D01*
X139878237Y-118847763D01*
X139888884Y-118860737D01*
X139895053Y-118869968D01*
X139912381Y-118887294D01*
X139932756Y-118900907D01*
X139955395Y-118910283D01*
X139979428Y-118915063D01*
X140003932Y-118915062D01*
X140027965Y-118910280D01*
X140050604Y-118900902D01*
X140070978Y-118887287D01*
X140088304Y-118869959D01*
X140095175Y-118860683D01*
X140105726Y-118847800D01*
X140107103Y-118846668D01*
X140113484Y-118841419D01*
X140122339Y-118836674D01*
X140125377Y-118835749D01*
X140131915Y-118833758D01*
X140131918Y-118833758D01*
X140131950Y-118833748D01*
X140142000Y-118832753D01*
X140142065Y-118832753D01*
X140148175Y-118832148D01*
X141135860Y-118832148D01*
X141151999Y-118833737D01*
X141161608Y-118836652D01*
X141170472Y-118841390D01*
X141178237Y-118847763D01*
X141184610Y-118855528D01*
X141189348Y-118864392D01*
X141192263Y-118874001D01*
X141193852Y-118890140D01*
X141193852Y-120377860D01*
X141192263Y-120393999D01*
X141189348Y-120403608D01*
X141184610Y-120412472D01*
X141178237Y-120420237D01*
X141170472Y-120426610D01*
X141161608Y-120431348D01*
X141151999Y-120434263D01*
X141135860Y-120435852D01*
X140148140Y-120435852D01*
X140132001Y-120434263D01*
X140122392Y-120431348D01*
X140113528Y-120426610D01*
X140105788Y-120420258D01*
X140105787Y-120420257D01*
X140105763Y-120420237D01*
X140099360Y-120412427D01*
X140099323Y-120412372D01*
X140091520Y-120402853D01*
X140091489Y-120402878D01*
X140080147Y-120389028D01*
X140061221Y-120373463D01*
X140039623Y-120361889D01*
X140016181Y-120354751D01*
X139991798Y-120352324D01*
X139967409Y-120354700D01*
X139943953Y-120361789D01*
X139922330Y-120373318D01*
X139903372Y-120388843D01*
X139887807Y-120407769D01*
X139885971Y-120410825D01*
X139884582Y-120412514D01*
X139884581Y-120412516D01*
X139880738Y-120417188D01*
X139878200Y-120420274D01*
X139870425Y-120426642D01*
X139864517Y-120429791D01*
X139861562Y-120431367D01*
X139851981Y-120434262D01*
X139851915Y-120434282D01*
X139835887Y-120435852D01*
X138698140Y-120435852D01*
X138682001Y-120434263D01*
X138672392Y-120431348D01*
X138663528Y-120426610D01*
X138655763Y-120420237D01*
X138649390Y-120412472D01*
X138644652Y-120403608D01*
X138641737Y-120393999D01*
X138640148Y-120377860D01*
X138640148Y-118890140D01*
X138641737Y-118874001D01*
X138644652Y-118864392D01*
X138649390Y-118855528D01*
X138655763Y-118847763D01*
X138663528Y-118841390D01*
X138672392Y-118836652D01*
X138682001Y-118833737D01*
X138698140Y-118832148D01*
X139835860Y-118832148D01*
X139851999Y-118833737D01*
G37*
G36*
X136691000Y-120431000D02*
G01*
X133089000Y-120431000D01*
X133089000Y-118629000D01*
X136691000Y-118629000D01*
X136691000Y-120431000D01*
G37*
G36*
X117111000Y-120431000D02*
G01*
X113509000Y-120431000D01*
X113509000Y-118629000D01*
X117111000Y-118629000D01*
X117111000Y-120431000D01*
G37*
G36*
X187360000Y-118174738D02*
G01*
X187369609Y-118177653D01*
X187378473Y-118182391D01*
X187386213Y-118188743D01*
X187386214Y-118188744D01*
X187386238Y-118188764D01*
X187392641Y-118196574D01*
X187392678Y-118196629D01*
X187400481Y-118206148D01*
X187400512Y-118206123D01*
X187411854Y-118219973D01*
X187430780Y-118235538D01*
X187452378Y-118247112D01*
X187475820Y-118254250D01*
X187500203Y-118256677D01*
X187524592Y-118254301D01*
X187548048Y-118247212D01*
X187569671Y-118235683D01*
X187588629Y-118220158D01*
X187604194Y-118201232D01*
X187606030Y-118198176D01*
X187607419Y-118196487D01*
X187607420Y-118196485D01*
X187613802Y-118188726D01*
X187621574Y-118182361D01*
X187621576Y-118182359D01*
X187627484Y-118179210D01*
X187630439Y-118177634D01*
X187640056Y-118174728D01*
X187640086Y-118174719D01*
X187656114Y-118173149D01*
X188793861Y-118173149D01*
X188810000Y-118174738D01*
X188819609Y-118177653D01*
X188828473Y-118182391D01*
X188836238Y-118188764D01*
X188842611Y-118196529D01*
X188847349Y-118205393D01*
X188850264Y-118215002D01*
X188851853Y-118231141D01*
X188851853Y-119718861D01*
X188850264Y-119735000D01*
X188847349Y-119744609D01*
X188842611Y-119753473D01*
X188836238Y-119761238D01*
X188828473Y-119767611D01*
X188819609Y-119772349D01*
X188810000Y-119775264D01*
X188793861Y-119776853D01*
X187656141Y-119776853D01*
X187640002Y-119775264D01*
X187630393Y-119772349D01*
X187621529Y-119767611D01*
X187613764Y-119761238D01*
X187603117Y-119748264D01*
X187596948Y-119739033D01*
X187579620Y-119721707D01*
X187559245Y-119708094D01*
X187536606Y-119698718D01*
X187512573Y-119693938D01*
X187488069Y-119693939D01*
X187464036Y-119698721D01*
X187441397Y-119708099D01*
X187421023Y-119721714D01*
X187403697Y-119739042D01*
X187396826Y-119748318D01*
X187392641Y-119753428D01*
X187386276Y-119761200D01*
X187378517Y-119767582D01*
X187369662Y-119772327D01*
X187366624Y-119773252D01*
X187360086Y-119775243D01*
X187360083Y-119775243D01*
X187360051Y-119775253D01*
X187350001Y-119776248D01*
X187349936Y-119776248D01*
X187343826Y-119776853D01*
X186356141Y-119776853D01*
X186340002Y-119775264D01*
X186330393Y-119772349D01*
X186321529Y-119767611D01*
X186313764Y-119761238D01*
X186307391Y-119753473D01*
X186302653Y-119744609D01*
X186299738Y-119735000D01*
X186298149Y-119718861D01*
X186298149Y-118231141D01*
X186299738Y-118215002D01*
X186302653Y-118205393D01*
X186307391Y-118196529D01*
X186313764Y-118188764D01*
X186321529Y-118182391D01*
X186330393Y-118177653D01*
X186340002Y-118174738D01*
X186356141Y-118173149D01*
X187343861Y-118173149D01*
X187360000Y-118174738D01*
G37*
G36*
X181110000Y-118174738D02*
G01*
X181119609Y-118177653D01*
X181128473Y-118182391D01*
X181136213Y-118188743D01*
X181136214Y-118188744D01*
X181136238Y-118188764D01*
X181142641Y-118196574D01*
X181142678Y-118196629D01*
X181150481Y-118206148D01*
X181150512Y-118206123D01*
X181161854Y-118219973D01*
X181180780Y-118235538D01*
X181202378Y-118247112D01*
X181225820Y-118254250D01*
X181250203Y-118256677D01*
X181274592Y-118254301D01*
X181298048Y-118247212D01*
X181319671Y-118235683D01*
X181338629Y-118220158D01*
X181354194Y-118201232D01*
X181356030Y-118198176D01*
X181357419Y-118196487D01*
X181357420Y-118196485D01*
X181363802Y-118188726D01*
X181371574Y-118182361D01*
X181371576Y-118182359D01*
X181377484Y-118179210D01*
X181380439Y-118177634D01*
X181390056Y-118174728D01*
X181390086Y-118174719D01*
X181406114Y-118173149D01*
X182543861Y-118173149D01*
X182560000Y-118174738D01*
X182569609Y-118177653D01*
X182578473Y-118182391D01*
X182586238Y-118188764D01*
X182592611Y-118196529D01*
X182597349Y-118205393D01*
X182600264Y-118215002D01*
X182601853Y-118231141D01*
X182601853Y-119718861D01*
X182600264Y-119735000D01*
X182597349Y-119744609D01*
X182592611Y-119753473D01*
X182586238Y-119761238D01*
X182578473Y-119767611D01*
X182569609Y-119772349D01*
X182560000Y-119775264D01*
X182543861Y-119776853D01*
X181406141Y-119776853D01*
X181390002Y-119775264D01*
X181380393Y-119772349D01*
X181371529Y-119767611D01*
X181363764Y-119761238D01*
X181353117Y-119748264D01*
X181346948Y-119739033D01*
X181329620Y-119721707D01*
X181309245Y-119708094D01*
X181286606Y-119698718D01*
X181262573Y-119693938D01*
X181238069Y-119693939D01*
X181214036Y-119698721D01*
X181191397Y-119708099D01*
X181171023Y-119721714D01*
X181153697Y-119739042D01*
X181146826Y-119748318D01*
X181142641Y-119753428D01*
X181136276Y-119761200D01*
X181128517Y-119767582D01*
X181119662Y-119772327D01*
X181116624Y-119773252D01*
X181110086Y-119775243D01*
X181110083Y-119775243D01*
X181110051Y-119775253D01*
X181100001Y-119776248D01*
X181099936Y-119776248D01*
X181093826Y-119776853D01*
X180106141Y-119776853D01*
X180090002Y-119775264D01*
X180080393Y-119772349D01*
X180071529Y-119767611D01*
X180063764Y-119761238D01*
X180057391Y-119753473D01*
X180052653Y-119744609D01*
X180049738Y-119735000D01*
X180048149Y-119718861D01*
X180048149Y-118231141D01*
X180049738Y-118215002D01*
X180052653Y-118205393D01*
X180057391Y-118196529D01*
X180063764Y-118188764D01*
X180071529Y-118182391D01*
X180080393Y-118177653D01*
X180090002Y-118174738D01*
X180106141Y-118173149D01*
X181093861Y-118173149D01*
X181110000Y-118174738D01*
G37*
G36*
X98109928Y-118856764D02*
G01*
X98131009Y-118863160D01*
X98150445Y-118873548D01*
X98167476Y-118887524D01*
X98181452Y-118904555D01*
X98191840Y-118923991D01*
X98198236Y-118945072D01*
X98201000Y-118973140D01*
X98201000Y-119436860D01*
X98198236Y-119464928D01*
X98191840Y-119486009D01*
X98181452Y-119505445D01*
X98167476Y-119522476D01*
X98150445Y-119536452D01*
X98131009Y-119546840D01*
X98109928Y-119553236D01*
X98081860Y-119556000D01*
X96318140Y-119556000D01*
X96290072Y-119553236D01*
X96268991Y-119546840D01*
X96249555Y-119536452D01*
X96232524Y-119522476D01*
X96218548Y-119505445D01*
X96208160Y-119486009D01*
X96201764Y-119464928D01*
X96199000Y-119436860D01*
X96199000Y-118973140D01*
X96201764Y-118945072D01*
X96208160Y-118923991D01*
X96218548Y-118904555D01*
X96232524Y-118887524D01*
X96249555Y-118873548D01*
X96268991Y-118863160D01*
X96290072Y-118856764D01*
X96318140Y-118854000D01*
X98081860Y-118854000D01*
X98109928Y-118856764D01*
G37*
G36*
X107309928Y-118856764D02*
G01*
X107331009Y-118863160D01*
X107350445Y-118873548D01*
X107367476Y-118887524D01*
X107381452Y-118904555D01*
X107391840Y-118923991D01*
X107398236Y-118945072D01*
X107401000Y-118973140D01*
X107401000Y-119436860D01*
X107398236Y-119464928D01*
X107391840Y-119486009D01*
X107381452Y-119505445D01*
X107367476Y-119522476D01*
X107350445Y-119536452D01*
X107331009Y-119546840D01*
X107309928Y-119553236D01*
X107281860Y-119556000D01*
X105518140Y-119556000D01*
X105490072Y-119553236D01*
X105468991Y-119546840D01*
X105449555Y-119536452D01*
X105432524Y-119522476D01*
X105418548Y-119505445D01*
X105408160Y-119486009D01*
X105401764Y-119464928D01*
X105399000Y-119436860D01*
X105399000Y-118973140D01*
X105401764Y-118945072D01*
X105408160Y-118923991D01*
X105418548Y-118904555D01*
X105432524Y-118887524D01*
X105449555Y-118873548D01*
X105468991Y-118863160D01*
X105490072Y-118856764D01*
X105518140Y-118854000D01*
X107281860Y-118854000D01*
X107309928Y-118856764D01*
G37*
G36*
X87913512Y-117243927D02*
G01*
X88062812Y-117273624D01*
X88226784Y-117341544D01*
X88374354Y-117440147D01*
X88499853Y-117565646D01*
X88598456Y-117713216D01*
X88666376Y-117877188D01*
X88701000Y-118051259D01*
X88701000Y-118228741D01*
X88666376Y-118402812D01*
X88598456Y-118566784D01*
X88499853Y-118714354D01*
X88374354Y-118839853D01*
X88226784Y-118938456D01*
X88062812Y-119006376D01*
X87913512Y-119036073D01*
X87888742Y-119041000D01*
X87711258Y-119041000D01*
X87686488Y-119036073D01*
X87537188Y-119006376D01*
X87373216Y-118938456D01*
X87225646Y-118839853D01*
X87100147Y-118714354D01*
X87001544Y-118566784D01*
X86933624Y-118402812D01*
X86899000Y-118228741D01*
X86899000Y-118051259D01*
X86933624Y-117877188D01*
X87001544Y-117713216D01*
X87100147Y-117565646D01*
X87225646Y-117440147D01*
X87373216Y-117341544D01*
X87537188Y-117273624D01*
X87686488Y-117243927D01*
X87711258Y-117239000D01*
X87888742Y-117239000D01*
X87913512Y-117243927D01*
G37*
G36*
X85373512Y-117243927D02*
G01*
X85522812Y-117273624D01*
X85686784Y-117341544D01*
X85834354Y-117440147D01*
X85959853Y-117565646D01*
X86058456Y-117713216D01*
X86126376Y-117877188D01*
X86161000Y-118051259D01*
X86161000Y-118228741D01*
X86126376Y-118402812D01*
X86058456Y-118566784D01*
X85959853Y-118714354D01*
X85834354Y-118839853D01*
X85686784Y-118938456D01*
X85522812Y-119006376D01*
X85373512Y-119036073D01*
X85348742Y-119041000D01*
X85171258Y-119041000D01*
X85146488Y-119036073D01*
X84997188Y-119006376D01*
X84833216Y-118938456D01*
X84685646Y-118839853D01*
X84560147Y-118714354D01*
X84461544Y-118566784D01*
X84393624Y-118402812D01*
X84359000Y-118228741D01*
X84359000Y-118051259D01*
X84393624Y-117877188D01*
X84461544Y-117713216D01*
X84560147Y-117565646D01*
X84685646Y-117440147D01*
X84833216Y-117341544D01*
X84997188Y-117273624D01*
X85146488Y-117243927D01*
X85171258Y-117239000D01*
X85348742Y-117239000D01*
X85373512Y-117243927D01*
G37*
G36*
X152381162Y-116853644D02*
G01*
X152420608Y-116865610D01*
X152456953Y-116885037D01*
X152488815Y-116911185D01*
X152514963Y-116943047D01*
X152534390Y-116979392D01*
X152546356Y-117018838D01*
X152551000Y-117065993D01*
X152551000Y-118134007D01*
X152546356Y-118181162D01*
X152534390Y-118220608D01*
X152514963Y-118256953D01*
X152488815Y-118288815D01*
X152456953Y-118314963D01*
X152420608Y-118334390D01*
X152381162Y-118346356D01*
X152334007Y-118351000D01*
X151640993Y-118351000D01*
X151593838Y-118346356D01*
X151554392Y-118334390D01*
X151518047Y-118314963D01*
X151486185Y-118288815D01*
X151460037Y-118256953D01*
X151440610Y-118220608D01*
X151428644Y-118181162D01*
X151424000Y-118134007D01*
X151424000Y-117065993D01*
X151428644Y-117018838D01*
X151440610Y-116979392D01*
X151460037Y-116943047D01*
X151486185Y-116911185D01*
X151518047Y-116885037D01*
X151554392Y-116865610D01*
X151593838Y-116853644D01*
X151640993Y-116849000D01*
X152334007Y-116849000D01*
X152381162Y-116853644D01*
G37*
G36*
X154206162Y-116853644D02*
G01*
X154245608Y-116865610D01*
X154281953Y-116885037D01*
X154313815Y-116911185D01*
X154339963Y-116943047D01*
X154359390Y-116979392D01*
X154371356Y-117018838D01*
X154376000Y-117065993D01*
X154376000Y-118134007D01*
X154371356Y-118181162D01*
X154359390Y-118220608D01*
X154339963Y-118256953D01*
X154313815Y-118288815D01*
X154281953Y-118314963D01*
X154245608Y-118334390D01*
X154206162Y-118346356D01*
X154159007Y-118351000D01*
X153465993Y-118351000D01*
X153418838Y-118346356D01*
X153379392Y-118334390D01*
X153343047Y-118314963D01*
X153311185Y-118288815D01*
X153285037Y-118256953D01*
X153265610Y-118220608D01*
X153253644Y-118181162D01*
X153249000Y-118134007D01*
X153249000Y-117065993D01*
X153253644Y-117018838D01*
X153265610Y-116979392D01*
X153285037Y-116943047D01*
X153311185Y-116911185D01*
X153343047Y-116885037D01*
X153379392Y-116865610D01*
X153418838Y-116853644D01*
X153465993Y-116849000D01*
X154159007Y-116849000D01*
X154206162Y-116853644D01*
G37*
G36*
X158193662Y-116853644D02*
G01*
X158233108Y-116865610D01*
X158269453Y-116885037D01*
X158301315Y-116911185D01*
X158327463Y-116943047D01*
X158346890Y-116979392D01*
X158358856Y-117018838D01*
X158363500Y-117065993D01*
X158363500Y-118134007D01*
X158358856Y-118181162D01*
X158346890Y-118220608D01*
X158327463Y-118256953D01*
X158301315Y-118288815D01*
X158269453Y-118314963D01*
X158233108Y-118334390D01*
X158193662Y-118346356D01*
X158146507Y-118351000D01*
X157453493Y-118351000D01*
X157406338Y-118346356D01*
X157366892Y-118334390D01*
X157330547Y-118314963D01*
X157298685Y-118288815D01*
X157272537Y-118256953D01*
X157253110Y-118220608D01*
X157241144Y-118181162D01*
X157236500Y-118134007D01*
X157236500Y-117065993D01*
X157241144Y-117018838D01*
X157253110Y-116979392D01*
X157272537Y-116943047D01*
X157298685Y-116911185D01*
X157330547Y-116885037D01*
X157366892Y-116865610D01*
X157406338Y-116853644D01*
X157453493Y-116849000D01*
X158146507Y-116849000D01*
X158193662Y-116853644D01*
G37*
G36*
X156368662Y-116853644D02*
G01*
X156408108Y-116865610D01*
X156444453Y-116885037D01*
X156476315Y-116911185D01*
X156502463Y-116943047D01*
X156521890Y-116979392D01*
X156533856Y-117018838D01*
X156538500Y-117065993D01*
X156538500Y-118134007D01*
X156533856Y-118181162D01*
X156521890Y-118220608D01*
X156502463Y-118256953D01*
X156476315Y-118288815D01*
X156444453Y-118314963D01*
X156408108Y-118334390D01*
X156368662Y-118346356D01*
X156321507Y-118351000D01*
X155628493Y-118351000D01*
X155581338Y-118346356D01*
X155541892Y-118334390D01*
X155505547Y-118314963D01*
X155473685Y-118288815D01*
X155447537Y-118256953D01*
X155428110Y-118220608D01*
X155416144Y-118181162D01*
X155411500Y-118134007D01*
X155411500Y-117065993D01*
X155416144Y-117018838D01*
X155428110Y-116979392D01*
X155447537Y-116943047D01*
X155473685Y-116911185D01*
X155505547Y-116885037D01*
X155541892Y-116865610D01*
X155581338Y-116853644D01*
X155628493Y-116849000D01*
X156321507Y-116849000D01*
X156368662Y-116853644D01*
G37*
G36*
X107309928Y-117586764D02*
G01*
X107331009Y-117593160D01*
X107350445Y-117603548D01*
X107367476Y-117617524D01*
X107381452Y-117634555D01*
X107391840Y-117653991D01*
X107398236Y-117675072D01*
X107401000Y-117703140D01*
X107401000Y-118166860D01*
X107398236Y-118194928D01*
X107391840Y-118216009D01*
X107381452Y-118235445D01*
X107367476Y-118252476D01*
X107350445Y-118266452D01*
X107331009Y-118276840D01*
X107309928Y-118283236D01*
X107281860Y-118286000D01*
X105518140Y-118286000D01*
X105490072Y-118283236D01*
X105468991Y-118276840D01*
X105449555Y-118266452D01*
X105432524Y-118252476D01*
X105418548Y-118235445D01*
X105408160Y-118216009D01*
X105401764Y-118194928D01*
X105399000Y-118166860D01*
X105399000Y-117703140D01*
X105401764Y-117675072D01*
X105408160Y-117653991D01*
X105418548Y-117634555D01*
X105432524Y-117617524D01*
X105449555Y-117603548D01*
X105468991Y-117593160D01*
X105490072Y-117586764D01*
X105518140Y-117584000D01*
X107281860Y-117584000D01*
X107309928Y-117586764D01*
G37*
G36*
X98109928Y-117586764D02*
G01*
X98131009Y-117593160D01*
X98150445Y-117603548D01*
X98167476Y-117617524D01*
X98181452Y-117634555D01*
X98191840Y-117653991D01*
X98198236Y-117675072D01*
X98201000Y-117703140D01*
X98201000Y-118166860D01*
X98198236Y-118194928D01*
X98191840Y-118216009D01*
X98181452Y-118235445D01*
X98167476Y-118252476D01*
X98150445Y-118266452D01*
X98131009Y-118276840D01*
X98109928Y-118283236D01*
X98081860Y-118286000D01*
X96318140Y-118286000D01*
X96290072Y-118283236D01*
X96268991Y-118276840D01*
X96249555Y-118266452D01*
X96232524Y-118252476D01*
X96218548Y-118235445D01*
X96208160Y-118216009D01*
X96201764Y-118194928D01*
X96199000Y-118166860D01*
X96199000Y-117703140D01*
X96201764Y-117675072D01*
X96208160Y-117653991D01*
X96218548Y-117634555D01*
X96232524Y-117617524D01*
X96249555Y-117603548D01*
X96268991Y-117593160D01*
X96290072Y-117586764D01*
X96318140Y-117584000D01*
X98081860Y-117584000D01*
X98109928Y-117586764D01*
G37*
G36*
X149746811Y-116753271D02*
G01*
X149782603Y-116764129D01*
X149815595Y-116781763D01*
X149844508Y-116805492D01*
X149868237Y-116834405D01*
X149885871Y-116867397D01*
X149896729Y-116903189D01*
X149901000Y-116946555D01*
X149901000Y-117978445D01*
X149896729Y-118021811D01*
X149885871Y-118057603D01*
X149868237Y-118090595D01*
X149844508Y-118119508D01*
X149815595Y-118143237D01*
X149782603Y-118160871D01*
X149746811Y-118171729D01*
X149703445Y-118176000D01*
X147296555Y-118176000D01*
X147253189Y-118171729D01*
X147217397Y-118160871D01*
X147184405Y-118143237D01*
X147155492Y-118119508D01*
X147131763Y-118090595D01*
X147114129Y-118057603D01*
X147103271Y-118021811D01*
X147099000Y-117978445D01*
X147099000Y-116946555D01*
X147103271Y-116903189D01*
X147114129Y-116867397D01*
X147131763Y-116834405D01*
X147155492Y-116805492D01*
X147184405Y-116781763D01*
X147217397Y-116764129D01*
X147253189Y-116753271D01*
X147296555Y-116749000D01*
X149703445Y-116749000D01*
X149746811Y-116753271D01*
G37*
G36*
X160881162Y-116853644D02*
G01*
X160920608Y-116865610D01*
X160956953Y-116885037D01*
X160988815Y-116911185D01*
X161014963Y-116943047D01*
X161034390Y-116979392D01*
X161046356Y-117018838D01*
X161051000Y-117065993D01*
X161051000Y-117759007D01*
X161046356Y-117806162D01*
X161034390Y-117845608D01*
X161014963Y-117881953D01*
X160988815Y-117913815D01*
X160956953Y-117939963D01*
X160920608Y-117959390D01*
X160881162Y-117971356D01*
X160834007Y-117976000D01*
X159765993Y-117976000D01*
X159718838Y-117971356D01*
X159679392Y-117959390D01*
X159643047Y-117939963D01*
X159611185Y-117913815D01*
X159585037Y-117881953D01*
X159565610Y-117845608D01*
X159553644Y-117806162D01*
X159549000Y-117759007D01*
X159549000Y-117065993D01*
X159553644Y-117018838D01*
X159565610Y-116979392D01*
X159585037Y-116943047D01*
X159611185Y-116911185D01*
X159643047Y-116885037D01*
X159679392Y-116865610D01*
X159718838Y-116853644D01*
X159765993Y-116849000D01*
X160834007Y-116849000D01*
X160881162Y-116853644D01*
G37*
G36*
X117111000Y-117891000D02*
G01*
X113509000Y-117891000D01*
X113509000Y-116089000D01*
X117111000Y-116089000D01*
X117111000Y-117891000D01*
G37*
G36*
X136691000Y-117891000D02*
G01*
X133089000Y-117891000D01*
X133089000Y-116089000D01*
X136691000Y-116089000D01*
X136691000Y-117891000D01*
G37*
G36*
X107309928Y-116316764D02*
G01*
X107331009Y-116323160D01*
X107350445Y-116333548D01*
X107367476Y-116347524D01*
X107381452Y-116364555D01*
X107391840Y-116383991D01*
X107398236Y-116405072D01*
X107401000Y-116433140D01*
X107401000Y-116896860D01*
X107398236Y-116924928D01*
X107391840Y-116946009D01*
X107381452Y-116965445D01*
X107367476Y-116982476D01*
X107350445Y-116996452D01*
X107331009Y-117006840D01*
X107309928Y-117013236D01*
X107281860Y-117016000D01*
X105518140Y-117016000D01*
X105490072Y-117013236D01*
X105468991Y-117006840D01*
X105449555Y-116996452D01*
X105432524Y-116982476D01*
X105418548Y-116965445D01*
X105408160Y-116946009D01*
X105401764Y-116924928D01*
X105399000Y-116896860D01*
X105399000Y-116433140D01*
X105401764Y-116405072D01*
X105408160Y-116383991D01*
X105418548Y-116364555D01*
X105432524Y-116347524D01*
X105449555Y-116333548D01*
X105468991Y-116323160D01*
X105490072Y-116316764D01*
X105518140Y-116314000D01*
X107281860Y-116314000D01*
X107309928Y-116316764D01*
G37*
G36*
X98109928Y-116316764D02*
G01*
X98131009Y-116323160D01*
X98150445Y-116333548D01*
X98167476Y-116347524D01*
X98181452Y-116364555D01*
X98191840Y-116383991D01*
X98198236Y-116405072D01*
X98201000Y-116433140D01*
X98201000Y-116896860D01*
X98198236Y-116924928D01*
X98191840Y-116946009D01*
X98181452Y-116965445D01*
X98167476Y-116982476D01*
X98150445Y-116996452D01*
X98131009Y-117006840D01*
X98109928Y-117013236D01*
X98081860Y-117016000D01*
X96318140Y-117016000D01*
X96290072Y-117013236D01*
X96268991Y-117006840D01*
X96249555Y-116996452D01*
X96232524Y-116982476D01*
X96218548Y-116965445D01*
X96208160Y-116946009D01*
X96201764Y-116924928D01*
X96199000Y-116896860D01*
X96199000Y-116433140D01*
X96201764Y-116405072D01*
X96208160Y-116383991D01*
X96218548Y-116364555D01*
X96232524Y-116347524D01*
X96249555Y-116333548D01*
X96268991Y-116323160D01*
X96290072Y-116316764D01*
X96318140Y-116314000D01*
X98081860Y-116314000D01*
X98109928Y-116316764D01*
G37*
G36*
X88701000Y-116501000D02*
G01*
X86899000Y-116501000D01*
X86899000Y-114699000D01*
X88701000Y-114699000D01*
X88701000Y-116501000D01*
G37*
G36*
X85371088Y-114703445D02*
G01*
X85522812Y-114733624D01*
X85686784Y-114801544D01*
X85834354Y-114900147D01*
X85959853Y-115025646D01*
X86058456Y-115173216D01*
X86126376Y-115337188D01*
X86161000Y-115511259D01*
X86161000Y-115688741D01*
X86126376Y-115862812D01*
X86058456Y-116026784D01*
X85959853Y-116174354D01*
X85834354Y-116299853D01*
X85686784Y-116398456D01*
X85522812Y-116466376D01*
X85373512Y-116496073D01*
X85348742Y-116501000D01*
X85171258Y-116501000D01*
X85146488Y-116496073D01*
X84997188Y-116466376D01*
X84833216Y-116398456D01*
X84685646Y-116299853D01*
X84560147Y-116174354D01*
X84461544Y-116026784D01*
X84393624Y-115862812D01*
X84359000Y-115688741D01*
X84359000Y-115511259D01*
X84393624Y-115337188D01*
X84461544Y-115173216D01*
X84560147Y-115025646D01*
X84685646Y-114900147D01*
X84833216Y-114801544D01*
X84997188Y-114733624D01*
X85148912Y-114703445D01*
X85171258Y-114699000D01*
X85348742Y-114699000D01*
X85371088Y-114703445D01*
G37*
G36*
X160881162Y-115028644D02*
G01*
X160920608Y-115040610D01*
X160956953Y-115060037D01*
X160988815Y-115086185D01*
X161014963Y-115118047D01*
X161034390Y-115154392D01*
X161046356Y-115193838D01*
X161051000Y-115240993D01*
X161051000Y-115934007D01*
X161046356Y-115981162D01*
X161034390Y-116020608D01*
X161014963Y-116056953D01*
X160988815Y-116088815D01*
X160956953Y-116114963D01*
X160920608Y-116134390D01*
X160881162Y-116146356D01*
X160834007Y-116151000D01*
X159765993Y-116151000D01*
X159718838Y-116146356D01*
X159679392Y-116134390D01*
X159643047Y-116114963D01*
X159611185Y-116088815D01*
X159585037Y-116056953D01*
X159565610Y-116020608D01*
X159553644Y-115981162D01*
X159549000Y-115934007D01*
X159549000Y-115240993D01*
X159553644Y-115193838D01*
X159565610Y-115154392D01*
X159585037Y-115118047D01*
X159611185Y-115086185D01*
X159643047Y-115060037D01*
X159679392Y-115040610D01*
X159718838Y-115028644D01*
X159765993Y-115024000D01*
X160834007Y-115024000D01*
X160881162Y-115028644D01*
G37*
G36*
X98109928Y-115046764D02*
G01*
X98131009Y-115053160D01*
X98150445Y-115063548D01*
X98167476Y-115077524D01*
X98181452Y-115094555D01*
X98191840Y-115113991D01*
X98198236Y-115135072D01*
X98201000Y-115163140D01*
X98201000Y-115626860D01*
X98198236Y-115654928D01*
X98191840Y-115676009D01*
X98181452Y-115695445D01*
X98167476Y-115712476D01*
X98150445Y-115726452D01*
X98131009Y-115736840D01*
X98109928Y-115743236D01*
X98081860Y-115746000D01*
X96318140Y-115746000D01*
X96290072Y-115743236D01*
X96268991Y-115736840D01*
X96249555Y-115726452D01*
X96232524Y-115712476D01*
X96218548Y-115695445D01*
X96208160Y-115676009D01*
X96201764Y-115654928D01*
X96199000Y-115626860D01*
X96199000Y-115163140D01*
X96201764Y-115135072D01*
X96208160Y-115113991D01*
X96218548Y-115094555D01*
X96232524Y-115077524D01*
X96249555Y-115063548D01*
X96268991Y-115053160D01*
X96290072Y-115046764D01*
X96318140Y-115044000D01*
X98081860Y-115044000D01*
X98109928Y-115046764D01*
G37*
G36*
X107309928Y-115046764D02*
G01*
X107331009Y-115053160D01*
X107350445Y-115063548D01*
X107367476Y-115077524D01*
X107381452Y-115094555D01*
X107391840Y-115113991D01*
X107398236Y-115135072D01*
X107401000Y-115163140D01*
X107401000Y-115626860D01*
X107398236Y-115654928D01*
X107391840Y-115676009D01*
X107381452Y-115695445D01*
X107367476Y-115712476D01*
X107350445Y-115726452D01*
X107331009Y-115736840D01*
X107309928Y-115743236D01*
X107281860Y-115746000D01*
X105518140Y-115746000D01*
X105490072Y-115743236D01*
X105468991Y-115736840D01*
X105449555Y-115726452D01*
X105432524Y-115712476D01*
X105418548Y-115695445D01*
X105408160Y-115676009D01*
X105401764Y-115654928D01*
X105399000Y-115626860D01*
X105399000Y-115163140D01*
X105401764Y-115135072D01*
X105408160Y-115113991D01*
X105418548Y-115094555D01*
X105432524Y-115077524D01*
X105449555Y-115063548D01*
X105468991Y-115053160D01*
X105490072Y-115046764D01*
X105518140Y-115044000D01*
X107281860Y-115044000D01*
X107309928Y-115046764D01*
G37*
G36*
X136691000Y-115351000D02*
G01*
X133089000Y-115351000D01*
X133089000Y-113549000D01*
X136691000Y-113549000D01*
X136691000Y-115351000D01*
G37*
G36*
X117111000Y-115351000D02*
G01*
X113509000Y-115351000D01*
X113509000Y-113549000D01*
X117111000Y-113549000D01*
X117111000Y-115351000D01*
G37*
G36*
X158381000Y-115126000D02*
G01*
X157219000Y-115126000D01*
X157219000Y-112474000D01*
X158381000Y-112474000D01*
X158381000Y-115126000D01*
G37*
G36*
X156181000Y-115126000D02*
G01*
X155019000Y-115126000D01*
X155019000Y-112474000D01*
X156181000Y-112474000D01*
X156181000Y-115126000D01*
G37*
G36*
X149746811Y-113628271D02*
G01*
X149782603Y-113639129D01*
X149815595Y-113656763D01*
X149844508Y-113680492D01*
X149868237Y-113709405D01*
X149885871Y-113742397D01*
X149896729Y-113778189D01*
X149901000Y-113821555D01*
X149901000Y-114853445D01*
X149896729Y-114896811D01*
X149885871Y-114932603D01*
X149868237Y-114965595D01*
X149844508Y-114994508D01*
X149815595Y-115018237D01*
X149782603Y-115035871D01*
X149746811Y-115046729D01*
X149703445Y-115051000D01*
X147296555Y-115051000D01*
X147253189Y-115046729D01*
X147217397Y-115035871D01*
X147184405Y-115018237D01*
X147155492Y-114994508D01*
X147131763Y-114965595D01*
X147114129Y-114932603D01*
X147103271Y-114896811D01*
X147099000Y-114853445D01*
X147099000Y-113821555D01*
X147103271Y-113778189D01*
X147114129Y-113742397D01*
X147131763Y-113709405D01*
X147155492Y-113680492D01*
X147184405Y-113656763D01*
X147217397Y-113639129D01*
X147253189Y-113628271D01*
X147296555Y-113624000D01*
X149703445Y-113624000D01*
X149746811Y-113628271D01*
G37*
G36*
X169421811Y-112103271D02*
G01*
X169457603Y-112114129D01*
X169490595Y-112131763D01*
X169519508Y-112155492D01*
X169543237Y-112184405D01*
X169560871Y-112217397D01*
X169571729Y-112253189D01*
X169576000Y-112296555D01*
X169576000Y-114703445D01*
X169571729Y-114746811D01*
X169560871Y-114782603D01*
X169543237Y-114815595D01*
X169519508Y-114844508D01*
X169490595Y-114868237D01*
X169457603Y-114885871D01*
X169421811Y-114896729D01*
X169378445Y-114901000D01*
X168346555Y-114901000D01*
X168303189Y-114896729D01*
X168267397Y-114885871D01*
X168234405Y-114868237D01*
X168205492Y-114844508D01*
X168181763Y-114815595D01*
X168164129Y-114782603D01*
X168153271Y-114746811D01*
X168149000Y-114703445D01*
X168149000Y-112296555D01*
X168153271Y-112253189D01*
X168164129Y-112217397D01*
X168181763Y-112184405D01*
X168205492Y-112155492D01*
X168234405Y-112131763D01*
X168267397Y-112114129D01*
X168303189Y-112103271D01*
X168346555Y-112099000D01*
X169378445Y-112099000D01*
X169421811Y-112103271D01*
G37*
G36*
X166296811Y-112103271D02*
G01*
X166332603Y-112114129D01*
X166365595Y-112131763D01*
X166394508Y-112155492D01*
X166418237Y-112184405D01*
X166435871Y-112217397D01*
X166446729Y-112253189D01*
X166451000Y-112296555D01*
X166451000Y-114703445D01*
X166446729Y-114746811D01*
X166435871Y-114782603D01*
X166418237Y-114815595D01*
X166394508Y-114844508D01*
X166365595Y-114868237D01*
X166332603Y-114885871D01*
X166296811Y-114896729D01*
X166253445Y-114901000D01*
X165221555Y-114901000D01*
X165178189Y-114896729D01*
X165142397Y-114885871D01*
X165109405Y-114868237D01*
X165080492Y-114844508D01*
X165056763Y-114815595D01*
X165039129Y-114782603D01*
X165028271Y-114746811D01*
X165024000Y-114703445D01*
X165024000Y-112296555D01*
X165028271Y-112253189D01*
X165039129Y-112217397D01*
X165056763Y-112184405D01*
X165080492Y-112155492D01*
X165109405Y-112131763D01*
X165142397Y-112114129D01*
X165178189Y-112103271D01*
X165221555Y-112099000D01*
X166253445Y-112099000D01*
X166296811Y-112103271D01*
G37*
G36*
X186474999Y-112991737D02*
G01*
X186484608Y-112994652D01*
X186493472Y-112999390D01*
X186501212Y-113005742D01*
X186501213Y-113005743D01*
X186501237Y-113005763D01*
X186507640Y-113013573D01*
X186507677Y-113013628D01*
X186515480Y-113023147D01*
X186515511Y-113023122D01*
X186526853Y-113036972D01*
X186545779Y-113052537D01*
X186567377Y-113064111D01*
X186590819Y-113071249D01*
X186615202Y-113073676D01*
X186639591Y-113071300D01*
X186663047Y-113064211D01*
X186684670Y-113052682D01*
X186703628Y-113037157D01*
X186719193Y-113018231D01*
X186721029Y-113015175D01*
X186722418Y-113013486D01*
X186722419Y-113013484D01*
X186728801Y-113005725D01*
X186736573Y-112999360D01*
X186736575Y-112999358D01*
X186745399Y-112994654D01*
X186745438Y-112994633D01*
X186755055Y-112991727D01*
X186755085Y-112991718D01*
X186771113Y-112990148D01*
X187908860Y-112990148D01*
X187924999Y-112991737D01*
X187934608Y-112994652D01*
X187943472Y-112999390D01*
X187951237Y-113005763D01*
X187957610Y-113013528D01*
X187962348Y-113022392D01*
X187965263Y-113032001D01*
X187966852Y-113048140D01*
X187966852Y-114535860D01*
X187965263Y-114551999D01*
X187962348Y-114561608D01*
X187957610Y-114570472D01*
X187951237Y-114578237D01*
X187943472Y-114584610D01*
X187934608Y-114589348D01*
X187924999Y-114592263D01*
X187908860Y-114593852D01*
X186771140Y-114593852D01*
X186755001Y-114592263D01*
X186745392Y-114589348D01*
X186736528Y-114584610D01*
X186728763Y-114578237D01*
X186718116Y-114565263D01*
X186711947Y-114556032D01*
X186694619Y-114538706D01*
X186674244Y-114525093D01*
X186651605Y-114515717D01*
X186627572Y-114510937D01*
X186603068Y-114510938D01*
X186579035Y-114515720D01*
X186556396Y-114525098D01*
X186536022Y-114538713D01*
X186518696Y-114556041D01*
X186511825Y-114565317D01*
X186507640Y-114570427D01*
X186501275Y-114578199D01*
X186493516Y-114584581D01*
X186484661Y-114589326D01*
X186481623Y-114590251D01*
X186475085Y-114592242D01*
X186475082Y-114592242D01*
X186475050Y-114592252D01*
X186465000Y-114593247D01*
X186464935Y-114593247D01*
X186458825Y-114593852D01*
X185471140Y-114593852D01*
X185455001Y-114592263D01*
X185445392Y-114589348D01*
X185436528Y-114584610D01*
X185428763Y-114578237D01*
X185422390Y-114570472D01*
X185417652Y-114561608D01*
X185414737Y-114551999D01*
X185413148Y-114535860D01*
X185413148Y-113048140D01*
X185414737Y-113032001D01*
X185417652Y-113022392D01*
X185422390Y-113013528D01*
X185428763Y-113005763D01*
X185436528Y-112999390D01*
X185445392Y-112994652D01*
X185455001Y-112991737D01*
X185471140Y-112990148D01*
X186458860Y-112990148D01*
X186474999Y-112991737D01*
G37*
G36*
X98109928Y-113776764D02*
G01*
X98131009Y-113783160D01*
X98150445Y-113793548D01*
X98167476Y-113807524D01*
X98181452Y-113824555D01*
X98191840Y-113843991D01*
X98198236Y-113865072D01*
X98201000Y-113893140D01*
X98201000Y-114356860D01*
X98198236Y-114384928D01*
X98191840Y-114406009D01*
X98181452Y-114425445D01*
X98167476Y-114442476D01*
X98150445Y-114456452D01*
X98131009Y-114466840D01*
X98109928Y-114473236D01*
X98081860Y-114476000D01*
X96318140Y-114476000D01*
X96290072Y-114473236D01*
X96268991Y-114466840D01*
X96249555Y-114456452D01*
X96232524Y-114442476D01*
X96218548Y-114425445D01*
X96208160Y-114406009D01*
X96201764Y-114384928D01*
X96199000Y-114356860D01*
X96199000Y-113893140D01*
X96201764Y-113865072D01*
X96208160Y-113843991D01*
X96218548Y-113824555D01*
X96232524Y-113807524D01*
X96249555Y-113793548D01*
X96268991Y-113783160D01*
X96290072Y-113776764D01*
X96318140Y-113774000D01*
X98081860Y-113774000D01*
X98109928Y-113776764D01*
G37*
G36*
X107309928Y-113776764D02*
G01*
X107331009Y-113783160D01*
X107350445Y-113793548D01*
X107367476Y-113807524D01*
X107381452Y-113824555D01*
X107391840Y-113843991D01*
X107398236Y-113865072D01*
X107401000Y-113893140D01*
X107401000Y-114356860D01*
X107398236Y-114384928D01*
X107391840Y-114406009D01*
X107381452Y-114425445D01*
X107367476Y-114442476D01*
X107350445Y-114456452D01*
X107331009Y-114466840D01*
X107309928Y-114473236D01*
X107281860Y-114476000D01*
X105518140Y-114476000D01*
X105490072Y-114473236D01*
X105468991Y-114466840D01*
X105449555Y-114456452D01*
X105432524Y-114442476D01*
X105418548Y-114425445D01*
X105408160Y-114406009D01*
X105401764Y-114384928D01*
X105399000Y-114356860D01*
X105399000Y-113893140D01*
X105401764Y-113865072D01*
X105408160Y-113843991D01*
X105418548Y-113824555D01*
X105432524Y-113807524D01*
X105449555Y-113793548D01*
X105468991Y-113783160D01*
X105490072Y-113776764D01*
X105518140Y-113774000D01*
X107281860Y-113774000D01*
X107309928Y-113776764D01*
G37*
G36*
X163846811Y-112253271D02*
G01*
X163882603Y-112264129D01*
X163915595Y-112281763D01*
X163944508Y-112305492D01*
X163968237Y-112334405D01*
X163985871Y-112367397D01*
X163996729Y-112403189D01*
X164001000Y-112446555D01*
X164001000Y-113478445D01*
X163996729Y-113521811D01*
X163985871Y-113557603D01*
X163968237Y-113590595D01*
X163944508Y-113619508D01*
X163915595Y-113643237D01*
X163882603Y-113660871D01*
X163846811Y-113671729D01*
X163803445Y-113676000D01*
X161396555Y-113676000D01*
X161353189Y-113671729D01*
X161317397Y-113660871D01*
X161284405Y-113643237D01*
X161255492Y-113619508D01*
X161231763Y-113590595D01*
X161214129Y-113557603D01*
X161203271Y-113521811D01*
X161199000Y-113478445D01*
X161199000Y-112446555D01*
X161203271Y-112403189D01*
X161214129Y-112367397D01*
X161231763Y-112334405D01*
X161255492Y-112305492D01*
X161284405Y-112281763D01*
X161317397Y-112264129D01*
X161353189Y-112253271D01*
X161396555Y-112249000D01*
X163803445Y-112249000D01*
X163846811Y-112253271D01*
G37*
G36*
X127758642Y-111759781D02*
G01*
X127896442Y-111816860D01*
X127904416Y-111820163D01*
X128035608Y-111907822D01*
X128147178Y-112019392D01*
X128214064Y-112119495D01*
X128234838Y-112150586D01*
X128295219Y-112296358D01*
X128326000Y-112451107D01*
X128326000Y-112608893D01*
X128295219Y-112763642D01*
X128234838Y-112909414D01*
X128234837Y-112909416D01*
X128147178Y-113040608D01*
X128035608Y-113152178D01*
X127904416Y-113239837D01*
X127904415Y-113239838D01*
X127904414Y-113239838D01*
X127758642Y-113300219D01*
X127603893Y-113331000D01*
X127446107Y-113331000D01*
X127291358Y-113300219D01*
X127145586Y-113239838D01*
X127145585Y-113239838D01*
X127145584Y-113239837D01*
X127014392Y-113152178D01*
X126902822Y-113040608D01*
X126815163Y-112909416D01*
X126815162Y-112909414D01*
X126754781Y-112763642D01*
X126724000Y-112608893D01*
X126724000Y-112451107D01*
X126754781Y-112296358D01*
X126815162Y-112150586D01*
X126835936Y-112119495D01*
X126902822Y-112019392D01*
X127014392Y-111907822D01*
X127145584Y-111820163D01*
X127153558Y-111816860D01*
X127291358Y-111759781D01*
X127446107Y-111729000D01*
X127603893Y-111729000D01*
X127758642Y-111759781D01*
G37*
G36*
X122908642Y-111759781D02*
G01*
X123046442Y-111816860D01*
X123054416Y-111820163D01*
X123185608Y-111907822D01*
X123297178Y-112019392D01*
X123364064Y-112119495D01*
X123384838Y-112150586D01*
X123445219Y-112296358D01*
X123476000Y-112451107D01*
X123476000Y-112608893D01*
X123445219Y-112763642D01*
X123384838Y-112909414D01*
X123384837Y-112909416D01*
X123297178Y-113040608D01*
X123185608Y-113152178D01*
X123054416Y-113239837D01*
X123054415Y-113239838D01*
X123054414Y-113239838D01*
X122908642Y-113300219D01*
X122753893Y-113331000D01*
X122596107Y-113331000D01*
X122441358Y-113300219D01*
X122295586Y-113239838D01*
X122295585Y-113239838D01*
X122295584Y-113239837D01*
X122164392Y-113152178D01*
X122052822Y-113040608D01*
X121965163Y-112909416D01*
X121965162Y-112909414D01*
X121904781Y-112763642D01*
X121874000Y-112608893D01*
X121874000Y-112451107D01*
X121904781Y-112296358D01*
X121965162Y-112150586D01*
X121985936Y-112119495D01*
X122052822Y-112019392D01*
X122164392Y-111907822D01*
X122295584Y-111820163D01*
X122303558Y-111816860D01*
X122441358Y-111759781D01*
X122596107Y-111729000D01*
X122753893Y-111729000D01*
X122908642Y-111759781D01*
G37*
G36*
X98109928Y-112506764D02*
G01*
X98131009Y-112513160D01*
X98150445Y-112523548D01*
X98167476Y-112537524D01*
X98181452Y-112554555D01*
X98191840Y-112573991D01*
X98198236Y-112595072D01*
X98201000Y-112623140D01*
X98201000Y-113086860D01*
X98198236Y-113114928D01*
X98191840Y-113136009D01*
X98181452Y-113155445D01*
X98167476Y-113172476D01*
X98150445Y-113186452D01*
X98131009Y-113196840D01*
X98109928Y-113203236D01*
X98081860Y-113206000D01*
X96318140Y-113206000D01*
X96290072Y-113203236D01*
X96268991Y-113196840D01*
X96249555Y-113186452D01*
X96232524Y-113172476D01*
X96218548Y-113155445D01*
X96208160Y-113136009D01*
X96201764Y-113114928D01*
X96199000Y-113086860D01*
X96199000Y-112623140D01*
X96201764Y-112595072D01*
X96208160Y-112573991D01*
X96218548Y-112554555D01*
X96232524Y-112537524D01*
X96249555Y-112523548D01*
X96268991Y-112513160D01*
X96290072Y-112506764D01*
X96318140Y-112504000D01*
X98081860Y-112504000D01*
X98109928Y-112506764D01*
G37*
G36*
X107309928Y-112506764D02*
G01*
X107331009Y-112513160D01*
X107350445Y-112523548D01*
X107367476Y-112537524D01*
X107381452Y-112554555D01*
X107391840Y-112573991D01*
X107398236Y-112595072D01*
X107401000Y-112623140D01*
X107401000Y-113086860D01*
X107398236Y-113114928D01*
X107391840Y-113136009D01*
X107381452Y-113155445D01*
X107367476Y-113172476D01*
X107350445Y-113186452D01*
X107331009Y-113196840D01*
X107309928Y-113203236D01*
X107281860Y-113206000D01*
X105518140Y-113206000D01*
X105490072Y-113203236D01*
X105468991Y-113196840D01*
X105449555Y-113186452D01*
X105432524Y-113172476D01*
X105418548Y-113155445D01*
X105408160Y-113136009D01*
X105401764Y-113114928D01*
X105399000Y-113086860D01*
X105399000Y-112623140D01*
X105401764Y-112595072D01*
X105408160Y-112573991D01*
X105418548Y-112554555D01*
X105432524Y-112537524D01*
X105449555Y-112523548D01*
X105468991Y-112513160D01*
X105490072Y-112506764D01*
X105518140Y-112504000D01*
X107281860Y-112504000D01*
X107309928Y-112506764D01*
G37*
G36*
X136691000Y-112811000D02*
G01*
X133089000Y-112811000D01*
X133089000Y-111009000D01*
X136691000Y-111009000D01*
X136691000Y-112811000D01*
G37*
G36*
X117111000Y-112811000D02*
G01*
X113509000Y-112811000D01*
X113509000Y-111009000D01*
X117111000Y-111009000D01*
X117111000Y-112811000D01*
G37*
G36*
X150322499Y-107094737D02*
G01*
X150332108Y-107097652D01*
X150340972Y-107102390D01*
X150348737Y-107108763D01*
X150355110Y-107116528D01*
X150359848Y-107125392D01*
X150362763Y-107135001D01*
X150364352Y-107151140D01*
X150364352Y-108193860D01*
X150362763Y-108209999D01*
X150359848Y-108219608D01*
X150355811Y-108227161D01*
X150355809Y-108227163D01*
X150355110Y-108228471D01*
X150346994Y-108237901D01*
X150345018Y-108239699D01*
X150341768Y-108243475D01*
X149465216Y-109041230D01*
X149448798Y-109059420D01*
X149436243Y-109080464D01*
X149428036Y-109103553D01*
X149424352Y-109133675D01*
X149424352Y-110666325D01*
X149426754Y-110690711D01*
X149433867Y-110714160D01*
X149445418Y-110735771D01*
X149465216Y-110758770D01*
X150342855Y-111557515D01*
X150346984Y-111562090D01*
X150346994Y-111562099D01*
X150353725Y-111569557D01*
X150358872Y-111578185D01*
X150362237Y-111587650D01*
X150363747Y-111600000D01*
X150363747Y-111602671D01*
X150364352Y-111607619D01*
X150364352Y-112648860D01*
X150362763Y-112664999D01*
X150359848Y-112674608D01*
X150355110Y-112683472D01*
X150348737Y-112691237D01*
X150340972Y-112697610D01*
X150332108Y-112702348D01*
X150322499Y-112705263D01*
X150306360Y-112706852D01*
X149378640Y-112706852D01*
X149362501Y-112705263D01*
X149352892Y-112702348D01*
X149344028Y-112697610D01*
X149331493Y-112687323D01*
X148285177Y-111641007D01*
X148274890Y-111628472D01*
X148270152Y-111619608D01*
X148267237Y-111609999D01*
X148265648Y-111593860D01*
X148265648Y-108206140D01*
X148267237Y-108190001D01*
X148270152Y-108180392D01*
X148274890Y-108171528D01*
X148285177Y-108158993D01*
X149331493Y-107112677D01*
X149344028Y-107102390D01*
X149352892Y-107097652D01*
X149362501Y-107094737D01*
X149378640Y-107093148D01*
X150306360Y-107093148D01*
X150322499Y-107094737D01*
G37*
G36*
X152782499Y-107094737D02*
G01*
X152792108Y-107097652D01*
X152800972Y-107102390D01*
X152813507Y-107112677D01*
X153859823Y-108158993D01*
X153870110Y-108171528D01*
X153874848Y-108180392D01*
X153877763Y-108190001D01*
X153879352Y-108206140D01*
X153879352Y-111593860D01*
X153877763Y-111609999D01*
X153874848Y-111619608D01*
X153870110Y-111628472D01*
X153859823Y-111641007D01*
X152813507Y-112687323D01*
X152800972Y-112697610D01*
X152792108Y-112702348D01*
X152782499Y-112705263D01*
X152766360Y-112706852D01*
X151838640Y-112706852D01*
X151822501Y-112705263D01*
X151812892Y-112702348D01*
X151804028Y-112697610D01*
X151796263Y-112691237D01*
X151789890Y-112683472D01*
X151785152Y-112674608D01*
X151782237Y-112664999D01*
X151780648Y-112648860D01*
X151780648Y-111606140D01*
X151782237Y-111590001D01*
X151785152Y-111580392D01*
X151789189Y-111572839D01*
X151789191Y-111572837D01*
X151789890Y-111571529D01*
X151798006Y-111562099D01*
X151799982Y-111560301D01*
X151803232Y-111556525D01*
X152679784Y-110758770D01*
X152696202Y-110740580D01*
X152708757Y-110719536D01*
X152716964Y-110696447D01*
X152720648Y-110666325D01*
X152720648Y-109133675D01*
X152718246Y-109109289D01*
X152711133Y-109085840D01*
X152699582Y-109064229D01*
X152679784Y-109041230D01*
X151802145Y-108242485D01*
X151798016Y-108237910D01*
X151798006Y-108237901D01*
X151791275Y-108230443D01*
X151786128Y-108221815D01*
X151782763Y-108212350D01*
X151781253Y-108200000D01*
X151781253Y-108197329D01*
X151780648Y-108192381D01*
X151780648Y-107151140D01*
X151782237Y-107135001D01*
X151785152Y-107125392D01*
X151789890Y-107116528D01*
X151796263Y-107108763D01*
X151804028Y-107102390D01*
X151812892Y-107097652D01*
X151822501Y-107094737D01*
X151838640Y-107093148D01*
X152766360Y-107093148D01*
X152782499Y-107094737D01*
G37*
G36*
X107309928Y-111236764D02*
G01*
X107331009Y-111243160D01*
X107350445Y-111253548D01*
X107367476Y-111267524D01*
X107381452Y-111284555D01*
X107391840Y-111303991D01*
X107398236Y-111325072D01*
X107401000Y-111353140D01*
X107401000Y-111816860D01*
X107398236Y-111844928D01*
X107391840Y-111866009D01*
X107381452Y-111885445D01*
X107367476Y-111902476D01*
X107350445Y-111916452D01*
X107331009Y-111926840D01*
X107309928Y-111933236D01*
X107281860Y-111936000D01*
X105518140Y-111936000D01*
X105490072Y-111933236D01*
X105468991Y-111926840D01*
X105449555Y-111916452D01*
X105432524Y-111902476D01*
X105418548Y-111885445D01*
X105408160Y-111866009D01*
X105401764Y-111844928D01*
X105399000Y-111816860D01*
X105399000Y-111353140D01*
X105401764Y-111325072D01*
X105408160Y-111303991D01*
X105418548Y-111284555D01*
X105432524Y-111267524D01*
X105449555Y-111253548D01*
X105468991Y-111243160D01*
X105490072Y-111236764D01*
X105518140Y-111234000D01*
X107281860Y-111234000D01*
X107309928Y-111236764D01*
G37*
G36*
X98109928Y-111236764D02*
G01*
X98131009Y-111243160D01*
X98150445Y-111253548D01*
X98167476Y-111267524D01*
X98181452Y-111284555D01*
X98191840Y-111303991D01*
X98198236Y-111325072D01*
X98201000Y-111353140D01*
X98201000Y-111816860D01*
X98198236Y-111844928D01*
X98191840Y-111866009D01*
X98181452Y-111885445D01*
X98167476Y-111902476D01*
X98150445Y-111916452D01*
X98131009Y-111926840D01*
X98109928Y-111933236D01*
X98081860Y-111936000D01*
X96318140Y-111936000D01*
X96290072Y-111933236D01*
X96268991Y-111926840D01*
X96249555Y-111916452D01*
X96232524Y-111902476D01*
X96218548Y-111885445D01*
X96208160Y-111866009D01*
X96201764Y-111844928D01*
X96199000Y-111816860D01*
X96199000Y-111353140D01*
X96201764Y-111325072D01*
X96208160Y-111303991D01*
X96218548Y-111284555D01*
X96232524Y-111267524D01*
X96249555Y-111253548D01*
X96268991Y-111243160D01*
X96290072Y-111236764D01*
X96318140Y-111234000D01*
X98081860Y-111234000D01*
X98109928Y-111236764D01*
G37*
G36*
X179257000Y-111305000D02*
G01*
X177155000Y-111305000D01*
X177155000Y-109703000D01*
X179257000Y-109703000D01*
X179257000Y-111305000D01*
G37*
G36*
X163846811Y-109128271D02*
G01*
X163882603Y-109139129D01*
X163915595Y-109156763D01*
X163944508Y-109180492D01*
X163968237Y-109209405D01*
X163985871Y-109242397D01*
X163996729Y-109278189D01*
X164001000Y-109321555D01*
X164001000Y-110353445D01*
X163996729Y-110396811D01*
X163985871Y-110432603D01*
X163968237Y-110465595D01*
X163944508Y-110494508D01*
X163915595Y-110518237D01*
X163882603Y-110535871D01*
X163846811Y-110546729D01*
X163803445Y-110551000D01*
X161396555Y-110551000D01*
X161353189Y-110546729D01*
X161317397Y-110535871D01*
X161284405Y-110518237D01*
X161255492Y-110494508D01*
X161231763Y-110465595D01*
X161214129Y-110432603D01*
X161203271Y-110396811D01*
X161199000Y-110353445D01*
X161199000Y-109321555D01*
X161203271Y-109278189D01*
X161214129Y-109242397D01*
X161231763Y-109209405D01*
X161255492Y-109180492D01*
X161284405Y-109156763D01*
X161317397Y-109139129D01*
X161353189Y-109128271D01*
X161396555Y-109124000D01*
X163803445Y-109124000D01*
X163846811Y-109128271D01*
G37*
G36*
X122652395Y-108585546D02*
G01*
X122825466Y-108657234D01*
X122865063Y-108683692D01*
X122981227Y-108761310D01*
X123113690Y-108893773D01*
X123166081Y-108972182D01*
X123217766Y-109049534D01*
X123289454Y-109222605D01*
X123326000Y-109406333D01*
X123326000Y-109593667D01*
X123289454Y-109777395D01*
X123217766Y-109950466D01*
X123217765Y-109950467D01*
X123113690Y-110106227D01*
X122981227Y-110238690D01*
X122932871Y-110271000D01*
X122825466Y-110342766D01*
X122652395Y-110414454D01*
X122468667Y-110451000D01*
X122281333Y-110451000D01*
X122097605Y-110414454D01*
X121924534Y-110342766D01*
X121817129Y-110271000D01*
X121768773Y-110238690D01*
X121636310Y-110106227D01*
X121532235Y-109950467D01*
X121532234Y-109950466D01*
X121460546Y-109777395D01*
X121424000Y-109593667D01*
X121424000Y-109406333D01*
X121460546Y-109222605D01*
X121532234Y-109049534D01*
X121583919Y-108972182D01*
X121636310Y-108893773D01*
X121768773Y-108761310D01*
X121884937Y-108683692D01*
X121924534Y-108657234D01*
X122097605Y-108585546D01*
X122281333Y-108549000D01*
X122468667Y-108549000D01*
X122652395Y-108585546D01*
G37*
G36*
X159451000Y-110451000D02*
G01*
X158449000Y-110451000D01*
X158449000Y-109149000D01*
X159451000Y-109149000D01*
X159451000Y-110451000D01*
G37*
G36*
X156151000Y-110451000D02*
G01*
X155149000Y-110451000D01*
X155149000Y-109149000D01*
X156151000Y-109149000D01*
X156151000Y-110451000D01*
G37*
G36*
X128102395Y-108585546D02*
G01*
X128275466Y-108657234D01*
X128315063Y-108683692D01*
X128431227Y-108761310D01*
X128563690Y-108893773D01*
X128616081Y-108972182D01*
X128667766Y-109049534D01*
X128739454Y-109222605D01*
X128776000Y-109406333D01*
X128776000Y-109593667D01*
X128739454Y-109777395D01*
X128667766Y-109950466D01*
X128667765Y-109950467D01*
X128563690Y-110106227D01*
X128431227Y-110238690D01*
X128382871Y-110271000D01*
X128275466Y-110342766D01*
X128102395Y-110414454D01*
X127918667Y-110451000D01*
X127731333Y-110451000D01*
X127547605Y-110414454D01*
X127374534Y-110342766D01*
X127267129Y-110271000D01*
X127218773Y-110238690D01*
X127086310Y-110106227D01*
X126982235Y-109950467D01*
X126982234Y-109950466D01*
X126910546Y-109777395D01*
X126874000Y-109593667D01*
X126874000Y-109406333D01*
X126910546Y-109222605D01*
X126982234Y-109049534D01*
X127033919Y-108972182D01*
X127086310Y-108893773D01*
X127218773Y-108761310D01*
X127334937Y-108683692D01*
X127374534Y-108657234D01*
X127547605Y-108585546D01*
X127731333Y-108549000D01*
X127918667Y-108549000D01*
X128102395Y-108585546D01*
G37*
G36*
X117111000Y-110271000D02*
G01*
X113509000Y-110271000D01*
X113509000Y-108469000D01*
X117111000Y-108469000D01*
X117111000Y-110271000D01*
G37*
G36*
X136691000Y-110271000D02*
G01*
X133089000Y-110271000D01*
X133089000Y-108469000D01*
X136691000Y-108469000D01*
X136691000Y-110271000D01*
G37*
G36*
X185557000Y-110155000D02*
G01*
X183455000Y-110155000D01*
X183455000Y-106253000D01*
X185557000Y-106253000D01*
X185557000Y-110155000D01*
G37*
G36*
X167601000Y-110151000D02*
G01*
X165549000Y-110151000D01*
X165549000Y-109249000D01*
X167601000Y-109249000D01*
X167601000Y-110151000D01*
G37*
G36*
X174594434Y-108607686D02*
G01*
X174634284Y-108619774D01*
X174670999Y-108639399D01*
X174703186Y-108665814D01*
X174729601Y-108698001D01*
X174749226Y-108734716D01*
X174761314Y-108774566D01*
X174766000Y-108822141D01*
X174766000Y-109485859D01*
X174761314Y-109533434D01*
X174749226Y-109573284D01*
X174729601Y-109609999D01*
X174703186Y-109642186D01*
X174670999Y-109668601D01*
X174634284Y-109688226D01*
X174594434Y-109700314D01*
X174546859Y-109705000D01*
X173433141Y-109705000D01*
X173385566Y-109700314D01*
X173345716Y-109688226D01*
X173309001Y-109668601D01*
X173276814Y-109642186D01*
X173250399Y-109609999D01*
X173230774Y-109573284D01*
X173218686Y-109533434D01*
X173214000Y-109485859D01*
X173214000Y-108822141D01*
X173218686Y-108774566D01*
X173230774Y-108734716D01*
X173250399Y-108698001D01*
X173276814Y-108665814D01*
X173309001Y-108639399D01*
X173345716Y-108619774D01*
X173385566Y-108607686D01*
X173433141Y-108603000D01*
X174546859Y-108603000D01*
X174594434Y-108607686D01*
G37*
G36*
X179257000Y-109005000D02*
G01*
X177155000Y-109005000D01*
X177155000Y-107403000D01*
X179257000Y-107403000D01*
X179257000Y-109005000D01*
G37*
G36*
X143851000Y-108851000D02*
G01*
X141799000Y-108851000D01*
X141799000Y-107949000D01*
X143851000Y-107949000D01*
X143851000Y-108851000D01*
G37*
G36*
X174594434Y-106707686D02*
G01*
X174634284Y-106719774D01*
X174670999Y-106739399D01*
X174703186Y-106765814D01*
X174729601Y-106798001D01*
X174749226Y-106834716D01*
X174761314Y-106874566D01*
X174766000Y-106922141D01*
X174766000Y-107585859D01*
X174761314Y-107633434D01*
X174749226Y-107673284D01*
X174729601Y-107709999D01*
X174703186Y-107742186D01*
X174670999Y-107768601D01*
X174634284Y-107788226D01*
X174594434Y-107800314D01*
X174546859Y-107805000D01*
X173433141Y-107805000D01*
X173385566Y-107800314D01*
X173345716Y-107788226D01*
X173309001Y-107768601D01*
X173276814Y-107742186D01*
X173250399Y-107709999D01*
X173230774Y-107673284D01*
X173218686Y-107633434D01*
X173214000Y-107585859D01*
X173214000Y-106922141D01*
X173218686Y-106874566D01*
X173230774Y-106834716D01*
X173250399Y-106798001D01*
X173276814Y-106765814D01*
X173309001Y-106739399D01*
X173345716Y-106719774D01*
X173385566Y-106707686D01*
X173433141Y-106703000D01*
X174546859Y-106703000D01*
X174594434Y-106707686D01*
G37*
G36*
X179257000Y-106705000D02*
G01*
X177155000Y-106705000D01*
X177155000Y-105103000D01*
X179257000Y-105103000D01*
X179257000Y-106705000D01*
G37*
G36*
X180785434Y-102606686D02*
G01*
X180825284Y-102618774D01*
X180861999Y-102638399D01*
X180894186Y-102664814D01*
X180920601Y-102697001D01*
X180940226Y-102733716D01*
X180952314Y-102773566D01*
X180957000Y-102821141D01*
X180957000Y-103934859D01*
X180952314Y-103982434D01*
X180940226Y-104022284D01*
X180920601Y-104058999D01*
X180894186Y-104091186D01*
X180861999Y-104117601D01*
X180825284Y-104137226D01*
X180785434Y-104149314D01*
X180737859Y-104154000D01*
X180074141Y-104154000D01*
X180026566Y-104149314D01*
X179986716Y-104137226D01*
X179950001Y-104117601D01*
X179917814Y-104091186D01*
X179891399Y-104058999D01*
X179871774Y-104022284D01*
X179859686Y-103982434D01*
X179855000Y-103934859D01*
X179855000Y-102821141D01*
X179859686Y-102773566D01*
X179871774Y-102733716D01*
X179891399Y-102697001D01*
X179917814Y-102664814D01*
X179950001Y-102638399D01*
X179986716Y-102618774D01*
X180026566Y-102606686D01*
X180074141Y-102602000D01*
X180737859Y-102602000D01*
X180785434Y-102606686D01*
G37*
G36*
X182685434Y-102606686D02*
G01*
X182725284Y-102618774D01*
X182761999Y-102638399D01*
X182794186Y-102664814D01*
X182820601Y-102697001D01*
X182840226Y-102733716D01*
X182852314Y-102773566D01*
X182857000Y-102821141D01*
X182857000Y-103934859D01*
X182852314Y-103982434D01*
X182840226Y-104022284D01*
X182820601Y-104058999D01*
X182794186Y-104091186D01*
X182761999Y-104117601D01*
X182725284Y-104137226D01*
X182685434Y-104149314D01*
X182637859Y-104154000D01*
X181974141Y-104154000D01*
X181926566Y-104149314D01*
X181886716Y-104137226D01*
X181850001Y-104117601D01*
X181817814Y-104091186D01*
X181791399Y-104058999D01*
X181771774Y-104022284D01*
X181759686Y-103982434D01*
X181755000Y-103934859D01*
X181755000Y-102821141D01*
X181759686Y-102773566D01*
X181771774Y-102733716D01*
X181791399Y-102697001D01*
X181817814Y-102664814D01*
X181850001Y-102638399D01*
X181886716Y-102618774D01*
X181926566Y-102606686D01*
X181974141Y-102602000D01*
X182637859Y-102602000D01*
X182685434Y-102606686D01*
G37*
M02*
