M48
; DRILL file {KiCad 5.1.5+dfsg1-2build2} date Tue 08 Nov 2022 08:06:45 GMT
; FORMAT={-:-/ absolute / inch / decimal}
; #@! TF.CreationDate,2022-11-08T08:06:45+00:00
; #@! TF.GenerationSoftware,Kicad,Pcbnew,5.1.5+dfsg1-2build2
; #@! TF.FileFunction,Plated,1,2,PTH
FMAT,2
INCH
T1C0.0157
T2C0.0394
T3C0.0402
%
G90
G05
T1
X3.1Y-4.04
X3.15Y-5.28
X3.28Y-4.95
X3.28Y-5.37
X3.35Y-4.3
X3.45Y-4.3285
X3.56Y-5.19
X3.56Y-5.26
X3.5947Y-4.685
X3.6Y-4.9285
X3.6Y-5.69
X3.6023Y-5.2885
X3.64Y-5.09
X3.65Y-5.31
X3.7Y-4.39
X3.71Y-5.73
X3.73Y-5.64
X3.74Y-5.02
X3.74Y-5.14
X3.75Y-4.625
X3.75Y-4.9285
X3.75Y-5.47
X3.76Y-5.22
X3.8Y-5.7185
X3.82Y-6.03
X3.82Y-6.22
X3.8268Y-4.847
X3.84Y-5.56
X3.9Y-4.25
X3.9Y-4.54
X3.9285Y-4.45
X3.93Y-5.62
X3.9315Y-5.18
X3.9391Y-4.2215
X3.94Y-6.12
X3.96Y-5.13
X3.96Y-5.46
X3.97Y-5.41
X3.9715Y-4.475
X3.975Y-4.1715
X3.98Y-6.16
X3.99Y-5.0801
X4.0Y-4.3285
X4.0Y-5.3801
X4.02Y-5.77
X4.0222Y-4.5278
X4.03Y-5.04
X4.03Y-5.18
X4.05Y-4.3
X4.05Y-4.5
X4.09Y-4.9821
X4.09Y-5.13
X4.3Y-4.625
X4.3Y-4.7
X4.3Y-4.77
X4.31Y-5.2
X4.31Y-5.69
X4.31Y-5.82
X4.33Y-5.1
X4.3352Y-4.7285
X4.34Y-5.64
X4.35Y-4.25
X4.35Y-4.6
X4.35Y-5.91
X4.375Y-4.825
X4.375Y-4.925
X4.39Y-6.23
X4.4Y-4.1715
X4.4Y-4.4
X4.4Y-5.56
X4.4Y-6.37
X4.42Y-5.02
X4.43Y-4.36
X4.45Y-4.17
X4.55Y-4.2
X4.63Y-6.4035
X4.65Y-6.2
X4.66Y-6.01
X4.68Y-5.01
X4.68Y-5.51
X4.68Y-6.3365
X4.69Y-4.51
X4.7Y-6.1485
X4.74Y-6.09
X4.75Y-6.33
X4.91Y-6.0
X4.99Y-5.62
X4.99Y-5.75
X5.07Y-5.84
X5.08Y-5.7
X5.1Y-5.23
X5.11Y-5.95
X5.12Y-6.21
X5.16Y-4.52
X5.16Y-5.01
X5.16Y-5.9
X5.16Y-6.04
X5.2Y-5.8
X5.2Y-6.12
X5.54Y-4.16
X5.56Y-4.9
X5.56Y-6.17
X5.6Y-5.11
X5.61Y-4.71
X5.64Y-5.99
X5.68Y-6.37
X5.77Y-4.05
X5.77Y-5.05
X5.91Y-4.92
X5.92Y-4.75
X6.2326Y-4.5626
X6.36Y-5.08
X6.38Y-6.1
X6.43Y-4.58
X6.45Y-5.5
X6.48Y-4.8935
X6.58Y-5.5
X6.59Y-6.23
X6.7Y-4.22
X6.7Y-4.86
X6.71Y-4.47
X6.84Y-4.36
X7.01Y-4.9
X7.18Y-4.9
X7.18Y-6.1
X7.23Y-5.93
X7.29Y-4.82
X7.3Y-6.31
X7.62Y-6.38
X7.74Y-5.0
X7.74Y-5.85
X7.86Y-5.27
X7.95Y-5.96
T2
X7.19Y-5.03
X7.29Y-5.03
X7.39Y-5.03
X7.49Y-5.03
X4.0079Y-6.3228
X4.1079Y-6.3228
X4.2079Y-6.3228
X3.3567Y-4.5512
X3.3567Y-4.6512
X3.3567Y-4.7512
X3.3567Y-4.8512
X3.3567Y-4.9512
X3.3567Y-5.0512
X3.3567Y-5.1512
X3.3567Y-5.2512
X3.4567Y-4.5512
X3.4567Y-4.6512
X3.4567Y-4.7512
X3.4567Y-4.8512
X3.4567Y-4.9512
X3.4567Y-5.0512
X3.4567Y-5.1512
X3.4567Y-5.2512
T3
X4.5752Y-4.3059
X4.5752Y-4.4059
X4.5752Y-4.5059
X4.5752Y-4.6059
X4.5752Y-4.7059
X4.5752Y-4.8059
X4.5752Y-4.9059
X4.5752Y-5.0059
X4.5752Y-5.1059
X4.5752Y-5.2059
X4.5752Y-5.3059
X4.5752Y-5.4059
X4.5752Y-5.5059
X4.5752Y-5.6059
X4.5752Y-5.7059
X4.5752Y-5.8059
X4.5752Y-5.9059
X4.5752Y-6.0059
X4.5752Y-6.1059
X4.5752Y-6.2059
X4.8252Y-6.1969
X4.9252Y-6.1969
X5.0252Y-6.1969
X5.2752Y-4.3059
X5.2752Y-4.4059
X5.2752Y-4.5059
X5.2752Y-4.6059
X5.2752Y-4.7059
X5.2752Y-4.8059
X5.2752Y-4.9059
X5.2752Y-5.0059
X5.2752Y-5.1059
X5.2752Y-5.2059
X5.2752Y-5.3059
X5.2752Y-5.4059
X5.2752Y-5.5059
X5.2752Y-5.6059
X5.2752Y-5.7059
X5.2752Y-5.8059
X5.2752Y-5.9059
X5.2752Y-6.0059
X5.2752Y-6.1059
X5.2752Y-6.2059
T0
M30
