G04 #@! TF.GenerationSoftware,KiCad,Pcbnew,5.1.5+dfsg1-2build2*
G04 #@! TF.CreationDate,2022-11-08T08:09:59+00:00*
G04 #@! TF.ProjectId,datapack-tool1,64617461-7061-4636-9b2d-746f6f6c312e,rev?*
G04 #@! TF.SameCoordinates,Original*
G04 #@! TF.FileFunction,Paste,Top*
G04 #@! TF.FilePolarity,Positive*
%FSLAX46Y46*%
G04 Gerber Fmt 4.6, Leading zero omitted, Abs format (unit mm)*
G04 Created by KiCad (PCBNEW 5.1.5+dfsg1-2build2) date 2022-11-08 08:09:59*
%MOMM*%
%LPD*%
G04 APERTURE LIST*
%ADD10R,2.000000X1.500000*%
%ADD11R,2.000000X3.800000*%
%ADD12C,0.100000*%
%ADD13R,1.600000X0.700000*%
%ADD14R,1.400000X1.200000*%
%ADD15R,1.400000X1.600000*%
%ADD16R,2.200000X1.200000*%
%ADD17R,1.060000X0.650000*%
%ADD18R,0.900000X0.800000*%
%ADD19R,1.050000X0.650000*%
%ADD20R,0.800000X0.900000*%
%ADD21R,0.900000X1.200000*%
G04 APERTURE END LIST*
D10*
X178206000Y-105904000D03*
X178206000Y-110504000D03*
X178206000Y-108204000D03*
D11*
X184506000Y-108204000D03*
D12*
G36*
X180680504Y-102654204D02*
G01*
X180704773Y-102657804D01*
X180728571Y-102663765D01*
X180751671Y-102672030D01*
X180773849Y-102682520D01*
X180794893Y-102695133D01*
X180814598Y-102709747D01*
X180832777Y-102726223D01*
X180849253Y-102744402D01*
X180863867Y-102764107D01*
X180876480Y-102785151D01*
X180886970Y-102807329D01*
X180895235Y-102830429D01*
X180901196Y-102854227D01*
X180904796Y-102878496D01*
X180906000Y-102903000D01*
X180906000Y-103853000D01*
X180904796Y-103877504D01*
X180901196Y-103901773D01*
X180895235Y-103925571D01*
X180886970Y-103948671D01*
X180876480Y-103970849D01*
X180863867Y-103991893D01*
X180849253Y-104011598D01*
X180832777Y-104029777D01*
X180814598Y-104046253D01*
X180794893Y-104060867D01*
X180773849Y-104073480D01*
X180751671Y-104083970D01*
X180728571Y-104092235D01*
X180704773Y-104098196D01*
X180680504Y-104101796D01*
X180656000Y-104103000D01*
X180156000Y-104103000D01*
X180131496Y-104101796D01*
X180107227Y-104098196D01*
X180083429Y-104092235D01*
X180060329Y-104083970D01*
X180038151Y-104073480D01*
X180017107Y-104060867D01*
X179997402Y-104046253D01*
X179979223Y-104029777D01*
X179962747Y-104011598D01*
X179948133Y-103991893D01*
X179935520Y-103970849D01*
X179925030Y-103948671D01*
X179916765Y-103925571D01*
X179910804Y-103901773D01*
X179907204Y-103877504D01*
X179906000Y-103853000D01*
X179906000Y-102903000D01*
X179907204Y-102878496D01*
X179910804Y-102854227D01*
X179916765Y-102830429D01*
X179925030Y-102807329D01*
X179935520Y-102785151D01*
X179948133Y-102764107D01*
X179962747Y-102744402D01*
X179979223Y-102726223D01*
X179997402Y-102709747D01*
X180017107Y-102695133D01*
X180038151Y-102682520D01*
X180060329Y-102672030D01*
X180083429Y-102663765D01*
X180107227Y-102657804D01*
X180131496Y-102654204D01*
X180156000Y-102653000D01*
X180656000Y-102653000D01*
X180680504Y-102654204D01*
G37*
G36*
X182580504Y-102654204D02*
G01*
X182604773Y-102657804D01*
X182628571Y-102663765D01*
X182651671Y-102672030D01*
X182673849Y-102682520D01*
X182694893Y-102695133D01*
X182714598Y-102709747D01*
X182732777Y-102726223D01*
X182749253Y-102744402D01*
X182763867Y-102764107D01*
X182776480Y-102785151D01*
X182786970Y-102807329D01*
X182795235Y-102830429D01*
X182801196Y-102854227D01*
X182804796Y-102878496D01*
X182806000Y-102903000D01*
X182806000Y-103853000D01*
X182804796Y-103877504D01*
X182801196Y-103901773D01*
X182795235Y-103925571D01*
X182786970Y-103948671D01*
X182776480Y-103970849D01*
X182763867Y-103991893D01*
X182749253Y-104011598D01*
X182732777Y-104029777D01*
X182714598Y-104046253D01*
X182694893Y-104060867D01*
X182673849Y-104073480D01*
X182651671Y-104083970D01*
X182628571Y-104092235D01*
X182604773Y-104098196D01*
X182580504Y-104101796D01*
X182556000Y-104103000D01*
X182056000Y-104103000D01*
X182031496Y-104101796D01*
X182007227Y-104098196D01*
X181983429Y-104092235D01*
X181960329Y-104083970D01*
X181938151Y-104073480D01*
X181917107Y-104060867D01*
X181897402Y-104046253D01*
X181879223Y-104029777D01*
X181862747Y-104011598D01*
X181848133Y-103991893D01*
X181835520Y-103970849D01*
X181825030Y-103948671D01*
X181816765Y-103925571D01*
X181810804Y-103901773D01*
X181807204Y-103877504D01*
X181806000Y-103853000D01*
X181806000Y-102903000D01*
X181807204Y-102878496D01*
X181810804Y-102854227D01*
X181816765Y-102830429D01*
X181825030Y-102807329D01*
X181835520Y-102785151D01*
X181848133Y-102764107D01*
X181862747Y-102744402D01*
X181879223Y-102726223D01*
X181897402Y-102709747D01*
X181917107Y-102695133D01*
X181938151Y-102682520D01*
X181960329Y-102672030D01*
X181983429Y-102663765D01*
X182007227Y-102657804D01*
X182031496Y-102654204D01*
X182056000Y-102653000D01*
X182556000Y-102653000D01*
X182580504Y-102654204D01*
G37*
G36*
X174489504Y-106755204D02*
G01*
X174513773Y-106758804D01*
X174537571Y-106764765D01*
X174560671Y-106773030D01*
X174582849Y-106783520D01*
X174603893Y-106796133D01*
X174623598Y-106810747D01*
X174641777Y-106827223D01*
X174658253Y-106845402D01*
X174672867Y-106865107D01*
X174685480Y-106886151D01*
X174695970Y-106908329D01*
X174704235Y-106931429D01*
X174710196Y-106955227D01*
X174713796Y-106979496D01*
X174715000Y-107004000D01*
X174715000Y-107504000D01*
X174713796Y-107528504D01*
X174710196Y-107552773D01*
X174704235Y-107576571D01*
X174695970Y-107599671D01*
X174685480Y-107621849D01*
X174672867Y-107642893D01*
X174658253Y-107662598D01*
X174641777Y-107680777D01*
X174623598Y-107697253D01*
X174603893Y-107711867D01*
X174582849Y-107724480D01*
X174560671Y-107734970D01*
X174537571Y-107743235D01*
X174513773Y-107749196D01*
X174489504Y-107752796D01*
X174465000Y-107754000D01*
X173515000Y-107754000D01*
X173490496Y-107752796D01*
X173466227Y-107749196D01*
X173442429Y-107743235D01*
X173419329Y-107734970D01*
X173397151Y-107724480D01*
X173376107Y-107711867D01*
X173356402Y-107697253D01*
X173338223Y-107680777D01*
X173321747Y-107662598D01*
X173307133Y-107642893D01*
X173294520Y-107621849D01*
X173284030Y-107599671D01*
X173275765Y-107576571D01*
X173269804Y-107552773D01*
X173266204Y-107528504D01*
X173265000Y-107504000D01*
X173265000Y-107004000D01*
X173266204Y-106979496D01*
X173269804Y-106955227D01*
X173275765Y-106931429D01*
X173284030Y-106908329D01*
X173294520Y-106886151D01*
X173307133Y-106865107D01*
X173321747Y-106845402D01*
X173338223Y-106827223D01*
X173356402Y-106810747D01*
X173376107Y-106796133D01*
X173397151Y-106783520D01*
X173419329Y-106773030D01*
X173442429Y-106764765D01*
X173466227Y-106758804D01*
X173490496Y-106755204D01*
X173515000Y-106754000D01*
X174465000Y-106754000D01*
X174489504Y-106755204D01*
G37*
G36*
X174489504Y-108655204D02*
G01*
X174513773Y-108658804D01*
X174537571Y-108664765D01*
X174560671Y-108673030D01*
X174582849Y-108683520D01*
X174603893Y-108696133D01*
X174623598Y-108710747D01*
X174641777Y-108727223D01*
X174658253Y-108745402D01*
X174672867Y-108765107D01*
X174685480Y-108786151D01*
X174695970Y-108808329D01*
X174704235Y-108831429D01*
X174710196Y-108855227D01*
X174713796Y-108879496D01*
X174715000Y-108904000D01*
X174715000Y-109404000D01*
X174713796Y-109428504D01*
X174710196Y-109452773D01*
X174704235Y-109476571D01*
X174695970Y-109499671D01*
X174685480Y-109521849D01*
X174672867Y-109542893D01*
X174658253Y-109562598D01*
X174641777Y-109580777D01*
X174623598Y-109597253D01*
X174603893Y-109611867D01*
X174582849Y-109624480D01*
X174560671Y-109634970D01*
X174537571Y-109643235D01*
X174513773Y-109649196D01*
X174489504Y-109652796D01*
X174465000Y-109654000D01*
X173515000Y-109654000D01*
X173490496Y-109652796D01*
X173466227Y-109649196D01*
X173442429Y-109643235D01*
X173419329Y-109634970D01*
X173397151Y-109624480D01*
X173376107Y-109611867D01*
X173356402Y-109597253D01*
X173338223Y-109580777D01*
X173321747Y-109562598D01*
X173307133Y-109542893D01*
X173294520Y-109521849D01*
X173284030Y-109499671D01*
X173275765Y-109476571D01*
X173269804Y-109452773D01*
X173266204Y-109428504D01*
X173265000Y-109404000D01*
X173265000Y-108904000D01*
X173266204Y-108879496D01*
X173269804Y-108855227D01*
X173275765Y-108831429D01*
X173284030Y-108808329D01*
X173294520Y-108786151D01*
X173307133Y-108765107D01*
X173321747Y-108745402D01*
X173338223Y-108727223D01*
X173356402Y-108710747D01*
X173376107Y-108696133D01*
X173397151Y-108683520D01*
X173419329Y-108673030D01*
X173442429Y-108664765D01*
X173466227Y-108658804D01*
X173490496Y-108655204D01*
X173515000Y-108654000D01*
X174465000Y-108654000D01*
X174489504Y-108655204D01*
G37*
D13*
X95300000Y-154200000D03*
X95300000Y-155300000D03*
X95300000Y-156400000D03*
X95300000Y-153100000D03*
X95300000Y-152000000D03*
X95300000Y-150900000D03*
X95300000Y-148700000D03*
X95300000Y-149800000D03*
X95300000Y-147600000D03*
D14*
X94800000Y-146450000D03*
D15*
X94800000Y-161050000D03*
D16*
X85200000Y-146450000D03*
X85200000Y-161950000D03*
D17*
X155600000Y-113800000D03*
X155600000Y-114750000D03*
X155600000Y-112850000D03*
X157800000Y-112850000D03*
X157800000Y-113800000D03*
X157800000Y-114750000D03*
D12*
G36*
X107514703Y-127385722D02*
G01*
X107529264Y-127387882D01*
X107543543Y-127391459D01*
X107557403Y-127396418D01*
X107570710Y-127402712D01*
X107583336Y-127410280D01*
X107595159Y-127419048D01*
X107606066Y-127428934D01*
X107615952Y-127439841D01*
X107624720Y-127451664D01*
X107632288Y-127464290D01*
X107638582Y-127477597D01*
X107643541Y-127491457D01*
X107647118Y-127505736D01*
X107649278Y-127520297D01*
X107650000Y-127535000D01*
X107650000Y-127835000D01*
X107649278Y-127849703D01*
X107647118Y-127864264D01*
X107643541Y-127878543D01*
X107638582Y-127892403D01*
X107632288Y-127905710D01*
X107624720Y-127918336D01*
X107615952Y-127930159D01*
X107606066Y-127941066D01*
X107595159Y-127950952D01*
X107583336Y-127959720D01*
X107570710Y-127967288D01*
X107557403Y-127973582D01*
X107543543Y-127978541D01*
X107529264Y-127982118D01*
X107514703Y-127984278D01*
X107500000Y-127985000D01*
X105900000Y-127985000D01*
X105885297Y-127984278D01*
X105870736Y-127982118D01*
X105856457Y-127978541D01*
X105842597Y-127973582D01*
X105829290Y-127967288D01*
X105816664Y-127959720D01*
X105804841Y-127950952D01*
X105793934Y-127941066D01*
X105784048Y-127930159D01*
X105775280Y-127918336D01*
X105767712Y-127905710D01*
X105761418Y-127892403D01*
X105756459Y-127878543D01*
X105752882Y-127864264D01*
X105750722Y-127849703D01*
X105750000Y-127835000D01*
X105750000Y-127535000D01*
X105750722Y-127520297D01*
X105752882Y-127505736D01*
X105756459Y-127491457D01*
X105761418Y-127477597D01*
X105767712Y-127464290D01*
X105775280Y-127451664D01*
X105784048Y-127439841D01*
X105793934Y-127428934D01*
X105804841Y-127419048D01*
X105816664Y-127410280D01*
X105829290Y-127402712D01*
X105842597Y-127396418D01*
X105856457Y-127391459D01*
X105870736Y-127387882D01*
X105885297Y-127385722D01*
X105900000Y-127385000D01*
X107500000Y-127385000D01*
X107514703Y-127385722D01*
G37*
G36*
X107514703Y-128655722D02*
G01*
X107529264Y-128657882D01*
X107543543Y-128661459D01*
X107557403Y-128666418D01*
X107570710Y-128672712D01*
X107583336Y-128680280D01*
X107595159Y-128689048D01*
X107606066Y-128698934D01*
X107615952Y-128709841D01*
X107624720Y-128721664D01*
X107632288Y-128734290D01*
X107638582Y-128747597D01*
X107643541Y-128761457D01*
X107647118Y-128775736D01*
X107649278Y-128790297D01*
X107650000Y-128805000D01*
X107650000Y-129105000D01*
X107649278Y-129119703D01*
X107647118Y-129134264D01*
X107643541Y-129148543D01*
X107638582Y-129162403D01*
X107632288Y-129175710D01*
X107624720Y-129188336D01*
X107615952Y-129200159D01*
X107606066Y-129211066D01*
X107595159Y-129220952D01*
X107583336Y-129229720D01*
X107570710Y-129237288D01*
X107557403Y-129243582D01*
X107543543Y-129248541D01*
X107529264Y-129252118D01*
X107514703Y-129254278D01*
X107500000Y-129255000D01*
X105900000Y-129255000D01*
X105885297Y-129254278D01*
X105870736Y-129252118D01*
X105856457Y-129248541D01*
X105842597Y-129243582D01*
X105829290Y-129237288D01*
X105816664Y-129229720D01*
X105804841Y-129220952D01*
X105793934Y-129211066D01*
X105784048Y-129200159D01*
X105775280Y-129188336D01*
X105767712Y-129175710D01*
X105761418Y-129162403D01*
X105756459Y-129148543D01*
X105752882Y-129134264D01*
X105750722Y-129119703D01*
X105750000Y-129105000D01*
X105750000Y-128805000D01*
X105750722Y-128790297D01*
X105752882Y-128775736D01*
X105756459Y-128761457D01*
X105761418Y-128747597D01*
X105767712Y-128734290D01*
X105775280Y-128721664D01*
X105784048Y-128709841D01*
X105793934Y-128698934D01*
X105804841Y-128689048D01*
X105816664Y-128680280D01*
X105829290Y-128672712D01*
X105842597Y-128666418D01*
X105856457Y-128661459D01*
X105870736Y-128657882D01*
X105885297Y-128655722D01*
X105900000Y-128655000D01*
X107500000Y-128655000D01*
X107514703Y-128655722D01*
G37*
G36*
X107514703Y-129925722D02*
G01*
X107529264Y-129927882D01*
X107543543Y-129931459D01*
X107557403Y-129936418D01*
X107570710Y-129942712D01*
X107583336Y-129950280D01*
X107595159Y-129959048D01*
X107606066Y-129968934D01*
X107615952Y-129979841D01*
X107624720Y-129991664D01*
X107632288Y-130004290D01*
X107638582Y-130017597D01*
X107643541Y-130031457D01*
X107647118Y-130045736D01*
X107649278Y-130060297D01*
X107650000Y-130075000D01*
X107650000Y-130375000D01*
X107649278Y-130389703D01*
X107647118Y-130404264D01*
X107643541Y-130418543D01*
X107638582Y-130432403D01*
X107632288Y-130445710D01*
X107624720Y-130458336D01*
X107615952Y-130470159D01*
X107606066Y-130481066D01*
X107595159Y-130490952D01*
X107583336Y-130499720D01*
X107570710Y-130507288D01*
X107557403Y-130513582D01*
X107543543Y-130518541D01*
X107529264Y-130522118D01*
X107514703Y-130524278D01*
X107500000Y-130525000D01*
X105900000Y-130525000D01*
X105885297Y-130524278D01*
X105870736Y-130522118D01*
X105856457Y-130518541D01*
X105842597Y-130513582D01*
X105829290Y-130507288D01*
X105816664Y-130499720D01*
X105804841Y-130490952D01*
X105793934Y-130481066D01*
X105784048Y-130470159D01*
X105775280Y-130458336D01*
X105767712Y-130445710D01*
X105761418Y-130432403D01*
X105756459Y-130418543D01*
X105752882Y-130404264D01*
X105750722Y-130389703D01*
X105750000Y-130375000D01*
X105750000Y-130075000D01*
X105750722Y-130060297D01*
X105752882Y-130045736D01*
X105756459Y-130031457D01*
X105761418Y-130017597D01*
X105767712Y-130004290D01*
X105775280Y-129991664D01*
X105784048Y-129979841D01*
X105793934Y-129968934D01*
X105804841Y-129959048D01*
X105816664Y-129950280D01*
X105829290Y-129942712D01*
X105842597Y-129936418D01*
X105856457Y-129931459D01*
X105870736Y-129927882D01*
X105885297Y-129925722D01*
X105900000Y-129925000D01*
X107500000Y-129925000D01*
X107514703Y-129925722D01*
G37*
G36*
X107514703Y-131195722D02*
G01*
X107529264Y-131197882D01*
X107543543Y-131201459D01*
X107557403Y-131206418D01*
X107570710Y-131212712D01*
X107583336Y-131220280D01*
X107595159Y-131229048D01*
X107606066Y-131238934D01*
X107615952Y-131249841D01*
X107624720Y-131261664D01*
X107632288Y-131274290D01*
X107638582Y-131287597D01*
X107643541Y-131301457D01*
X107647118Y-131315736D01*
X107649278Y-131330297D01*
X107650000Y-131345000D01*
X107650000Y-131645000D01*
X107649278Y-131659703D01*
X107647118Y-131674264D01*
X107643541Y-131688543D01*
X107638582Y-131702403D01*
X107632288Y-131715710D01*
X107624720Y-131728336D01*
X107615952Y-131740159D01*
X107606066Y-131751066D01*
X107595159Y-131760952D01*
X107583336Y-131769720D01*
X107570710Y-131777288D01*
X107557403Y-131783582D01*
X107543543Y-131788541D01*
X107529264Y-131792118D01*
X107514703Y-131794278D01*
X107500000Y-131795000D01*
X105900000Y-131795000D01*
X105885297Y-131794278D01*
X105870736Y-131792118D01*
X105856457Y-131788541D01*
X105842597Y-131783582D01*
X105829290Y-131777288D01*
X105816664Y-131769720D01*
X105804841Y-131760952D01*
X105793934Y-131751066D01*
X105784048Y-131740159D01*
X105775280Y-131728336D01*
X105767712Y-131715710D01*
X105761418Y-131702403D01*
X105756459Y-131688543D01*
X105752882Y-131674264D01*
X105750722Y-131659703D01*
X105750000Y-131645000D01*
X105750000Y-131345000D01*
X105750722Y-131330297D01*
X105752882Y-131315736D01*
X105756459Y-131301457D01*
X105761418Y-131287597D01*
X105767712Y-131274290D01*
X105775280Y-131261664D01*
X105784048Y-131249841D01*
X105793934Y-131238934D01*
X105804841Y-131229048D01*
X105816664Y-131220280D01*
X105829290Y-131212712D01*
X105842597Y-131206418D01*
X105856457Y-131201459D01*
X105870736Y-131197882D01*
X105885297Y-131195722D01*
X105900000Y-131195000D01*
X107500000Y-131195000D01*
X107514703Y-131195722D01*
G37*
G36*
X107514703Y-132465722D02*
G01*
X107529264Y-132467882D01*
X107543543Y-132471459D01*
X107557403Y-132476418D01*
X107570710Y-132482712D01*
X107583336Y-132490280D01*
X107595159Y-132499048D01*
X107606066Y-132508934D01*
X107615952Y-132519841D01*
X107624720Y-132531664D01*
X107632288Y-132544290D01*
X107638582Y-132557597D01*
X107643541Y-132571457D01*
X107647118Y-132585736D01*
X107649278Y-132600297D01*
X107650000Y-132615000D01*
X107650000Y-132915000D01*
X107649278Y-132929703D01*
X107647118Y-132944264D01*
X107643541Y-132958543D01*
X107638582Y-132972403D01*
X107632288Y-132985710D01*
X107624720Y-132998336D01*
X107615952Y-133010159D01*
X107606066Y-133021066D01*
X107595159Y-133030952D01*
X107583336Y-133039720D01*
X107570710Y-133047288D01*
X107557403Y-133053582D01*
X107543543Y-133058541D01*
X107529264Y-133062118D01*
X107514703Y-133064278D01*
X107500000Y-133065000D01*
X105900000Y-133065000D01*
X105885297Y-133064278D01*
X105870736Y-133062118D01*
X105856457Y-133058541D01*
X105842597Y-133053582D01*
X105829290Y-133047288D01*
X105816664Y-133039720D01*
X105804841Y-133030952D01*
X105793934Y-133021066D01*
X105784048Y-133010159D01*
X105775280Y-132998336D01*
X105767712Y-132985710D01*
X105761418Y-132972403D01*
X105756459Y-132958543D01*
X105752882Y-132944264D01*
X105750722Y-132929703D01*
X105750000Y-132915000D01*
X105750000Y-132615000D01*
X105750722Y-132600297D01*
X105752882Y-132585736D01*
X105756459Y-132571457D01*
X105761418Y-132557597D01*
X105767712Y-132544290D01*
X105775280Y-132531664D01*
X105784048Y-132519841D01*
X105793934Y-132508934D01*
X105804841Y-132499048D01*
X105816664Y-132490280D01*
X105829290Y-132482712D01*
X105842597Y-132476418D01*
X105856457Y-132471459D01*
X105870736Y-132467882D01*
X105885297Y-132465722D01*
X105900000Y-132465000D01*
X107500000Y-132465000D01*
X107514703Y-132465722D01*
G37*
G36*
X107514703Y-133735722D02*
G01*
X107529264Y-133737882D01*
X107543543Y-133741459D01*
X107557403Y-133746418D01*
X107570710Y-133752712D01*
X107583336Y-133760280D01*
X107595159Y-133769048D01*
X107606066Y-133778934D01*
X107615952Y-133789841D01*
X107624720Y-133801664D01*
X107632288Y-133814290D01*
X107638582Y-133827597D01*
X107643541Y-133841457D01*
X107647118Y-133855736D01*
X107649278Y-133870297D01*
X107650000Y-133885000D01*
X107650000Y-134185000D01*
X107649278Y-134199703D01*
X107647118Y-134214264D01*
X107643541Y-134228543D01*
X107638582Y-134242403D01*
X107632288Y-134255710D01*
X107624720Y-134268336D01*
X107615952Y-134280159D01*
X107606066Y-134291066D01*
X107595159Y-134300952D01*
X107583336Y-134309720D01*
X107570710Y-134317288D01*
X107557403Y-134323582D01*
X107543543Y-134328541D01*
X107529264Y-134332118D01*
X107514703Y-134334278D01*
X107500000Y-134335000D01*
X105900000Y-134335000D01*
X105885297Y-134334278D01*
X105870736Y-134332118D01*
X105856457Y-134328541D01*
X105842597Y-134323582D01*
X105829290Y-134317288D01*
X105816664Y-134309720D01*
X105804841Y-134300952D01*
X105793934Y-134291066D01*
X105784048Y-134280159D01*
X105775280Y-134268336D01*
X105767712Y-134255710D01*
X105761418Y-134242403D01*
X105756459Y-134228543D01*
X105752882Y-134214264D01*
X105750722Y-134199703D01*
X105750000Y-134185000D01*
X105750000Y-133885000D01*
X105750722Y-133870297D01*
X105752882Y-133855736D01*
X105756459Y-133841457D01*
X105761418Y-133827597D01*
X105767712Y-133814290D01*
X105775280Y-133801664D01*
X105784048Y-133789841D01*
X105793934Y-133778934D01*
X105804841Y-133769048D01*
X105816664Y-133760280D01*
X105829290Y-133752712D01*
X105842597Y-133746418D01*
X105856457Y-133741459D01*
X105870736Y-133737882D01*
X105885297Y-133735722D01*
X105900000Y-133735000D01*
X107500000Y-133735000D01*
X107514703Y-133735722D01*
G37*
G36*
X107514703Y-135005722D02*
G01*
X107529264Y-135007882D01*
X107543543Y-135011459D01*
X107557403Y-135016418D01*
X107570710Y-135022712D01*
X107583336Y-135030280D01*
X107595159Y-135039048D01*
X107606066Y-135048934D01*
X107615952Y-135059841D01*
X107624720Y-135071664D01*
X107632288Y-135084290D01*
X107638582Y-135097597D01*
X107643541Y-135111457D01*
X107647118Y-135125736D01*
X107649278Y-135140297D01*
X107650000Y-135155000D01*
X107650000Y-135455000D01*
X107649278Y-135469703D01*
X107647118Y-135484264D01*
X107643541Y-135498543D01*
X107638582Y-135512403D01*
X107632288Y-135525710D01*
X107624720Y-135538336D01*
X107615952Y-135550159D01*
X107606066Y-135561066D01*
X107595159Y-135570952D01*
X107583336Y-135579720D01*
X107570710Y-135587288D01*
X107557403Y-135593582D01*
X107543543Y-135598541D01*
X107529264Y-135602118D01*
X107514703Y-135604278D01*
X107500000Y-135605000D01*
X105900000Y-135605000D01*
X105885297Y-135604278D01*
X105870736Y-135602118D01*
X105856457Y-135598541D01*
X105842597Y-135593582D01*
X105829290Y-135587288D01*
X105816664Y-135579720D01*
X105804841Y-135570952D01*
X105793934Y-135561066D01*
X105784048Y-135550159D01*
X105775280Y-135538336D01*
X105767712Y-135525710D01*
X105761418Y-135512403D01*
X105756459Y-135498543D01*
X105752882Y-135484264D01*
X105750722Y-135469703D01*
X105750000Y-135455000D01*
X105750000Y-135155000D01*
X105750722Y-135140297D01*
X105752882Y-135125736D01*
X105756459Y-135111457D01*
X105761418Y-135097597D01*
X105767712Y-135084290D01*
X105775280Y-135071664D01*
X105784048Y-135059841D01*
X105793934Y-135048934D01*
X105804841Y-135039048D01*
X105816664Y-135030280D01*
X105829290Y-135022712D01*
X105842597Y-135016418D01*
X105856457Y-135011459D01*
X105870736Y-135007882D01*
X105885297Y-135005722D01*
X105900000Y-135005000D01*
X107500000Y-135005000D01*
X107514703Y-135005722D01*
G37*
G36*
X107514703Y-136275722D02*
G01*
X107529264Y-136277882D01*
X107543543Y-136281459D01*
X107557403Y-136286418D01*
X107570710Y-136292712D01*
X107583336Y-136300280D01*
X107595159Y-136309048D01*
X107606066Y-136318934D01*
X107615952Y-136329841D01*
X107624720Y-136341664D01*
X107632288Y-136354290D01*
X107638582Y-136367597D01*
X107643541Y-136381457D01*
X107647118Y-136395736D01*
X107649278Y-136410297D01*
X107650000Y-136425000D01*
X107650000Y-136725000D01*
X107649278Y-136739703D01*
X107647118Y-136754264D01*
X107643541Y-136768543D01*
X107638582Y-136782403D01*
X107632288Y-136795710D01*
X107624720Y-136808336D01*
X107615952Y-136820159D01*
X107606066Y-136831066D01*
X107595159Y-136840952D01*
X107583336Y-136849720D01*
X107570710Y-136857288D01*
X107557403Y-136863582D01*
X107543543Y-136868541D01*
X107529264Y-136872118D01*
X107514703Y-136874278D01*
X107500000Y-136875000D01*
X105900000Y-136875000D01*
X105885297Y-136874278D01*
X105870736Y-136872118D01*
X105856457Y-136868541D01*
X105842597Y-136863582D01*
X105829290Y-136857288D01*
X105816664Y-136849720D01*
X105804841Y-136840952D01*
X105793934Y-136831066D01*
X105784048Y-136820159D01*
X105775280Y-136808336D01*
X105767712Y-136795710D01*
X105761418Y-136782403D01*
X105756459Y-136768543D01*
X105752882Y-136754264D01*
X105750722Y-136739703D01*
X105750000Y-136725000D01*
X105750000Y-136425000D01*
X105750722Y-136410297D01*
X105752882Y-136395736D01*
X105756459Y-136381457D01*
X105761418Y-136367597D01*
X105767712Y-136354290D01*
X105775280Y-136341664D01*
X105784048Y-136329841D01*
X105793934Y-136318934D01*
X105804841Y-136309048D01*
X105816664Y-136300280D01*
X105829290Y-136292712D01*
X105842597Y-136286418D01*
X105856457Y-136281459D01*
X105870736Y-136277882D01*
X105885297Y-136275722D01*
X105900000Y-136275000D01*
X107500000Y-136275000D01*
X107514703Y-136275722D01*
G37*
G36*
X107514703Y-137545722D02*
G01*
X107529264Y-137547882D01*
X107543543Y-137551459D01*
X107557403Y-137556418D01*
X107570710Y-137562712D01*
X107583336Y-137570280D01*
X107595159Y-137579048D01*
X107606066Y-137588934D01*
X107615952Y-137599841D01*
X107624720Y-137611664D01*
X107632288Y-137624290D01*
X107638582Y-137637597D01*
X107643541Y-137651457D01*
X107647118Y-137665736D01*
X107649278Y-137680297D01*
X107650000Y-137695000D01*
X107650000Y-137995000D01*
X107649278Y-138009703D01*
X107647118Y-138024264D01*
X107643541Y-138038543D01*
X107638582Y-138052403D01*
X107632288Y-138065710D01*
X107624720Y-138078336D01*
X107615952Y-138090159D01*
X107606066Y-138101066D01*
X107595159Y-138110952D01*
X107583336Y-138119720D01*
X107570710Y-138127288D01*
X107557403Y-138133582D01*
X107543543Y-138138541D01*
X107529264Y-138142118D01*
X107514703Y-138144278D01*
X107500000Y-138145000D01*
X105900000Y-138145000D01*
X105885297Y-138144278D01*
X105870736Y-138142118D01*
X105856457Y-138138541D01*
X105842597Y-138133582D01*
X105829290Y-138127288D01*
X105816664Y-138119720D01*
X105804841Y-138110952D01*
X105793934Y-138101066D01*
X105784048Y-138090159D01*
X105775280Y-138078336D01*
X105767712Y-138065710D01*
X105761418Y-138052403D01*
X105756459Y-138038543D01*
X105752882Y-138024264D01*
X105750722Y-138009703D01*
X105750000Y-137995000D01*
X105750000Y-137695000D01*
X105750722Y-137680297D01*
X105752882Y-137665736D01*
X105756459Y-137651457D01*
X105761418Y-137637597D01*
X105767712Y-137624290D01*
X105775280Y-137611664D01*
X105784048Y-137599841D01*
X105793934Y-137588934D01*
X105804841Y-137579048D01*
X105816664Y-137570280D01*
X105829290Y-137562712D01*
X105842597Y-137556418D01*
X105856457Y-137551459D01*
X105870736Y-137547882D01*
X105885297Y-137545722D01*
X105900000Y-137545000D01*
X107500000Y-137545000D01*
X107514703Y-137545722D01*
G37*
G36*
X107514703Y-138815722D02*
G01*
X107529264Y-138817882D01*
X107543543Y-138821459D01*
X107557403Y-138826418D01*
X107570710Y-138832712D01*
X107583336Y-138840280D01*
X107595159Y-138849048D01*
X107606066Y-138858934D01*
X107615952Y-138869841D01*
X107624720Y-138881664D01*
X107632288Y-138894290D01*
X107638582Y-138907597D01*
X107643541Y-138921457D01*
X107647118Y-138935736D01*
X107649278Y-138950297D01*
X107650000Y-138965000D01*
X107650000Y-139265000D01*
X107649278Y-139279703D01*
X107647118Y-139294264D01*
X107643541Y-139308543D01*
X107638582Y-139322403D01*
X107632288Y-139335710D01*
X107624720Y-139348336D01*
X107615952Y-139360159D01*
X107606066Y-139371066D01*
X107595159Y-139380952D01*
X107583336Y-139389720D01*
X107570710Y-139397288D01*
X107557403Y-139403582D01*
X107543543Y-139408541D01*
X107529264Y-139412118D01*
X107514703Y-139414278D01*
X107500000Y-139415000D01*
X105900000Y-139415000D01*
X105885297Y-139414278D01*
X105870736Y-139412118D01*
X105856457Y-139408541D01*
X105842597Y-139403582D01*
X105829290Y-139397288D01*
X105816664Y-139389720D01*
X105804841Y-139380952D01*
X105793934Y-139371066D01*
X105784048Y-139360159D01*
X105775280Y-139348336D01*
X105767712Y-139335710D01*
X105761418Y-139322403D01*
X105756459Y-139308543D01*
X105752882Y-139294264D01*
X105750722Y-139279703D01*
X105750000Y-139265000D01*
X105750000Y-138965000D01*
X105750722Y-138950297D01*
X105752882Y-138935736D01*
X105756459Y-138921457D01*
X105761418Y-138907597D01*
X105767712Y-138894290D01*
X105775280Y-138881664D01*
X105784048Y-138869841D01*
X105793934Y-138858934D01*
X105804841Y-138849048D01*
X105816664Y-138840280D01*
X105829290Y-138832712D01*
X105842597Y-138826418D01*
X105856457Y-138821459D01*
X105870736Y-138817882D01*
X105885297Y-138815722D01*
X105900000Y-138815000D01*
X107500000Y-138815000D01*
X107514703Y-138815722D01*
G37*
G36*
X98314703Y-138815722D02*
G01*
X98329264Y-138817882D01*
X98343543Y-138821459D01*
X98357403Y-138826418D01*
X98370710Y-138832712D01*
X98383336Y-138840280D01*
X98395159Y-138849048D01*
X98406066Y-138858934D01*
X98415952Y-138869841D01*
X98424720Y-138881664D01*
X98432288Y-138894290D01*
X98438582Y-138907597D01*
X98443541Y-138921457D01*
X98447118Y-138935736D01*
X98449278Y-138950297D01*
X98450000Y-138965000D01*
X98450000Y-139265000D01*
X98449278Y-139279703D01*
X98447118Y-139294264D01*
X98443541Y-139308543D01*
X98438582Y-139322403D01*
X98432288Y-139335710D01*
X98424720Y-139348336D01*
X98415952Y-139360159D01*
X98406066Y-139371066D01*
X98395159Y-139380952D01*
X98383336Y-139389720D01*
X98370710Y-139397288D01*
X98357403Y-139403582D01*
X98343543Y-139408541D01*
X98329264Y-139412118D01*
X98314703Y-139414278D01*
X98300000Y-139415000D01*
X96700000Y-139415000D01*
X96685297Y-139414278D01*
X96670736Y-139412118D01*
X96656457Y-139408541D01*
X96642597Y-139403582D01*
X96629290Y-139397288D01*
X96616664Y-139389720D01*
X96604841Y-139380952D01*
X96593934Y-139371066D01*
X96584048Y-139360159D01*
X96575280Y-139348336D01*
X96567712Y-139335710D01*
X96561418Y-139322403D01*
X96556459Y-139308543D01*
X96552882Y-139294264D01*
X96550722Y-139279703D01*
X96550000Y-139265000D01*
X96550000Y-138965000D01*
X96550722Y-138950297D01*
X96552882Y-138935736D01*
X96556459Y-138921457D01*
X96561418Y-138907597D01*
X96567712Y-138894290D01*
X96575280Y-138881664D01*
X96584048Y-138869841D01*
X96593934Y-138858934D01*
X96604841Y-138849048D01*
X96616664Y-138840280D01*
X96629290Y-138832712D01*
X96642597Y-138826418D01*
X96656457Y-138821459D01*
X96670736Y-138817882D01*
X96685297Y-138815722D01*
X96700000Y-138815000D01*
X98300000Y-138815000D01*
X98314703Y-138815722D01*
G37*
G36*
X98314703Y-137545722D02*
G01*
X98329264Y-137547882D01*
X98343543Y-137551459D01*
X98357403Y-137556418D01*
X98370710Y-137562712D01*
X98383336Y-137570280D01*
X98395159Y-137579048D01*
X98406066Y-137588934D01*
X98415952Y-137599841D01*
X98424720Y-137611664D01*
X98432288Y-137624290D01*
X98438582Y-137637597D01*
X98443541Y-137651457D01*
X98447118Y-137665736D01*
X98449278Y-137680297D01*
X98450000Y-137695000D01*
X98450000Y-137995000D01*
X98449278Y-138009703D01*
X98447118Y-138024264D01*
X98443541Y-138038543D01*
X98438582Y-138052403D01*
X98432288Y-138065710D01*
X98424720Y-138078336D01*
X98415952Y-138090159D01*
X98406066Y-138101066D01*
X98395159Y-138110952D01*
X98383336Y-138119720D01*
X98370710Y-138127288D01*
X98357403Y-138133582D01*
X98343543Y-138138541D01*
X98329264Y-138142118D01*
X98314703Y-138144278D01*
X98300000Y-138145000D01*
X96700000Y-138145000D01*
X96685297Y-138144278D01*
X96670736Y-138142118D01*
X96656457Y-138138541D01*
X96642597Y-138133582D01*
X96629290Y-138127288D01*
X96616664Y-138119720D01*
X96604841Y-138110952D01*
X96593934Y-138101066D01*
X96584048Y-138090159D01*
X96575280Y-138078336D01*
X96567712Y-138065710D01*
X96561418Y-138052403D01*
X96556459Y-138038543D01*
X96552882Y-138024264D01*
X96550722Y-138009703D01*
X96550000Y-137995000D01*
X96550000Y-137695000D01*
X96550722Y-137680297D01*
X96552882Y-137665736D01*
X96556459Y-137651457D01*
X96561418Y-137637597D01*
X96567712Y-137624290D01*
X96575280Y-137611664D01*
X96584048Y-137599841D01*
X96593934Y-137588934D01*
X96604841Y-137579048D01*
X96616664Y-137570280D01*
X96629290Y-137562712D01*
X96642597Y-137556418D01*
X96656457Y-137551459D01*
X96670736Y-137547882D01*
X96685297Y-137545722D01*
X96700000Y-137545000D01*
X98300000Y-137545000D01*
X98314703Y-137545722D01*
G37*
G36*
X98314703Y-136275722D02*
G01*
X98329264Y-136277882D01*
X98343543Y-136281459D01*
X98357403Y-136286418D01*
X98370710Y-136292712D01*
X98383336Y-136300280D01*
X98395159Y-136309048D01*
X98406066Y-136318934D01*
X98415952Y-136329841D01*
X98424720Y-136341664D01*
X98432288Y-136354290D01*
X98438582Y-136367597D01*
X98443541Y-136381457D01*
X98447118Y-136395736D01*
X98449278Y-136410297D01*
X98450000Y-136425000D01*
X98450000Y-136725000D01*
X98449278Y-136739703D01*
X98447118Y-136754264D01*
X98443541Y-136768543D01*
X98438582Y-136782403D01*
X98432288Y-136795710D01*
X98424720Y-136808336D01*
X98415952Y-136820159D01*
X98406066Y-136831066D01*
X98395159Y-136840952D01*
X98383336Y-136849720D01*
X98370710Y-136857288D01*
X98357403Y-136863582D01*
X98343543Y-136868541D01*
X98329264Y-136872118D01*
X98314703Y-136874278D01*
X98300000Y-136875000D01*
X96700000Y-136875000D01*
X96685297Y-136874278D01*
X96670736Y-136872118D01*
X96656457Y-136868541D01*
X96642597Y-136863582D01*
X96629290Y-136857288D01*
X96616664Y-136849720D01*
X96604841Y-136840952D01*
X96593934Y-136831066D01*
X96584048Y-136820159D01*
X96575280Y-136808336D01*
X96567712Y-136795710D01*
X96561418Y-136782403D01*
X96556459Y-136768543D01*
X96552882Y-136754264D01*
X96550722Y-136739703D01*
X96550000Y-136725000D01*
X96550000Y-136425000D01*
X96550722Y-136410297D01*
X96552882Y-136395736D01*
X96556459Y-136381457D01*
X96561418Y-136367597D01*
X96567712Y-136354290D01*
X96575280Y-136341664D01*
X96584048Y-136329841D01*
X96593934Y-136318934D01*
X96604841Y-136309048D01*
X96616664Y-136300280D01*
X96629290Y-136292712D01*
X96642597Y-136286418D01*
X96656457Y-136281459D01*
X96670736Y-136277882D01*
X96685297Y-136275722D01*
X96700000Y-136275000D01*
X98300000Y-136275000D01*
X98314703Y-136275722D01*
G37*
G36*
X98314703Y-135005722D02*
G01*
X98329264Y-135007882D01*
X98343543Y-135011459D01*
X98357403Y-135016418D01*
X98370710Y-135022712D01*
X98383336Y-135030280D01*
X98395159Y-135039048D01*
X98406066Y-135048934D01*
X98415952Y-135059841D01*
X98424720Y-135071664D01*
X98432288Y-135084290D01*
X98438582Y-135097597D01*
X98443541Y-135111457D01*
X98447118Y-135125736D01*
X98449278Y-135140297D01*
X98450000Y-135155000D01*
X98450000Y-135455000D01*
X98449278Y-135469703D01*
X98447118Y-135484264D01*
X98443541Y-135498543D01*
X98438582Y-135512403D01*
X98432288Y-135525710D01*
X98424720Y-135538336D01*
X98415952Y-135550159D01*
X98406066Y-135561066D01*
X98395159Y-135570952D01*
X98383336Y-135579720D01*
X98370710Y-135587288D01*
X98357403Y-135593582D01*
X98343543Y-135598541D01*
X98329264Y-135602118D01*
X98314703Y-135604278D01*
X98300000Y-135605000D01*
X96700000Y-135605000D01*
X96685297Y-135604278D01*
X96670736Y-135602118D01*
X96656457Y-135598541D01*
X96642597Y-135593582D01*
X96629290Y-135587288D01*
X96616664Y-135579720D01*
X96604841Y-135570952D01*
X96593934Y-135561066D01*
X96584048Y-135550159D01*
X96575280Y-135538336D01*
X96567712Y-135525710D01*
X96561418Y-135512403D01*
X96556459Y-135498543D01*
X96552882Y-135484264D01*
X96550722Y-135469703D01*
X96550000Y-135455000D01*
X96550000Y-135155000D01*
X96550722Y-135140297D01*
X96552882Y-135125736D01*
X96556459Y-135111457D01*
X96561418Y-135097597D01*
X96567712Y-135084290D01*
X96575280Y-135071664D01*
X96584048Y-135059841D01*
X96593934Y-135048934D01*
X96604841Y-135039048D01*
X96616664Y-135030280D01*
X96629290Y-135022712D01*
X96642597Y-135016418D01*
X96656457Y-135011459D01*
X96670736Y-135007882D01*
X96685297Y-135005722D01*
X96700000Y-135005000D01*
X98300000Y-135005000D01*
X98314703Y-135005722D01*
G37*
G36*
X98314703Y-133735722D02*
G01*
X98329264Y-133737882D01*
X98343543Y-133741459D01*
X98357403Y-133746418D01*
X98370710Y-133752712D01*
X98383336Y-133760280D01*
X98395159Y-133769048D01*
X98406066Y-133778934D01*
X98415952Y-133789841D01*
X98424720Y-133801664D01*
X98432288Y-133814290D01*
X98438582Y-133827597D01*
X98443541Y-133841457D01*
X98447118Y-133855736D01*
X98449278Y-133870297D01*
X98450000Y-133885000D01*
X98450000Y-134185000D01*
X98449278Y-134199703D01*
X98447118Y-134214264D01*
X98443541Y-134228543D01*
X98438582Y-134242403D01*
X98432288Y-134255710D01*
X98424720Y-134268336D01*
X98415952Y-134280159D01*
X98406066Y-134291066D01*
X98395159Y-134300952D01*
X98383336Y-134309720D01*
X98370710Y-134317288D01*
X98357403Y-134323582D01*
X98343543Y-134328541D01*
X98329264Y-134332118D01*
X98314703Y-134334278D01*
X98300000Y-134335000D01*
X96700000Y-134335000D01*
X96685297Y-134334278D01*
X96670736Y-134332118D01*
X96656457Y-134328541D01*
X96642597Y-134323582D01*
X96629290Y-134317288D01*
X96616664Y-134309720D01*
X96604841Y-134300952D01*
X96593934Y-134291066D01*
X96584048Y-134280159D01*
X96575280Y-134268336D01*
X96567712Y-134255710D01*
X96561418Y-134242403D01*
X96556459Y-134228543D01*
X96552882Y-134214264D01*
X96550722Y-134199703D01*
X96550000Y-134185000D01*
X96550000Y-133885000D01*
X96550722Y-133870297D01*
X96552882Y-133855736D01*
X96556459Y-133841457D01*
X96561418Y-133827597D01*
X96567712Y-133814290D01*
X96575280Y-133801664D01*
X96584048Y-133789841D01*
X96593934Y-133778934D01*
X96604841Y-133769048D01*
X96616664Y-133760280D01*
X96629290Y-133752712D01*
X96642597Y-133746418D01*
X96656457Y-133741459D01*
X96670736Y-133737882D01*
X96685297Y-133735722D01*
X96700000Y-133735000D01*
X98300000Y-133735000D01*
X98314703Y-133735722D01*
G37*
G36*
X98314703Y-132465722D02*
G01*
X98329264Y-132467882D01*
X98343543Y-132471459D01*
X98357403Y-132476418D01*
X98370710Y-132482712D01*
X98383336Y-132490280D01*
X98395159Y-132499048D01*
X98406066Y-132508934D01*
X98415952Y-132519841D01*
X98424720Y-132531664D01*
X98432288Y-132544290D01*
X98438582Y-132557597D01*
X98443541Y-132571457D01*
X98447118Y-132585736D01*
X98449278Y-132600297D01*
X98450000Y-132615000D01*
X98450000Y-132915000D01*
X98449278Y-132929703D01*
X98447118Y-132944264D01*
X98443541Y-132958543D01*
X98438582Y-132972403D01*
X98432288Y-132985710D01*
X98424720Y-132998336D01*
X98415952Y-133010159D01*
X98406066Y-133021066D01*
X98395159Y-133030952D01*
X98383336Y-133039720D01*
X98370710Y-133047288D01*
X98357403Y-133053582D01*
X98343543Y-133058541D01*
X98329264Y-133062118D01*
X98314703Y-133064278D01*
X98300000Y-133065000D01*
X96700000Y-133065000D01*
X96685297Y-133064278D01*
X96670736Y-133062118D01*
X96656457Y-133058541D01*
X96642597Y-133053582D01*
X96629290Y-133047288D01*
X96616664Y-133039720D01*
X96604841Y-133030952D01*
X96593934Y-133021066D01*
X96584048Y-133010159D01*
X96575280Y-132998336D01*
X96567712Y-132985710D01*
X96561418Y-132972403D01*
X96556459Y-132958543D01*
X96552882Y-132944264D01*
X96550722Y-132929703D01*
X96550000Y-132915000D01*
X96550000Y-132615000D01*
X96550722Y-132600297D01*
X96552882Y-132585736D01*
X96556459Y-132571457D01*
X96561418Y-132557597D01*
X96567712Y-132544290D01*
X96575280Y-132531664D01*
X96584048Y-132519841D01*
X96593934Y-132508934D01*
X96604841Y-132499048D01*
X96616664Y-132490280D01*
X96629290Y-132482712D01*
X96642597Y-132476418D01*
X96656457Y-132471459D01*
X96670736Y-132467882D01*
X96685297Y-132465722D01*
X96700000Y-132465000D01*
X98300000Y-132465000D01*
X98314703Y-132465722D01*
G37*
G36*
X98314703Y-131195722D02*
G01*
X98329264Y-131197882D01*
X98343543Y-131201459D01*
X98357403Y-131206418D01*
X98370710Y-131212712D01*
X98383336Y-131220280D01*
X98395159Y-131229048D01*
X98406066Y-131238934D01*
X98415952Y-131249841D01*
X98424720Y-131261664D01*
X98432288Y-131274290D01*
X98438582Y-131287597D01*
X98443541Y-131301457D01*
X98447118Y-131315736D01*
X98449278Y-131330297D01*
X98450000Y-131345000D01*
X98450000Y-131645000D01*
X98449278Y-131659703D01*
X98447118Y-131674264D01*
X98443541Y-131688543D01*
X98438582Y-131702403D01*
X98432288Y-131715710D01*
X98424720Y-131728336D01*
X98415952Y-131740159D01*
X98406066Y-131751066D01*
X98395159Y-131760952D01*
X98383336Y-131769720D01*
X98370710Y-131777288D01*
X98357403Y-131783582D01*
X98343543Y-131788541D01*
X98329264Y-131792118D01*
X98314703Y-131794278D01*
X98300000Y-131795000D01*
X96700000Y-131795000D01*
X96685297Y-131794278D01*
X96670736Y-131792118D01*
X96656457Y-131788541D01*
X96642597Y-131783582D01*
X96629290Y-131777288D01*
X96616664Y-131769720D01*
X96604841Y-131760952D01*
X96593934Y-131751066D01*
X96584048Y-131740159D01*
X96575280Y-131728336D01*
X96567712Y-131715710D01*
X96561418Y-131702403D01*
X96556459Y-131688543D01*
X96552882Y-131674264D01*
X96550722Y-131659703D01*
X96550000Y-131645000D01*
X96550000Y-131345000D01*
X96550722Y-131330297D01*
X96552882Y-131315736D01*
X96556459Y-131301457D01*
X96561418Y-131287597D01*
X96567712Y-131274290D01*
X96575280Y-131261664D01*
X96584048Y-131249841D01*
X96593934Y-131238934D01*
X96604841Y-131229048D01*
X96616664Y-131220280D01*
X96629290Y-131212712D01*
X96642597Y-131206418D01*
X96656457Y-131201459D01*
X96670736Y-131197882D01*
X96685297Y-131195722D01*
X96700000Y-131195000D01*
X98300000Y-131195000D01*
X98314703Y-131195722D01*
G37*
G36*
X98314703Y-129925722D02*
G01*
X98329264Y-129927882D01*
X98343543Y-129931459D01*
X98357403Y-129936418D01*
X98370710Y-129942712D01*
X98383336Y-129950280D01*
X98395159Y-129959048D01*
X98406066Y-129968934D01*
X98415952Y-129979841D01*
X98424720Y-129991664D01*
X98432288Y-130004290D01*
X98438582Y-130017597D01*
X98443541Y-130031457D01*
X98447118Y-130045736D01*
X98449278Y-130060297D01*
X98450000Y-130075000D01*
X98450000Y-130375000D01*
X98449278Y-130389703D01*
X98447118Y-130404264D01*
X98443541Y-130418543D01*
X98438582Y-130432403D01*
X98432288Y-130445710D01*
X98424720Y-130458336D01*
X98415952Y-130470159D01*
X98406066Y-130481066D01*
X98395159Y-130490952D01*
X98383336Y-130499720D01*
X98370710Y-130507288D01*
X98357403Y-130513582D01*
X98343543Y-130518541D01*
X98329264Y-130522118D01*
X98314703Y-130524278D01*
X98300000Y-130525000D01*
X96700000Y-130525000D01*
X96685297Y-130524278D01*
X96670736Y-130522118D01*
X96656457Y-130518541D01*
X96642597Y-130513582D01*
X96629290Y-130507288D01*
X96616664Y-130499720D01*
X96604841Y-130490952D01*
X96593934Y-130481066D01*
X96584048Y-130470159D01*
X96575280Y-130458336D01*
X96567712Y-130445710D01*
X96561418Y-130432403D01*
X96556459Y-130418543D01*
X96552882Y-130404264D01*
X96550722Y-130389703D01*
X96550000Y-130375000D01*
X96550000Y-130075000D01*
X96550722Y-130060297D01*
X96552882Y-130045736D01*
X96556459Y-130031457D01*
X96561418Y-130017597D01*
X96567712Y-130004290D01*
X96575280Y-129991664D01*
X96584048Y-129979841D01*
X96593934Y-129968934D01*
X96604841Y-129959048D01*
X96616664Y-129950280D01*
X96629290Y-129942712D01*
X96642597Y-129936418D01*
X96656457Y-129931459D01*
X96670736Y-129927882D01*
X96685297Y-129925722D01*
X96700000Y-129925000D01*
X98300000Y-129925000D01*
X98314703Y-129925722D01*
G37*
G36*
X98314703Y-128655722D02*
G01*
X98329264Y-128657882D01*
X98343543Y-128661459D01*
X98357403Y-128666418D01*
X98370710Y-128672712D01*
X98383336Y-128680280D01*
X98395159Y-128689048D01*
X98406066Y-128698934D01*
X98415952Y-128709841D01*
X98424720Y-128721664D01*
X98432288Y-128734290D01*
X98438582Y-128747597D01*
X98443541Y-128761457D01*
X98447118Y-128775736D01*
X98449278Y-128790297D01*
X98450000Y-128805000D01*
X98450000Y-129105000D01*
X98449278Y-129119703D01*
X98447118Y-129134264D01*
X98443541Y-129148543D01*
X98438582Y-129162403D01*
X98432288Y-129175710D01*
X98424720Y-129188336D01*
X98415952Y-129200159D01*
X98406066Y-129211066D01*
X98395159Y-129220952D01*
X98383336Y-129229720D01*
X98370710Y-129237288D01*
X98357403Y-129243582D01*
X98343543Y-129248541D01*
X98329264Y-129252118D01*
X98314703Y-129254278D01*
X98300000Y-129255000D01*
X96700000Y-129255000D01*
X96685297Y-129254278D01*
X96670736Y-129252118D01*
X96656457Y-129248541D01*
X96642597Y-129243582D01*
X96629290Y-129237288D01*
X96616664Y-129229720D01*
X96604841Y-129220952D01*
X96593934Y-129211066D01*
X96584048Y-129200159D01*
X96575280Y-129188336D01*
X96567712Y-129175710D01*
X96561418Y-129162403D01*
X96556459Y-129148543D01*
X96552882Y-129134264D01*
X96550722Y-129119703D01*
X96550000Y-129105000D01*
X96550000Y-128805000D01*
X96550722Y-128790297D01*
X96552882Y-128775736D01*
X96556459Y-128761457D01*
X96561418Y-128747597D01*
X96567712Y-128734290D01*
X96575280Y-128721664D01*
X96584048Y-128709841D01*
X96593934Y-128698934D01*
X96604841Y-128689048D01*
X96616664Y-128680280D01*
X96629290Y-128672712D01*
X96642597Y-128666418D01*
X96656457Y-128661459D01*
X96670736Y-128657882D01*
X96685297Y-128655722D01*
X96700000Y-128655000D01*
X98300000Y-128655000D01*
X98314703Y-128655722D01*
G37*
G36*
X98314703Y-127385722D02*
G01*
X98329264Y-127387882D01*
X98343543Y-127391459D01*
X98357403Y-127396418D01*
X98370710Y-127402712D01*
X98383336Y-127410280D01*
X98395159Y-127419048D01*
X98406066Y-127428934D01*
X98415952Y-127439841D01*
X98424720Y-127451664D01*
X98432288Y-127464290D01*
X98438582Y-127477597D01*
X98443541Y-127491457D01*
X98447118Y-127505736D01*
X98449278Y-127520297D01*
X98450000Y-127535000D01*
X98450000Y-127835000D01*
X98449278Y-127849703D01*
X98447118Y-127864264D01*
X98443541Y-127878543D01*
X98438582Y-127892403D01*
X98432288Y-127905710D01*
X98424720Y-127918336D01*
X98415952Y-127930159D01*
X98406066Y-127941066D01*
X98395159Y-127950952D01*
X98383336Y-127959720D01*
X98370710Y-127967288D01*
X98357403Y-127973582D01*
X98343543Y-127978541D01*
X98329264Y-127982118D01*
X98314703Y-127984278D01*
X98300000Y-127985000D01*
X96700000Y-127985000D01*
X96685297Y-127984278D01*
X96670736Y-127982118D01*
X96656457Y-127978541D01*
X96642597Y-127973582D01*
X96629290Y-127967288D01*
X96616664Y-127959720D01*
X96604841Y-127950952D01*
X96593934Y-127941066D01*
X96584048Y-127930159D01*
X96575280Y-127918336D01*
X96567712Y-127905710D01*
X96561418Y-127892403D01*
X96556459Y-127878543D01*
X96552882Y-127864264D01*
X96550722Y-127849703D01*
X96550000Y-127835000D01*
X96550000Y-127535000D01*
X96550722Y-127520297D01*
X96552882Y-127505736D01*
X96556459Y-127491457D01*
X96561418Y-127477597D01*
X96567712Y-127464290D01*
X96575280Y-127451664D01*
X96584048Y-127439841D01*
X96593934Y-127428934D01*
X96604841Y-127419048D01*
X96616664Y-127410280D01*
X96629290Y-127402712D01*
X96642597Y-127396418D01*
X96656457Y-127391459D01*
X96670736Y-127387882D01*
X96685297Y-127385722D01*
X96700000Y-127385000D01*
X98300000Y-127385000D01*
X98314703Y-127385722D01*
G37*
G36*
X107214703Y-111285722D02*
G01*
X107229264Y-111287882D01*
X107243543Y-111291459D01*
X107257403Y-111296418D01*
X107270710Y-111302712D01*
X107283336Y-111310280D01*
X107295159Y-111319048D01*
X107306066Y-111328934D01*
X107315952Y-111339841D01*
X107324720Y-111351664D01*
X107332288Y-111364290D01*
X107338582Y-111377597D01*
X107343541Y-111391457D01*
X107347118Y-111405736D01*
X107349278Y-111420297D01*
X107350000Y-111435000D01*
X107350000Y-111735000D01*
X107349278Y-111749703D01*
X107347118Y-111764264D01*
X107343541Y-111778543D01*
X107338582Y-111792403D01*
X107332288Y-111805710D01*
X107324720Y-111818336D01*
X107315952Y-111830159D01*
X107306066Y-111841066D01*
X107295159Y-111850952D01*
X107283336Y-111859720D01*
X107270710Y-111867288D01*
X107257403Y-111873582D01*
X107243543Y-111878541D01*
X107229264Y-111882118D01*
X107214703Y-111884278D01*
X107200000Y-111885000D01*
X105600000Y-111885000D01*
X105585297Y-111884278D01*
X105570736Y-111882118D01*
X105556457Y-111878541D01*
X105542597Y-111873582D01*
X105529290Y-111867288D01*
X105516664Y-111859720D01*
X105504841Y-111850952D01*
X105493934Y-111841066D01*
X105484048Y-111830159D01*
X105475280Y-111818336D01*
X105467712Y-111805710D01*
X105461418Y-111792403D01*
X105456459Y-111778543D01*
X105452882Y-111764264D01*
X105450722Y-111749703D01*
X105450000Y-111735000D01*
X105450000Y-111435000D01*
X105450722Y-111420297D01*
X105452882Y-111405736D01*
X105456459Y-111391457D01*
X105461418Y-111377597D01*
X105467712Y-111364290D01*
X105475280Y-111351664D01*
X105484048Y-111339841D01*
X105493934Y-111328934D01*
X105504841Y-111319048D01*
X105516664Y-111310280D01*
X105529290Y-111302712D01*
X105542597Y-111296418D01*
X105556457Y-111291459D01*
X105570736Y-111287882D01*
X105585297Y-111285722D01*
X105600000Y-111285000D01*
X107200000Y-111285000D01*
X107214703Y-111285722D01*
G37*
G36*
X107214703Y-112555722D02*
G01*
X107229264Y-112557882D01*
X107243543Y-112561459D01*
X107257403Y-112566418D01*
X107270710Y-112572712D01*
X107283336Y-112580280D01*
X107295159Y-112589048D01*
X107306066Y-112598934D01*
X107315952Y-112609841D01*
X107324720Y-112621664D01*
X107332288Y-112634290D01*
X107338582Y-112647597D01*
X107343541Y-112661457D01*
X107347118Y-112675736D01*
X107349278Y-112690297D01*
X107350000Y-112705000D01*
X107350000Y-113005000D01*
X107349278Y-113019703D01*
X107347118Y-113034264D01*
X107343541Y-113048543D01*
X107338582Y-113062403D01*
X107332288Y-113075710D01*
X107324720Y-113088336D01*
X107315952Y-113100159D01*
X107306066Y-113111066D01*
X107295159Y-113120952D01*
X107283336Y-113129720D01*
X107270710Y-113137288D01*
X107257403Y-113143582D01*
X107243543Y-113148541D01*
X107229264Y-113152118D01*
X107214703Y-113154278D01*
X107200000Y-113155000D01*
X105600000Y-113155000D01*
X105585297Y-113154278D01*
X105570736Y-113152118D01*
X105556457Y-113148541D01*
X105542597Y-113143582D01*
X105529290Y-113137288D01*
X105516664Y-113129720D01*
X105504841Y-113120952D01*
X105493934Y-113111066D01*
X105484048Y-113100159D01*
X105475280Y-113088336D01*
X105467712Y-113075710D01*
X105461418Y-113062403D01*
X105456459Y-113048543D01*
X105452882Y-113034264D01*
X105450722Y-113019703D01*
X105450000Y-113005000D01*
X105450000Y-112705000D01*
X105450722Y-112690297D01*
X105452882Y-112675736D01*
X105456459Y-112661457D01*
X105461418Y-112647597D01*
X105467712Y-112634290D01*
X105475280Y-112621664D01*
X105484048Y-112609841D01*
X105493934Y-112598934D01*
X105504841Y-112589048D01*
X105516664Y-112580280D01*
X105529290Y-112572712D01*
X105542597Y-112566418D01*
X105556457Y-112561459D01*
X105570736Y-112557882D01*
X105585297Y-112555722D01*
X105600000Y-112555000D01*
X107200000Y-112555000D01*
X107214703Y-112555722D01*
G37*
G36*
X107214703Y-113825722D02*
G01*
X107229264Y-113827882D01*
X107243543Y-113831459D01*
X107257403Y-113836418D01*
X107270710Y-113842712D01*
X107283336Y-113850280D01*
X107295159Y-113859048D01*
X107306066Y-113868934D01*
X107315952Y-113879841D01*
X107324720Y-113891664D01*
X107332288Y-113904290D01*
X107338582Y-113917597D01*
X107343541Y-113931457D01*
X107347118Y-113945736D01*
X107349278Y-113960297D01*
X107350000Y-113975000D01*
X107350000Y-114275000D01*
X107349278Y-114289703D01*
X107347118Y-114304264D01*
X107343541Y-114318543D01*
X107338582Y-114332403D01*
X107332288Y-114345710D01*
X107324720Y-114358336D01*
X107315952Y-114370159D01*
X107306066Y-114381066D01*
X107295159Y-114390952D01*
X107283336Y-114399720D01*
X107270710Y-114407288D01*
X107257403Y-114413582D01*
X107243543Y-114418541D01*
X107229264Y-114422118D01*
X107214703Y-114424278D01*
X107200000Y-114425000D01*
X105600000Y-114425000D01*
X105585297Y-114424278D01*
X105570736Y-114422118D01*
X105556457Y-114418541D01*
X105542597Y-114413582D01*
X105529290Y-114407288D01*
X105516664Y-114399720D01*
X105504841Y-114390952D01*
X105493934Y-114381066D01*
X105484048Y-114370159D01*
X105475280Y-114358336D01*
X105467712Y-114345710D01*
X105461418Y-114332403D01*
X105456459Y-114318543D01*
X105452882Y-114304264D01*
X105450722Y-114289703D01*
X105450000Y-114275000D01*
X105450000Y-113975000D01*
X105450722Y-113960297D01*
X105452882Y-113945736D01*
X105456459Y-113931457D01*
X105461418Y-113917597D01*
X105467712Y-113904290D01*
X105475280Y-113891664D01*
X105484048Y-113879841D01*
X105493934Y-113868934D01*
X105504841Y-113859048D01*
X105516664Y-113850280D01*
X105529290Y-113842712D01*
X105542597Y-113836418D01*
X105556457Y-113831459D01*
X105570736Y-113827882D01*
X105585297Y-113825722D01*
X105600000Y-113825000D01*
X107200000Y-113825000D01*
X107214703Y-113825722D01*
G37*
G36*
X107214703Y-115095722D02*
G01*
X107229264Y-115097882D01*
X107243543Y-115101459D01*
X107257403Y-115106418D01*
X107270710Y-115112712D01*
X107283336Y-115120280D01*
X107295159Y-115129048D01*
X107306066Y-115138934D01*
X107315952Y-115149841D01*
X107324720Y-115161664D01*
X107332288Y-115174290D01*
X107338582Y-115187597D01*
X107343541Y-115201457D01*
X107347118Y-115215736D01*
X107349278Y-115230297D01*
X107350000Y-115245000D01*
X107350000Y-115545000D01*
X107349278Y-115559703D01*
X107347118Y-115574264D01*
X107343541Y-115588543D01*
X107338582Y-115602403D01*
X107332288Y-115615710D01*
X107324720Y-115628336D01*
X107315952Y-115640159D01*
X107306066Y-115651066D01*
X107295159Y-115660952D01*
X107283336Y-115669720D01*
X107270710Y-115677288D01*
X107257403Y-115683582D01*
X107243543Y-115688541D01*
X107229264Y-115692118D01*
X107214703Y-115694278D01*
X107200000Y-115695000D01*
X105600000Y-115695000D01*
X105585297Y-115694278D01*
X105570736Y-115692118D01*
X105556457Y-115688541D01*
X105542597Y-115683582D01*
X105529290Y-115677288D01*
X105516664Y-115669720D01*
X105504841Y-115660952D01*
X105493934Y-115651066D01*
X105484048Y-115640159D01*
X105475280Y-115628336D01*
X105467712Y-115615710D01*
X105461418Y-115602403D01*
X105456459Y-115588543D01*
X105452882Y-115574264D01*
X105450722Y-115559703D01*
X105450000Y-115545000D01*
X105450000Y-115245000D01*
X105450722Y-115230297D01*
X105452882Y-115215736D01*
X105456459Y-115201457D01*
X105461418Y-115187597D01*
X105467712Y-115174290D01*
X105475280Y-115161664D01*
X105484048Y-115149841D01*
X105493934Y-115138934D01*
X105504841Y-115129048D01*
X105516664Y-115120280D01*
X105529290Y-115112712D01*
X105542597Y-115106418D01*
X105556457Y-115101459D01*
X105570736Y-115097882D01*
X105585297Y-115095722D01*
X105600000Y-115095000D01*
X107200000Y-115095000D01*
X107214703Y-115095722D01*
G37*
G36*
X107214703Y-116365722D02*
G01*
X107229264Y-116367882D01*
X107243543Y-116371459D01*
X107257403Y-116376418D01*
X107270710Y-116382712D01*
X107283336Y-116390280D01*
X107295159Y-116399048D01*
X107306066Y-116408934D01*
X107315952Y-116419841D01*
X107324720Y-116431664D01*
X107332288Y-116444290D01*
X107338582Y-116457597D01*
X107343541Y-116471457D01*
X107347118Y-116485736D01*
X107349278Y-116500297D01*
X107350000Y-116515000D01*
X107350000Y-116815000D01*
X107349278Y-116829703D01*
X107347118Y-116844264D01*
X107343541Y-116858543D01*
X107338582Y-116872403D01*
X107332288Y-116885710D01*
X107324720Y-116898336D01*
X107315952Y-116910159D01*
X107306066Y-116921066D01*
X107295159Y-116930952D01*
X107283336Y-116939720D01*
X107270710Y-116947288D01*
X107257403Y-116953582D01*
X107243543Y-116958541D01*
X107229264Y-116962118D01*
X107214703Y-116964278D01*
X107200000Y-116965000D01*
X105600000Y-116965000D01*
X105585297Y-116964278D01*
X105570736Y-116962118D01*
X105556457Y-116958541D01*
X105542597Y-116953582D01*
X105529290Y-116947288D01*
X105516664Y-116939720D01*
X105504841Y-116930952D01*
X105493934Y-116921066D01*
X105484048Y-116910159D01*
X105475280Y-116898336D01*
X105467712Y-116885710D01*
X105461418Y-116872403D01*
X105456459Y-116858543D01*
X105452882Y-116844264D01*
X105450722Y-116829703D01*
X105450000Y-116815000D01*
X105450000Y-116515000D01*
X105450722Y-116500297D01*
X105452882Y-116485736D01*
X105456459Y-116471457D01*
X105461418Y-116457597D01*
X105467712Y-116444290D01*
X105475280Y-116431664D01*
X105484048Y-116419841D01*
X105493934Y-116408934D01*
X105504841Y-116399048D01*
X105516664Y-116390280D01*
X105529290Y-116382712D01*
X105542597Y-116376418D01*
X105556457Y-116371459D01*
X105570736Y-116367882D01*
X105585297Y-116365722D01*
X105600000Y-116365000D01*
X107200000Y-116365000D01*
X107214703Y-116365722D01*
G37*
G36*
X107214703Y-117635722D02*
G01*
X107229264Y-117637882D01*
X107243543Y-117641459D01*
X107257403Y-117646418D01*
X107270710Y-117652712D01*
X107283336Y-117660280D01*
X107295159Y-117669048D01*
X107306066Y-117678934D01*
X107315952Y-117689841D01*
X107324720Y-117701664D01*
X107332288Y-117714290D01*
X107338582Y-117727597D01*
X107343541Y-117741457D01*
X107347118Y-117755736D01*
X107349278Y-117770297D01*
X107350000Y-117785000D01*
X107350000Y-118085000D01*
X107349278Y-118099703D01*
X107347118Y-118114264D01*
X107343541Y-118128543D01*
X107338582Y-118142403D01*
X107332288Y-118155710D01*
X107324720Y-118168336D01*
X107315952Y-118180159D01*
X107306066Y-118191066D01*
X107295159Y-118200952D01*
X107283336Y-118209720D01*
X107270710Y-118217288D01*
X107257403Y-118223582D01*
X107243543Y-118228541D01*
X107229264Y-118232118D01*
X107214703Y-118234278D01*
X107200000Y-118235000D01*
X105600000Y-118235000D01*
X105585297Y-118234278D01*
X105570736Y-118232118D01*
X105556457Y-118228541D01*
X105542597Y-118223582D01*
X105529290Y-118217288D01*
X105516664Y-118209720D01*
X105504841Y-118200952D01*
X105493934Y-118191066D01*
X105484048Y-118180159D01*
X105475280Y-118168336D01*
X105467712Y-118155710D01*
X105461418Y-118142403D01*
X105456459Y-118128543D01*
X105452882Y-118114264D01*
X105450722Y-118099703D01*
X105450000Y-118085000D01*
X105450000Y-117785000D01*
X105450722Y-117770297D01*
X105452882Y-117755736D01*
X105456459Y-117741457D01*
X105461418Y-117727597D01*
X105467712Y-117714290D01*
X105475280Y-117701664D01*
X105484048Y-117689841D01*
X105493934Y-117678934D01*
X105504841Y-117669048D01*
X105516664Y-117660280D01*
X105529290Y-117652712D01*
X105542597Y-117646418D01*
X105556457Y-117641459D01*
X105570736Y-117637882D01*
X105585297Y-117635722D01*
X105600000Y-117635000D01*
X107200000Y-117635000D01*
X107214703Y-117635722D01*
G37*
G36*
X107214703Y-118905722D02*
G01*
X107229264Y-118907882D01*
X107243543Y-118911459D01*
X107257403Y-118916418D01*
X107270710Y-118922712D01*
X107283336Y-118930280D01*
X107295159Y-118939048D01*
X107306066Y-118948934D01*
X107315952Y-118959841D01*
X107324720Y-118971664D01*
X107332288Y-118984290D01*
X107338582Y-118997597D01*
X107343541Y-119011457D01*
X107347118Y-119025736D01*
X107349278Y-119040297D01*
X107350000Y-119055000D01*
X107350000Y-119355000D01*
X107349278Y-119369703D01*
X107347118Y-119384264D01*
X107343541Y-119398543D01*
X107338582Y-119412403D01*
X107332288Y-119425710D01*
X107324720Y-119438336D01*
X107315952Y-119450159D01*
X107306066Y-119461066D01*
X107295159Y-119470952D01*
X107283336Y-119479720D01*
X107270710Y-119487288D01*
X107257403Y-119493582D01*
X107243543Y-119498541D01*
X107229264Y-119502118D01*
X107214703Y-119504278D01*
X107200000Y-119505000D01*
X105600000Y-119505000D01*
X105585297Y-119504278D01*
X105570736Y-119502118D01*
X105556457Y-119498541D01*
X105542597Y-119493582D01*
X105529290Y-119487288D01*
X105516664Y-119479720D01*
X105504841Y-119470952D01*
X105493934Y-119461066D01*
X105484048Y-119450159D01*
X105475280Y-119438336D01*
X105467712Y-119425710D01*
X105461418Y-119412403D01*
X105456459Y-119398543D01*
X105452882Y-119384264D01*
X105450722Y-119369703D01*
X105450000Y-119355000D01*
X105450000Y-119055000D01*
X105450722Y-119040297D01*
X105452882Y-119025736D01*
X105456459Y-119011457D01*
X105461418Y-118997597D01*
X105467712Y-118984290D01*
X105475280Y-118971664D01*
X105484048Y-118959841D01*
X105493934Y-118948934D01*
X105504841Y-118939048D01*
X105516664Y-118930280D01*
X105529290Y-118922712D01*
X105542597Y-118916418D01*
X105556457Y-118911459D01*
X105570736Y-118907882D01*
X105585297Y-118905722D01*
X105600000Y-118905000D01*
X107200000Y-118905000D01*
X107214703Y-118905722D01*
G37*
G36*
X107214703Y-120175722D02*
G01*
X107229264Y-120177882D01*
X107243543Y-120181459D01*
X107257403Y-120186418D01*
X107270710Y-120192712D01*
X107283336Y-120200280D01*
X107295159Y-120209048D01*
X107306066Y-120218934D01*
X107315952Y-120229841D01*
X107324720Y-120241664D01*
X107332288Y-120254290D01*
X107338582Y-120267597D01*
X107343541Y-120281457D01*
X107347118Y-120295736D01*
X107349278Y-120310297D01*
X107350000Y-120325000D01*
X107350000Y-120625000D01*
X107349278Y-120639703D01*
X107347118Y-120654264D01*
X107343541Y-120668543D01*
X107338582Y-120682403D01*
X107332288Y-120695710D01*
X107324720Y-120708336D01*
X107315952Y-120720159D01*
X107306066Y-120731066D01*
X107295159Y-120740952D01*
X107283336Y-120749720D01*
X107270710Y-120757288D01*
X107257403Y-120763582D01*
X107243543Y-120768541D01*
X107229264Y-120772118D01*
X107214703Y-120774278D01*
X107200000Y-120775000D01*
X105600000Y-120775000D01*
X105585297Y-120774278D01*
X105570736Y-120772118D01*
X105556457Y-120768541D01*
X105542597Y-120763582D01*
X105529290Y-120757288D01*
X105516664Y-120749720D01*
X105504841Y-120740952D01*
X105493934Y-120731066D01*
X105484048Y-120720159D01*
X105475280Y-120708336D01*
X105467712Y-120695710D01*
X105461418Y-120682403D01*
X105456459Y-120668543D01*
X105452882Y-120654264D01*
X105450722Y-120639703D01*
X105450000Y-120625000D01*
X105450000Y-120325000D01*
X105450722Y-120310297D01*
X105452882Y-120295736D01*
X105456459Y-120281457D01*
X105461418Y-120267597D01*
X105467712Y-120254290D01*
X105475280Y-120241664D01*
X105484048Y-120229841D01*
X105493934Y-120218934D01*
X105504841Y-120209048D01*
X105516664Y-120200280D01*
X105529290Y-120192712D01*
X105542597Y-120186418D01*
X105556457Y-120181459D01*
X105570736Y-120177882D01*
X105585297Y-120175722D01*
X105600000Y-120175000D01*
X107200000Y-120175000D01*
X107214703Y-120175722D01*
G37*
G36*
X107214703Y-121445722D02*
G01*
X107229264Y-121447882D01*
X107243543Y-121451459D01*
X107257403Y-121456418D01*
X107270710Y-121462712D01*
X107283336Y-121470280D01*
X107295159Y-121479048D01*
X107306066Y-121488934D01*
X107315952Y-121499841D01*
X107324720Y-121511664D01*
X107332288Y-121524290D01*
X107338582Y-121537597D01*
X107343541Y-121551457D01*
X107347118Y-121565736D01*
X107349278Y-121580297D01*
X107350000Y-121595000D01*
X107350000Y-121895000D01*
X107349278Y-121909703D01*
X107347118Y-121924264D01*
X107343541Y-121938543D01*
X107338582Y-121952403D01*
X107332288Y-121965710D01*
X107324720Y-121978336D01*
X107315952Y-121990159D01*
X107306066Y-122001066D01*
X107295159Y-122010952D01*
X107283336Y-122019720D01*
X107270710Y-122027288D01*
X107257403Y-122033582D01*
X107243543Y-122038541D01*
X107229264Y-122042118D01*
X107214703Y-122044278D01*
X107200000Y-122045000D01*
X105600000Y-122045000D01*
X105585297Y-122044278D01*
X105570736Y-122042118D01*
X105556457Y-122038541D01*
X105542597Y-122033582D01*
X105529290Y-122027288D01*
X105516664Y-122019720D01*
X105504841Y-122010952D01*
X105493934Y-122001066D01*
X105484048Y-121990159D01*
X105475280Y-121978336D01*
X105467712Y-121965710D01*
X105461418Y-121952403D01*
X105456459Y-121938543D01*
X105452882Y-121924264D01*
X105450722Y-121909703D01*
X105450000Y-121895000D01*
X105450000Y-121595000D01*
X105450722Y-121580297D01*
X105452882Y-121565736D01*
X105456459Y-121551457D01*
X105461418Y-121537597D01*
X105467712Y-121524290D01*
X105475280Y-121511664D01*
X105484048Y-121499841D01*
X105493934Y-121488934D01*
X105504841Y-121479048D01*
X105516664Y-121470280D01*
X105529290Y-121462712D01*
X105542597Y-121456418D01*
X105556457Y-121451459D01*
X105570736Y-121447882D01*
X105585297Y-121445722D01*
X105600000Y-121445000D01*
X107200000Y-121445000D01*
X107214703Y-121445722D01*
G37*
G36*
X107214703Y-122715722D02*
G01*
X107229264Y-122717882D01*
X107243543Y-122721459D01*
X107257403Y-122726418D01*
X107270710Y-122732712D01*
X107283336Y-122740280D01*
X107295159Y-122749048D01*
X107306066Y-122758934D01*
X107315952Y-122769841D01*
X107324720Y-122781664D01*
X107332288Y-122794290D01*
X107338582Y-122807597D01*
X107343541Y-122821457D01*
X107347118Y-122835736D01*
X107349278Y-122850297D01*
X107350000Y-122865000D01*
X107350000Y-123165000D01*
X107349278Y-123179703D01*
X107347118Y-123194264D01*
X107343541Y-123208543D01*
X107338582Y-123222403D01*
X107332288Y-123235710D01*
X107324720Y-123248336D01*
X107315952Y-123260159D01*
X107306066Y-123271066D01*
X107295159Y-123280952D01*
X107283336Y-123289720D01*
X107270710Y-123297288D01*
X107257403Y-123303582D01*
X107243543Y-123308541D01*
X107229264Y-123312118D01*
X107214703Y-123314278D01*
X107200000Y-123315000D01*
X105600000Y-123315000D01*
X105585297Y-123314278D01*
X105570736Y-123312118D01*
X105556457Y-123308541D01*
X105542597Y-123303582D01*
X105529290Y-123297288D01*
X105516664Y-123289720D01*
X105504841Y-123280952D01*
X105493934Y-123271066D01*
X105484048Y-123260159D01*
X105475280Y-123248336D01*
X105467712Y-123235710D01*
X105461418Y-123222403D01*
X105456459Y-123208543D01*
X105452882Y-123194264D01*
X105450722Y-123179703D01*
X105450000Y-123165000D01*
X105450000Y-122865000D01*
X105450722Y-122850297D01*
X105452882Y-122835736D01*
X105456459Y-122821457D01*
X105461418Y-122807597D01*
X105467712Y-122794290D01*
X105475280Y-122781664D01*
X105484048Y-122769841D01*
X105493934Y-122758934D01*
X105504841Y-122749048D01*
X105516664Y-122740280D01*
X105529290Y-122732712D01*
X105542597Y-122726418D01*
X105556457Y-122721459D01*
X105570736Y-122717882D01*
X105585297Y-122715722D01*
X105600000Y-122715000D01*
X107200000Y-122715000D01*
X107214703Y-122715722D01*
G37*
G36*
X98014703Y-122715722D02*
G01*
X98029264Y-122717882D01*
X98043543Y-122721459D01*
X98057403Y-122726418D01*
X98070710Y-122732712D01*
X98083336Y-122740280D01*
X98095159Y-122749048D01*
X98106066Y-122758934D01*
X98115952Y-122769841D01*
X98124720Y-122781664D01*
X98132288Y-122794290D01*
X98138582Y-122807597D01*
X98143541Y-122821457D01*
X98147118Y-122835736D01*
X98149278Y-122850297D01*
X98150000Y-122865000D01*
X98150000Y-123165000D01*
X98149278Y-123179703D01*
X98147118Y-123194264D01*
X98143541Y-123208543D01*
X98138582Y-123222403D01*
X98132288Y-123235710D01*
X98124720Y-123248336D01*
X98115952Y-123260159D01*
X98106066Y-123271066D01*
X98095159Y-123280952D01*
X98083336Y-123289720D01*
X98070710Y-123297288D01*
X98057403Y-123303582D01*
X98043543Y-123308541D01*
X98029264Y-123312118D01*
X98014703Y-123314278D01*
X98000000Y-123315000D01*
X96400000Y-123315000D01*
X96385297Y-123314278D01*
X96370736Y-123312118D01*
X96356457Y-123308541D01*
X96342597Y-123303582D01*
X96329290Y-123297288D01*
X96316664Y-123289720D01*
X96304841Y-123280952D01*
X96293934Y-123271066D01*
X96284048Y-123260159D01*
X96275280Y-123248336D01*
X96267712Y-123235710D01*
X96261418Y-123222403D01*
X96256459Y-123208543D01*
X96252882Y-123194264D01*
X96250722Y-123179703D01*
X96250000Y-123165000D01*
X96250000Y-122865000D01*
X96250722Y-122850297D01*
X96252882Y-122835736D01*
X96256459Y-122821457D01*
X96261418Y-122807597D01*
X96267712Y-122794290D01*
X96275280Y-122781664D01*
X96284048Y-122769841D01*
X96293934Y-122758934D01*
X96304841Y-122749048D01*
X96316664Y-122740280D01*
X96329290Y-122732712D01*
X96342597Y-122726418D01*
X96356457Y-122721459D01*
X96370736Y-122717882D01*
X96385297Y-122715722D01*
X96400000Y-122715000D01*
X98000000Y-122715000D01*
X98014703Y-122715722D01*
G37*
G36*
X98014703Y-121445722D02*
G01*
X98029264Y-121447882D01*
X98043543Y-121451459D01*
X98057403Y-121456418D01*
X98070710Y-121462712D01*
X98083336Y-121470280D01*
X98095159Y-121479048D01*
X98106066Y-121488934D01*
X98115952Y-121499841D01*
X98124720Y-121511664D01*
X98132288Y-121524290D01*
X98138582Y-121537597D01*
X98143541Y-121551457D01*
X98147118Y-121565736D01*
X98149278Y-121580297D01*
X98150000Y-121595000D01*
X98150000Y-121895000D01*
X98149278Y-121909703D01*
X98147118Y-121924264D01*
X98143541Y-121938543D01*
X98138582Y-121952403D01*
X98132288Y-121965710D01*
X98124720Y-121978336D01*
X98115952Y-121990159D01*
X98106066Y-122001066D01*
X98095159Y-122010952D01*
X98083336Y-122019720D01*
X98070710Y-122027288D01*
X98057403Y-122033582D01*
X98043543Y-122038541D01*
X98029264Y-122042118D01*
X98014703Y-122044278D01*
X98000000Y-122045000D01*
X96400000Y-122045000D01*
X96385297Y-122044278D01*
X96370736Y-122042118D01*
X96356457Y-122038541D01*
X96342597Y-122033582D01*
X96329290Y-122027288D01*
X96316664Y-122019720D01*
X96304841Y-122010952D01*
X96293934Y-122001066D01*
X96284048Y-121990159D01*
X96275280Y-121978336D01*
X96267712Y-121965710D01*
X96261418Y-121952403D01*
X96256459Y-121938543D01*
X96252882Y-121924264D01*
X96250722Y-121909703D01*
X96250000Y-121895000D01*
X96250000Y-121595000D01*
X96250722Y-121580297D01*
X96252882Y-121565736D01*
X96256459Y-121551457D01*
X96261418Y-121537597D01*
X96267712Y-121524290D01*
X96275280Y-121511664D01*
X96284048Y-121499841D01*
X96293934Y-121488934D01*
X96304841Y-121479048D01*
X96316664Y-121470280D01*
X96329290Y-121462712D01*
X96342597Y-121456418D01*
X96356457Y-121451459D01*
X96370736Y-121447882D01*
X96385297Y-121445722D01*
X96400000Y-121445000D01*
X98000000Y-121445000D01*
X98014703Y-121445722D01*
G37*
G36*
X98014703Y-120175722D02*
G01*
X98029264Y-120177882D01*
X98043543Y-120181459D01*
X98057403Y-120186418D01*
X98070710Y-120192712D01*
X98083336Y-120200280D01*
X98095159Y-120209048D01*
X98106066Y-120218934D01*
X98115952Y-120229841D01*
X98124720Y-120241664D01*
X98132288Y-120254290D01*
X98138582Y-120267597D01*
X98143541Y-120281457D01*
X98147118Y-120295736D01*
X98149278Y-120310297D01*
X98150000Y-120325000D01*
X98150000Y-120625000D01*
X98149278Y-120639703D01*
X98147118Y-120654264D01*
X98143541Y-120668543D01*
X98138582Y-120682403D01*
X98132288Y-120695710D01*
X98124720Y-120708336D01*
X98115952Y-120720159D01*
X98106066Y-120731066D01*
X98095159Y-120740952D01*
X98083336Y-120749720D01*
X98070710Y-120757288D01*
X98057403Y-120763582D01*
X98043543Y-120768541D01*
X98029264Y-120772118D01*
X98014703Y-120774278D01*
X98000000Y-120775000D01*
X96400000Y-120775000D01*
X96385297Y-120774278D01*
X96370736Y-120772118D01*
X96356457Y-120768541D01*
X96342597Y-120763582D01*
X96329290Y-120757288D01*
X96316664Y-120749720D01*
X96304841Y-120740952D01*
X96293934Y-120731066D01*
X96284048Y-120720159D01*
X96275280Y-120708336D01*
X96267712Y-120695710D01*
X96261418Y-120682403D01*
X96256459Y-120668543D01*
X96252882Y-120654264D01*
X96250722Y-120639703D01*
X96250000Y-120625000D01*
X96250000Y-120325000D01*
X96250722Y-120310297D01*
X96252882Y-120295736D01*
X96256459Y-120281457D01*
X96261418Y-120267597D01*
X96267712Y-120254290D01*
X96275280Y-120241664D01*
X96284048Y-120229841D01*
X96293934Y-120218934D01*
X96304841Y-120209048D01*
X96316664Y-120200280D01*
X96329290Y-120192712D01*
X96342597Y-120186418D01*
X96356457Y-120181459D01*
X96370736Y-120177882D01*
X96385297Y-120175722D01*
X96400000Y-120175000D01*
X98000000Y-120175000D01*
X98014703Y-120175722D01*
G37*
G36*
X98014703Y-118905722D02*
G01*
X98029264Y-118907882D01*
X98043543Y-118911459D01*
X98057403Y-118916418D01*
X98070710Y-118922712D01*
X98083336Y-118930280D01*
X98095159Y-118939048D01*
X98106066Y-118948934D01*
X98115952Y-118959841D01*
X98124720Y-118971664D01*
X98132288Y-118984290D01*
X98138582Y-118997597D01*
X98143541Y-119011457D01*
X98147118Y-119025736D01*
X98149278Y-119040297D01*
X98150000Y-119055000D01*
X98150000Y-119355000D01*
X98149278Y-119369703D01*
X98147118Y-119384264D01*
X98143541Y-119398543D01*
X98138582Y-119412403D01*
X98132288Y-119425710D01*
X98124720Y-119438336D01*
X98115952Y-119450159D01*
X98106066Y-119461066D01*
X98095159Y-119470952D01*
X98083336Y-119479720D01*
X98070710Y-119487288D01*
X98057403Y-119493582D01*
X98043543Y-119498541D01*
X98029264Y-119502118D01*
X98014703Y-119504278D01*
X98000000Y-119505000D01*
X96400000Y-119505000D01*
X96385297Y-119504278D01*
X96370736Y-119502118D01*
X96356457Y-119498541D01*
X96342597Y-119493582D01*
X96329290Y-119487288D01*
X96316664Y-119479720D01*
X96304841Y-119470952D01*
X96293934Y-119461066D01*
X96284048Y-119450159D01*
X96275280Y-119438336D01*
X96267712Y-119425710D01*
X96261418Y-119412403D01*
X96256459Y-119398543D01*
X96252882Y-119384264D01*
X96250722Y-119369703D01*
X96250000Y-119355000D01*
X96250000Y-119055000D01*
X96250722Y-119040297D01*
X96252882Y-119025736D01*
X96256459Y-119011457D01*
X96261418Y-118997597D01*
X96267712Y-118984290D01*
X96275280Y-118971664D01*
X96284048Y-118959841D01*
X96293934Y-118948934D01*
X96304841Y-118939048D01*
X96316664Y-118930280D01*
X96329290Y-118922712D01*
X96342597Y-118916418D01*
X96356457Y-118911459D01*
X96370736Y-118907882D01*
X96385297Y-118905722D01*
X96400000Y-118905000D01*
X98000000Y-118905000D01*
X98014703Y-118905722D01*
G37*
G36*
X98014703Y-117635722D02*
G01*
X98029264Y-117637882D01*
X98043543Y-117641459D01*
X98057403Y-117646418D01*
X98070710Y-117652712D01*
X98083336Y-117660280D01*
X98095159Y-117669048D01*
X98106066Y-117678934D01*
X98115952Y-117689841D01*
X98124720Y-117701664D01*
X98132288Y-117714290D01*
X98138582Y-117727597D01*
X98143541Y-117741457D01*
X98147118Y-117755736D01*
X98149278Y-117770297D01*
X98150000Y-117785000D01*
X98150000Y-118085000D01*
X98149278Y-118099703D01*
X98147118Y-118114264D01*
X98143541Y-118128543D01*
X98138582Y-118142403D01*
X98132288Y-118155710D01*
X98124720Y-118168336D01*
X98115952Y-118180159D01*
X98106066Y-118191066D01*
X98095159Y-118200952D01*
X98083336Y-118209720D01*
X98070710Y-118217288D01*
X98057403Y-118223582D01*
X98043543Y-118228541D01*
X98029264Y-118232118D01*
X98014703Y-118234278D01*
X98000000Y-118235000D01*
X96400000Y-118235000D01*
X96385297Y-118234278D01*
X96370736Y-118232118D01*
X96356457Y-118228541D01*
X96342597Y-118223582D01*
X96329290Y-118217288D01*
X96316664Y-118209720D01*
X96304841Y-118200952D01*
X96293934Y-118191066D01*
X96284048Y-118180159D01*
X96275280Y-118168336D01*
X96267712Y-118155710D01*
X96261418Y-118142403D01*
X96256459Y-118128543D01*
X96252882Y-118114264D01*
X96250722Y-118099703D01*
X96250000Y-118085000D01*
X96250000Y-117785000D01*
X96250722Y-117770297D01*
X96252882Y-117755736D01*
X96256459Y-117741457D01*
X96261418Y-117727597D01*
X96267712Y-117714290D01*
X96275280Y-117701664D01*
X96284048Y-117689841D01*
X96293934Y-117678934D01*
X96304841Y-117669048D01*
X96316664Y-117660280D01*
X96329290Y-117652712D01*
X96342597Y-117646418D01*
X96356457Y-117641459D01*
X96370736Y-117637882D01*
X96385297Y-117635722D01*
X96400000Y-117635000D01*
X98000000Y-117635000D01*
X98014703Y-117635722D01*
G37*
G36*
X98014703Y-116365722D02*
G01*
X98029264Y-116367882D01*
X98043543Y-116371459D01*
X98057403Y-116376418D01*
X98070710Y-116382712D01*
X98083336Y-116390280D01*
X98095159Y-116399048D01*
X98106066Y-116408934D01*
X98115952Y-116419841D01*
X98124720Y-116431664D01*
X98132288Y-116444290D01*
X98138582Y-116457597D01*
X98143541Y-116471457D01*
X98147118Y-116485736D01*
X98149278Y-116500297D01*
X98150000Y-116515000D01*
X98150000Y-116815000D01*
X98149278Y-116829703D01*
X98147118Y-116844264D01*
X98143541Y-116858543D01*
X98138582Y-116872403D01*
X98132288Y-116885710D01*
X98124720Y-116898336D01*
X98115952Y-116910159D01*
X98106066Y-116921066D01*
X98095159Y-116930952D01*
X98083336Y-116939720D01*
X98070710Y-116947288D01*
X98057403Y-116953582D01*
X98043543Y-116958541D01*
X98029264Y-116962118D01*
X98014703Y-116964278D01*
X98000000Y-116965000D01*
X96400000Y-116965000D01*
X96385297Y-116964278D01*
X96370736Y-116962118D01*
X96356457Y-116958541D01*
X96342597Y-116953582D01*
X96329290Y-116947288D01*
X96316664Y-116939720D01*
X96304841Y-116930952D01*
X96293934Y-116921066D01*
X96284048Y-116910159D01*
X96275280Y-116898336D01*
X96267712Y-116885710D01*
X96261418Y-116872403D01*
X96256459Y-116858543D01*
X96252882Y-116844264D01*
X96250722Y-116829703D01*
X96250000Y-116815000D01*
X96250000Y-116515000D01*
X96250722Y-116500297D01*
X96252882Y-116485736D01*
X96256459Y-116471457D01*
X96261418Y-116457597D01*
X96267712Y-116444290D01*
X96275280Y-116431664D01*
X96284048Y-116419841D01*
X96293934Y-116408934D01*
X96304841Y-116399048D01*
X96316664Y-116390280D01*
X96329290Y-116382712D01*
X96342597Y-116376418D01*
X96356457Y-116371459D01*
X96370736Y-116367882D01*
X96385297Y-116365722D01*
X96400000Y-116365000D01*
X98000000Y-116365000D01*
X98014703Y-116365722D01*
G37*
G36*
X98014703Y-115095722D02*
G01*
X98029264Y-115097882D01*
X98043543Y-115101459D01*
X98057403Y-115106418D01*
X98070710Y-115112712D01*
X98083336Y-115120280D01*
X98095159Y-115129048D01*
X98106066Y-115138934D01*
X98115952Y-115149841D01*
X98124720Y-115161664D01*
X98132288Y-115174290D01*
X98138582Y-115187597D01*
X98143541Y-115201457D01*
X98147118Y-115215736D01*
X98149278Y-115230297D01*
X98150000Y-115245000D01*
X98150000Y-115545000D01*
X98149278Y-115559703D01*
X98147118Y-115574264D01*
X98143541Y-115588543D01*
X98138582Y-115602403D01*
X98132288Y-115615710D01*
X98124720Y-115628336D01*
X98115952Y-115640159D01*
X98106066Y-115651066D01*
X98095159Y-115660952D01*
X98083336Y-115669720D01*
X98070710Y-115677288D01*
X98057403Y-115683582D01*
X98043543Y-115688541D01*
X98029264Y-115692118D01*
X98014703Y-115694278D01*
X98000000Y-115695000D01*
X96400000Y-115695000D01*
X96385297Y-115694278D01*
X96370736Y-115692118D01*
X96356457Y-115688541D01*
X96342597Y-115683582D01*
X96329290Y-115677288D01*
X96316664Y-115669720D01*
X96304841Y-115660952D01*
X96293934Y-115651066D01*
X96284048Y-115640159D01*
X96275280Y-115628336D01*
X96267712Y-115615710D01*
X96261418Y-115602403D01*
X96256459Y-115588543D01*
X96252882Y-115574264D01*
X96250722Y-115559703D01*
X96250000Y-115545000D01*
X96250000Y-115245000D01*
X96250722Y-115230297D01*
X96252882Y-115215736D01*
X96256459Y-115201457D01*
X96261418Y-115187597D01*
X96267712Y-115174290D01*
X96275280Y-115161664D01*
X96284048Y-115149841D01*
X96293934Y-115138934D01*
X96304841Y-115129048D01*
X96316664Y-115120280D01*
X96329290Y-115112712D01*
X96342597Y-115106418D01*
X96356457Y-115101459D01*
X96370736Y-115097882D01*
X96385297Y-115095722D01*
X96400000Y-115095000D01*
X98000000Y-115095000D01*
X98014703Y-115095722D01*
G37*
G36*
X98014703Y-113825722D02*
G01*
X98029264Y-113827882D01*
X98043543Y-113831459D01*
X98057403Y-113836418D01*
X98070710Y-113842712D01*
X98083336Y-113850280D01*
X98095159Y-113859048D01*
X98106066Y-113868934D01*
X98115952Y-113879841D01*
X98124720Y-113891664D01*
X98132288Y-113904290D01*
X98138582Y-113917597D01*
X98143541Y-113931457D01*
X98147118Y-113945736D01*
X98149278Y-113960297D01*
X98150000Y-113975000D01*
X98150000Y-114275000D01*
X98149278Y-114289703D01*
X98147118Y-114304264D01*
X98143541Y-114318543D01*
X98138582Y-114332403D01*
X98132288Y-114345710D01*
X98124720Y-114358336D01*
X98115952Y-114370159D01*
X98106066Y-114381066D01*
X98095159Y-114390952D01*
X98083336Y-114399720D01*
X98070710Y-114407288D01*
X98057403Y-114413582D01*
X98043543Y-114418541D01*
X98029264Y-114422118D01*
X98014703Y-114424278D01*
X98000000Y-114425000D01*
X96400000Y-114425000D01*
X96385297Y-114424278D01*
X96370736Y-114422118D01*
X96356457Y-114418541D01*
X96342597Y-114413582D01*
X96329290Y-114407288D01*
X96316664Y-114399720D01*
X96304841Y-114390952D01*
X96293934Y-114381066D01*
X96284048Y-114370159D01*
X96275280Y-114358336D01*
X96267712Y-114345710D01*
X96261418Y-114332403D01*
X96256459Y-114318543D01*
X96252882Y-114304264D01*
X96250722Y-114289703D01*
X96250000Y-114275000D01*
X96250000Y-113975000D01*
X96250722Y-113960297D01*
X96252882Y-113945736D01*
X96256459Y-113931457D01*
X96261418Y-113917597D01*
X96267712Y-113904290D01*
X96275280Y-113891664D01*
X96284048Y-113879841D01*
X96293934Y-113868934D01*
X96304841Y-113859048D01*
X96316664Y-113850280D01*
X96329290Y-113842712D01*
X96342597Y-113836418D01*
X96356457Y-113831459D01*
X96370736Y-113827882D01*
X96385297Y-113825722D01*
X96400000Y-113825000D01*
X98000000Y-113825000D01*
X98014703Y-113825722D01*
G37*
G36*
X98014703Y-112555722D02*
G01*
X98029264Y-112557882D01*
X98043543Y-112561459D01*
X98057403Y-112566418D01*
X98070710Y-112572712D01*
X98083336Y-112580280D01*
X98095159Y-112589048D01*
X98106066Y-112598934D01*
X98115952Y-112609841D01*
X98124720Y-112621664D01*
X98132288Y-112634290D01*
X98138582Y-112647597D01*
X98143541Y-112661457D01*
X98147118Y-112675736D01*
X98149278Y-112690297D01*
X98150000Y-112705000D01*
X98150000Y-113005000D01*
X98149278Y-113019703D01*
X98147118Y-113034264D01*
X98143541Y-113048543D01*
X98138582Y-113062403D01*
X98132288Y-113075710D01*
X98124720Y-113088336D01*
X98115952Y-113100159D01*
X98106066Y-113111066D01*
X98095159Y-113120952D01*
X98083336Y-113129720D01*
X98070710Y-113137288D01*
X98057403Y-113143582D01*
X98043543Y-113148541D01*
X98029264Y-113152118D01*
X98014703Y-113154278D01*
X98000000Y-113155000D01*
X96400000Y-113155000D01*
X96385297Y-113154278D01*
X96370736Y-113152118D01*
X96356457Y-113148541D01*
X96342597Y-113143582D01*
X96329290Y-113137288D01*
X96316664Y-113129720D01*
X96304841Y-113120952D01*
X96293934Y-113111066D01*
X96284048Y-113100159D01*
X96275280Y-113088336D01*
X96267712Y-113075710D01*
X96261418Y-113062403D01*
X96256459Y-113048543D01*
X96252882Y-113034264D01*
X96250722Y-113019703D01*
X96250000Y-113005000D01*
X96250000Y-112705000D01*
X96250722Y-112690297D01*
X96252882Y-112675736D01*
X96256459Y-112661457D01*
X96261418Y-112647597D01*
X96267712Y-112634290D01*
X96275280Y-112621664D01*
X96284048Y-112609841D01*
X96293934Y-112598934D01*
X96304841Y-112589048D01*
X96316664Y-112580280D01*
X96329290Y-112572712D01*
X96342597Y-112566418D01*
X96356457Y-112561459D01*
X96370736Y-112557882D01*
X96385297Y-112555722D01*
X96400000Y-112555000D01*
X98000000Y-112555000D01*
X98014703Y-112555722D01*
G37*
G36*
X98014703Y-111285722D02*
G01*
X98029264Y-111287882D01*
X98043543Y-111291459D01*
X98057403Y-111296418D01*
X98070710Y-111302712D01*
X98083336Y-111310280D01*
X98095159Y-111319048D01*
X98106066Y-111328934D01*
X98115952Y-111339841D01*
X98124720Y-111351664D01*
X98132288Y-111364290D01*
X98138582Y-111377597D01*
X98143541Y-111391457D01*
X98147118Y-111405736D01*
X98149278Y-111420297D01*
X98150000Y-111435000D01*
X98150000Y-111735000D01*
X98149278Y-111749703D01*
X98147118Y-111764264D01*
X98143541Y-111778543D01*
X98138582Y-111792403D01*
X98132288Y-111805710D01*
X98124720Y-111818336D01*
X98115952Y-111830159D01*
X98106066Y-111841066D01*
X98095159Y-111850952D01*
X98083336Y-111859720D01*
X98070710Y-111867288D01*
X98057403Y-111873582D01*
X98043543Y-111878541D01*
X98029264Y-111882118D01*
X98014703Y-111884278D01*
X98000000Y-111885000D01*
X96400000Y-111885000D01*
X96385297Y-111884278D01*
X96370736Y-111882118D01*
X96356457Y-111878541D01*
X96342597Y-111873582D01*
X96329290Y-111867288D01*
X96316664Y-111859720D01*
X96304841Y-111850952D01*
X96293934Y-111841066D01*
X96284048Y-111830159D01*
X96275280Y-111818336D01*
X96267712Y-111805710D01*
X96261418Y-111792403D01*
X96256459Y-111778543D01*
X96252882Y-111764264D01*
X96250722Y-111749703D01*
X96250000Y-111735000D01*
X96250000Y-111435000D01*
X96250722Y-111420297D01*
X96252882Y-111405736D01*
X96256459Y-111391457D01*
X96261418Y-111377597D01*
X96267712Y-111364290D01*
X96275280Y-111351664D01*
X96284048Y-111339841D01*
X96293934Y-111328934D01*
X96304841Y-111319048D01*
X96316664Y-111310280D01*
X96329290Y-111302712D01*
X96342597Y-111296418D01*
X96356457Y-111291459D01*
X96370736Y-111287882D01*
X96385297Y-111285722D01*
X96400000Y-111285000D01*
X98000000Y-111285000D01*
X98014703Y-111285722D01*
G37*
D18*
X159500000Y-126400000D03*
X161500000Y-125450000D03*
X161500000Y-127350000D03*
D19*
X201440000Y-158555000D03*
X201465000Y-156405000D03*
X197315000Y-158555000D03*
X197315000Y-156405000D03*
X191915000Y-158555000D03*
X191940000Y-156405000D03*
X187790000Y-158555000D03*
X187790000Y-156405000D03*
X181882000Y-158555000D03*
X181907000Y-156405000D03*
X177757000Y-158555000D03*
X177757000Y-156405000D03*
D12*
G36*
X152374505Y-119601204D02*
G01*
X152398773Y-119604804D01*
X152422572Y-119610765D01*
X152445671Y-119619030D01*
X152467850Y-119629520D01*
X152488893Y-119642132D01*
X152508599Y-119656747D01*
X152526777Y-119673223D01*
X152543253Y-119691401D01*
X152557868Y-119711107D01*
X152570480Y-119732150D01*
X152580970Y-119754329D01*
X152589235Y-119777428D01*
X152595196Y-119801227D01*
X152598796Y-119825495D01*
X152600000Y-119849999D01*
X152600000Y-120750001D01*
X152598796Y-120774505D01*
X152595196Y-120798773D01*
X152589235Y-120822572D01*
X152580970Y-120845671D01*
X152570480Y-120867850D01*
X152557868Y-120888893D01*
X152543253Y-120908599D01*
X152526777Y-120926777D01*
X152508599Y-120943253D01*
X152488893Y-120957868D01*
X152467850Y-120970480D01*
X152445671Y-120980970D01*
X152422572Y-120989235D01*
X152398773Y-120995196D01*
X152374505Y-120998796D01*
X152350001Y-121000000D01*
X151824999Y-121000000D01*
X151800495Y-120998796D01*
X151776227Y-120995196D01*
X151752428Y-120989235D01*
X151729329Y-120980970D01*
X151707150Y-120970480D01*
X151686107Y-120957868D01*
X151666401Y-120943253D01*
X151648223Y-120926777D01*
X151631747Y-120908599D01*
X151617132Y-120888893D01*
X151604520Y-120867850D01*
X151594030Y-120845671D01*
X151585765Y-120822572D01*
X151579804Y-120798773D01*
X151576204Y-120774505D01*
X151575000Y-120750001D01*
X151575000Y-119849999D01*
X151576204Y-119825495D01*
X151579804Y-119801227D01*
X151585765Y-119777428D01*
X151594030Y-119754329D01*
X151604520Y-119732150D01*
X151617132Y-119711107D01*
X151631747Y-119691401D01*
X151648223Y-119673223D01*
X151666401Y-119656747D01*
X151686107Y-119642132D01*
X151707150Y-119629520D01*
X151729329Y-119619030D01*
X151752428Y-119610765D01*
X151776227Y-119604804D01*
X151800495Y-119601204D01*
X151824999Y-119600000D01*
X152350001Y-119600000D01*
X152374505Y-119601204D01*
G37*
G36*
X154199505Y-119601204D02*
G01*
X154223773Y-119604804D01*
X154247572Y-119610765D01*
X154270671Y-119619030D01*
X154292850Y-119629520D01*
X154313893Y-119642132D01*
X154333599Y-119656747D01*
X154351777Y-119673223D01*
X154368253Y-119691401D01*
X154382868Y-119711107D01*
X154395480Y-119732150D01*
X154405970Y-119754329D01*
X154414235Y-119777428D01*
X154420196Y-119801227D01*
X154423796Y-119825495D01*
X154425000Y-119849999D01*
X154425000Y-120750001D01*
X154423796Y-120774505D01*
X154420196Y-120798773D01*
X154414235Y-120822572D01*
X154405970Y-120845671D01*
X154395480Y-120867850D01*
X154382868Y-120888893D01*
X154368253Y-120908599D01*
X154351777Y-120926777D01*
X154333599Y-120943253D01*
X154313893Y-120957868D01*
X154292850Y-120970480D01*
X154270671Y-120980970D01*
X154247572Y-120989235D01*
X154223773Y-120995196D01*
X154199505Y-120998796D01*
X154175001Y-121000000D01*
X153649999Y-121000000D01*
X153625495Y-120998796D01*
X153601227Y-120995196D01*
X153577428Y-120989235D01*
X153554329Y-120980970D01*
X153532150Y-120970480D01*
X153511107Y-120957868D01*
X153491401Y-120943253D01*
X153473223Y-120926777D01*
X153456747Y-120908599D01*
X153442132Y-120888893D01*
X153429520Y-120867850D01*
X153419030Y-120845671D01*
X153410765Y-120822572D01*
X153404804Y-120798773D01*
X153401204Y-120774505D01*
X153400000Y-120750001D01*
X153400000Y-119849999D01*
X153401204Y-119825495D01*
X153404804Y-119801227D01*
X153410765Y-119777428D01*
X153419030Y-119754329D01*
X153429520Y-119732150D01*
X153442132Y-119711107D01*
X153456747Y-119691401D01*
X153473223Y-119673223D01*
X153491401Y-119656747D01*
X153511107Y-119642132D01*
X153532150Y-119629520D01*
X153554329Y-119619030D01*
X153577428Y-119610765D01*
X153601227Y-119604804D01*
X153625495Y-119601204D01*
X153649999Y-119600000D01*
X154175001Y-119600000D01*
X154199505Y-119601204D01*
G37*
G36*
X156262005Y-116901204D02*
G01*
X156286273Y-116904804D01*
X156310072Y-116910765D01*
X156333171Y-116919030D01*
X156355350Y-116929520D01*
X156376393Y-116942132D01*
X156396099Y-116956747D01*
X156414277Y-116973223D01*
X156430753Y-116991401D01*
X156445368Y-117011107D01*
X156457980Y-117032150D01*
X156468470Y-117054329D01*
X156476735Y-117077428D01*
X156482696Y-117101227D01*
X156486296Y-117125495D01*
X156487500Y-117149999D01*
X156487500Y-118050001D01*
X156486296Y-118074505D01*
X156482696Y-118098773D01*
X156476735Y-118122572D01*
X156468470Y-118145671D01*
X156457980Y-118167850D01*
X156445368Y-118188893D01*
X156430753Y-118208599D01*
X156414277Y-118226777D01*
X156396099Y-118243253D01*
X156376393Y-118257868D01*
X156355350Y-118270480D01*
X156333171Y-118280970D01*
X156310072Y-118289235D01*
X156286273Y-118295196D01*
X156262005Y-118298796D01*
X156237501Y-118300000D01*
X155712499Y-118300000D01*
X155687995Y-118298796D01*
X155663727Y-118295196D01*
X155639928Y-118289235D01*
X155616829Y-118280970D01*
X155594650Y-118270480D01*
X155573607Y-118257868D01*
X155553901Y-118243253D01*
X155535723Y-118226777D01*
X155519247Y-118208599D01*
X155504632Y-118188893D01*
X155492020Y-118167850D01*
X155481530Y-118145671D01*
X155473265Y-118122572D01*
X155467304Y-118098773D01*
X155463704Y-118074505D01*
X155462500Y-118050001D01*
X155462500Y-117149999D01*
X155463704Y-117125495D01*
X155467304Y-117101227D01*
X155473265Y-117077428D01*
X155481530Y-117054329D01*
X155492020Y-117032150D01*
X155504632Y-117011107D01*
X155519247Y-116991401D01*
X155535723Y-116973223D01*
X155553901Y-116956747D01*
X155573607Y-116942132D01*
X155594650Y-116929520D01*
X155616829Y-116919030D01*
X155639928Y-116910765D01*
X155663727Y-116904804D01*
X155687995Y-116901204D01*
X155712499Y-116900000D01*
X156237501Y-116900000D01*
X156262005Y-116901204D01*
G37*
G36*
X158087005Y-116901204D02*
G01*
X158111273Y-116904804D01*
X158135072Y-116910765D01*
X158158171Y-116919030D01*
X158180350Y-116929520D01*
X158201393Y-116942132D01*
X158221099Y-116956747D01*
X158239277Y-116973223D01*
X158255753Y-116991401D01*
X158270368Y-117011107D01*
X158282980Y-117032150D01*
X158293470Y-117054329D01*
X158301735Y-117077428D01*
X158307696Y-117101227D01*
X158311296Y-117125495D01*
X158312500Y-117149999D01*
X158312500Y-118050001D01*
X158311296Y-118074505D01*
X158307696Y-118098773D01*
X158301735Y-118122572D01*
X158293470Y-118145671D01*
X158282980Y-118167850D01*
X158270368Y-118188893D01*
X158255753Y-118208599D01*
X158239277Y-118226777D01*
X158221099Y-118243253D01*
X158201393Y-118257868D01*
X158180350Y-118270480D01*
X158158171Y-118280970D01*
X158135072Y-118289235D01*
X158111273Y-118295196D01*
X158087005Y-118298796D01*
X158062501Y-118300000D01*
X157537499Y-118300000D01*
X157512995Y-118298796D01*
X157488727Y-118295196D01*
X157464928Y-118289235D01*
X157441829Y-118280970D01*
X157419650Y-118270480D01*
X157398607Y-118257868D01*
X157378901Y-118243253D01*
X157360723Y-118226777D01*
X157344247Y-118208599D01*
X157329632Y-118188893D01*
X157317020Y-118167850D01*
X157306530Y-118145671D01*
X157298265Y-118122572D01*
X157292304Y-118098773D01*
X157288704Y-118074505D01*
X157287500Y-118050001D01*
X157287500Y-117149999D01*
X157288704Y-117125495D01*
X157292304Y-117101227D01*
X157298265Y-117077428D01*
X157306530Y-117054329D01*
X157317020Y-117032150D01*
X157329632Y-117011107D01*
X157344247Y-116991401D01*
X157360723Y-116973223D01*
X157378901Y-116956747D01*
X157398607Y-116942132D01*
X157419650Y-116929520D01*
X157441829Y-116919030D01*
X157464928Y-116910765D01*
X157488727Y-116904804D01*
X157512995Y-116901204D01*
X157537499Y-116900000D01*
X158062501Y-116900000D01*
X158087005Y-116901204D01*
G37*
G36*
X160774505Y-115076204D02*
G01*
X160798773Y-115079804D01*
X160822572Y-115085765D01*
X160845671Y-115094030D01*
X160867850Y-115104520D01*
X160888893Y-115117132D01*
X160908599Y-115131747D01*
X160926777Y-115148223D01*
X160943253Y-115166401D01*
X160957868Y-115186107D01*
X160970480Y-115207150D01*
X160980970Y-115229329D01*
X160989235Y-115252428D01*
X160995196Y-115276227D01*
X160998796Y-115300495D01*
X161000000Y-115324999D01*
X161000000Y-115850001D01*
X160998796Y-115874505D01*
X160995196Y-115898773D01*
X160989235Y-115922572D01*
X160980970Y-115945671D01*
X160970480Y-115967850D01*
X160957868Y-115988893D01*
X160943253Y-116008599D01*
X160926777Y-116026777D01*
X160908599Y-116043253D01*
X160888893Y-116057868D01*
X160867850Y-116070480D01*
X160845671Y-116080970D01*
X160822572Y-116089235D01*
X160798773Y-116095196D01*
X160774505Y-116098796D01*
X160750001Y-116100000D01*
X159849999Y-116100000D01*
X159825495Y-116098796D01*
X159801227Y-116095196D01*
X159777428Y-116089235D01*
X159754329Y-116080970D01*
X159732150Y-116070480D01*
X159711107Y-116057868D01*
X159691401Y-116043253D01*
X159673223Y-116026777D01*
X159656747Y-116008599D01*
X159642132Y-115988893D01*
X159629520Y-115967850D01*
X159619030Y-115945671D01*
X159610765Y-115922572D01*
X159604804Y-115898773D01*
X159601204Y-115874505D01*
X159600000Y-115850001D01*
X159600000Y-115324999D01*
X159601204Y-115300495D01*
X159604804Y-115276227D01*
X159610765Y-115252428D01*
X159619030Y-115229329D01*
X159629520Y-115207150D01*
X159642132Y-115186107D01*
X159656747Y-115166401D01*
X159673223Y-115148223D01*
X159691401Y-115131747D01*
X159711107Y-115117132D01*
X159732150Y-115104520D01*
X159754329Y-115094030D01*
X159777428Y-115085765D01*
X159801227Y-115079804D01*
X159825495Y-115076204D01*
X159849999Y-115075000D01*
X160750001Y-115075000D01*
X160774505Y-115076204D01*
G37*
G36*
X160774505Y-116901204D02*
G01*
X160798773Y-116904804D01*
X160822572Y-116910765D01*
X160845671Y-116919030D01*
X160867850Y-116929520D01*
X160888893Y-116942132D01*
X160908599Y-116956747D01*
X160926777Y-116973223D01*
X160943253Y-116991401D01*
X160957868Y-117011107D01*
X160970480Y-117032150D01*
X160980970Y-117054329D01*
X160989235Y-117077428D01*
X160995196Y-117101227D01*
X160998796Y-117125495D01*
X161000000Y-117149999D01*
X161000000Y-117675001D01*
X160998796Y-117699505D01*
X160995196Y-117723773D01*
X160989235Y-117747572D01*
X160980970Y-117770671D01*
X160970480Y-117792850D01*
X160957868Y-117813893D01*
X160943253Y-117833599D01*
X160926777Y-117851777D01*
X160908599Y-117868253D01*
X160888893Y-117882868D01*
X160867850Y-117895480D01*
X160845671Y-117905970D01*
X160822572Y-117914235D01*
X160798773Y-117920196D01*
X160774505Y-117923796D01*
X160750001Y-117925000D01*
X159849999Y-117925000D01*
X159825495Y-117923796D01*
X159801227Y-117920196D01*
X159777428Y-117914235D01*
X159754329Y-117905970D01*
X159732150Y-117895480D01*
X159711107Y-117882868D01*
X159691401Y-117868253D01*
X159673223Y-117851777D01*
X159656747Y-117833599D01*
X159642132Y-117813893D01*
X159629520Y-117792850D01*
X159619030Y-117770671D01*
X159610765Y-117747572D01*
X159604804Y-117723773D01*
X159601204Y-117699505D01*
X159600000Y-117675001D01*
X159600000Y-117149999D01*
X159601204Y-117125495D01*
X159604804Y-117101227D01*
X159610765Y-117077428D01*
X159619030Y-117054329D01*
X159629520Y-117032150D01*
X159642132Y-117011107D01*
X159656747Y-116991401D01*
X159673223Y-116973223D01*
X159691401Y-116956747D01*
X159711107Y-116942132D01*
X159732150Y-116929520D01*
X159754329Y-116919030D01*
X159777428Y-116910765D01*
X159801227Y-116904804D01*
X159825495Y-116901204D01*
X159849999Y-116900000D01*
X160750001Y-116900000D01*
X160774505Y-116901204D01*
G37*
G36*
X152274505Y-116901204D02*
G01*
X152298773Y-116904804D01*
X152322572Y-116910765D01*
X152345671Y-116919030D01*
X152367850Y-116929520D01*
X152388893Y-116942132D01*
X152408599Y-116956747D01*
X152426777Y-116973223D01*
X152443253Y-116991401D01*
X152457868Y-117011107D01*
X152470480Y-117032150D01*
X152480970Y-117054329D01*
X152489235Y-117077428D01*
X152495196Y-117101227D01*
X152498796Y-117125495D01*
X152500000Y-117149999D01*
X152500000Y-118050001D01*
X152498796Y-118074505D01*
X152495196Y-118098773D01*
X152489235Y-118122572D01*
X152480970Y-118145671D01*
X152470480Y-118167850D01*
X152457868Y-118188893D01*
X152443253Y-118208599D01*
X152426777Y-118226777D01*
X152408599Y-118243253D01*
X152388893Y-118257868D01*
X152367850Y-118270480D01*
X152345671Y-118280970D01*
X152322572Y-118289235D01*
X152298773Y-118295196D01*
X152274505Y-118298796D01*
X152250001Y-118300000D01*
X151724999Y-118300000D01*
X151700495Y-118298796D01*
X151676227Y-118295196D01*
X151652428Y-118289235D01*
X151629329Y-118280970D01*
X151607150Y-118270480D01*
X151586107Y-118257868D01*
X151566401Y-118243253D01*
X151548223Y-118226777D01*
X151531747Y-118208599D01*
X151517132Y-118188893D01*
X151504520Y-118167850D01*
X151494030Y-118145671D01*
X151485765Y-118122572D01*
X151479804Y-118098773D01*
X151476204Y-118074505D01*
X151475000Y-118050001D01*
X151475000Y-117149999D01*
X151476204Y-117125495D01*
X151479804Y-117101227D01*
X151485765Y-117077428D01*
X151494030Y-117054329D01*
X151504520Y-117032150D01*
X151517132Y-117011107D01*
X151531747Y-116991401D01*
X151548223Y-116973223D01*
X151566401Y-116956747D01*
X151586107Y-116942132D01*
X151607150Y-116929520D01*
X151629329Y-116919030D01*
X151652428Y-116910765D01*
X151676227Y-116904804D01*
X151700495Y-116901204D01*
X151724999Y-116900000D01*
X152250001Y-116900000D01*
X152274505Y-116901204D01*
G37*
G36*
X154099505Y-116901204D02*
G01*
X154123773Y-116904804D01*
X154147572Y-116910765D01*
X154170671Y-116919030D01*
X154192850Y-116929520D01*
X154213893Y-116942132D01*
X154233599Y-116956747D01*
X154251777Y-116973223D01*
X154268253Y-116991401D01*
X154282868Y-117011107D01*
X154295480Y-117032150D01*
X154305970Y-117054329D01*
X154314235Y-117077428D01*
X154320196Y-117101227D01*
X154323796Y-117125495D01*
X154325000Y-117149999D01*
X154325000Y-118050001D01*
X154323796Y-118074505D01*
X154320196Y-118098773D01*
X154314235Y-118122572D01*
X154305970Y-118145671D01*
X154295480Y-118167850D01*
X154282868Y-118188893D01*
X154268253Y-118208599D01*
X154251777Y-118226777D01*
X154233599Y-118243253D01*
X154213893Y-118257868D01*
X154192850Y-118270480D01*
X154170671Y-118280970D01*
X154147572Y-118289235D01*
X154123773Y-118295196D01*
X154099505Y-118298796D01*
X154075001Y-118300000D01*
X153549999Y-118300000D01*
X153525495Y-118298796D01*
X153501227Y-118295196D01*
X153477428Y-118289235D01*
X153454329Y-118280970D01*
X153432150Y-118270480D01*
X153411107Y-118257868D01*
X153391401Y-118243253D01*
X153373223Y-118226777D01*
X153356747Y-118208599D01*
X153342132Y-118188893D01*
X153329520Y-118167850D01*
X153319030Y-118145671D01*
X153310765Y-118122572D01*
X153304804Y-118098773D01*
X153301204Y-118074505D01*
X153300000Y-118050001D01*
X153300000Y-117149999D01*
X153301204Y-117125495D01*
X153304804Y-117101227D01*
X153310765Y-117077428D01*
X153319030Y-117054329D01*
X153329520Y-117032150D01*
X153342132Y-117011107D01*
X153356747Y-116991401D01*
X153373223Y-116973223D01*
X153391401Y-116956747D01*
X153411107Y-116942132D01*
X153432150Y-116929520D01*
X153454329Y-116919030D01*
X153477428Y-116910765D01*
X153501227Y-116904804D01*
X153525495Y-116901204D01*
X153549999Y-116900000D01*
X154075001Y-116900000D01*
X154099505Y-116901204D01*
G37*
G36*
X156174505Y-119601204D02*
G01*
X156198773Y-119604804D01*
X156222572Y-119610765D01*
X156245671Y-119619030D01*
X156267850Y-119629520D01*
X156288893Y-119642132D01*
X156308599Y-119656747D01*
X156326777Y-119673223D01*
X156343253Y-119691401D01*
X156357868Y-119711107D01*
X156370480Y-119732150D01*
X156380970Y-119754329D01*
X156389235Y-119777428D01*
X156395196Y-119801227D01*
X156398796Y-119825495D01*
X156400000Y-119849999D01*
X156400000Y-120750001D01*
X156398796Y-120774505D01*
X156395196Y-120798773D01*
X156389235Y-120822572D01*
X156380970Y-120845671D01*
X156370480Y-120867850D01*
X156357868Y-120888893D01*
X156343253Y-120908599D01*
X156326777Y-120926777D01*
X156308599Y-120943253D01*
X156288893Y-120957868D01*
X156267850Y-120970480D01*
X156245671Y-120980970D01*
X156222572Y-120989235D01*
X156198773Y-120995196D01*
X156174505Y-120998796D01*
X156150001Y-121000000D01*
X155624999Y-121000000D01*
X155600495Y-120998796D01*
X155576227Y-120995196D01*
X155552428Y-120989235D01*
X155529329Y-120980970D01*
X155507150Y-120970480D01*
X155486107Y-120957868D01*
X155466401Y-120943253D01*
X155448223Y-120926777D01*
X155431747Y-120908599D01*
X155417132Y-120888893D01*
X155404520Y-120867850D01*
X155394030Y-120845671D01*
X155385765Y-120822572D01*
X155379804Y-120798773D01*
X155376204Y-120774505D01*
X155375000Y-120750001D01*
X155375000Y-119849999D01*
X155376204Y-119825495D01*
X155379804Y-119801227D01*
X155385765Y-119777428D01*
X155394030Y-119754329D01*
X155404520Y-119732150D01*
X155417132Y-119711107D01*
X155431747Y-119691401D01*
X155448223Y-119673223D01*
X155466401Y-119656747D01*
X155486107Y-119642132D01*
X155507150Y-119629520D01*
X155529329Y-119619030D01*
X155552428Y-119610765D01*
X155576227Y-119604804D01*
X155600495Y-119601204D01*
X155624999Y-119600000D01*
X156150001Y-119600000D01*
X156174505Y-119601204D01*
G37*
G36*
X157999505Y-119601204D02*
G01*
X158023773Y-119604804D01*
X158047572Y-119610765D01*
X158070671Y-119619030D01*
X158092850Y-119629520D01*
X158113893Y-119642132D01*
X158133599Y-119656747D01*
X158151777Y-119673223D01*
X158168253Y-119691401D01*
X158182868Y-119711107D01*
X158195480Y-119732150D01*
X158205970Y-119754329D01*
X158214235Y-119777428D01*
X158220196Y-119801227D01*
X158223796Y-119825495D01*
X158225000Y-119849999D01*
X158225000Y-120750001D01*
X158223796Y-120774505D01*
X158220196Y-120798773D01*
X158214235Y-120822572D01*
X158205970Y-120845671D01*
X158195480Y-120867850D01*
X158182868Y-120888893D01*
X158168253Y-120908599D01*
X158151777Y-120926777D01*
X158133599Y-120943253D01*
X158113893Y-120957868D01*
X158092850Y-120970480D01*
X158070671Y-120980970D01*
X158047572Y-120989235D01*
X158023773Y-120995196D01*
X157999505Y-120998796D01*
X157975001Y-121000000D01*
X157449999Y-121000000D01*
X157425495Y-120998796D01*
X157401227Y-120995196D01*
X157377428Y-120989235D01*
X157354329Y-120980970D01*
X157332150Y-120970480D01*
X157311107Y-120957868D01*
X157291401Y-120943253D01*
X157273223Y-120926777D01*
X157256747Y-120908599D01*
X157242132Y-120888893D01*
X157229520Y-120867850D01*
X157219030Y-120845671D01*
X157210765Y-120822572D01*
X157204804Y-120798773D01*
X157201204Y-120774505D01*
X157200000Y-120750001D01*
X157200000Y-119849999D01*
X157201204Y-119825495D01*
X157204804Y-119801227D01*
X157210765Y-119777428D01*
X157219030Y-119754329D01*
X157229520Y-119732150D01*
X157242132Y-119711107D01*
X157256747Y-119691401D01*
X157273223Y-119673223D01*
X157291401Y-119656747D01*
X157311107Y-119642132D01*
X157332150Y-119629520D01*
X157354329Y-119619030D01*
X157377428Y-119610765D01*
X157401227Y-119604804D01*
X157425495Y-119601204D01*
X157449999Y-119600000D01*
X157975001Y-119600000D01*
X157999505Y-119601204D01*
G37*
G36*
X157187005Y-125601204D02*
G01*
X157211273Y-125604804D01*
X157235072Y-125610765D01*
X157258171Y-125619030D01*
X157280350Y-125629520D01*
X157301393Y-125642132D01*
X157321099Y-125656747D01*
X157339277Y-125673223D01*
X157355753Y-125691401D01*
X157370368Y-125711107D01*
X157382980Y-125732150D01*
X157393470Y-125754329D01*
X157401735Y-125777428D01*
X157407696Y-125801227D01*
X157411296Y-125825495D01*
X157412500Y-125849999D01*
X157412500Y-126750001D01*
X157411296Y-126774505D01*
X157407696Y-126798773D01*
X157401735Y-126822572D01*
X157393470Y-126845671D01*
X157382980Y-126867850D01*
X157370368Y-126888893D01*
X157355753Y-126908599D01*
X157339277Y-126926777D01*
X157321099Y-126943253D01*
X157301393Y-126957868D01*
X157280350Y-126970480D01*
X157258171Y-126980970D01*
X157235072Y-126989235D01*
X157211273Y-126995196D01*
X157187005Y-126998796D01*
X157162501Y-127000000D01*
X156637499Y-127000000D01*
X156612995Y-126998796D01*
X156588727Y-126995196D01*
X156564928Y-126989235D01*
X156541829Y-126980970D01*
X156519650Y-126970480D01*
X156498607Y-126957868D01*
X156478901Y-126943253D01*
X156460723Y-126926777D01*
X156444247Y-126908599D01*
X156429632Y-126888893D01*
X156417020Y-126867850D01*
X156406530Y-126845671D01*
X156398265Y-126822572D01*
X156392304Y-126798773D01*
X156388704Y-126774505D01*
X156387500Y-126750001D01*
X156387500Y-125849999D01*
X156388704Y-125825495D01*
X156392304Y-125801227D01*
X156398265Y-125777428D01*
X156406530Y-125754329D01*
X156417020Y-125732150D01*
X156429632Y-125711107D01*
X156444247Y-125691401D01*
X156460723Y-125673223D01*
X156478901Y-125656747D01*
X156498607Y-125642132D01*
X156519650Y-125629520D01*
X156541829Y-125619030D01*
X156564928Y-125610765D01*
X156588727Y-125604804D01*
X156612995Y-125601204D01*
X156637499Y-125600000D01*
X157162501Y-125600000D01*
X157187005Y-125601204D01*
G37*
G36*
X155362005Y-125601204D02*
G01*
X155386273Y-125604804D01*
X155410072Y-125610765D01*
X155433171Y-125619030D01*
X155455350Y-125629520D01*
X155476393Y-125642132D01*
X155496099Y-125656747D01*
X155514277Y-125673223D01*
X155530753Y-125691401D01*
X155545368Y-125711107D01*
X155557980Y-125732150D01*
X155568470Y-125754329D01*
X155576735Y-125777428D01*
X155582696Y-125801227D01*
X155586296Y-125825495D01*
X155587500Y-125849999D01*
X155587500Y-126750001D01*
X155586296Y-126774505D01*
X155582696Y-126798773D01*
X155576735Y-126822572D01*
X155568470Y-126845671D01*
X155557980Y-126867850D01*
X155545368Y-126888893D01*
X155530753Y-126908599D01*
X155514277Y-126926777D01*
X155496099Y-126943253D01*
X155476393Y-126957868D01*
X155455350Y-126970480D01*
X155433171Y-126980970D01*
X155410072Y-126989235D01*
X155386273Y-126995196D01*
X155362005Y-126998796D01*
X155337501Y-127000000D01*
X154812499Y-127000000D01*
X154787995Y-126998796D01*
X154763727Y-126995196D01*
X154739928Y-126989235D01*
X154716829Y-126980970D01*
X154694650Y-126970480D01*
X154673607Y-126957868D01*
X154653901Y-126943253D01*
X154635723Y-126926777D01*
X154619247Y-126908599D01*
X154604632Y-126888893D01*
X154592020Y-126867850D01*
X154581530Y-126845671D01*
X154573265Y-126822572D01*
X154567304Y-126798773D01*
X154563704Y-126774505D01*
X154562500Y-126750001D01*
X154562500Y-125849999D01*
X154563704Y-125825495D01*
X154567304Y-125801227D01*
X154573265Y-125777428D01*
X154581530Y-125754329D01*
X154592020Y-125732150D01*
X154604632Y-125711107D01*
X154619247Y-125691401D01*
X154635723Y-125673223D01*
X154653901Y-125656747D01*
X154673607Y-125642132D01*
X154694650Y-125629520D01*
X154716829Y-125619030D01*
X154739928Y-125610765D01*
X154763727Y-125604804D01*
X154787995Y-125601204D01*
X154812499Y-125600000D01*
X155337501Y-125600000D01*
X155362005Y-125601204D01*
G37*
G36*
X155087005Y-130901204D02*
G01*
X155111273Y-130904804D01*
X155135072Y-130910765D01*
X155158171Y-130919030D01*
X155180350Y-130929520D01*
X155201393Y-130942132D01*
X155221099Y-130956747D01*
X155239277Y-130973223D01*
X155255753Y-130991401D01*
X155270368Y-131011107D01*
X155282980Y-131032150D01*
X155293470Y-131054329D01*
X155301735Y-131077428D01*
X155307696Y-131101227D01*
X155311296Y-131125495D01*
X155312500Y-131149999D01*
X155312500Y-132050001D01*
X155311296Y-132074505D01*
X155307696Y-132098773D01*
X155301735Y-132122572D01*
X155293470Y-132145671D01*
X155282980Y-132167850D01*
X155270368Y-132188893D01*
X155255753Y-132208599D01*
X155239277Y-132226777D01*
X155221099Y-132243253D01*
X155201393Y-132257868D01*
X155180350Y-132270480D01*
X155158171Y-132280970D01*
X155135072Y-132289235D01*
X155111273Y-132295196D01*
X155087005Y-132298796D01*
X155062501Y-132300000D01*
X154537499Y-132300000D01*
X154512995Y-132298796D01*
X154488727Y-132295196D01*
X154464928Y-132289235D01*
X154441829Y-132280970D01*
X154419650Y-132270480D01*
X154398607Y-132257868D01*
X154378901Y-132243253D01*
X154360723Y-132226777D01*
X154344247Y-132208599D01*
X154329632Y-132188893D01*
X154317020Y-132167850D01*
X154306530Y-132145671D01*
X154298265Y-132122572D01*
X154292304Y-132098773D01*
X154288704Y-132074505D01*
X154287500Y-132050001D01*
X154287500Y-131149999D01*
X154288704Y-131125495D01*
X154292304Y-131101227D01*
X154298265Y-131077428D01*
X154306530Y-131054329D01*
X154317020Y-131032150D01*
X154329632Y-131011107D01*
X154344247Y-130991401D01*
X154360723Y-130973223D01*
X154378901Y-130956747D01*
X154398607Y-130942132D01*
X154419650Y-130929520D01*
X154441829Y-130919030D01*
X154464928Y-130910765D01*
X154488727Y-130904804D01*
X154512995Y-130901204D01*
X154537499Y-130900000D01*
X155062501Y-130900000D01*
X155087005Y-130901204D01*
G37*
G36*
X153262005Y-130901204D02*
G01*
X153286273Y-130904804D01*
X153310072Y-130910765D01*
X153333171Y-130919030D01*
X153355350Y-130929520D01*
X153376393Y-130942132D01*
X153396099Y-130956747D01*
X153414277Y-130973223D01*
X153430753Y-130991401D01*
X153445368Y-131011107D01*
X153457980Y-131032150D01*
X153468470Y-131054329D01*
X153476735Y-131077428D01*
X153482696Y-131101227D01*
X153486296Y-131125495D01*
X153487500Y-131149999D01*
X153487500Y-132050001D01*
X153486296Y-132074505D01*
X153482696Y-132098773D01*
X153476735Y-132122572D01*
X153468470Y-132145671D01*
X153457980Y-132167850D01*
X153445368Y-132188893D01*
X153430753Y-132208599D01*
X153414277Y-132226777D01*
X153396099Y-132243253D01*
X153376393Y-132257868D01*
X153355350Y-132270480D01*
X153333171Y-132280970D01*
X153310072Y-132289235D01*
X153286273Y-132295196D01*
X153262005Y-132298796D01*
X153237501Y-132300000D01*
X152712499Y-132300000D01*
X152687995Y-132298796D01*
X152663727Y-132295196D01*
X152639928Y-132289235D01*
X152616829Y-132280970D01*
X152594650Y-132270480D01*
X152573607Y-132257868D01*
X152553901Y-132243253D01*
X152535723Y-132226777D01*
X152519247Y-132208599D01*
X152504632Y-132188893D01*
X152492020Y-132167850D01*
X152481530Y-132145671D01*
X152473265Y-132122572D01*
X152467304Y-132098773D01*
X152463704Y-132074505D01*
X152462500Y-132050001D01*
X152462500Y-131149999D01*
X152463704Y-131125495D01*
X152467304Y-131101227D01*
X152473265Y-131077428D01*
X152481530Y-131054329D01*
X152492020Y-131032150D01*
X152504632Y-131011107D01*
X152519247Y-130991401D01*
X152535723Y-130973223D01*
X152553901Y-130956747D01*
X152573607Y-130942132D01*
X152594650Y-130929520D01*
X152616829Y-130919030D01*
X152639928Y-130910765D01*
X152663727Y-130904804D01*
X152687995Y-130901204D01*
X152712499Y-130900000D01*
X153237501Y-130900000D01*
X153262005Y-130901204D01*
G37*
G36*
X165174505Y-125076204D02*
G01*
X165198773Y-125079804D01*
X165222572Y-125085765D01*
X165245671Y-125094030D01*
X165267850Y-125104520D01*
X165288893Y-125117132D01*
X165308599Y-125131747D01*
X165326777Y-125148223D01*
X165343253Y-125166401D01*
X165357868Y-125186107D01*
X165370480Y-125207150D01*
X165380970Y-125229329D01*
X165389235Y-125252428D01*
X165395196Y-125276227D01*
X165398796Y-125300495D01*
X165400000Y-125324999D01*
X165400000Y-125850001D01*
X165398796Y-125874505D01*
X165395196Y-125898773D01*
X165389235Y-125922572D01*
X165380970Y-125945671D01*
X165370480Y-125967850D01*
X165357868Y-125988893D01*
X165343253Y-126008599D01*
X165326777Y-126026777D01*
X165308599Y-126043253D01*
X165288893Y-126057868D01*
X165267850Y-126070480D01*
X165245671Y-126080970D01*
X165222572Y-126089235D01*
X165198773Y-126095196D01*
X165174505Y-126098796D01*
X165150001Y-126100000D01*
X164249999Y-126100000D01*
X164225495Y-126098796D01*
X164201227Y-126095196D01*
X164177428Y-126089235D01*
X164154329Y-126080970D01*
X164132150Y-126070480D01*
X164111107Y-126057868D01*
X164091401Y-126043253D01*
X164073223Y-126026777D01*
X164056747Y-126008599D01*
X164042132Y-125988893D01*
X164029520Y-125967850D01*
X164019030Y-125945671D01*
X164010765Y-125922572D01*
X164004804Y-125898773D01*
X164001204Y-125874505D01*
X164000000Y-125850001D01*
X164000000Y-125324999D01*
X164001204Y-125300495D01*
X164004804Y-125276227D01*
X164010765Y-125252428D01*
X164019030Y-125229329D01*
X164029520Y-125207150D01*
X164042132Y-125186107D01*
X164056747Y-125166401D01*
X164073223Y-125148223D01*
X164091401Y-125131747D01*
X164111107Y-125117132D01*
X164132150Y-125104520D01*
X164154329Y-125094030D01*
X164177428Y-125085765D01*
X164201227Y-125079804D01*
X164225495Y-125076204D01*
X164249999Y-125075000D01*
X165150001Y-125075000D01*
X165174505Y-125076204D01*
G37*
G36*
X165174505Y-126901204D02*
G01*
X165198773Y-126904804D01*
X165222572Y-126910765D01*
X165245671Y-126919030D01*
X165267850Y-126929520D01*
X165288893Y-126942132D01*
X165308599Y-126956747D01*
X165326777Y-126973223D01*
X165343253Y-126991401D01*
X165357868Y-127011107D01*
X165370480Y-127032150D01*
X165380970Y-127054329D01*
X165389235Y-127077428D01*
X165395196Y-127101227D01*
X165398796Y-127125495D01*
X165400000Y-127149999D01*
X165400000Y-127675001D01*
X165398796Y-127699505D01*
X165395196Y-127723773D01*
X165389235Y-127747572D01*
X165380970Y-127770671D01*
X165370480Y-127792850D01*
X165357868Y-127813893D01*
X165343253Y-127833599D01*
X165326777Y-127851777D01*
X165308599Y-127868253D01*
X165288893Y-127882868D01*
X165267850Y-127895480D01*
X165245671Y-127905970D01*
X165222572Y-127914235D01*
X165198773Y-127920196D01*
X165174505Y-127923796D01*
X165150001Y-127925000D01*
X164249999Y-127925000D01*
X164225495Y-127923796D01*
X164201227Y-127920196D01*
X164177428Y-127914235D01*
X164154329Y-127905970D01*
X164132150Y-127895480D01*
X164111107Y-127882868D01*
X164091401Y-127868253D01*
X164073223Y-127851777D01*
X164056747Y-127833599D01*
X164042132Y-127813893D01*
X164029520Y-127792850D01*
X164019030Y-127770671D01*
X164010765Y-127747572D01*
X164004804Y-127723773D01*
X164001204Y-127699505D01*
X164000000Y-127675001D01*
X164000000Y-127149999D01*
X164001204Y-127125495D01*
X164004804Y-127101227D01*
X164010765Y-127077428D01*
X164019030Y-127054329D01*
X164029520Y-127032150D01*
X164042132Y-127011107D01*
X164056747Y-126991401D01*
X164073223Y-126973223D01*
X164091401Y-126956747D01*
X164111107Y-126942132D01*
X164132150Y-126929520D01*
X164154329Y-126919030D01*
X164177428Y-126910765D01*
X164201227Y-126904804D01*
X164225495Y-126901204D01*
X164249999Y-126900000D01*
X165150001Y-126900000D01*
X165174505Y-126901204D01*
G37*
G36*
X201134505Y-150618704D02*
G01*
X201158773Y-150622304D01*
X201182572Y-150628265D01*
X201205671Y-150636530D01*
X201227850Y-150647020D01*
X201248893Y-150659632D01*
X201268599Y-150674247D01*
X201286777Y-150690723D01*
X201303253Y-150708901D01*
X201317868Y-150728607D01*
X201330480Y-150749650D01*
X201340970Y-150771829D01*
X201349235Y-150794928D01*
X201355196Y-150818727D01*
X201358796Y-150842995D01*
X201360000Y-150867499D01*
X201360000Y-151392501D01*
X201358796Y-151417005D01*
X201355196Y-151441273D01*
X201349235Y-151465072D01*
X201340970Y-151488171D01*
X201330480Y-151510350D01*
X201317868Y-151531393D01*
X201303253Y-151551099D01*
X201286777Y-151569277D01*
X201268599Y-151585753D01*
X201248893Y-151600368D01*
X201227850Y-151612980D01*
X201205671Y-151623470D01*
X201182572Y-151631735D01*
X201158773Y-151637696D01*
X201134505Y-151641296D01*
X201110001Y-151642500D01*
X200209999Y-151642500D01*
X200185495Y-151641296D01*
X200161227Y-151637696D01*
X200137428Y-151631735D01*
X200114329Y-151623470D01*
X200092150Y-151612980D01*
X200071107Y-151600368D01*
X200051401Y-151585753D01*
X200033223Y-151569277D01*
X200016747Y-151551099D01*
X200002132Y-151531393D01*
X199989520Y-151510350D01*
X199979030Y-151488171D01*
X199970765Y-151465072D01*
X199964804Y-151441273D01*
X199961204Y-151417005D01*
X199960000Y-151392501D01*
X199960000Y-150867499D01*
X199961204Y-150842995D01*
X199964804Y-150818727D01*
X199970765Y-150794928D01*
X199979030Y-150771829D01*
X199989520Y-150749650D01*
X200002132Y-150728607D01*
X200016747Y-150708901D01*
X200033223Y-150690723D01*
X200051401Y-150674247D01*
X200071107Y-150659632D01*
X200092150Y-150647020D01*
X200114329Y-150636530D01*
X200137428Y-150628265D01*
X200161227Y-150622304D01*
X200185495Y-150618704D01*
X200209999Y-150617500D01*
X201110001Y-150617500D01*
X201134505Y-150618704D01*
G37*
G36*
X201134505Y-148793704D02*
G01*
X201158773Y-148797304D01*
X201182572Y-148803265D01*
X201205671Y-148811530D01*
X201227850Y-148822020D01*
X201248893Y-148834632D01*
X201268599Y-148849247D01*
X201286777Y-148865723D01*
X201303253Y-148883901D01*
X201317868Y-148903607D01*
X201330480Y-148924650D01*
X201340970Y-148946829D01*
X201349235Y-148969928D01*
X201355196Y-148993727D01*
X201358796Y-149017995D01*
X201360000Y-149042499D01*
X201360000Y-149567501D01*
X201358796Y-149592005D01*
X201355196Y-149616273D01*
X201349235Y-149640072D01*
X201340970Y-149663171D01*
X201330480Y-149685350D01*
X201317868Y-149706393D01*
X201303253Y-149726099D01*
X201286777Y-149744277D01*
X201268599Y-149760753D01*
X201248893Y-149775368D01*
X201227850Y-149787980D01*
X201205671Y-149798470D01*
X201182572Y-149806735D01*
X201158773Y-149812696D01*
X201134505Y-149816296D01*
X201110001Y-149817500D01*
X200209999Y-149817500D01*
X200185495Y-149816296D01*
X200161227Y-149812696D01*
X200137428Y-149806735D01*
X200114329Y-149798470D01*
X200092150Y-149787980D01*
X200071107Y-149775368D01*
X200051401Y-149760753D01*
X200033223Y-149744277D01*
X200016747Y-149726099D01*
X200002132Y-149706393D01*
X199989520Y-149685350D01*
X199979030Y-149663171D01*
X199970765Y-149640072D01*
X199964804Y-149616273D01*
X199961204Y-149592005D01*
X199960000Y-149567501D01*
X199960000Y-149042499D01*
X199961204Y-149017995D01*
X199964804Y-148993727D01*
X199970765Y-148969928D01*
X199979030Y-148946829D01*
X199989520Y-148924650D01*
X200002132Y-148903607D01*
X200016747Y-148883901D01*
X200033223Y-148865723D01*
X200051401Y-148849247D01*
X200071107Y-148834632D01*
X200092150Y-148822020D01*
X200114329Y-148811530D01*
X200137428Y-148803265D01*
X200161227Y-148797304D01*
X200185495Y-148793704D01*
X200209999Y-148792500D01*
X201110001Y-148792500D01*
X201134505Y-148793704D01*
G37*
G36*
X192274505Y-149983704D02*
G01*
X192298773Y-149987304D01*
X192322572Y-149993265D01*
X192345671Y-150001530D01*
X192367850Y-150012020D01*
X192388893Y-150024632D01*
X192408599Y-150039247D01*
X192426777Y-150055723D01*
X192443253Y-150073901D01*
X192457868Y-150093607D01*
X192470480Y-150114650D01*
X192480970Y-150136829D01*
X192489235Y-150159928D01*
X192495196Y-150183727D01*
X192498796Y-150207995D01*
X192500000Y-150232499D01*
X192500000Y-150757501D01*
X192498796Y-150782005D01*
X192495196Y-150806273D01*
X192489235Y-150830072D01*
X192480970Y-150853171D01*
X192470480Y-150875350D01*
X192457868Y-150896393D01*
X192443253Y-150916099D01*
X192426777Y-150934277D01*
X192408599Y-150950753D01*
X192388893Y-150965368D01*
X192367850Y-150977980D01*
X192345671Y-150988470D01*
X192322572Y-150996735D01*
X192298773Y-151002696D01*
X192274505Y-151006296D01*
X192250001Y-151007500D01*
X191349999Y-151007500D01*
X191325495Y-151006296D01*
X191301227Y-151002696D01*
X191277428Y-150996735D01*
X191254329Y-150988470D01*
X191232150Y-150977980D01*
X191211107Y-150965368D01*
X191191401Y-150950753D01*
X191173223Y-150934277D01*
X191156747Y-150916099D01*
X191142132Y-150896393D01*
X191129520Y-150875350D01*
X191119030Y-150853171D01*
X191110765Y-150830072D01*
X191104804Y-150806273D01*
X191101204Y-150782005D01*
X191100000Y-150757501D01*
X191100000Y-150232499D01*
X191101204Y-150207995D01*
X191104804Y-150183727D01*
X191110765Y-150159928D01*
X191119030Y-150136829D01*
X191129520Y-150114650D01*
X191142132Y-150093607D01*
X191156747Y-150073901D01*
X191173223Y-150055723D01*
X191191401Y-150039247D01*
X191211107Y-150024632D01*
X191232150Y-150012020D01*
X191254329Y-150001530D01*
X191277428Y-149993265D01*
X191301227Y-149987304D01*
X191325495Y-149983704D01*
X191349999Y-149982500D01*
X192250001Y-149982500D01*
X192274505Y-149983704D01*
G37*
G36*
X192274505Y-148158704D02*
G01*
X192298773Y-148162304D01*
X192322572Y-148168265D01*
X192345671Y-148176530D01*
X192367850Y-148187020D01*
X192388893Y-148199632D01*
X192408599Y-148214247D01*
X192426777Y-148230723D01*
X192443253Y-148248901D01*
X192457868Y-148268607D01*
X192470480Y-148289650D01*
X192480970Y-148311829D01*
X192489235Y-148334928D01*
X192495196Y-148358727D01*
X192498796Y-148382995D01*
X192500000Y-148407499D01*
X192500000Y-148932501D01*
X192498796Y-148957005D01*
X192495196Y-148981273D01*
X192489235Y-149005072D01*
X192480970Y-149028171D01*
X192470480Y-149050350D01*
X192457868Y-149071393D01*
X192443253Y-149091099D01*
X192426777Y-149109277D01*
X192408599Y-149125753D01*
X192388893Y-149140368D01*
X192367850Y-149152980D01*
X192345671Y-149163470D01*
X192322572Y-149171735D01*
X192298773Y-149177696D01*
X192274505Y-149181296D01*
X192250001Y-149182500D01*
X191349999Y-149182500D01*
X191325495Y-149181296D01*
X191301227Y-149177696D01*
X191277428Y-149171735D01*
X191254329Y-149163470D01*
X191232150Y-149152980D01*
X191211107Y-149140368D01*
X191191401Y-149125753D01*
X191173223Y-149109277D01*
X191156747Y-149091099D01*
X191142132Y-149071393D01*
X191129520Y-149050350D01*
X191119030Y-149028171D01*
X191110765Y-149005072D01*
X191104804Y-148981273D01*
X191101204Y-148957005D01*
X191100000Y-148932501D01*
X191100000Y-148407499D01*
X191101204Y-148382995D01*
X191104804Y-148358727D01*
X191110765Y-148334928D01*
X191119030Y-148311829D01*
X191129520Y-148289650D01*
X191142132Y-148268607D01*
X191156747Y-148248901D01*
X191173223Y-148230723D01*
X191191401Y-148214247D01*
X191211107Y-148199632D01*
X191232150Y-148187020D01*
X191254329Y-148176530D01*
X191277428Y-148168265D01*
X191301227Y-148162304D01*
X191325495Y-148158704D01*
X191349999Y-148157500D01*
X192250001Y-148157500D01*
X192274505Y-148158704D01*
G37*
G36*
X182719505Y-149983704D02*
G01*
X182743773Y-149987304D01*
X182767572Y-149993265D01*
X182790671Y-150001530D01*
X182812850Y-150012020D01*
X182833893Y-150024632D01*
X182853599Y-150039247D01*
X182871777Y-150055723D01*
X182888253Y-150073901D01*
X182902868Y-150093607D01*
X182915480Y-150114650D01*
X182925970Y-150136829D01*
X182934235Y-150159928D01*
X182940196Y-150183727D01*
X182943796Y-150207995D01*
X182945000Y-150232499D01*
X182945000Y-150757501D01*
X182943796Y-150782005D01*
X182940196Y-150806273D01*
X182934235Y-150830072D01*
X182925970Y-150853171D01*
X182915480Y-150875350D01*
X182902868Y-150896393D01*
X182888253Y-150916099D01*
X182871777Y-150934277D01*
X182853599Y-150950753D01*
X182833893Y-150965368D01*
X182812850Y-150977980D01*
X182790671Y-150988470D01*
X182767572Y-150996735D01*
X182743773Y-151002696D01*
X182719505Y-151006296D01*
X182695001Y-151007500D01*
X181794999Y-151007500D01*
X181770495Y-151006296D01*
X181746227Y-151002696D01*
X181722428Y-150996735D01*
X181699329Y-150988470D01*
X181677150Y-150977980D01*
X181656107Y-150965368D01*
X181636401Y-150950753D01*
X181618223Y-150934277D01*
X181601747Y-150916099D01*
X181587132Y-150896393D01*
X181574520Y-150875350D01*
X181564030Y-150853171D01*
X181555765Y-150830072D01*
X181549804Y-150806273D01*
X181546204Y-150782005D01*
X181545000Y-150757501D01*
X181545000Y-150232499D01*
X181546204Y-150207995D01*
X181549804Y-150183727D01*
X181555765Y-150159928D01*
X181564030Y-150136829D01*
X181574520Y-150114650D01*
X181587132Y-150093607D01*
X181601747Y-150073901D01*
X181618223Y-150055723D01*
X181636401Y-150039247D01*
X181656107Y-150024632D01*
X181677150Y-150012020D01*
X181699329Y-150001530D01*
X181722428Y-149993265D01*
X181746227Y-149987304D01*
X181770495Y-149983704D01*
X181794999Y-149982500D01*
X182695001Y-149982500D01*
X182719505Y-149983704D01*
G37*
G36*
X182719505Y-148158704D02*
G01*
X182743773Y-148162304D01*
X182767572Y-148168265D01*
X182790671Y-148176530D01*
X182812850Y-148187020D01*
X182833893Y-148199632D01*
X182853599Y-148214247D01*
X182871777Y-148230723D01*
X182888253Y-148248901D01*
X182902868Y-148268607D01*
X182915480Y-148289650D01*
X182925970Y-148311829D01*
X182934235Y-148334928D01*
X182940196Y-148358727D01*
X182943796Y-148382995D01*
X182945000Y-148407499D01*
X182945000Y-148932501D01*
X182943796Y-148957005D01*
X182940196Y-148981273D01*
X182934235Y-149005072D01*
X182925970Y-149028171D01*
X182915480Y-149050350D01*
X182902868Y-149071393D01*
X182888253Y-149091099D01*
X182871777Y-149109277D01*
X182853599Y-149125753D01*
X182833893Y-149140368D01*
X182812850Y-149152980D01*
X182790671Y-149163470D01*
X182767572Y-149171735D01*
X182743773Y-149177696D01*
X182719505Y-149181296D01*
X182695001Y-149182500D01*
X181794999Y-149182500D01*
X181770495Y-149181296D01*
X181746227Y-149177696D01*
X181722428Y-149171735D01*
X181699329Y-149163470D01*
X181677150Y-149152980D01*
X181656107Y-149140368D01*
X181636401Y-149125753D01*
X181618223Y-149109277D01*
X181601747Y-149091099D01*
X181587132Y-149071393D01*
X181574520Y-149050350D01*
X181564030Y-149028171D01*
X181555765Y-149005072D01*
X181549804Y-148981273D01*
X181546204Y-148957005D01*
X181545000Y-148932501D01*
X181545000Y-148407499D01*
X181546204Y-148382995D01*
X181549804Y-148358727D01*
X181555765Y-148334928D01*
X181564030Y-148311829D01*
X181574520Y-148289650D01*
X181587132Y-148268607D01*
X181601747Y-148248901D01*
X181618223Y-148230723D01*
X181636401Y-148214247D01*
X181656107Y-148199632D01*
X181677150Y-148187020D01*
X181699329Y-148176530D01*
X181722428Y-148168265D01*
X181746227Y-148162304D01*
X181770495Y-148158704D01*
X181794999Y-148157500D01*
X182695001Y-148157500D01*
X182719505Y-148158704D01*
G37*
G36*
X192459722Y-121356674D02*
G01*
X192473313Y-121358690D01*
X192486640Y-121362028D01*
X192499576Y-121366657D01*
X192511996Y-121372531D01*
X192523780Y-121379594D01*
X192534815Y-121387779D01*
X192544995Y-121397005D01*
X192554221Y-121407185D01*
X192562406Y-121418220D01*
X192569469Y-121430004D01*
X192575343Y-121442424D01*
X192579972Y-121455360D01*
X192583310Y-121468687D01*
X192585326Y-121482278D01*
X192586000Y-121496000D01*
X192586000Y-121836000D01*
X192585326Y-121849722D01*
X192583310Y-121863313D01*
X192579972Y-121876640D01*
X192575343Y-121889576D01*
X192569469Y-121901996D01*
X192562406Y-121913780D01*
X192554221Y-121924815D01*
X192544995Y-121934995D01*
X192534815Y-121944221D01*
X192523780Y-121952406D01*
X192511996Y-121959469D01*
X192499576Y-121965343D01*
X192486640Y-121969972D01*
X192473313Y-121973310D01*
X192459722Y-121975326D01*
X192446000Y-121976000D01*
X192166000Y-121976000D01*
X192152278Y-121975326D01*
X192138687Y-121973310D01*
X192125360Y-121969972D01*
X192112424Y-121965343D01*
X192100004Y-121959469D01*
X192088220Y-121952406D01*
X192077185Y-121944221D01*
X192067005Y-121934995D01*
X192057779Y-121924815D01*
X192049594Y-121913780D01*
X192042531Y-121901996D01*
X192036657Y-121889576D01*
X192032028Y-121876640D01*
X192028690Y-121863313D01*
X192026674Y-121849722D01*
X192026000Y-121836000D01*
X192026000Y-121496000D01*
X192026674Y-121482278D01*
X192028690Y-121468687D01*
X192032028Y-121455360D01*
X192036657Y-121442424D01*
X192042531Y-121430004D01*
X192049594Y-121418220D01*
X192057779Y-121407185D01*
X192067005Y-121397005D01*
X192077185Y-121387779D01*
X192088220Y-121379594D01*
X192100004Y-121372531D01*
X192112424Y-121366657D01*
X192125360Y-121362028D01*
X192138687Y-121358690D01*
X192152278Y-121356674D01*
X192166000Y-121356000D01*
X192446000Y-121356000D01*
X192459722Y-121356674D01*
G37*
G36*
X193419722Y-121356674D02*
G01*
X193433313Y-121358690D01*
X193446640Y-121362028D01*
X193459576Y-121366657D01*
X193471996Y-121372531D01*
X193483780Y-121379594D01*
X193494815Y-121387779D01*
X193504995Y-121397005D01*
X193514221Y-121407185D01*
X193522406Y-121418220D01*
X193529469Y-121430004D01*
X193535343Y-121442424D01*
X193539972Y-121455360D01*
X193543310Y-121468687D01*
X193545326Y-121482278D01*
X193546000Y-121496000D01*
X193546000Y-121836000D01*
X193545326Y-121849722D01*
X193543310Y-121863313D01*
X193539972Y-121876640D01*
X193535343Y-121889576D01*
X193529469Y-121901996D01*
X193522406Y-121913780D01*
X193514221Y-121924815D01*
X193504995Y-121934995D01*
X193494815Y-121944221D01*
X193483780Y-121952406D01*
X193471996Y-121959469D01*
X193459576Y-121965343D01*
X193446640Y-121969972D01*
X193433313Y-121973310D01*
X193419722Y-121975326D01*
X193406000Y-121976000D01*
X193126000Y-121976000D01*
X193112278Y-121975326D01*
X193098687Y-121973310D01*
X193085360Y-121969972D01*
X193072424Y-121965343D01*
X193060004Y-121959469D01*
X193048220Y-121952406D01*
X193037185Y-121944221D01*
X193027005Y-121934995D01*
X193017779Y-121924815D01*
X193009594Y-121913780D01*
X193002531Y-121901996D01*
X192996657Y-121889576D01*
X192992028Y-121876640D01*
X192988690Y-121863313D01*
X192986674Y-121849722D01*
X192986000Y-121836000D01*
X192986000Y-121496000D01*
X192986674Y-121482278D01*
X192988690Y-121468687D01*
X192992028Y-121455360D01*
X192996657Y-121442424D01*
X193002531Y-121430004D01*
X193009594Y-121418220D01*
X193017779Y-121407185D01*
X193027005Y-121397005D01*
X193037185Y-121387779D01*
X193048220Y-121379594D01*
X193060004Y-121372531D01*
X193072424Y-121366657D01*
X193085360Y-121362028D01*
X193098687Y-121358690D01*
X193112278Y-121356674D01*
X193126000Y-121356000D01*
X193406000Y-121356000D01*
X193419722Y-121356674D01*
G37*
G36*
X192459722Y-122880674D02*
G01*
X192473313Y-122882690D01*
X192486640Y-122886028D01*
X192499576Y-122890657D01*
X192511996Y-122896531D01*
X192523780Y-122903594D01*
X192534815Y-122911779D01*
X192544995Y-122921005D01*
X192554221Y-122931185D01*
X192562406Y-122942220D01*
X192569469Y-122954004D01*
X192575343Y-122966424D01*
X192579972Y-122979360D01*
X192583310Y-122992687D01*
X192585326Y-123006278D01*
X192586000Y-123020000D01*
X192586000Y-123360000D01*
X192585326Y-123373722D01*
X192583310Y-123387313D01*
X192579972Y-123400640D01*
X192575343Y-123413576D01*
X192569469Y-123425996D01*
X192562406Y-123437780D01*
X192554221Y-123448815D01*
X192544995Y-123458995D01*
X192534815Y-123468221D01*
X192523780Y-123476406D01*
X192511996Y-123483469D01*
X192499576Y-123489343D01*
X192486640Y-123493972D01*
X192473313Y-123497310D01*
X192459722Y-123499326D01*
X192446000Y-123500000D01*
X192166000Y-123500000D01*
X192152278Y-123499326D01*
X192138687Y-123497310D01*
X192125360Y-123493972D01*
X192112424Y-123489343D01*
X192100004Y-123483469D01*
X192088220Y-123476406D01*
X192077185Y-123468221D01*
X192067005Y-123458995D01*
X192057779Y-123448815D01*
X192049594Y-123437780D01*
X192042531Y-123425996D01*
X192036657Y-123413576D01*
X192032028Y-123400640D01*
X192028690Y-123387313D01*
X192026674Y-123373722D01*
X192026000Y-123360000D01*
X192026000Y-123020000D01*
X192026674Y-123006278D01*
X192028690Y-122992687D01*
X192032028Y-122979360D01*
X192036657Y-122966424D01*
X192042531Y-122954004D01*
X192049594Y-122942220D01*
X192057779Y-122931185D01*
X192067005Y-122921005D01*
X192077185Y-122911779D01*
X192088220Y-122903594D01*
X192100004Y-122896531D01*
X192112424Y-122890657D01*
X192125360Y-122886028D01*
X192138687Y-122882690D01*
X192152278Y-122880674D01*
X192166000Y-122880000D01*
X192446000Y-122880000D01*
X192459722Y-122880674D01*
G37*
G36*
X193419722Y-122880674D02*
G01*
X193433313Y-122882690D01*
X193446640Y-122886028D01*
X193459576Y-122890657D01*
X193471996Y-122896531D01*
X193483780Y-122903594D01*
X193494815Y-122911779D01*
X193504995Y-122921005D01*
X193514221Y-122931185D01*
X193522406Y-122942220D01*
X193529469Y-122954004D01*
X193535343Y-122966424D01*
X193539972Y-122979360D01*
X193543310Y-122992687D01*
X193545326Y-123006278D01*
X193546000Y-123020000D01*
X193546000Y-123360000D01*
X193545326Y-123373722D01*
X193543310Y-123387313D01*
X193539972Y-123400640D01*
X193535343Y-123413576D01*
X193529469Y-123425996D01*
X193522406Y-123437780D01*
X193514221Y-123448815D01*
X193504995Y-123458995D01*
X193494815Y-123468221D01*
X193483780Y-123476406D01*
X193471996Y-123483469D01*
X193459576Y-123489343D01*
X193446640Y-123493972D01*
X193433313Y-123497310D01*
X193419722Y-123499326D01*
X193406000Y-123500000D01*
X193126000Y-123500000D01*
X193112278Y-123499326D01*
X193098687Y-123497310D01*
X193085360Y-123493972D01*
X193072424Y-123489343D01*
X193060004Y-123483469D01*
X193048220Y-123476406D01*
X193037185Y-123468221D01*
X193027005Y-123458995D01*
X193017779Y-123448815D01*
X193009594Y-123437780D01*
X193002531Y-123425996D01*
X192996657Y-123413576D01*
X192992028Y-123400640D01*
X192988690Y-123387313D01*
X192986674Y-123373722D01*
X192986000Y-123360000D01*
X192986000Y-123020000D01*
X192986674Y-123006278D01*
X192988690Y-122992687D01*
X192992028Y-122979360D01*
X192996657Y-122966424D01*
X193002531Y-122954004D01*
X193009594Y-122942220D01*
X193017779Y-122931185D01*
X193027005Y-122921005D01*
X193037185Y-122911779D01*
X193048220Y-122903594D01*
X193060004Y-122896531D01*
X193072424Y-122890657D01*
X193085360Y-122886028D01*
X193098687Y-122882690D01*
X193112278Y-122880674D01*
X193126000Y-122880000D01*
X193406000Y-122880000D01*
X193419722Y-122880674D01*
G37*
D20*
X151100000Y-128200000D03*
X150150000Y-126200000D03*
X152050000Y-126200000D03*
D12*
G36*
X153827500Y-108200000D02*
G01*
X153827500Y-111600000D01*
X152772500Y-112655000D01*
X151832500Y-112655000D01*
X151832500Y-111600000D01*
X152772500Y-110744500D01*
X152772500Y-109055500D01*
X151832500Y-108200000D01*
X151832500Y-107145000D01*
X152772500Y-107145000D01*
X153827500Y-108200000D01*
G37*
G36*
X150312500Y-108200000D02*
G01*
X149372500Y-109055500D01*
X149372500Y-110744500D01*
X150312500Y-111600000D01*
X150312500Y-112655000D01*
X149372500Y-112655000D01*
X148317500Y-111600000D01*
X148317500Y-108200000D01*
X149372500Y-107145000D01*
X150312500Y-107145000D01*
X150312500Y-108200000D01*
G37*
D21*
X155650000Y-109800000D03*
X158950000Y-109800000D03*
D12*
G36*
X147924504Y-119976204D02*
G01*
X147948773Y-119979804D01*
X147972571Y-119985765D01*
X147995671Y-119994030D01*
X148017849Y-120004520D01*
X148038893Y-120017133D01*
X148058598Y-120031747D01*
X148076777Y-120048223D01*
X148093253Y-120066402D01*
X148107867Y-120086107D01*
X148120480Y-120107151D01*
X148130970Y-120129329D01*
X148139235Y-120152429D01*
X148145196Y-120176227D01*
X148148796Y-120200496D01*
X148150000Y-120225000D01*
X148150000Y-121175000D01*
X148148796Y-121199504D01*
X148145196Y-121223773D01*
X148139235Y-121247571D01*
X148130970Y-121270671D01*
X148120480Y-121292849D01*
X148107867Y-121313893D01*
X148093253Y-121333598D01*
X148076777Y-121351777D01*
X148058598Y-121368253D01*
X148038893Y-121382867D01*
X148017849Y-121395480D01*
X147995671Y-121405970D01*
X147972571Y-121414235D01*
X147948773Y-121420196D01*
X147924504Y-121423796D01*
X147900000Y-121425000D01*
X147400000Y-121425000D01*
X147375496Y-121423796D01*
X147351227Y-121420196D01*
X147327429Y-121414235D01*
X147304329Y-121405970D01*
X147282151Y-121395480D01*
X147261107Y-121382867D01*
X147241402Y-121368253D01*
X147223223Y-121351777D01*
X147206747Y-121333598D01*
X147192133Y-121313893D01*
X147179520Y-121292849D01*
X147169030Y-121270671D01*
X147160765Y-121247571D01*
X147154804Y-121223773D01*
X147151204Y-121199504D01*
X147150000Y-121175000D01*
X147150000Y-120225000D01*
X147151204Y-120200496D01*
X147154804Y-120176227D01*
X147160765Y-120152429D01*
X147169030Y-120129329D01*
X147179520Y-120107151D01*
X147192133Y-120086107D01*
X147206747Y-120066402D01*
X147223223Y-120048223D01*
X147241402Y-120031747D01*
X147261107Y-120017133D01*
X147282151Y-120004520D01*
X147304329Y-119994030D01*
X147327429Y-119985765D01*
X147351227Y-119979804D01*
X147375496Y-119976204D01*
X147400000Y-119975000D01*
X147900000Y-119975000D01*
X147924504Y-119976204D01*
G37*
G36*
X149824504Y-119976204D02*
G01*
X149848773Y-119979804D01*
X149872571Y-119985765D01*
X149895671Y-119994030D01*
X149917849Y-120004520D01*
X149938893Y-120017133D01*
X149958598Y-120031747D01*
X149976777Y-120048223D01*
X149993253Y-120066402D01*
X150007867Y-120086107D01*
X150020480Y-120107151D01*
X150030970Y-120129329D01*
X150039235Y-120152429D01*
X150045196Y-120176227D01*
X150048796Y-120200496D01*
X150050000Y-120225000D01*
X150050000Y-121175000D01*
X150048796Y-121199504D01*
X150045196Y-121223773D01*
X150039235Y-121247571D01*
X150030970Y-121270671D01*
X150020480Y-121292849D01*
X150007867Y-121313893D01*
X149993253Y-121333598D01*
X149976777Y-121351777D01*
X149958598Y-121368253D01*
X149938893Y-121382867D01*
X149917849Y-121395480D01*
X149895671Y-121405970D01*
X149872571Y-121414235D01*
X149848773Y-121420196D01*
X149824504Y-121423796D01*
X149800000Y-121425000D01*
X149300000Y-121425000D01*
X149275496Y-121423796D01*
X149251227Y-121420196D01*
X149227429Y-121414235D01*
X149204329Y-121405970D01*
X149182151Y-121395480D01*
X149161107Y-121382867D01*
X149141402Y-121368253D01*
X149123223Y-121351777D01*
X149106747Y-121333598D01*
X149092133Y-121313893D01*
X149079520Y-121292849D01*
X149069030Y-121270671D01*
X149060765Y-121247571D01*
X149054804Y-121223773D01*
X149051204Y-121199504D01*
X149050000Y-121175000D01*
X149050000Y-120225000D01*
X149051204Y-120200496D01*
X149054804Y-120176227D01*
X149060765Y-120152429D01*
X149069030Y-120129329D01*
X149079520Y-120107151D01*
X149092133Y-120086107D01*
X149106747Y-120066402D01*
X149123223Y-120048223D01*
X149141402Y-120031747D01*
X149161107Y-120017133D01*
X149182151Y-120004520D01*
X149204329Y-119994030D01*
X149227429Y-119985765D01*
X149251227Y-119979804D01*
X149275496Y-119976204D01*
X149300000Y-119975000D01*
X149800000Y-119975000D01*
X149824504Y-119976204D01*
G37*
G36*
X166174505Y-112151204D02*
G01*
X166198773Y-112154804D01*
X166222572Y-112160765D01*
X166245671Y-112169030D01*
X166267850Y-112179520D01*
X166288893Y-112192132D01*
X166308599Y-112206747D01*
X166326777Y-112223223D01*
X166343253Y-112241401D01*
X166357868Y-112261107D01*
X166370480Y-112282150D01*
X166380970Y-112304329D01*
X166389235Y-112327428D01*
X166395196Y-112351227D01*
X166398796Y-112375495D01*
X166400000Y-112399999D01*
X166400000Y-114600001D01*
X166398796Y-114624505D01*
X166395196Y-114648773D01*
X166389235Y-114672572D01*
X166380970Y-114695671D01*
X166370480Y-114717850D01*
X166357868Y-114738893D01*
X166343253Y-114758599D01*
X166326777Y-114776777D01*
X166308599Y-114793253D01*
X166288893Y-114807868D01*
X166267850Y-114820480D01*
X166245671Y-114830970D01*
X166222572Y-114839235D01*
X166198773Y-114845196D01*
X166174505Y-114848796D01*
X166150001Y-114850000D01*
X165324999Y-114850000D01*
X165300495Y-114848796D01*
X165276227Y-114845196D01*
X165252428Y-114839235D01*
X165229329Y-114830970D01*
X165207150Y-114820480D01*
X165186107Y-114807868D01*
X165166401Y-114793253D01*
X165148223Y-114776777D01*
X165131747Y-114758599D01*
X165117132Y-114738893D01*
X165104520Y-114717850D01*
X165094030Y-114695671D01*
X165085765Y-114672572D01*
X165079804Y-114648773D01*
X165076204Y-114624505D01*
X165075000Y-114600001D01*
X165075000Y-112399999D01*
X165076204Y-112375495D01*
X165079804Y-112351227D01*
X165085765Y-112327428D01*
X165094030Y-112304329D01*
X165104520Y-112282150D01*
X165117132Y-112261107D01*
X165131747Y-112241401D01*
X165148223Y-112223223D01*
X165166401Y-112206747D01*
X165186107Y-112192132D01*
X165207150Y-112179520D01*
X165229329Y-112169030D01*
X165252428Y-112160765D01*
X165276227Y-112154804D01*
X165300495Y-112151204D01*
X165324999Y-112150000D01*
X166150001Y-112150000D01*
X166174505Y-112151204D01*
G37*
G36*
X169299505Y-112151204D02*
G01*
X169323773Y-112154804D01*
X169347572Y-112160765D01*
X169370671Y-112169030D01*
X169392850Y-112179520D01*
X169413893Y-112192132D01*
X169433599Y-112206747D01*
X169451777Y-112223223D01*
X169468253Y-112241401D01*
X169482868Y-112261107D01*
X169495480Y-112282150D01*
X169505970Y-112304329D01*
X169514235Y-112327428D01*
X169520196Y-112351227D01*
X169523796Y-112375495D01*
X169525000Y-112399999D01*
X169525000Y-114600001D01*
X169523796Y-114624505D01*
X169520196Y-114648773D01*
X169514235Y-114672572D01*
X169505970Y-114695671D01*
X169495480Y-114717850D01*
X169482868Y-114738893D01*
X169468253Y-114758599D01*
X169451777Y-114776777D01*
X169433599Y-114793253D01*
X169413893Y-114807868D01*
X169392850Y-114820480D01*
X169370671Y-114830970D01*
X169347572Y-114839235D01*
X169323773Y-114845196D01*
X169299505Y-114848796D01*
X169275001Y-114850000D01*
X168449999Y-114850000D01*
X168425495Y-114848796D01*
X168401227Y-114845196D01*
X168377428Y-114839235D01*
X168354329Y-114830970D01*
X168332150Y-114820480D01*
X168311107Y-114807868D01*
X168291401Y-114793253D01*
X168273223Y-114776777D01*
X168256747Y-114758599D01*
X168242132Y-114738893D01*
X168229520Y-114717850D01*
X168219030Y-114695671D01*
X168210765Y-114672572D01*
X168204804Y-114648773D01*
X168201204Y-114624505D01*
X168200000Y-114600001D01*
X168200000Y-112399999D01*
X168201204Y-112375495D01*
X168204804Y-112351227D01*
X168210765Y-112327428D01*
X168219030Y-112304329D01*
X168229520Y-112282150D01*
X168242132Y-112261107D01*
X168256747Y-112241401D01*
X168273223Y-112223223D01*
X168291401Y-112206747D01*
X168311107Y-112192132D01*
X168332150Y-112179520D01*
X168354329Y-112169030D01*
X168377428Y-112160765D01*
X168401227Y-112154804D01*
X168425495Y-112151204D01*
X168449999Y-112150000D01*
X169275001Y-112150000D01*
X169299505Y-112151204D01*
G37*
G36*
X163724505Y-112301204D02*
G01*
X163748773Y-112304804D01*
X163772572Y-112310765D01*
X163795671Y-112319030D01*
X163817850Y-112329520D01*
X163838893Y-112342132D01*
X163858599Y-112356747D01*
X163876777Y-112373223D01*
X163893253Y-112391401D01*
X163907868Y-112411107D01*
X163920480Y-112432150D01*
X163930970Y-112454329D01*
X163939235Y-112477428D01*
X163945196Y-112501227D01*
X163948796Y-112525495D01*
X163950000Y-112549999D01*
X163950000Y-113375001D01*
X163948796Y-113399505D01*
X163945196Y-113423773D01*
X163939235Y-113447572D01*
X163930970Y-113470671D01*
X163920480Y-113492850D01*
X163907868Y-113513893D01*
X163893253Y-113533599D01*
X163876777Y-113551777D01*
X163858599Y-113568253D01*
X163838893Y-113582868D01*
X163817850Y-113595480D01*
X163795671Y-113605970D01*
X163772572Y-113614235D01*
X163748773Y-113620196D01*
X163724505Y-113623796D01*
X163700001Y-113625000D01*
X161499999Y-113625000D01*
X161475495Y-113623796D01*
X161451227Y-113620196D01*
X161427428Y-113614235D01*
X161404329Y-113605970D01*
X161382150Y-113595480D01*
X161361107Y-113582868D01*
X161341401Y-113568253D01*
X161323223Y-113551777D01*
X161306747Y-113533599D01*
X161292132Y-113513893D01*
X161279520Y-113492850D01*
X161269030Y-113470671D01*
X161260765Y-113447572D01*
X161254804Y-113423773D01*
X161251204Y-113399505D01*
X161250000Y-113375001D01*
X161250000Y-112549999D01*
X161251204Y-112525495D01*
X161254804Y-112501227D01*
X161260765Y-112477428D01*
X161269030Y-112454329D01*
X161279520Y-112432150D01*
X161292132Y-112411107D01*
X161306747Y-112391401D01*
X161323223Y-112373223D01*
X161341401Y-112356747D01*
X161361107Y-112342132D01*
X161382150Y-112329520D01*
X161404329Y-112319030D01*
X161427428Y-112310765D01*
X161451227Y-112304804D01*
X161475495Y-112301204D01*
X161499999Y-112300000D01*
X163700001Y-112300000D01*
X163724505Y-112301204D01*
G37*
G36*
X163724505Y-109176204D02*
G01*
X163748773Y-109179804D01*
X163772572Y-109185765D01*
X163795671Y-109194030D01*
X163817850Y-109204520D01*
X163838893Y-109217132D01*
X163858599Y-109231747D01*
X163876777Y-109248223D01*
X163893253Y-109266401D01*
X163907868Y-109286107D01*
X163920480Y-109307150D01*
X163930970Y-109329329D01*
X163939235Y-109352428D01*
X163945196Y-109376227D01*
X163948796Y-109400495D01*
X163950000Y-109424999D01*
X163950000Y-110250001D01*
X163948796Y-110274505D01*
X163945196Y-110298773D01*
X163939235Y-110322572D01*
X163930970Y-110345671D01*
X163920480Y-110367850D01*
X163907868Y-110388893D01*
X163893253Y-110408599D01*
X163876777Y-110426777D01*
X163858599Y-110443253D01*
X163838893Y-110457868D01*
X163817850Y-110470480D01*
X163795671Y-110480970D01*
X163772572Y-110489235D01*
X163748773Y-110495196D01*
X163724505Y-110498796D01*
X163700001Y-110500000D01*
X161499999Y-110500000D01*
X161475495Y-110498796D01*
X161451227Y-110495196D01*
X161427428Y-110489235D01*
X161404329Y-110480970D01*
X161382150Y-110470480D01*
X161361107Y-110457868D01*
X161341401Y-110443253D01*
X161323223Y-110426777D01*
X161306747Y-110408599D01*
X161292132Y-110388893D01*
X161279520Y-110367850D01*
X161269030Y-110345671D01*
X161260765Y-110322572D01*
X161254804Y-110298773D01*
X161251204Y-110274505D01*
X161250000Y-110250001D01*
X161250000Y-109424999D01*
X161251204Y-109400495D01*
X161254804Y-109376227D01*
X161260765Y-109352428D01*
X161269030Y-109329329D01*
X161279520Y-109307150D01*
X161292132Y-109286107D01*
X161306747Y-109266401D01*
X161323223Y-109248223D01*
X161341401Y-109231747D01*
X161361107Y-109217132D01*
X161382150Y-109204520D01*
X161404329Y-109194030D01*
X161427428Y-109185765D01*
X161451227Y-109179804D01*
X161475495Y-109176204D01*
X161499999Y-109175000D01*
X163700001Y-109175000D01*
X163724505Y-109176204D01*
G37*
G36*
X149624505Y-116801204D02*
G01*
X149648773Y-116804804D01*
X149672572Y-116810765D01*
X149695671Y-116819030D01*
X149717850Y-116829520D01*
X149738893Y-116842132D01*
X149758599Y-116856747D01*
X149776777Y-116873223D01*
X149793253Y-116891401D01*
X149807868Y-116911107D01*
X149820480Y-116932150D01*
X149830970Y-116954329D01*
X149839235Y-116977428D01*
X149845196Y-117001227D01*
X149848796Y-117025495D01*
X149850000Y-117049999D01*
X149850000Y-117875001D01*
X149848796Y-117899505D01*
X149845196Y-117923773D01*
X149839235Y-117947572D01*
X149830970Y-117970671D01*
X149820480Y-117992850D01*
X149807868Y-118013893D01*
X149793253Y-118033599D01*
X149776777Y-118051777D01*
X149758599Y-118068253D01*
X149738893Y-118082868D01*
X149717850Y-118095480D01*
X149695671Y-118105970D01*
X149672572Y-118114235D01*
X149648773Y-118120196D01*
X149624505Y-118123796D01*
X149600001Y-118125000D01*
X147399999Y-118125000D01*
X147375495Y-118123796D01*
X147351227Y-118120196D01*
X147327428Y-118114235D01*
X147304329Y-118105970D01*
X147282150Y-118095480D01*
X147261107Y-118082868D01*
X147241401Y-118068253D01*
X147223223Y-118051777D01*
X147206747Y-118033599D01*
X147192132Y-118013893D01*
X147179520Y-117992850D01*
X147169030Y-117970671D01*
X147160765Y-117947572D01*
X147154804Y-117923773D01*
X147151204Y-117899505D01*
X147150000Y-117875001D01*
X147150000Y-117049999D01*
X147151204Y-117025495D01*
X147154804Y-117001227D01*
X147160765Y-116977428D01*
X147169030Y-116954329D01*
X147179520Y-116932150D01*
X147192132Y-116911107D01*
X147206747Y-116891401D01*
X147223223Y-116873223D01*
X147241401Y-116856747D01*
X147261107Y-116842132D01*
X147282150Y-116829520D01*
X147304329Y-116819030D01*
X147327428Y-116810765D01*
X147351227Y-116804804D01*
X147375495Y-116801204D01*
X147399999Y-116800000D01*
X149600001Y-116800000D01*
X149624505Y-116801204D01*
G37*
G36*
X149624505Y-113676204D02*
G01*
X149648773Y-113679804D01*
X149672572Y-113685765D01*
X149695671Y-113694030D01*
X149717850Y-113704520D01*
X149738893Y-113717132D01*
X149758599Y-113731747D01*
X149776777Y-113748223D01*
X149793253Y-113766401D01*
X149807868Y-113786107D01*
X149820480Y-113807150D01*
X149830970Y-113829329D01*
X149839235Y-113852428D01*
X149845196Y-113876227D01*
X149848796Y-113900495D01*
X149850000Y-113924999D01*
X149850000Y-114750001D01*
X149848796Y-114774505D01*
X149845196Y-114798773D01*
X149839235Y-114822572D01*
X149830970Y-114845671D01*
X149820480Y-114867850D01*
X149807868Y-114888893D01*
X149793253Y-114908599D01*
X149776777Y-114926777D01*
X149758599Y-114943253D01*
X149738893Y-114957868D01*
X149717850Y-114970480D01*
X149695671Y-114980970D01*
X149672572Y-114989235D01*
X149648773Y-114995196D01*
X149624505Y-114998796D01*
X149600001Y-115000000D01*
X147399999Y-115000000D01*
X147375495Y-114998796D01*
X147351227Y-114995196D01*
X147327428Y-114989235D01*
X147304329Y-114980970D01*
X147282150Y-114970480D01*
X147261107Y-114957868D01*
X147241401Y-114943253D01*
X147223223Y-114926777D01*
X147206747Y-114908599D01*
X147192132Y-114888893D01*
X147179520Y-114867850D01*
X147169030Y-114845671D01*
X147160765Y-114822572D01*
X147154804Y-114798773D01*
X147151204Y-114774505D01*
X147150000Y-114750001D01*
X147150000Y-113924999D01*
X147151204Y-113900495D01*
X147154804Y-113876227D01*
X147160765Y-113852428D01*
X147169030Y-113829329D01*
X147179520Y-113807150D01*
X147192132Y-113786107D01*
X147206747Y-113766401D01*
X147223223Y-113748223D01*
X147241401Y-113731747D01*
X147261107Y-113717132D01*
X147282150Y-113704520D01*
X147304329Y-113694030D01*
X147327428Y-113685765D01*
X147351227Y-113679804D01*
X147375495Y-113676204D01*
X147399999Y-113675000D01*
X149600001Y-113675000D01*
X149624505Y-113676204D01*
G37*
M02*
