G04 #@! TF.GenerationSoftware,KiCad,Pcbnew,5.1.5+dfsg1-2build2*
G04 #@! TF.CreationDate,2022-11-08T08:09:59+00:00*
G04 #@! TF.ProjectId,datapack-tool1,64617461-7061-4636-9b2d-746f6f6c312e,rev?*
G04 #@! TF.SameCoordinates,Original*
G04 #@! TF.FileFunction,Soldermask,Bot*
G04 #@! TF.FilePolarity,Negative*
%FSLAX46Y46*%
G04 Gerber Fmt 4.6, Leading zero omitted, Abs format (unit mm)*
G04 Created by KiCad (PCBNEW 5.1.5+dfsg1-2build2) date 2022-11-08 08:09:59*
%MOMM*%
%LPD*%
G04 APERTURE LIST*
%ADD10C,0.100000*%
G04 APERTURE END LIST*
D10*
G36*
X102701000Y-161501000D02*
G01*
X100899000Y-161501000D01*
X100899000Y-159699000D01*
X102701000Y-159699000D01*
X102701000Y-161501000D01*
G37*
G36*
X104453512Y-159703927D02*
G01*
X104602812Y-159733624D01*
X104766784Y-159801544D01*
X104914354Y-159900147D01*
X105039853Y-160025646D01*
X105138456Y-160173216D01*
X105206376Y-160337188D01*
X105241000Y-160511259D01*
X105241000Y-160688741D01*
X105206376Y-160862812D01*
X105138456Y-161026784D01*
X105039853Y-161174354D01*
X104914354Y-161299853D01*
X104766784Y-161398456D01*
X104602812Y-161466376D01*
X104453512Y-161496073D01*
X104428742Y-161501000D01*
X104251258Y-161501000D01*
X104226488Y-161496073D01*
X104077188Y-161466376D01*
X103913216Y-161398456D01*
X103765646Y-161299853D01*
X103640147Y-161174354D01*
X103541544Y-161026784D01*
X103473624Y-160862812D01*
X103439000Y-160688741D01*
X103439000Y-160511259D01*
X103473624Y-160337188D01*
X103541544Y-160173216D01*
X103640147Y-160025646D01*
X103765646Y-159900147D01*
X103913216Y-159801544D01*
X104077188Y-159733624D01*
X104226488Y-159703927D01*
X104251258Y-159699000D01*
X104428742Y-159699000D01*
X104453512Y-159703927D01*
G37*
G36*
X106993512Y-159703927D02*
G01*
X107142812Y-159733624D01*
X107306784Y-159801544D01*
X107454354Y-159900147D01*
X107579853Y-160025646D01*
X107678456Y-160173216D01*
X107746376Y-160337188D01*
X107781000Y-160511259D01*
X107781000Y-160688741D01*
X107746376Y-160862812D01*
X107678456Y-161026784D01*
X107579853Y-161174354D01*
X107454354Y-161299853D01*
X107306784Y-161398456D01*
X107142812Y-161466376D01*
X106993512Y-161496073D01*
X106968742Y-161501000D01*
X106791258Y-161501000D01*
X106766488Y-161496073D01*
X106617188Y-161466376D01*
X106453216Y-161398456D01*
X106305646Y-161299853D01*
X106180147Y-161174354D01*
X106081544Y-161026784D01*
X106013624Y-160862812D01*
X105979000Y-160688741D01*
X105979000Y-160511259D01*
X106013624Y-160337188D01*
X106081544Y-160173216D01*
X106180147Y-160025646D01*
X106305646Y-159900147D01*
X106453216Y-159801544D01*
X106617188Y-159733624D01*
X106766488Y-159703927D01*
X106791258Y-159699000D01*
X106968742Y-159699000D01*
X106993512Y-159703927D01*
G37*
G36*
X116323512Y-156733927D02*
G01*
X116472812Y-156763624D01*
X116636784Y-156831544D01*
X116784354Y-156930147D01*
X116909853Y-157055646D01*
X117008456Y-157203216D01*
X117076376Y-157367188D01*
X117111000Y-157541259D01*
X117111000Y-157718741D01*
X117076376Y-157892812D01*
X117008456Y-158056784D01*
X116909853Y-158204354D01*
X116784354Y-158329853D01*
X116636784Y-158428456D01*
X116472812Y-158496376D01*
X116323512Y-158526073D01*
X116298742Y-158531000D01*
X116121258Y-158531000D01*
X116096488Y-158526073D01*
X115947188Y-158496376D01*
X115783216Y-158428456D01*
X115635646Y-158329853D01*
X115510147Y-158204354D01*
X115411544Y-158056784D01*
X115343624Y-157892812D01*
X115309000Y-157718741D01*
X115309000Y-157541259D01*
X115343624Y-157367188D01*
X115411544Y-157203216D01*
X115510147Y-157055646D01*
X115635646Y-156930147D01*
X115783216Y-156831544D01*
X115947188Y-156763624D01*
X116096488Y-156733927D01*
X116121258Y-156729000D01*
X116298742Y-156729000D01*
X116323512Y-156733927D01*
G37*
G36*
X134103512Y-156733927D02*
G01*
X134252812Y-156763624D01*
X134416784Y-156831544D01*
X134564354Y-156930147D01*
X134689853Y-157055646D01*
X134788456Y-157203216D01*
X134856376Y-157367188D01*
X134891000Y-157541259D01*
X134891000Y-157718741D01*
X134856376Y-157892812D01*
X134788456Y-158056784D01*
X134689853Y-158204354D01*
X134564354Y-158329853D01*
X134416784Y-158428456D01*
X134252812Y-158496376D01*
X134103512Y-158526073D01*
X134078742Y-158531000D01*
X133901258Y-158531000D01*
X133876488Y-158526073D01*
X133727188Y-158496376D01*
X133563216Y-158428456D01*
X133415646Y-158329853D01*
X133290147Y-158204354D01*
X133191544Y-158056784D01*
X133123624Y-157892812D01*
X133089000Y-157718741D01*
X133089000Y-157541259D01*
X133123624Y-157367188D01*
X133191544Y-157203216D01*
X133290147Y-157055646D01*
X133415646Y-156930147D01*
X133563216Y-156831544D01*
X133727188Y-156763624D01*
X133876488Y-156733927D01*
X133901258Y-156729000D01*
X134078742Y-156729000D01*
X134103512Y-156733927D01*
G37*
G36*
X127753512Y-156503927D02*
G01*
X127902812Y-156533624D01*
X128066784Y-156601544D01*
X128214354Y-156700147D01*
X128339853Y-156825646D01*
X128438456Y-156973216D01*
X128506376Y-157137188D01*
X128541000Y-157311259D01*
X128541000Y-157488741D01*
X128506376Y-157662812D01*
X128438456Y-157826784D01*
X128339853Y-157974354D01*
X128214354Y-158099853D01*
X128066784Y-158198456D01*
X127902812Y-158266376D01*
X127753512Y-158296073D01*
X127728742Y-158301000D01*
X127551258Y-158301000D01*
X127526488Y-158296073D01*
X127377188Y-158266376D01*
X127213216Y-158198456D01*
X127065646Y-158099853D01*
X126940147Y-157974354D01*
X126841544Y-157826784D01*
X126773624Y-157662812D01*
X126739000Y-157488741D01*
X126739000Y-157311259D01*
X126773624Y-157137188D01*
X126841544Y-156973216D01*
X126940147Y-156825646D01*
X127065646Y-156700147D01*
X127213216Y-156601544D01*
X127377188Y-156533624D01*
X127526488Y-156503927D01*
X127551258Y-156499000D01*
X127728742Y-156499000D01*
X127753512Y-156503927D01*
G37*
G36*
X122673512Y-156503927D02*
G01*
X122822812Y-156533624D01*
X122986784Y-156601544D01*
X123134354Y-156700147D01*
X123259853Y-156825646D01*
X123358456Y-156973216D01*
X123426376Y-157137188D01*
X123461000Y-157311259D01*
X123461000Y-157488741D01*
X123426376Y-157662812D01*
X123358456Y-157826784D01*
X123259853Y-157974354D01*
X123134354Y-158099853D01*
X122986784Y-158198456D01*
X122822812Y-158266376D01*
X122673512Y-158296073D01*
X122648742Y-158301000D01*
X122471258Y-158301000D01*
X122446488Y-158296073D01*
X122297188Y-158266376D01*
X122133216Y-158198456D01*
X121985646Y-158099853D01*
X121860147Y-157974354D01*
X121761544Y-157826784D01*
X121693624Y-157662812D01*
X121659000Y-157488741D01*
X121659000Y-157311259D01*
X121693624Y-157137188D01*
X121761544Y-156973216D01*
X121860147Y-156825646D01*
X121985646Y-156700147D01*
X122133216Y-156601544D01*
X122297188Y-156533624D01*
X122446488Y-156503927D01*
X122471258Y-156499000D01*
X122648742Y-156499000D01*
X122673512Y-156503927D01*
G37*
G36*
X126001000Y-158301000D02*
G01*
X124199000Y-158301000D01*
X124199000Y-156499000D01*
X126001000Y-156499000D01*
X126001000Y-158301000D01*
G37*
G36*
X116323512Y-154193927D02*
G01*
X116472812Y-154223624D01*
X116636784Y-154291544D01*
X116784354Y-154390147D01*
X116909853Y-154515646D01*
X117008456Y-154663216D01*
X117076376Y-154827188D01*
X117111000Y-155001259D01*
X117111000Y-155178741D01*
X117076376Y-155352812D01*
X117008456Y-155516784D01*
X116909853Y-155664354D01*
X116784354Y-155789853D01*
X116636784Y-155888456D01*
X116472812Y-155956376D01*
X116323512Y-155986073D01*
X116298742Y-155991000D01*
X116121258Y-155991000D01*
X116096488Y-155986073D01*
X115947188Y-155956376D01*
X115783216Y-155888456D01*
X115635646Y-155789853D01*
X115510147Y-155664354D01*
X115411544Y-155516784D01*
X115343624Y-155352812D01*
X115309000Y-155178741D01*
X115309000Y-155001259D01*
X115343624Y-154827188D01*
X115411544Y-154663216D01*
X115510147Y-154515646D01*
X115635646Y-154390147D01*
X115783216Y-154291544D01*
X115947188Y-154223624D01*
X116096488Y-154193927D01*
X116121258Y-154189000D01*
X116298742Y-154189000D01*
X116323512Y-154193927D01*
G37*
G36*
X134103512Y-154193927D02*
G01*
X134252812Y-154223624D01*
X134416784Y-154291544D01*
X134564354Y-154390147D01*
X134689853Y-154515646D01*
X134788456Y-154663216D01*
X134856376Y-154827188D01*
X134891000Y-155001259D01*
X134891000Y-155178741D01*
X134856376Y-155352812D01*
X134788456Y-155516784D01*
X134689853Y-155664354D01*
X134564354Y-155789853D01*
X134416784Y-155888456D01*
X134252812Y-155956376D01*
X134103512Y-155986073D01*
X134078742Y-155991000D01*
X133901258Y-155991000D01*
X133876488Y-155986073D01*
X133727188Y-155956376D01*
X133563216Y-155888456D01*
X133415646Y-155789853D01*
X133290147Y-155664354D01*
X133191544Y-155516784D01*
X133123624Y-155352812D01*
X133089000Y-155178741D01*
X133089000Y-155001259D01*
X133123624Y-154827188D01*
X133191544Y-154663216D01*
X133290147Y-154515646D01*
X133415646Y-154390147D01*
X133563216Y-154291544D01*
X133727188Y-154223624D01*
X133876488Y-154193927D01*
X133901258Y-154189000D01*
X134078742Y-154189000D01*
X134103512Y-154193927D01*
G37*
G36*
X117111000Y-153451000D02*
G01*
X115309000Y-153451000D01*
X115309000Y-151649000D01*
X117111000Y-151649000D01*
X117111000Y-153451000D01*
G37*
G36*
X134891000Y-153451000D02*
G01*
X133089000Y-153451000D01*
X133089000Y-151649000D01*
X134891000Y-151649000D01*
X134891000Y-153451000D01*
G37*
G36*
X116323512Y-149113927D02*
G01*
X116472812Y-149143624D01*
X116636784Y-149211544D01*
X116784354Y-149310147D01*
X116909853Y-149435646D01*
X117008456Y-149583216D01*
X117076376Y-149747188D01*
X117111000Y-149921259D01*
X117111000Y-150098741D01*
X117076376Y-150272812D01*
X117008456Y-150436784D01*
X116909853Y-150584354D01*
X116784354Y-150709853D01*
X116636784Y-150808456D01*
X116472812Y-150876376D01*
X116323512Y-150906073D01*
X116298742Y-150911000D01*
X116121258Y-150911000D01*
X116096488Y-150906073D01*
X115947188Y-150876376D01*
X115783216Y-150808456D01*
X115635646Y-150709853D01*
X115510147Y-150584354D01*
X115411544Y-150436784D01*
X115343624Y-150272812D01*
X115309000Y-150098741D01*
X115309000Y-149921259D01*
X115343624Y-149747188D01*
X115411544Y-149583216D01*
X115510147Y-149435646D01*
X115635646Y-149310147D01*
X115783216Y-149211544D01*
X115947188Y-149143624D01*
X116096488Y-149113927D01*
X116121258Y-149109000D01*
X116298742Y-149109000D01*
X116323512Y-149113927D01*
G37*
G36*
X134103512Y-149113927D02*
G01*
X134252812Y-149143624D01*
X134416784Y-149211544D01*
X134564354Y-149310147D01*
X134689853Y-149435646D01*
X134788456Y-149583216D01*
X134856376Y-149747188D01*
X134891000Y-149921259D01*
X134891000Y-150098741D01*
X134856376Y-150272812D01*
X134788456Y-150436784D01*
X134689853Y-150584354D01*
X134564354Y-150709853D01*
X134416784Y-150808456D01*
X134252812Y-150876376D01*
X134103512Y-150906073D01*
X134078742Y-150911000D01*
X133901258Y-150911000D01*
X133876488Y-150906073D01*
X133727188Y-150876376D01*
X133563216Y-150808456D01*
X133415646Y-150709853D01*
X133290147Y-150584354D01*
X133191544Y-150436784D01*
X133123624Y-150272812D01*
X133089000Y-150098741D01*
X133089000Y-149921259D01*
X133123624Y-149747188D01*
X133191544Y-149583216D01*
X133290147Y-149435646D01*
X133415646Y-149310147D01*
X133563216Y-149211544D01*
X133727188Y-149143624D01*
X133876488Y-149113927D01*
X133901258Y-149109000D01*
X134078742Y-149109000D01*
X134103512Y-149113927D01*
G37*
G36*
X116323512Y-146573927D02*
G01*
X116472812Y-146603624D01*
X116636784Y-146671544D01*
X116784354Y-146770147D01*
X116909853Y-146895646D01*
X117008456Y-147043216D01*
X117076376Y-147207188D01*
X117111000Y-147381259D01*
X117111000Y-147558741D01*
X117076376Y-147732812D01*
X117008456Y-147896784D01*
X116909853Y-148044354D01*
X116784354Y-148169853D01*
X116636784Y-148268456D01*
X116472812Y-148336376D01*
X116323512Y-148366073D01*
X116298742Y-148371000D01*
X116121258Y-148371000D01*
X116096488Y-148366073D01*
X115947188Y-148336376D01*
X115783216Y-148268456D01*
X115635646Y-148169853D01*
X115510147Y-148044354D01*
X115411544Y-147896784D01*
X115343624Y-147732812D01*
X115309000Y-147558741D01*
X115309000Y-147381259D01*
X115343624Y-147207188D01*
X115411544Y-147043216D01*
X115510147Y-146895646D01*
X115635646Y-146770147D01*
X115783216Y-146671544D01*
X115947188Y-146603624D01*
X116096488Y-146573927D01*
X116121258Y-146569000D01*
X116298742Y-146569000D01*
X116323512Y-146573927D01*
G37*
G36*
X134103512Y-146573927D02*
G01*
X134252812Y-146603624D01*
X134416784Y-146671544D01*
X134564354Y-146770147D01*
X134689853Y-146895646D01*
X134788456Y-147043216D01*
X134856376Y-147207188D01*
X134891000Y-147381259D01*
X134891000Y-147558741D01*
X134856376Y-147732812D01*
X134788456Y-147896784D01*
X134689853Y-148044354D01*
X134564354Y-148169853D01*
X134416784Y-148268456D01*
X134252812Y-148336376D01*
X134103512Y-148366073D01*
X134078742Y-148371000D01*
X133901258Y-148371000D01*
X133876488Y-148366073D01*
X133727188Y-148336376D01*
X133563216Y-148268456D01*
X133415646Y-148169853D01*
X133290147Y-148044354D01*
X133191544Y-147896784D01*
X133123624Y-147732812D01*
X133089000Y-147558741D01*
X133089000Y-147381259D01*
X133123624Y-147207188D01*
X133191544Y-147043216D01*
X133290147Y-146895646D01*
X133415646Y-146770147D01*
X133563216Y-146671544D01*
X133727188Y-146603624D01*
X133876488Y-146573927D01*
X133901258Y-146569000D01*
X134078742Y-146569000D01*
X134103512Y-146573927D01*
G37*
G36*
X134103512Y-144033927D02*
G01*
X134252812Y-144063624D01*
X134416784Y-144131544D01*
X134564354Y-144230147D01*
X134689853Y-144355646D01*
X134788456Y-144503216D01*
X134856376Y-144667188D01*
X134891000Y-144841259D01*
X134891000Y-145018741D01*
X134856376Y-145192812D01*
X134788456Y-145356784D01*
X134689853Y-145504354D01*
X134564354Y-145629853D01*
X134416784Y-145728456D01*
X134252812Y-145796376D01*
X134103512Y-145826073D01*
X134078742Y-145831000D01*
X133901258Y-145831000D01*
X133876488Y-145826073D01*
X133727188Y-145796376D01*
X133563216Y-145728456D01*
X133415646Y-145629853D01*
X133290147Y-145504354D01*
X133191544Y-145356784D01*
X133123624Y-145192812D01*
X133089000Y-145018741D01*
X133089000Y-144841259D01*
X133123624Y-144667188D01*
X133191544Y-144503216D01*
X133290147Y-144355646D01*
X133415646Y-144230147D01*
X133563216Y-144131544D01*
X133727188Y-144063624D01*
X133876488Y-144033927D01*
X133901258Y-144029000D01*
X134078742Y-144029000D01*
X134103512Y-144033927D01*
G37*
G36*
X116323512Y-144033927D02*
G01*
X116472812Y-144063624D01*
X116636784Y-144131544D01*
X116784354Y-144230147D01*
X116909853Y-144355646D01*
X117008456Y-144503216D01*
X117076376Y-144667188D01*
X117111000Y-144841259D01*
X117111000Y-145018741D01*
X117076376Y-145192812D01*
X117008456Y-145356784D01*
X116909853Y-145504354D01*
X116784354Y-145629853D01*
X116636784Y-145728456D01*
X116472812Y-145796376D01*
X116323512Y-145826073D01*
X116298742Y-145831000D01*
X116121258Y-145831000D01*
X116096488Y-145826073D01*
X115947188Y-145796376D01*
X115783216Y-145728456D01*
X115635646Y-145629853D01*
X115510147Y-145504354D01*
X115411544Y-145356784D01*
X115343624Y-145192812D01*
X115309000Y-145018741D01*
X115309000Y-144841259D01*
X115343624Y-144667188D01*
X115411544Y-144503216D01*
X115510147Y-144355646D01*
X115635646Y-144230147D01*
X115783216Y-144131544D01*
X115947188Y-144063624D01*
X116096488Y-144033927D01*
X116121258Y-144029000D01*
X116298742Y-144029000D01*
X116323512Y-144033927D01*
G37*
G36*
X134103512Y-141493927D02*
G01*
X134252812Y-141523624D01*
X134416784Y-141591544D01*
X134564354Y-141690147D01*
X134689853Y-141815646D01*
X134788456Y-141963216D01*
X134856376Y-142127188D01*
X134891000Y-142301259D01*
X134891000Y-142478741D01*
X134856376Y-142652812D01*
X134788456Y-142816784D01*
X134689853Y-142964354D01*
X134564354Y-143089853D01*
X134416784Y-143188456D01*
X134252812Y-143256376D01*
X134103512Y-143286073D01*
X134078742Y-143291000D01*
X133901258Y-143291000D01*
X133876488Y-143286073D01*
X133727188Y-143256376D01*
X133563216Y-143188456D01*
X133415646Y-143089853D01*
X133290147Y-142964354D01*
X133191544Y-142816784D01*
X133123624Y-142652812D01*
X133089000Y-142478741D01*
X133089000Y-142301259D01*
X133123624Y-142127188D01*
X133191544Y-141963216D01*
X133290147Y-141815646D01*
X133415646Y-141690147D01*
X133563216Y-141591544D01*
X133727188Y-141523624D01*
X133876488Y-141493927D01*
X133901258Y-141489000D01*
X134078742Y-141489000D01*
X134103512Y-141493927D01*
G37*
G36*
X116323512Y-141493927D02*
G01*
X116472812Y-141523624D01*
X116636784Y-141591544D01*
X116784354Y-141690147D01*
X116909853Y-141815646D01*
X117008456Y-141963216D01*
X117076376Y-142127188D01*
X117111000Y-142301259D01*
X117111000Y-142478741D01*
X117076376Y-142652812D01*
X117008456Y-142816784D01*
X116909853Y-142964354D01*
X116784354Y-143089853D01*
X116636784Y-143188456D01*
X116472812Y-143256376D01*
X116323512Y-143286073D01*
X116298742Y-143291000D01*
X116121258Y-143291000D01*
X116096488Y-143286073D01*
X115947188Y-143256376D01*
X115783216Y-143188456D01*
X115635646Y-143089853D01*
X115510147Y-142964354D01*
X115411544Y-142816784D01*
X115343624Y-142652812D01*
X115309000Y-142478741D01*
X115309000Y-142301259D01*
X115343624Y-142127188D01*
X115411544Y-141963216D01*
X115510147Y-141815646D01*
X115635646Y-141690147D01*
X115783216Y-141591544D01*
X115947188Y-141523624D01*
X116096488Y-141493927D01*
X116121258Y-141489000D01*
X116298742Y-141489000D01*
X116323512Y-141493927D01*
G37*
G36*
X134891000Y-140751000D02*
G01*
X133089000Y-140751000D01*
X133089000Y-138949000D01*
X134891000Y-138949000D01*
X134891000Y-140751000D01*
G37*
G36*
X117111000Y-140751000D02*
G01*
X115309000Y-140751000D01*
X115309000Y-138949000D01*
X117111000Y-138949000D01*
X117111000Y-140751000D01*
G37*
G36*
X134103512Y-136413927D02*
G01*
X134252812Y-136443624D01*
X134416784Y-136511544D01*
X134564354Y-136610147D01*
X134689853Y-136735646D01*
X134788456Y-136883216D01*
X134856376Y-137047188D01*
X134891000Y-137221259D01*
X134891000Y-137398741D01*
X134856376Y-137572812D01*
X134788456Y-137736784D01*
X134689853Y-137884354D01*
X134564354Y-138009853D01*
X134416784Y-138108456D01*
X134252812Y-138176376D01*
X134103512Y-138206073D01*
X134078742Y-138211000D01*
X133901258Y-138211000D01*
X133876488Y-138206073D01*
X133727188Y-138176376D01*
X133563216Y-138108456D01*
X133415646Y-138009853D01*
X133290147Y-137884354D01*
X133191544Y-137736784D01*
X133123624Y-137572812D01*
X133089000Y-137398741D01*
X133089000Y-137221259D01*
X133123624Y-137047188D01*
X133191544Y-136883216D01*
X133290147Y-136735646D01*
X133415646Y-136610147D01*
X133563216Y-136511544D01*
X133727188Y-136443624D01*
X133876488Y-136413927D01*
X133901258Y-136409000D01*
X134078742Y-136409000D01*
X134103512Y-136413927D01*
G37*
G36*
X116323512Y-136413927D02*
G01*
X116472812Y-136443624D01*
X116636784Y-136511544D01*
X116784354Y-136610147D01*
X116909853Y-136735646D01*
X117008456Y-136883216D01*
X117076376Y-137047188D01*
X117111000Y-137221259D01*
X117111000Y-137398741D01*
X117076376Y-137572812D01*
X117008456Y-137736784D01*
X116909853Y-137884354D01*
X116784354Y-138009853D01*
X116636784Y-138108456D01*
X116472812Y-138176376D01*
X116323512Y-138206073D01*
X116298742Y-138211000D01*
X116121258Y-138211000D01*
X116096488Y-138206073D01*
X115947188Y-138176376D01*
X115783216Y-138108456D01*
X115635646Y-138009853D01*
X115510147Y-137884354D01*
X115411544Y-137736784D01*
X115343624Y-137572812D01*
X115309000Y-137398741D01*
X115309000Y-137221259D01*
X115343624Y-137047188D01*
X115411544Y-136883216D01*
X115510147Y-136735646D01*
X115635646Y-136610147D01*
X115783216Y-136511544D01*
X115947188Y-136443624D01*
X116096488Y-136413927D01*
X116121258Y-136409000D01*
X116298742Y-136409000D01*
X116323512Y-136413927D01*
G37*
G36*
X116323512Y-133873927D02*
G01*
X116472812Y-133903624D01*
X116636784Y-133971544D01*
X116784354Y-134070147D01*
X116909853Y-134195646D01*
X117008456Y-134343216D01*
X117076376Y-134507188D01*
X117111000Y-134681259D01*
X117111000Y-134858741D01*
X117076376Y-135032812D01*
X117008456Y-135196784D01*
X116909853Y-135344354D01*
X116784354Y-135469853D01*
X116636784Y-135568456D01*
X116472812Y-135636376D01*
X116323512Y-135666073D01*
X116298742Y-135671000D01*
X116121258Y-135671000D01*
X116096488Y-135666073D01*
X115947188Y-135636376D01*
X115783216Y-135568456D01*
X115635646Y-135469853D01*
X115510147Y-135344354D01*
X115411544Y-135196784D01*
X115343624Y-135032812D01*
X115309000Y-134858741D01*
X115309000Y-134681259D01*
X115343624Y-134507188D01*
X115411544Y-134343216D01*
X115510147Y-134195646D01*
X115635646Y-134070147D01*
X115783216Y-133971544D01*
X115947188Y-133903624D01*
X116096488Y-133873927D01*
X116121258Y-133869000D01*
X116298742Y-133869000D01*
X116323512Y-133873927D01*
G37*
G36*
X134103512Y-133873927D02*
G01*
X134252812Y-133903624D01*
X134416784Y-133971544D01*
X134564354Y-134070147D01*
X134689853Y-134195646D01*
X134788456Y-134343216D01*
X134856376Y-134507188D01*
X134891000Y-134681259D01*
X134891000Y-134858741D01*
X134856376Y-135032812D01*
X134788456Y-135196784D01*
X134689853Y-135344354D01*
X134564354Y-135469853D01*
X134416784Y-135568456D01*
X134252812Y-135636376D01*
X134103512Y-135666073D01*
X134078742Y-135671000D01*
X133901258Y-135671000D01*
X133876488Y-135666073D01*
X133727188Y-135636376D01*
X133563216Y-135568456D01*
X133415646Y-135469853D01*
X133290147Y-135344354D01*
X133191544Y-135196784D01*
X133123624Y-135032812D01*
X133089000Y-134858741D01*
X133089000Y-134681259D01*
X133123624Y-134507188D01*
X133191544Y-134343216D01*
X133290147Y-134195646D01*
X133415646Y-134070147D01*
X133563216Y-133971544D01*
X133727188Y-133903624D01*
X133876488Y-133873927D01*
X133901258Y-133869000D01*
X134078742Y-133869000D01*
X134103512Y-133873927D01*
G37*
G36*
X87913512Y-132483927D02*
G01*
X88062812Y-132513624D01*
X88226784Y-132581544D01*
X88374354Y-132680147D01*
X88499853Y-132805646D01*
X88598456Y-132953216D01*
X88666376Y-133117188D01*
X88701000Y-133291259D01*
X88701000Y-133468741D01*
X88666376Y-133642812D01*
X88598456Y-133806784D01*
X88499853Y-133954354D01*
X88374354Y-134079853D01*
X88226784Y-134178456D01*
X88062812Y-134246376D01*
X87913512Y-134276073D01*
X87888742Y-134281000D01*
X87711258Y-134281000D01*
X87686488Y-134276073D01*
X87537188Y-134246376D01*
X87373216Y-134178456D01*
X87225646Y-134079853D01*
X87100147Y-133954354D01*
X87001544Y-133806784D01*
X86933624Y-133642812D01*
X86899000Y-133468741D01*
X86899000Y-133291259D01*
X86933624Y-133117188D01*
X87001544Y-132953216D01*
X87100147Y-132805646D01*
X87225646Y-132680147D01*
X87373216Y-132581544D01*
X87537188Y-132513624D01*
X87686488Y-132483927D01*
X87711258Y-132479000D01*
X87888742Y-132479000D01*
X87913512Y-132483927D01*
G37*
G36*
X85373512Y-132483927D02*
G01*
X85522812Y-132513624D01*
X85686784Y-132581544D01*
X85834354Y-132680147D01*
X85959853Y-132805646D01*
X86058456Y-132953216D01*
X86126376Y-133117188D01*
X86161000Y-133291259D01*
X86161000Y-133468741D01*
X86126376Y-133642812D01*
X86058456Y-133806784D01*
X85959853Y-133954354D01*
X85834354Y-134079853D01*
X85686784Y-134178456D01*
X85522812Y-134246376D01*
X85373512Y-134276073D01*
X85348742Y-134281000D01*
X85171258Y-134281000D01*
X85146488Y-134276073D01*
X84997188Y-134246376D01*
X84833216Y-134178456D01*
X84685646Y-134079853D01*
X84560147Y-133954354D01*
X84461544Y-133806784D01*
X84393624Y-133642812D01*
X84359000Y-133468741D01*
X84359000Y-133291259D01*
X84393624Y-133117188D01*
X84461544Y-132953216D01*
X84560147Y-132805646D01*
X84685646Y-132680147D01*
X84833216Y-132581544D01*
X84997188Y-132513624D01*
X85146488Y-132483927D01*
X85171258Y-132479000D01*
X85348742Y-132479000D01*
X85373512Y-132483927D01*
G37*
G36*
X116323512Y-131333927D02*
G01*
X116472812Y-131363624D01*
X116636784Y-131431544D01*
X116784354Y-131530147D01*
X116909853Y-131655646D01*
X117008456Y-131803216D01*
X117076376Y-131967188D01*
X117111000Y-132141259D01*
X117111000Y-132318741D01*
X117076376Y-132492812D01*
X117008456Y-132656784D01*
X116909853Y-132804354D01*
X116784354Y-132929853D01*
X116636784Y-133028456D01*
X116472812Y-133096376D01*
X116323512Y-133126073D01*
X116298742Y-133131000D01*
X116121258Y-133131000D01*
X116096488Y-133126073D01*
X115947188Y-133096376D01*
X115783216Y-133028456D01*
X115635646Y-132929853D01*
X115510147Y-132804354D01*
X115411544Y-132656784D01*
X115343624Y-132492812D01*
X115309000Y-132318741D01*
X115309000Y-132141259D01*
X115343624Y-131967188D01*
X115411544Y-131803216D01*
X115510147Y-131655646D01*
X115635646Y-131530147D01*
X115783216Y-131431544D01*
X115947188Y-131363624D01*
X116096488Y-131333927D01*
X116121258Y-131329000D01*
X116298742Y-131329000D01*
X116323512Y-131333927D01*
G37*
G36*
X134103512Y-131333927D02*
G01*
X134252812Y-131363624D01*
X134416784Y-131431544D01*
X134564354Y-131530147D01*
X134689853Y-131655646D01*
X134788456Y-131803216D01*
X134856376Y-131967188D01*
X134891000Y-132141259D01*
X134891000Y-132318741D01*
X134856376Y-132492812D01*
X134788456Y-132656784D01*
X134689853Y-132804354D01*
X134564354Y-132929853D01*
X134416784Y-133028456D01*
X134252812Y-133096376D01*
X134103512Y-133126073D01*
X134078742Y-133131000D01*
X133901258Y-133131000D01*
X133876488Y-133126073D01*
X133727188Y-133096376D01*
X133563216Y-133028456D01*
X133415646Y-132929853D01*
X133290147Y-132804354D01*
X133191544Y-132656784D01*
X133123624Y-132492812D01*
X133089000Y-132318741D01*
X133089000Y-132141259D01*
X133123624Y-131967188D01*
X133191544Y-131803216D01*
X133290147Y-131655646D01*
X133415646Y-131530147D01*
X133563216Y-131431544D01*
X133727188Y-131363624D01*
X133876488Y-131333927D01*
X133901258Y-131329000D01*
X134078742Y-131329000D01*
X134103512Y-131333927D01*
G37*
G36*
X87913512Y-129943927D02*
G01*
X88062812Y-129973624D01*
X88226784Y-130041544D01*
X88374354Y-130140147D01*
X88499853Y-130265646D01*
X88598456Y-130413216D01*
X88666376Y-130577188D01*
X88701000Y-130751259D01*
X88701000Y-130928741D01*
X88666376Y-131102812D01*
X88598456Y-131266784D01*
X88499853Y-131414354D01*
X88374354Y-131539853D01*
X88226784Y-131638456D01*
X88062812Y-131706376D01*
X87913512Y-131736073D01*
X87888742Y-131741000D01*
X87711258Y-131741000D01*
X87686488Y-131736073D01*
X87537188Y-131706376D01*
X87373216Y-131638456D01*
X87225646Y-131539853D01*
X87100147Y-131414354D01*
X87001544Y-131266784D01*
X86933624Y-131102812D01*
X86899000Y-130928741D01*
X86899000Y-130751259D01*
X86933624Y-130577188D01*
X87001544Y-130413216D01*
X87100147Y-130265646D01*
X87225646Y-130140147D01*
X87373216Y-130041544D01*
X87537188Y-129973624D01*
X87686488Y-129943927D01*
X87711258Y-129939000D01*
X87888742Y-129939000D01*
X87913512Y-129943927D01*
G37*
G36*
X85373512Y-129943927D02*
G01*
X85522812Y-129973624D01*
X85686784Y-130041544D01*
X85834354Y-130140147D01*
X85959853Y-130265646D01*
X86058456Y-130413216D01*
X86126376Y-130577188D01*
X86161000Y-130751259D01*
X86161000Y-130928741D01*
X86126376Y-131102812D01*
X86058456Y-131266784D01*
X85959853Y-131414354D01*
X85834354Y-131539853D01*
X85686784Y-131638456D01*
X85522812Y-131706376D01*
X85373512Y-131736073D01*
X85348742Y-131741000D01*
X85171258Y-131741000D01*
X85146488Y-131736073D01*
X84997188Y-131706376D01*
X84833216Y-131638456D01*
X84685646Y-131539853D01*
X84560147Y-131414354D01*
X84461544Y-131266784D01*
X84393624Y-131102812D01*
X84359000Y-130928741D01*
X84359000Y-130751259D01*
X84393624Y-130577188D01*
X84461544Y-130413216D01*
X84560147Y-130265646D01*
X84685646Y-130140147D01*
X84833216Y-130041544D01*
X84997188Y-129973624D01*
X85146488Y-129943927D01*
X85171258Y-129939000D01*
X85348742Y-129939000D01*
X85373512Y-129943927D01*
G37*
G36*
X116323512Y-128793927D02*
G01*
X116472812Y-128823624D01*
X116636784Y-128891544D01*
X116784354Y-128990147D01*
X116909853Y-129115646D01*
X117008456Y-129263216D01*
X117076376Y-129427188D01*
X117111000Y-129601259D01*
X117111000Y-129778741D01*
X117076376Y-129952812D01*
X117008456Y-130116784D01*
X116909853Y-130264354D01*
X116784354Y-130389853D01*
X116636784Y-130488456D01*
X116472812Y-130556376D01*
X116323512Y-130586073D01*
X116298742Y-130591000D01*
X116121258Y-130591000D01*
X116096488Y-130586073D01*
X115947188Y-130556376D01*
X115783216Y-130488456D01*
X115635646Y-130389853D01*
X115510147Y-130264354D01*
X115411544Y-130116784D01*
X115343624Y-129952812D01*
X115309000Y-129778741D01*
X115309000Y-129601259D01*
X115343624Y-129427188D01*
X115411544Y-129263216D01*
X115510147Y-129115646D01*
X115635646Y-128990147D01*
X115783216Y-128891544D01*
X115947188Y-128823624D01*
X116096488Y-128793927D01*
X116121258Y-128789000D01*
X116298742Y-128789000D01*
X116323512Y-128793927D01*
G37*
G36*
X134103512Y-128793927D02*
G01*
X134252812Y-128823624D01*
X134416784Y-128891544D01*
X134564354Y-128990147D01*
X134689853Y-129115646D01*
X134788456Y-129263216D01*
X134856376Y-129427188D01*
X134891000Y-129601259D01*
X134891000Y-129778741D01*
X134856376Y-129952812D01*
X134788456Y-130116784D01*
X134689853Y-130264354D01*
X134564354Y-130389853D01*
X134416784Y-130488456D01*
X134252812Y-130556376D01*
X134103512Y-130586073D01*
X134078742Y-130591000D01*
X133901258Y-130591000D01*
X133876488Y-130586073D01*
X133727188Y-130556376D01*
X133563216Y-130488456D01*
X133415646Y-130389853D01*
X133290147Y-130264354D01*
X133191544Y-130116784D01*
X133123624Y-129952812D01*
X133089000Y-129778741D01*
X133089000Y-129601259D01*
X133123624Y-129427188D01*
X133191544Y-129263216D01*
X133290147Y-129115646D01*
X133415646Y-128990147D01*
X133563216Y-128891544D01*
X133727188Y-128823624D01*
X133876488Y-128793927D01*
X133901258Y-128789000D01*
X134078742Y-128789000D01*
X134103512Y-128793927D01*
G37*
G36*
X85373512Y-127403927D02*
G01*
X85522812Y-127433624D01*
X85686784Y-127501544D01*
X85834354Y-127600147D01*
X85959853Y-127725646D01*
X86058456Y-127873216D01*
X86126376Y-128037188D01*
X86161000Y-128211259D01*
X86161000Y-128388741D01*
X86126376Y-128562812D01*
X86058456Y-128726784D01*
X85959853Y-128874354D01*
X85834354Y-128999853D01*
X85686784Y-129098456D01*
X85522812Y-129166376D01*
X85373512Y-129196073D01*
X85348742Y-129201000D01*
X85171258Y-129201000D01*
X85146488Y-129196073D01*
X84997188Y-129166376D01*
X84833216Y-129098456D01*
X84685646Y-128999853D01*
X84560147Y-128874354D01*
X84461544Y-128726784D01*
X84393624Y-128562812D01*
X84359000Y-128388741D01*
X84359000Y-128211259D01*
X84393624Y-128037188D01*
X84461544Y-127873216D01*
X84560147Y-127725646D01*
X84685646Y-127600147D01*
X84833216Y-127501544D01*
X84997188Y-127433624D01*
X85146488Y-127403927D01*
X85171258Y-127399000D01*
X85348742Y-127399000D01*
X85373512Y-127403927D01*
G37*
G36*
X87913512Y-127403927D02*
G01*
X88062812Y-127433624D01*
X88226784Y-127501544D01*
X88374354Y-127600147D01*
X88499853Y-127725646D01*
X88598456Y-127873216D01*
X88666376Y-128037188D01*
X88701000Y-128211259D01*
X88701000Y-128388741D01*
X88666376Y-128562812D01*
X88598456Y-128726784D01*
X88499853Y-128874354D01*
X88374354Y-128999853D01*
X88226784Y-129098456D01*
X88062812Y-129166376D01*
X87913512Y-129196073D01*
X87888742Y-129201000D01*
X87711258Y-129201000D01*
X87686488Y-129196073D01*
X87537188Y-129166376D01*
X87373216Y-129098456D01*
X87225646Y-128999853D01*
X87100147Y-128874354D01*
X87001544Y-128726784D01*
X86933624Y-128562812D01*
X86899000Y-128388741D01*
X86899000Y-128211259D01*
X86933624Y-128037188D01*
X87001544Y-127873216D01*
X87100147Y-127725646D01*
X87225646Y-127600147D01*
X87373216Y-127501544D01*
X87537188Y-127433624D01*
X87686488Y-127403927D01*
X87711258Y-127399000D01*
X87888742Y-127399000D01*
X87913512Y-127403927D01*
G37*
G36*
X185279512Y-126865927D02*
G01*
X185428812Y-126895624D01*
X185592784Y-126963544D01*
X185740354Y-127062147D01*
X185865853Y-127187646D01*
X185964456Y-127335216D01*
X186032376Y-127499188D01*
X186067000Y-127673259D01*
X186067000Y-127850741D01*
X186032376Y-128024812D01*
X185964456Y-128188784D01*
X185865853Y-128336354D01*
X185740354Y-128461853D01*
X185592784Y-128560456D01*
X185428812Y-128628376D01*
X185279512Y-128658073D01*
X185254742Y-128663000D01*
X185077258Y-128663000D01*
X185052488Y-128658073D01*
X184903188Y-128628376D01*
X184739216Y-128560456D01*
X184591646Y-128461853D01*
X184466147Y-128336354D01*
X184367544Y-128188784D01*
X184299624Y-128024812D01*
X184265000Y-127850741D01*
X184265000Y-127673259D01*
X184299624Y-127499188D01*
X184367544Y-127335216D01*
X184466147Y-127187646D01*
X184591646Y-127062147D01*
X184739216Y-126963544D01*
X184903188Y-126895624D01*
X185052488Y-126865927D01*
X185077258Y-126861000D01*
X185254742Y-126861000D01*
X185279512Y-126865927D01*
G37*
G36*
X191147000Y-128663000D02*
G01*
X189345000Y-128663000D01*
X189345000Y-126861000D01*
X191147000Y-126861000D01*
X191147000Y-128663000D01*
G37*
G36*
X187819512Y-126865927D02*
G01*
X187968812Y-126895624D01*
X188132784Y-126963544D01*
X188280354Y-127062147D01*
X188405853Y-127187646D01*
X188504456Y-127335216D01*
X188572376Y-127499188D01*
X188607000Y-127673259D01*
X188607000Y-127850741D01*
X188572376Y-128024812D01*
X188504456Y-128188784D01*
X188405853Y-128336354D01*
X188280354Y-128461853D01*
X188132784Y-128560456D01*
X187968812Y-128628376D01*
X187819512Y-128658073D01*
X187794742Y-128663000D01*
X187617258Y-128663000D01*
X187592488Y-128658073D01*
X187443188Y-128628376D01*
X187279216Y-128560456D01*
X187131646Y-128461853D01*
X187006147Y-128336354D01*
X186907544Y-128188784D01*
X186839624Y-128024812D01*
X186805000Y-127850741D01*
X186805000Y-127673259D01*
X186839624Y-127499188D01*
X186907544Y-127335216D01*
X187006147Y-127187646D01*
X187131646Y-127062147D01*
X187279216Y-126963544D01*
X187443188Y-126895624D01*
X187592488Y-126865927D01*
X187617258Y-126861000D01*
X187794742Y-126861000D01*
X187819512Y-126865927D01*
G37*
G36*
X182739512Y-126865927D02*
G01*
X182888812Y-126895624D01*
X183052784Y-126963544D01*
X183200354Y-127062147D01*
X183325853Y-127187646D01*
X183424456Y-127335216D01*
X183492376Y-127499188D01*
X183527000Y-127673259D01*
X183527000Y-127850741D01*
X183492376Y-128024812D01*
X183424456Y-128188784D01*
X183325853Y-128336354D01*
X183200354Y-128461853D01*
X183052784Y-128560456D01*
X182888812Y-128628376D01*
X182739512Y-128658073D01*
X182714742Y-128663000D01*
X182537258Y-128663000D01*
X182512488Y-128658073D01*
X182363188Y-128628376D01*
X182199216Y-128560456D01*
X182051646Y-128461853D01*
X181926147Y-128336354D01*
X181827544Y-128188784D01*
X181759624Y-128024812D01*
X181725000Y-127850741D01*
X181725000Y-127673259D01*
X181759624Y-127499188D01*
X181827544Y-127335216D01*
X181926147Y-127187646D01*
X182051646Y-127062147D01*
X182199216Y-126963544D01*
X182363188Y-126895624D01*
X182512488Y-126865927D01*
X182537258Y-126861000D01*
X182714742Y-126861000D01*
X182739512Y-126865927D01*
G37*
G36*
X117111000Y-128051000D02*
G01*
X115309000Y-128051000D01*
X115309000Y-126249000D01*
X117111000Y-126249000D01*
X117111000Y-128051000D01*
G37*
G36*
X134891000Y-128051000D02*
G01*
X133089000Y-128051000D01*
X133089000Y-126249000D01*
X134891000Y-126249000D01*
X134891000Y-128051000D01*
G37*
G36*
X85373512Y-124863927D02*
G01*
X85522812Y-124893624D01*
X85686784Y-124961544D01*
X85834354Y-125060147D01*
X85959853Y-125185646D01*
X86058456Y-125333216D01*
X86126376Y-125497188D01*
X86161000Y-125671259D01*
X86161000Y-125848741D01*
X86126376Y-126022812D01*
X86058456Y-126186784D01*
X85959853Y-126334354D01*
X85834354Y-126459853D01*
X85686784Y-126558456D01*
X85522812Y-126626376D01*
X85373512Y-126656073D01*
X85348742Y-126661000D01*
X85171258Y-126661000D01*
X85146488Y-126656073D01*
X84997188Y-126626376D01*
X84833216Y-126558456D01*
X84685646Y-126459853D01*
X84560147Y-126334354D01*
X84461544Y-126186784D01*
X84393624Y-126022812D01*
X84359000Y-125848741D01*
X84359000Y-125671259D01*
X84393624Y-125497188D01*
X84461544Y-125333216D01*
X84560147Y-125185646D01*
X84685646Y-125060147D01*
X84833216Y-124961544D01*
X84997188Y-124893624D01*
X85146488Y-124863927D01*
X85171258Y-124859000D01*
X85348742Y-124859000D01*
X85373512Y-124863927D01*
G37*
G36*
X87913512Y-124863927D02*
G01*
X88062812Y-124893624D01*
X88226784Y-124961544D01*
X88374354Y-125060147D01*
X88499853Y-125185646D01*
X88598456Y-125333216D01*
X88666376Y-125497188D01*
X88701000Y-125671259D01*
X88701000Y-125848741D01*
X88666376Y-126022812D01*
X88598456Y-126186784D01*
X88499853Y-126334354D01*
X88374354Y-126459853D01*
X88226784Y-126558456D01*
X88062812Y-126626376D01*
X87913512Y-126656073D01*
X87888742Y-126661000D01*
X87711258Y-126661000D01*
X87686488Y-126656073D01*
X87537188Y-126626376D01*
X87373216Y-126558456D01*
X87225646Y-126459853D01*
X87100147Y-126334354D01*
X87001544Y-126186784D01*
X86933624Y-126022812D01*
X86899000Y-125848741D01*
X86899000Y-125671259D01*
X86933624Y-125497188D01*
X87001544Y-125333216D01*
X87100147Y-125185646D01*
X87225646Y-125060147D01*
X87373216Y-124961544D01*
X87537188Y-124893624D01*
X87686488Y-124863927D01*
X87711258Y-124859000D01*
X87888742Y-124859000D01*
X87913512Y-124863927D01*
G37*
G36*
X134103512Y-123713927D02*
G01*
X134252812Y-123743624D01*
X134416784Y-123811544D01*
X134564354Y-123910147D01*
X134689853Y-124035646D01*
X134788456Y-124183216D01*
X134856376Y-124347188D01*
X134891000Y-124521259D01*
X134891000Y-124698741D01*
X134856376Y-124872812D01*
X134788456Y-125036784D01*
X134689853Y-125184354D01*
X134564354Y-125309853D01*
X134416784Y-125408456D01*
X134252812Y-125476376D01*
X134103512Y-125506073D01*
X134078742Y-125511000D01*
X133901258Y-125511000D01*
X133876488Y-125506073D01*
X133727188Y-125476376D01*
X133563216Y-125408456D01*
X133415646Y-125309853D01*
X133290147Y-125184354D01*
X133191544Y-125036784D01*
X133123624Y-124872812D01*
X133089000Y-124698741D01*
X133089000Y-124521259D01*
X133123624Y-124347188D01*
X133191544Y-124183216D01*
X133290147Y-124035646D01*
X133415646Y-123910147D01*
X133563216Y-123811544D01*
X133727188Y-123743624D01*
X133876488Y-123713927D01*
X133901258Y-123709000D01*
X134078742Y-123709000D01*
X134103512Y-123713927D01*
G37*
G36*
X116323512Y-123713927D02*
G01*
X116472812Y-123743624D01*
X116636784Y-123811544D01*
X116784354Y-123910147D01*
X116909853Y-124035646D01*
X117008456Y-124183216D01*
X117076376Y-124347188D01*
X117111000Y-124521259D01*
X117111000Y-124698741D01*
X117076376Y-124872812D01*
X117008456Y-125036784D01*
X116909853Y-125184354D01*
X116784354Y-125309853D01*
X116636784Y-125408456D01*
X116472812Y-125476376D01*
X116323512Y-125506073D01*
X116298742Y-125511000D01*
X116121258Y-125511000D01*
X116096488Y-125506073D01*
X115947188Y-125476376D01*
X115783216Y-125408456D01*
X115635646Y-125309853D01*
X115510147Y-125184354D01*
X115411544Y-125036784D01*
X115343624Y-124872812D01*
X115309000Y-124698741D01*
X115309000Y-124521259D01*
X115343624Y-124347188D01*
X115411544Y-124183216D01*
X115510147Y-124035646D01*
X115635646Y-123910147D01*
X115783216Y-123811544D01*
X115947188Y-123743624D01*
X116096488Y-123713927D01*
X116121258Y-123709000D01*
X116298742Y-123709000D01*
X116323512Y-123713927D01*
G37*
G36*
X87913512Y-122323927D02*
G01*
X88062812Y-122353624D01*
X88226784Y-122421544D01*
X88374354Y-122520147D01*
X88499853Y-122645646D01*
X88598456Y-122793216D01*
X88666376Y-122957188D01*
X88701000Y-123131259D01*
X88701000Y-123308741D01*
X88666376Y-123482812D01*
X88598456Y-123646784D01*
X88499853Y-123794354D01*
X88374354Y-123919853D01*
X88226784Y-124018456D01*
X88062812Y-124086376D01*
X87913512Y-124116073D01*
X87888742Y-124121000D01*
X87711258Y-124121000D01*
X87686488Y-124116073D01*
X87537188Y-124086376D01*
X87373216Y-124018456D01*
X87225646Y-123919853D01*
X87100147Y-123794354D01*
X87001544Y-123646784D01*
X86933624Y-123482812D01*
X86899000Y-123308741D01*
X86899000Y-123131259D01*
X86933624Y-122957188D01*
X87001544Y-122793216D01*
X87100147Y-122645646D01*
X87225646Y-122520147D01*
X87373216Y-122421544D01*
X87537188Y-122353624D01*
X87686488Y-122323927D01*
X87711258Y-122319000D01*
X87888742Y-122319000D01*
X87913512Y-122323927D01*
G37*
G36*
X85373512Y-122323927D02*
G01*
X85522812Y-122353624D01*
X85686784Y-122421544D01*
X85834354Y-122520147D01*
X85959853Y-122645646D01*
X86058456Y-122793216D01*
X86126376Y-122957188D01*
X86161000Y-123131259D01*
X86161000Y-123308741D01*
X86126376Y-123482812D01*
X86058456Y-123646784D01*
X85959853Y-123794354D01*
X85834354Y-123919853D01*
X85686784Y-124018456D01*
X85522812Y-124086376D01*
X85373512Y-124116073D01*
X85348742Y-124121000D01*
X85171258Y-124121000D01*
X85146488Y-124116073D01*
X84997188Y-124086376D01*
X84833216Y-124018456D01*
X84685646Y-123919853D01*
X84560147Y-123794354D01*
X84461544Y-123646784D01*
X84393624Y-123482812D01*
X84359000Y-123308741D01*
X84359000Y-123131259D01*
X84393624Y-122957188D01*
X84461544Y-122793216D01*
X84560147Y-122645646D01*
X84685646Y-122520147D01*
X84833216Y-122421544D01*
X84997188Y-122353624D01*
X85146488Y-122323927D01*
X85171258Y-122319000D01*
X85348742Y-122319000D01*
X85373512Y-122323927D01*
G37*
G36*
X116323512Y-121173927D02*
G01*
X116472812Y-121203624D01*
X116636784Y-121271544D01*
X116784354Y-121370147D01*
X116909853Y-121495646D01*
X117008456Y-121643216D01*
X117076376Y-121807188D01*
X117111000Y-121981259D01*
X117111000Y-122158741D01*
X117076376Y-122332812D01*
X117008456Y-122496784D01*
X116909853Y-122644354D01*
X116784354Y-122769853D01*
X116636784Y-122868456D01*
X116472812Y-122936376D01*
X116323512Y-122966073D01*
X116298742Y-122971000D01*
X116121258Y-122971000D01*
X116096488Y-122966073D01*
X115947188Y-122936376D01*
X115783216Y-122868456D01*
X115635646Y-122769853D01*
X115510147Y-122644354D01*
X115411544Y-122496784D01*
X115343624Y-122332812D01*
X115309000Y-122158741D01*
X115309000Y-121981259D01*
X115343624Y-121807188D01*
X115411544Y-121643216D01*
X115510147Y-121495646D01*
X115635646Y-121370147D01*
X115783216Y-121271544D01*
X115947188Y-121203624D01*
X116096488Y-121173927D01*
X116121258Y-121169000D01*
X116298742Y-121169000D01*
X116323512Y-121173927D01*
G37*
G36*
X134103512Y-121173927D02*
G01*
X134252812Y-121203624D01*
X134416784Y-121271544D01*
X134564354Y-121370147D01*
X134689853Y-121495646D01*
X134788456Y-121643216D01*
X134856376Y-121807188D01*
X134891000Y-121981259D01*
X134891000Y-122158741D01*
X134856376Y-122332812D01*
X134788456Y-122496784D01*
X134689853Y-122644354D01*
X134564354Y-122769853D01*
X134416784Y-122868456D01*
X134252812Y-122936376D01*
X134103512Y-122966073D01*
X134078742Y-122971000D01*
X133901258Y-122971000D01*
X133876488Y-122966073D01*
X133727188Y-122936376D01*
X133563216Y-122868456D01*
X133415646Y-122769853D01*
X133290147Y-122644354D01*
X133191544Y-122496784D01*
X133123624Y-122332812D01*
X133089000Y-122158741D01*
X133089000Y-121981259D01*
X133123624Y-121807188D01*
X133191544Y-121643216D01*
X133290147Y-121495646D01*
X133415646Y-121370147D01*
X133563216Y-121271544D01*
X133727188Y-121203624D01*
X133876488Y-121173927D01*
X133901258Y-121169000D01*
X134078742Y-121169000D01*
X134103512Y-121173927D01*
G37*
G36*
X85373512Y-119783927D02*
G01*
X85522812Y-119813624D01*
X85686784Y-119881544D01*
X85834354Y-119980147D01*
X85959853Y-120105646D01*
X86058456Y-120253216D01*
X86126376Y-120417188D01*
X86161000Y-120591259D01*
X86161000Y-120768741D01*
X86126376Y-120942812D01*
X86058456Y-121106784D01*
X85959853Y-121254354D01*
X85834354Y-121379853D01*
X85686784Y-121478456D01*
X85522812Y-121546376D01*
X85373512Y-121576073D01*
X85348742Y-121581000D01*
X85171258Y-121581000D01*
X85146488Y-121576073D01*
X84997188Y-121546376D01*
X84833216Y-121478456D01*
X84685646Y-121379853D01*
X84560147Y-121254354D01*
X84461544Y-121106784D01*
X84393624Y-120942812D01*
X84359000Y-120768741D01*
X84359000Y-120591259D01*
X84393624Y-120417188D01*
X84461544Y-120253216D01*
X84560147Y-120105646D01*
X84685646Y-119980147D01*
X84833216Y-119881544D01*
X84997188Y-119813624D01*
X85146488Y-119783927D01*
X85171258Y-119779000D01*
X85348742Y-119779000D01*
X85373512Y-119783927D01*
G37*
G36*
X87913512Y-119783927D02*
G01*
X88062812Y-119813624D01*
X88226784Y-119881544D01*
X88374354Y-119980147D01*
X88499853Y-120105646D01*
X88598456Y-120253216D01*
X88666376Y-120417188D01*
X88701000Y-120591259D01*
X88701000Y-120768741D01*
X88666376Y-120942812D01*
X88598456Y-121106784D01*
X88499853Y-121254354D01*
X88374354Y-121379853D01*
X88226784Y-121478456D01*
X88062812Y-121546376D01*
X87913512Y-121576073D01*
X87888742Y-121581000D01*
X87711258Y-121581000D01*
X87686488Y-121576073D01*
X87537188Y-121546376D01*
X87373216Y-121478456D01*
X87225646Y-121379853D01*
X87100147Y-121254354D01*
X87001544Y-121106784D01*
X86933624Y-120942812D01*
X86899000Y-120768741D01*
X86899000Y-120591259D01*
X86933624Y-120417188D01*
X87001544Y-120253216D01*
X87100147Y-120105646D01*
X87225646Y-119980147D01*
X87373216Y-119881544D01*
X87537188Y-119813624D01*
X87686488Y-119783927D01*
X87711258Y-119779000D01*
X87888742Y-119779000D01*
X87913512Y-119783927D01*
G37*
G36*
X134103512Y-118633927D02*
G01*
X134252812Y-118663624D01*
X134416784Y-118731544D01*
X134564354Y-118830147D01*
X134689853Y-118955646D01*
X134788456Y-119103216D01*
X134856376Y-119267188D01*
X134891000Y-119441259D01*
X134891000Y-119618741D01*
X134856376Y-119792812D01*
X134788456Y-119956784D01*
X134689853Y-120104354D01*
X134564354Y-120229853D01*
X134416784Y-120328456D01*
X134252812Y-120396376D01*
X134103512Y-120426073D01*
X134078742Y-120431000D01*
X133901258Y-120431000D01*
X133876488Y-120426073D01*
X133727188Y-120396376D01*
X133563216Y-120328456D01*
X133415646Y-120229853D01*
X133290147Y-120104354D01*
X133191544Y-119956784D01*
X133123624Y-119792812D01*
X133089000Y-119618741D01*
X133089000Y-119441259D01*
X133123624Y-119267188D01*
X133191544Y-119103216D01*
X133290147Y-118955646D01*
X133415646Y-118830147D01*
X133563216Y-118731544D01*
X133727188Y-118663624D01*
X133876488Y-118633927D01*
X133901258Y-118629000D01*
X134078742Y-118629000D01*
X134103512Y-118633927D01*
G37*
G36*
X116323512Y-118633927D02*
G01*
X116472812Y-118663624D01*
X116636784Y-118731544D01*
X116784354Y-118830147D01*
X116909853Y-118955646D01*
X117008456Y-119103216D01*
X117076376Y-119267188D01*
X117111000Y-119441259D01*
X117111000Y-119618741D01*
X117076376Y-119792812D01*
X117008456Y-119956784D01*
X116909853Y-120104354D01*
X116784354Y-120229853D01*
X116636784Y-120328456D01*
X116472812Y-120396376D01*
X116323512Y-120426073D01*
X116298742Y-120431000D01*
X116121258Y-120431000D01*
X116096488Y-120426073D01*
X115947188Y-120396376D01*
X115783216Y-120328456D01*
X115635646Y-120229853D01*
X115510147Y-120104354D01*
X115411544Y-119956784D01*
X115343624Y-119792812D01*
X115309000Y-119618741D01*
X115309000Y-119441259D01*
X115343624Y-119267188D01*
X115411544Y-119103216D01*
X115510147Y-118955646D01*
X115635646Y-118830147D01*
X115783216Y-118731544D01*
X115947188Y-118663624D01*
X116096488Y-118633927D01*
X116121258Y-118629000D01*
X116298742Y-118629000D01*
X116323512Y-118633927D01*
G37*
G36*
X85373512Y-117243927D02*
G01*
X85522812Y-117273624D01*
X85686784Y-117341544D01*
X85834354Y-117440147D01*
X85959853Y-117565646D01*
X86058456Y-117713216D01*
X86126376Y-117877188D01*
X86161000Y-118051259D01*
X86161000Y-118228741D01*
X86126376Y-118402812D01*
X86058456Y-118566784D01*
X85959853Y-118714354D01*
X85834354Y-118839853D01*
X85686784Y-118938456D01*
X85522812Y-119006376D01*
X85373512Y-119036073D01*
X85348742Y-119041000D01*
X85171258Y-119041000D01*
X85146488Y-119036073D01*
X84997188Y-119006376D01*
X84833216Y-118938456D01*
X84685646Y-118839853D01*
X84560147Y-118714354D01*
X84461544Y-118566784D01*
X84393624Y-118402812D01*
X84359000Y-118228741D01*
X84359000Y-118051259D01*
X84393624Y-117877188D01*
X84461544Y-117713216D01*
X84560147Y-117565646D01*
X84685646Y-117440147D01*
X84833216Y-117341544D01*
X84997188Y-117273624D01*
X85146488Y-117243927D01*
X85171258Y-117239000D01*
X85348742Y-117239000D01*
X85373512Y-117243927D01*
G37*
G36*
X87913512Y-117243927D02*
G01*
X88062812Y-117273624D01*
X88226784Y-117341544D01*
X88374354Y-117440147D01*
X88499853Y-117565646D01*
X88598456Y-117713216D01*
X88666376Y-117877188D01*
X88701000Y-118051259D01*
X88701000Y-118228741D01*
X88666376Y-118402812D01*
X88598456Y-118566784D01*
X88499853Y-118714354D01*
X88374354Y-118839853D01*
X88226784Y-118938456D01*
X88062812Y-119006376D01*
X87913512Y-119036073D01*
X87888742Y-119041000D01*
X87711258Y-119041000D01*
X87686488Y-119036073D01*
X87537188Y-119006376D01*
X87373216Y-118938456D01*
X87225646Y-118839853D01*
X87100147Y-118714354D01*
X87001544Y-118566784D01*
X86933624Y-118402812D01*
X86899000Y-118228741D01*
X86899000Y-118051259D01*
X86933624Y-117877188D01*
X87001544Y-117713216D01*
X87100147Y-117565646D01*
X87225646Y-117440147D01*
X87373216Y-117341544D01*
X87537188Y-117273624D01*
X87686488Y-117243927D01*
X87711258Y-117239000D01*
X87888742Y-117239000D01*
X87913512Y-117243927D01*
G37*
G36*
X134103512Y-116093927D02*
G01*
X134252812Y-116123624D01*
X134416784Y-116191544D01*
X134564354Y-116290147D01*
X134689853Y-116415646D01*
X134788456Y-116563216D01*
X134856376Y-116727188D01*
X134891000Y-116901259D01*
X134891000Y-117078741D01*
X134856376Y-117252812D01*
X134788456Y-117416784D01*
X134689853Y-117564354D01*
X134564354Y-117689853D01*
X134416784Y-117788456D01*
X134252812Y-117856376D01*
X134103512Y-117886073D01*
X134078742Y-117891000D01*
X133901258Y-117891000D01*
X133876488Y-117886073D01*
X133727188Y-117856376D01*
X133563216Y-117788456D01*
X133415646Y-117689853D01*
X133290147Y-117564354D01*
X133191544Y-117416784D01*
X133123624Y-117252812D01*
X133089000Y-117078741D01*
X133089000Y-116901259D01*
X133123624Y-116727188D01*
X133191544Y-116563216D01*
X133290147Y-116415646D01*
X133415646Y-116290147D01*
X133563216Y-116191544D01*
X133727188Y-116123624D01*
X133876488Y-116093927D01*
X133901258Y-116089000D01*
X134078742Y-116089000D01*
X134103512Y-116093927D01*
G37*
G36*
X116323512Y-116093927D02*
G01*
X116472812Y-116123624D01*
X116636784Y-116191544D01*
X116784354Y-116290147D01*
X116909853Y-116415646D01*
X117008456Y-116563216D01*
X117076376Y-116727188D01*
X117111000Y-116901259D01*
X117111000Y-117078741D01*
X117076376Y-117252812D01*
X117008456Y-117416784D01*
X116909853Y-117564354D01*
X116784354Y-117689853D01*
X116636784Y-117788456D01*
X116472812Y-117856376D01*
X116323512Y-117886073D01*
X116298742Y-117891000D01*
X116121258Y-117891000D01*
X116096488Y-117886073D01*
X115947188Y-117856376D01*
X115783216Y-117788456D01*
X115635646Y-117689853D01*
X115510147Y-117564354D01*
X115411544Y-117416784D01*
X115343624Y-117252812D01*
X115309000Y-117078741D01*
X115309000Y-116901259D01*
X115343624Y-116727188D01*
X115411544Y-116563216D01*
X115510147Y-116415646D01*
X115635646Y-116290147D01*
X115783216Y-116191544D01*
X115947188Y-116123624D01*
X116096488Y-116093927D01*
X116121258Y-116089000D01*
X116298742Y-116089000D01*
X116323512Y-116093927D01*
G37*
G36*
X85373512Y-114703927D02*
G01*
X85522812Y-114733624D01*
X85686784Y-114801544D01*
X85834354Y-114900147D01*
X85959853Y-115025646D01*
X86058456Y-115173216D01*
X86126376Y-115337188D01*
X86161000Y-115511259D01*
X86161000Y-115688741D01*
X86126376Y-115862812D01*
X86058456Y-116026784D01*
X85959853Y-116174354D01*
X85834354Y-116299853D01*
X85686784Y-116398456D01*
X85522812Y-116466376D01*
X85373512Y-116496073D01*
X85348742Y-116501000D01*
X85171258Y-116501000D01*
X85146488Y-116496073D01*
X84997188Y-116466376D01*
X84833216Y-116398456D01*
X84685646Y-116299853D01*
X84560147Y-116174354D01*
X84461544Y-116026784D01*
X84393624Y-115862812D01*
X84359000Y-115688741D01*
X84359000Y-115511259D01*
X84393624Y-115337188D01*
X84461544Y-115173216D01*
X84560147Y-115025646D01*
X84685646Y-114900147D01*
X84833216Y-114801544D01*
X84997188Y-114733624D01*
X85146488Y-114703927D01*
X85171258Y-114699000D01*
X85348742Y-114699000D01*
X85373512Y-114703927D01*
G37*
G36*
X88701000Y-116501000D02*
G01*
X86899000Y-116501000D01*
X86899000Y-114699000D01*
X88701000Y-114699000D01*
X88701000Y-116501000D01*
G37*
G36*
X134891000Y-115351000D02*
G01*
X133089000Y-115351000D01*
X133089000Y-113549000D01*
X134891000Y-113549000D01*
X134891000Y-115351000D01*
G37*
G36*
X117111000Y-115351000D02*
G01*
X115309000Y-115351000D01*
X115309000Y-113549000D01*
X117111000Y-113549000D01*
X117111000Y-115351000D01*
G37*
G36*
X122908642Y-111759781D02*
G01*
X123054414Y-111820162D01*
X123054416Y-111820163D01*
X123185608Y-111907822D01*
X123297178Y-112019392D01*
X123384837Y-112150584D01*
X123384838Y-112150586D01*
X123445219Y-112296358D01*
X123476000Y-112451107D01*
X123476000Y-112608893D01*
X123445219Y-112763642D01*
X123384838Y-112909414D01*
X123384837Y-112909416D01*
X123297178Y-113040608D01*
X123185608Y-113152178D01*
X123054416Y-113239837D01*
X123054415Y-113239838D01*
X123054414Y-113239838D01*
X122908642Y-113300219D01*
X122753893Y-113331000D01*
X122596107Y-113331000D01*
X122441358Y-113300219D01*
X122295586Y-113239838D01*
X122295585Y-113239838D01*
X122295584Y-113239837D01*
X122164392Y-113152178D01*
X122052822Y-113040608D01*
X121965163Y-112909416D01*
X121965162Y-112909414D01*
X121904781Y-112763642D01*
X121874000Y-112608893D01*
X121874000Y-112451107D01*
X121904781Y-112296358D01*
X121965162Y-112150586D01*
X121965163Y-112150584D01*
X122052822Y-112019392D01*
X122164392Y-111907822D01*
X122295584Y-111820163D01*
X122295586Y-111820162D01*
X122441358Y-111759781D01*
X122596107Y-111729000D01*
X122753893Y-111729000D01*
X122908642Y-111759781D01*
G37*
G36*
X127758642Y-111759781D02*
G01*
X127904414Y-111820162D01*
X127904416Y-111820163D01*
X128035608Y-111907822D01*
X128147178Y-112019392D01*
X128234837Y-112150584D01*
X128234838Y-112150586D01*
X128295219Y-112296358D01*
X128326000Y-112451107D01*
X128326000Y-112608893D01*
X128295219Y-112763642D01*
X128234838Y-112909414D01*
X128234837Y-112909416D01*
X128147178Y-113040608D01*
X128035608Y-113152178D01*
X127904416Y-113239837D01*
X127904415Y-113239838D01*
X127904414Y-113239838D01*
X127758642Y-113300219D01*
X127603893Y-113331000D01*
X127446107Y-113331000D01*
X127291358Y-113300219D01*
X127145586Y-113239838D01*
X127145585Y-113239838D01*
X127145584Y-113239837D01*
X127014392Y-113152178D01*
X126902822Y-113040608D01*
X126815163Y-112909416D01*
X126815162Y-112909414D01*
X126754781Y-112763642D01*
X126724000Y-112608893D01*
X126724000Y-112451107D01*
X126754781Y-112296358D01*
X126815162Y-112150586D01*
X126815163Y-112150584D01*
X126902822Y-112019392D01*
X127014392Y-111907822D01*
X127145584Y-111820163D01*
X127145586Y-111820162D01*
X127291358Y-111759781D01*
X127446107Y-111729000D01*
X127603893Y-111729000D01*
X127758642Y-111759781D01*
G37*
G36*
X134103512Y-111013927D02*
G01*
X134252812Y-111043624D01*
X134416784Y-111111544D01*
X134564354Y-111210147D01*
X134689853Y-111335646D01*
X134788456Y-111483216D01*
X134856376Y-111647188D01*
X134891000Y-111821259D01*
X134891000Y-111998741D01*
X134856376Y-112172812D01*
X134788456Y-112336784D01*
X134689853Y-112484354D01*
X134564354Y-112609853D01*
X134416784Y-112708456D01*
X134252812Y-112776376D01*
X134103512Y-112806073D01*
X134078742Y-112811000D01*
X133901258Y-112811000D01*
X133876488Y-112806073D01*
X133727188Y-112776376D01*
X133563216Y-112708456D01*
X133415646Y-112609853D01*
X133290147Y-112484354D01*
X133191544Y-112336784D01*
X133123624Y-112172812D01*
X133089000Y-111998741D01*
X133089000Y-111821259D01*
X133123624Y-111647188D01*
X133191544Y-111483216D01*
X133290147Y-111335646D01*
X133415646Y-111210147D01*
X133563216Y-111111544D01*
X133727188Y-111043624D01*
X133876488Y-111013927D01*
X133901258Y-111009000D01*
X134078742Y-111009000D01*
X134103512Y-111013927D01*
G37*
G36*
X116323512Y-111013927D02*
G01*
X116472812Y-111043624D01*
X116636784Y-111111544D01*
X116784354Y-111210147D01*
X116909853Y-111335646D01*
X117008456Y-111483216D01*
X117076376Y-111647188D01*
X117111000Y-111821259D01*
X117111000Y-111998741D01*
X117076376Y-112172812D01*
X117008456Y-112336784D01*
X116909853Y-112484354D01*
X116784354Y-112609853D01*
X116636784Y-112708456D01*
X116472812Y-112776376D01*
X116323512Y-112806073D01*
X116298742Y-112811000D01*
X116121258Y-112811000D01*
X116096488Y-112806073D01*
X115947188Y-112776376D01*
X115783216Y-112708456D01*
X115635646Y-112609853D01*
X115510147Y-112484354D01*
X115411544Y-112336784D01*
X115343624Y-112172812D01*
X115309000Y-111998741D01*
X115309000Y-111821259D01*
X115343624Y-111647188D01*
X115411544Y-111483216D01*
X115510147Y-111335646D01*
X115635646Y-111210147D01*
X115783216Y-111111544D01*
X115947188Y-111043624D01*
X116096488Y-111013927D01*
X116121258Y-111009000D01*
X116298742Y-111009000D01*
X116323512Y-111013927D01*
G37*
G36*
X122652395Y-108585546D02*
G01*
X122825466Y-108657234D01*
X122844793Y-108670148D01*
X122981227Y-108761310D01*
X123113690Y-108893773D01*
X123146728Y-108943218D01*
X123217766Y-109049534D01*
X123289454Y-109222605D01*
X123326000Y-109406333D01*
X123326000Y-109593667D01*
X123289454Y-109777395D01*
X123217766Y-109950466D01*
X123217765Y-109950467D01*
X123113690Y-110106227D01*
X122981227Y-110238690D01*
X122932871Y-110271000D01*
X122825466Y-110342766D01*
X122652395Y-110414454D01*
X122468667Y-110451000D01*
X122281333Y-110451000D01*
X122097605Y-110414454D01*
X121924534Y-110342766D01*
X121817129Y-110271000D01*
X121768773Y-110238690D01*
X121636310Y-110106227D01*
X121532235Y-109950467D01*
X121532234Y-109950466D01*
X121460546Y-109777395D01*
X121424000Y-109593667D01*
X121424000Y-109406333D01*
X121460546Y-109222605D01*
X121532234Y-109049534D01*
X121603272Y-108943218D01*
X121636310Y-108893773D01*
X121768773Y-108761310D01*
X121905207Y-108670148D01*
X121924534Y-108657234D01*
X122097605Y-108585546D01*
X122281333Y-108549000D01*
X122468667Y-108549000D01*
X122652395Y-108585546D01*
G37*
G36*
X128102395Y-108585546D02*
G01*
X128275466Y-108657234D01*
X128294793Y-108670148D01*
X128431227Y-108761310D01*
X128563690Y-108893773D01*
X128596728Y-108943218D01*
X128667766Y-109049534D01*
X128739454Y-109222605D01*
X128776000Y-109406333D01*
X128776000Y-109593667D01*
X128739454Y-109777395D01*
X128667766Y-109950466D01*
X128667765Y-109950467D01*
X128563690Y-110106227D01*
X128431227Y-110238690D01*
X128382871Y-110271000D01*
X128275466Y-110342766D01*
X128102395Y-110414454D01*
X127918667Y-110451000D01*
X127731333Y-110451000D01*
X127547605Y-110414454D01*
X127374534Y-110342766D01*
X127267129Y-110271000D01*
X127218773Y-110238690D01*
X127086310Y-110106227D01*
X126982235Y-109950467D01*
X126982234Y-109950466D01*
X126910546Y-109777395D01*
X126874000Y-109593667D01*
X126874000Y-109406333D01*
X126910546Y-109222605D01*
X126982234Y-109049534D01*
X127053272Y-108943218D01*
X127086310Y-108893773D01*
X127218773Y-108761310D01*
X127355207Y-108670148D01*
X127374534Y-108657234D01*
X127547605Y-108585546D01*
X127731333Y-108549000D01*
X127918667Y-108549000D01*
X128102395Y-108585546D01*
G37*
G36*
X134103512Y-108473927D02*
G01*
X134252812Y-108503624D01*
X134416784Y-108571544D01*
X134564354Y-108670147D01*
X134689853Y-108795646D01*
X134788456Y-108943216D01*
X134856376Y-109107188D01*
X134891000Y-109281259D01*
X134891000Y-109458741D01*
X134856376Y-109632812D01*
X134788456Y-109796784D01*
X134689853Y-109944354D01*
X134564354Y-110069853D01*
X134416784Y-110168456D01*
X134252812Y-110236376D01*
X134103512Y-110266073D01*
X134078742Y-110271000D01*
X133901258Y-110271000D01*
X133876488Y-110266073D01*
X133727188Y-110236376D01*
X133563216Y-110168456D01*
X133415646Y-110069853D01*
X133290147Y-109944354D01*
X133191544Y-109796784D01*
X133123624Y-109632812D01*
X133089000Y-109458741D01*
X133089000Y-109281259D01*
X133123624Y-109107188D01*
X133191544Y-108943216D01*
X133290147Y-108795646D01*
X133415646Y-108670147D01*
X133563216Y-108571544D01*
X133727188Y-108503624D01*
X133876488Y-108473927D01*
X133901258Y-108469000D01*
X134078742Y-108469000D01*
X134103512Y-108473927D01*
G37*
G36*
X116323512Y-108473927D02*
G01*
X116472812Y-108503624D01*
X116636784Y-108571544D01*
X116784354Y-108670147D01*
X116909853Y-108795646D01*
X117008456Y-108943216D01*
X117076376Y-109107188D01*
X117111000Y-109281259D01*
X117111000Y-109458741D01*
X117076376Y-109632812D01*
X117008456Y-109796784D01*
X116909853Y-109944354D01*
X116784354Y-110069853D01*
X116636784Y-110168456D01*
X116472812Y-110236376D01*
X116323512Y-110266073D01*
X116298742Y-110271000D01*
X116121258Y-110271000D01*
X116096488Y-110266073D01*
X115947188Y-110236376D01*
X115783216Y-110168456D01*
X115635646Y-110069853D01*
X115510147Y-109944354D01*
X115411544Y-109796784D01*
X115343624Y-109632812D01*
X115309000Y-109458741D01*
X115309000Y-109281259D01*
X115343624Y-109107188D01*
X115411544Y-108943216D01*
X115510147Y-108795646D01*
X115635646Y-108670147D01*
X115783216Y-108571544D01*
X115947188Y-108503624D01*
X116096488Y-108473927D01*
X116121258Y-108469000D01*
X116298742Y-108469000D01*
X116323512Y-108473927D01*
G37*
M02*
