G04 #@! TF.GenerationSoftware,KiCad,Pcbnew,5.1.5+dfsg1-2build2*
G04 #@! TF.CreationDate,2022-11-08T08:09:59+00:00*
G04 #@! TF.ProjectId,datapack-tool1,64617461-7061-4636-9b2d-746f6f6c312e,rev?*
G04 #@! TF.SameCoordinates,Original*
G04 #@! TF.FileFunction,Legend,Top*
G04 #@! TF.FilePolarity,Positive*
%FSLAX46Y46*%
G04 Gerber Fmt 4.6, Leading zero omitted, Abs format (unit mm)*
G04 Created by KiCad (PCBNEW 5.1.5+dfsg1-2build2) date 2022-11-08 08:09:59*
%MOMM*%
%LPD*%
G04 APERTURE LIST*
%ADD10C,0.150000*%
%ADD11C,0.120000*%
G04 APERTURE END LIST*
D10*
X188770666Y-105624380D02*
X188770666Y-106338666D01*
X188723047Y-106481523D01*
X188627809Y-106576761D01*
X188484952Y-106624380D01*
X188389714Y-106624380D01*
X189246857Y-106624380D02*
X189246857Y-105624380D01*
X189627809Y-105624380D01*
X189723047Y-105672000D01*
X189770666Y-105719619D01*
X189818285Y-105814857D01*
X189818285Y-105957714D01*
X189770666Y-106052952D01*
X189723047Y-106100571D01*
X189627809Y-106148190D01*
X189246857Y-106148190D01*
X190675428Y-105624380D02*
X190484952Y-105624380D01*
X190389714Y-105672000D01*
X190342095Y-105719619D01*
X190246857Y-105862476D01*
X190199238Y-106052952D01*
X190199238Y-106433904D01*
X190246857Y-106529142D01*
X190294476Y-106576761D01*
X190389714Y-106624380D01*
X190580190Y-106624380D01*
X190675428Y-106576761D01*
X190723047Y-106529142D01*
X190770666Y-106433904D01*
X190770666Y-106195809D01*
X190723047Y-106100571D01*
X190675428Y-106052952D01*
X190580190Y-106005333D01*
X190389714Y-106005333D01*
X190294476Y-106052952D01*
X190246857Y-106100571D01*
X190199238Y-106195809D01*
X191199238Y-106529142D02*
X191246857Y-106576761D01*
X191199238Y-106624380D01*
X191151619Y-106576761D01*
X191199238Y-106529142D01*
X191199238Y-106624380D01*
X191199238Y-106005333D02*
X191246857Y-106052952D01*
X191199238Y-106100571D01*
X191151619Y-106052952D01*
X191199238Y-106005333D01*
X191199238Y-106100571D01*
X191580190Y-105624380D02*
X192199238Y-105624380D01*
X191865904Y-106005333D01*
X192008761Y-106005333D01*
X192104000Y-106052952D01*
X192151619Y-106100571D01*
X192199238Y-106195809D01*
X192199238Y-106433904D01*
X192151619Y-106529142D01*
X192104000Y-106576761D01*
X192008761Y-106624380D01*
X191723047Y-106624380D01*
X191627809Y-106576761D01*
X191580190Y-106529142D01*
X192484952Y-105624380D02*
X192818285Y-106624380D01*
X193151619Y-105624380D01*
X193389714Y-105624380D02*
X194008761Y-105624380D01*
X193675428Y-106005333D01*
X193818285Y-106005333D01*
X193913523Y-106052952D01*
X193961142Y-106100571D01*
X194008761Y-106195809D01*
X194008761Y-106433904D01*
X193961142Y-106529142D01*
X193913523Y-106576761D01*
X193818285Y-106624380D01*
X193532571Y-106624380D01*
X193437333Y-106576761D01*
X193389714Y-106529142D01*
X195056380Y-105957714D02*
X195437333Y-105957714D01*
X195199238Y-106624380D02*
X195199238Y-105767238D01*
X195246857Y-105672000D01*
X195342095Y-105624380D01*
X195437333Y-105624380D01*
X195770666Y-106624380D02*
X195770666Y-105957714D01*
X195770666Y-106148190D02*
X195818285Y-106052952D01*
X195865904Y-106005333D01*
X195961142Y-105957714D01*
X196056380Y-105957714D01*
X196532571Y-106624380D02*
X196437333Y-106576761D01*
X196389714Y-106529142D01*
X196342095Y-106433904D01*
X196342095Y-106148190D01*
X196389714Y-106052952D01*
X196437333Y-106005333D01*
X196532571Y-105957714D01*
X196675428Y-105957714D01*
X196770666Y-106005333D01*
X196818285Y-106052952D01*
X196865904Y-106148190D01*
X196865904Y-106433904D01*
X196818285Y-106529142D01*
X196770666Y-106576761D01*
X196675428Y-106624380D01*
X196532571Y-106624380D01*
X197294476Y-106624380D02*
X197294476Y-105957714D01*
X197294476Y-106052952D02*
X197342095Y-106005333D01*
X197437333Y-105957714D01*
X197580190Y-105957714D01*
X197675428Y-106005333D01*
X197723047Y-106100571D01*
X197723047Y-106624380D01*
X197723047Y-106100571D02*
X197770666Y-106005333D01*
X197865904Y-105957714D01*
X198008761Y-105957714D01*
X198104000Y-106005333D01*
X198151619Y-106100571D01*
X198151619Y-106624380D01*
X199389714Y-106624380D02*
X199389714Y-105957714D01*
X199389714Y-106148190D02*
X199437333Y-106052952D01*
X199484952Y-106005333D01*
X199580190Y-105957714D01*
X199675428Y-105957714D01*
X200389714Y-106576761D02*
X200294476Y-106624380D01*
X200104000Y-106624380D01*
X200008761Y-106576761D01*
X199961142Y-106481523D01*
X199961142Y-106100571D01*
X200008761Y-106005333D01*
X200104000Y-105957714D01*
X200294476Y-105957714D01*
X200389714Y-106005333D01*
X200437333Y-106100571D01*
X200437333Y-106195809D01*
X199961142Y-106291047D01*
X201294476Y-105957714D02*
X201294476Y-106767238D01*
X201246857Y-106862476D01*
X201199238Y-106910095D01*
X201104000Y-106957714D01*
X200961142Y-106957714D01*
X200865904Y-106910095D01*
X201294476Y-106576761D02*
X201199238Y-106624380D01*
X201008761Y-106624380D01*
X200913523Y-106576761D01*
X200865904Y-106529142D01*
X200818285Y-106433904D01*
X200818285Y-106148190D01*
X200865904Y-106052952D01*
X200913523Y-106005333D01*
X201008761Y-105957714D01*
X201199238Y-105957714D01*
X201294476Y-106005333D01*
X202199238Y-105957714D02*
X202199238Y-106624380D01*
X201770666Y-105957714D02*
X201770666Y-106481523D01*
X201818285Y-106576761D01*
X201913523Y-106624380D01*
X202056380Y-106624380D01*
X202151619Y-106576761D01*
X202199238Y-106529142D01*
X202818285Y-106624380D02*
X202723047Y-106576761D01*
X202675428Y-106481523D01*
X202675428Y-105624380D01*
X203627809Y-106624380D02*
X203627809Y-106100571D01*
X203580190Y-106005333D01*
X203484952Y-105957714D01*
X203294476Y-105957714D01*
X203199238Y-106005333D01*
X203627809Y-106576761D02*
X203532571Y-106624380D01*
X203294476Y-106624380D01*
X203199238Y-106576761D01*
X203151619Y-106481523D01*
X203151619Y-106386285D01*
X203199238Y-106291047D01*
X203294476Y-106243428D01*
X203532571Y-106243428D01*
X203627809Y-106195809D01*
X203961142Y-105957714D02*
X204342095Y-105957714D01*
X204104000Y-105624380D02*
X204104000Y-106481523D01*
X204151619Y-106576761D01*
X204246857Y-106624380D01*
X204342095Y-106624380D01*
X204818285Y-106624380D02*
X204723047Y-106576761D01*
X204675428Y-106529142D01*
X204627809Y-106433904D01*
X204627809Y-106148190D01*
X204675428Y-106052952D01*
X204723047Y-106005333D01*
X204818285Y-105957714D01*
X204961142Y-105957714D01*
X205056380Y-106005333D01*
X205104000Y-106052952D01*
X205151619Y-106148190D01*
X205151619Y-106433904D01*
X205104000Y-106529142D01*
X205056380Y-106576761D01*
X204961142Y-106624380D01*
X204818285Y-106624380D01*
X205580190Y-106624380D02*
X205580190Y-105957714D01*
X205580190Y-106148190D02*
X205627809Y-106052952D01*
X205675428Y-106005333D01*
X205770666Y-105957714D01*
X205865904Y-105957714D01*
X188905428Y-103846380D02*
X188905428Y-104560666D01*
X188857809Y-104703523D01*
X188762571Y-104798761D01*
X188619714Y-104846380D01*
X188524476Y-104846380D01*
X189381619Y-104846380D02*
X189381619Y-103846380D01*
X189762571Y-103846380D01*
X189857809Y-103894000D01*
X189905428Y-103941619D01*
X189953047Y-104036857D01*
X189953047Y-104179714D01*
X189905428Y-104274952D01*
X189857809Y-104322571D01*
X189762571Y-104370190D01*
X189381619Y-104370190D01*
X190857809Y-103846380D02*
X190381619Y-103846380D01*
X190334000Y-104322571D01*
X190381619Y-104274952D01*
X190476857Y-104227333D01*
X190714952Y-104227333D01*
X190810190Y-104274952D01*
X190857809Y-104322571D01*
X190905428Y-104417809D01*
X190905428Y-104655904D01*
X190857809Y-104751142D01*
X190810190Y-104798761D01*
X190714952Y-104846380D01*
X190476857Y-104846380D01*
X190381619Y-104798761D01*
X190334000Y-104751142D01*
X191334000Y-104751142D02*
X191381619Y-104798761D01*
X191334000Y-104846380D01*
X191286380Y-104798761D01*
X191334000Y-104751142D01*
X191334000Y-104846380D01*
X191334000Y-104227333D02*
X191381619Y-104274952D01*
X191334000Y-104322571D01*
X191286380Y-104274952D01*
X191334000Y-104227333D01*
X191334000Y-104322571D01*
X192476857Y-103846380D02*
X193095904Y-103846380D01*
X192762571Y-104227333D01*
X192905428Y-104227333D01*
X193000666Y-104274952D01*
X193048285Y-104322571D01*
X193095904Y-104417809D01*
X193095904Y-104655904D01*
X193048285Y-104751142D01*
X193000666Y-104798761D01*
X192905428Y-104846380D01*
X192619714Y-104846380D01*
X192524476Y-104798761D01*
X192476857Y-104751142D01*
X193381619Y-103846380D02*
X193714952Y-104846380D01*
X194048285Y-103846380D01*
X194286380Y-103846380D02*
X194905428Y-103846380D01*
X194572095Y-104227333D01*
X194714952Y-104227333D01*
X194810190Y-104274952D01*
X194857809Y-104322571D01*
X194905428Y-104417809D01*
X194905428Y-104655904D01*
X194857809Y-104751142D01*
X194810190Y-104798761D01*
X194714952Y-104846380D01*
X194429238Y-104846380D01*
X194334000Y-104798761D01*
X194286380Y-104751142D01*
X195953047Y-104179714D02*
X196334000Y-104179714D01*
X196095904Y-104846380D02*
X196095904Y-103989238D01*
X196143523Y-103894000D01*
X196238761Y-103846380D01*
X196334000Y-103846380D01*
X196667333Y-104846380D02*
X196667333Y-104179714D01*
X196667333Y-104370190D02*
X196714952Y-104274952D01*
X196762571Y-104227333D01*
X196857809Y-104179714D01*
X196953047Y-104179714D01*
X197429238Y-104846380D02*
X197334000Y-104798761D01*
X197286380Y-104751142D01*
X197238761Y-104655904D01*
X197238761Y-104370190D01*
X197286380Y-104274952D01*
X197334000Y-104227333D01*
X197429238Y-104179714D01*
X197572095Y-104179714D01*
X197667333Y-104227333D01*
X197714952Y-104274952D01*
X197762571Y-104370190D01*
X197762571Y-104655904D01*
X197714952Y-104751142D01*
X197667333Y-104798761D01*
X197572095Y-104846380D01*
X197429238Y-104846380D01*
X198191142Y-104846380D02*
X198191142Y-104179714D01*
X198191142Y-104274952D02*
X198238761Y-104227333D01*
X198334000Y-104179714D01*
X198476857Y-104179714D01*
X198572095Y-104227333D01*
X198619714Y-104322571D01*
X198619714Y-104846380D01*
X198619714Y-104322571D02*
X198667333Y-104227333D01*
X198762571Y-104179714D01*
X198905428Y-104179714D01*
X199000666Y-104227333D01*
X199048285Y-104322571D01*
X199048285Y-104846380D01*
X200286380Y-104846380D02*
X200286380Y-103846380D01*
X200667333Y-103846380D01*
X200762571Y-103894000D01*
X200810190Y-103941619D01*
X200857809Y-104036857D01*
X200857809Y-104179714D01*
X200810190Y-104274952D01*
X200762571Y-104322571D01*
X200667333Y-104370190D01*
X200286380Y-104370190D01*
X201286380Y-104846380D02*
X201286380Y-104179714D01*
X201286380Y-103846380D02*
X201238761Y-103894000D01*
X201286380Y-103941619D01*
X201334000Y-103894000D01*
X201286380Y-103846380D01*
X201286380Y-103941619D01*
X202191142Y-104798761D02*
X202095904Y-104846380D01*
X201905428Y-104846380D01*
X201810190Y-104798761D01*
X201762571Y-104751142D01*
X201714952Y-104655904D01*
X201714952Y-104370190D01*
X201762571Y-104274952D01*
X201810190Y-104227333D01*
X201905428Y-104179714D01*
X202095904Y-104179714D01*
X202191142Y-104227333D01*
X202762571Y-104846380D02*
X202667333Y-104798761D01*
X202619714Y-104751142D01*
X202572095Y-104655904D01*
X202572095Y-104370190D01*
X202619714Y-104274952D01*
X202667333Y-104227333D01*
X202762571Y-104179714D01*
X202905428Y-104179714D01*
X203000666Y-104227333D01*
X203048285Y-104274952D01*
X203095904Y-104370190D01*
X203095904Y-104655904D01*
X203048285Y-104751142D01*
X203000666Y-104798761D01*
X202905428Y-104846380D01*
X202762571Y-104846380D01*
X190897428Y-114705380D02*
X191087904Y-114705380D01*
X191183142Y-114753000D01*
X191278380Y-114848238D01*
X191326000Y-115038714D01*
X191326000Y-115372047D01*
X191278380Y-115562523D01*
X191183142Y-115657761D01*
X191087904Y-115705380D01*
X190897428Y-115705380D01*
X190802190Y-115657761D01*
X190706952Y-115562523D01*
X190659333Y-115372047D01*
X190659333Y-115038714D01*
X190706952Y-114848238D01*
X190802190Y-114753000D01*
X190897428Y-114705380D01*
X192230761Y-115705380D02*
X191754571Y-115705380D01*
X191754571Y-114705380D01*
X192564095Y-115181571D02*
X192897428Y-115181571D01*
X193040285Y-115705380D02*
X192564095Y-115705380D01*
X192564095Y-114705380D01*
X193040285Y-114705380D01*
X193468857Y-115705380D02*
X193468857Y-114705380D01*
X193706952Y-114705380D01*
X193849809Y-114753000D01*
X193945047Y-114848238D01*
X193992666Y-114943476D01*
X194040285Y-115133952D01*
X194040285Y-115276809D01*
X193992666Y-115467285D01*
X193945047Y-115562523D01*
X193849809Y-115657761D01*
X193706952Y-115705380D01*
X193468857Y-115705380D01*
X195230761Y-115705380D02*
X195230761Y-114705380D01*
X195611714Y-114705380D01*
X195706952Y-114753000D01*
X195754571Y-114800619D01*
X195802190Y-114895857D01*
X195802190Y-115038714D01*
X195754571Y-115133952D01*
X195706952Y-115181571D01*
X195611714Y-115229190D01*
X195230761Y-115229190D01*
X196373619Y-115705380D02*
X196278380Y-115657761D01*
X196230761Y-115610142D01*
X196183142Y-115514904D01*
X196183142Y-115229190D01*
X196230761Y-115133952D01*
X196278380Y-115086333D01*
X196373619Y-115038714D01*
X196516476Y-115038714D01*
X196611714Y-115086333D01*
X196659333Y-115133952D01*
X196706952Y-115229190D01*
X196706952Y-115514904D01*
X196659333Y-115610142D01*
X196611714Y-115657761D01*
X196516476Y-115705380D01*
X196373619Y-115705380D01*
X197040285Y-115038714D02*
X197230761Y-115705380D01*
X197421238Y-115229190D01*
X197611714Y-115705380D01*
X197802190Y-115038714D01*
X198564095Y-115657761D02*
X198468857Y-115705380D01*
X198278380Y-115705380D01*
X198183142Y-115657761D01*
X198135523Y-115562523D01*
X198135523Y-115181571D01*
X198183142Y-115086333D01*
X198278380Y-115038714D01*
X198468857Y-115038714D01*
X198564095Y-115086333D01*
X198611714Y-115181571D01*
X198611714Y-115276809D01*
X198135523Y-115372047D01*
X199040285Y-115705380D02*
X199040285Y-115038714D01*
X199040285Y-115229190D02*
X199087904Y-115133952D01*
X199135523Y-115086333D01*
X199230761Y-115038714D01*
X199326000Y-115038714D01*
X192611714Y-116688714D02*
X192611714Y-117545857D01*
X192564095Y-117641095D01*
X192468857Y-117688714D01*
X192421238Y-117688714D01*
X192611714Y-116355380D02*
X192564095Y-116403000D01*
X192611714Y-116450619D01*
X192659333Y-116403000D01*
X192611714Y-116355380D01*
X192611714Y-116450619D01*
X193516476Y-116688714D02*
X193516476Y-117355380D01*
X193087904Y-116688714D02*
X193087904Y-117212523D01*
X193135523Y-117307761D01*
X193230761Y-117355380D01*
X193373619Y-117355380D01*
X193468857Y-117307761D01*
X193516476Y-117260142D01*
X193992666Y-117355380D02*
X193992666Y-116688714D01*
X193992666Y-116783952D02*
X194040285Y-116736333D01*
X194135523Y-116688714D01*
X194278380Y-116688714D01*
X194373619Y-116736333D01*
X194421238Y-116831571D01*
X194421238Y-117355380D01*
X194421238Y-116831571D02*
X194468857Y-116736333D01*
X194564095Y-116688714D01*
X194706952Y-116688714D01*
X194802190Y-116736333D01*
X194849809Y-116831571D01*
X194849809Y-117355380D01*
X195326000Y-116688714D02*
X195326000Y-117688714D01*
X195326000Y-116736333D02*
X195421238Y-116688714D01*
X195611714Y-116688714D01*
X195706952Y-116736333D01*
X195754571Y-116783952D01*
X195802190Y-116879190D01*
X195802190Y-117164904D01*
X195754571Y-117260142D01*
X195706952Y-117307761D01*
X195611714Y-117355380D01*
X195421238Y-117355380D01*
X195326000Y-117307761D01*
X196611714Y-117307761D02*
X196516476Y-117355380D01*
X196326000Y-117355380D01*
X196230761Y-117307761D01*
X196183142Y-117212523D01*
X196183142Y-116831571D01*
X196230761Y-116736333D01*
X196326000Y-116688714D01*
X196516476Y-116688714D01*
X196611714Y-116736333D01*
X196659333Y-116831571D01*
X196659333Y-116926809D01*
X196183142Y-117022047D01*
X197087904Y-117355380D02*
X197087904Y-116688714D01*
X197087904Y-116879190D02*
X197135523Y-116783952D01*
X197183142Y-116736333D01*
X197278380Y-116688714D01*
X197373619Y-116688714D01*
X197659333Y-117307761D02*
X197754571Y-117355380D01*
X197945047Y-117355380D01*
X198040285Y-117307761D01*
X198087904Y-117212523D01*
X198087904Y-117164904D01*
X198040285Y-117069666D01*
X197945047Y-117022047D01*
X197802190Y-117022047D01*
X197706952Y-116974428D01*
X197659333Y-116879190D01*
X197659333Y-116831571D01*
X197706952Y-116736333D01*
X197802190Y-116688714D01*
X197945047Y-116688714D01*
X198040285Y-116736333D01*
X161044476Y-102513380D02*
X161044476Y-103227666D01*
X160996857Y-103370523D01*
X160901619Y-103465761D01*
X160758761Y-103513380D01*
X160663523Y-103513380D01*
X161520666Y-103513380D02*
X161520666Y-102513380D01*
X161901619Y-102513380D01*
X161996857Y-102561000D01*
X162044476Y-102608619D01*
X162092095Y-102703857D01*
X162092095Y-102846714D01*
X162044476Y-102941952D01*
X161996857Y-102989571D01*
X161901619Y-103037190D01*
X161520666Y-103037190D01*
X163044476Y-103513380D02*
X162473047Y-103513380D01*
X162758761Y-103513380D02*
X162758761Y-102513380D01*
X162663523Y-102656238D01*
X162568285Y-102751476D01*
X162473047Y-102799095D01*
X163425428Y-102608619D02*
X163473047Y-102561000D01*
X163568285Y-102513380D01*
X163806380Y-102513380D01*
X163901619Y-102561000D01*
X163949238Y-102608619D01*
X163996857Y-102703857D01*
X163996857Y-102799095D01*
X163949238Y-102941952D01*
X163377809Y-103513380D01*
X163996857Y-103513380D01*
X165187333Y-103513380D02*
X165187333Y-102513380D01*
X165425428Y-102513380D01*
X165568285Y-102561000D01*
X165663523Y-102656238D01*
X165711142Y-102751476D01*
X165758761Y-102941952D01*
X165758761Y-103084809D01*
X165711142Y-103275285D01*
X165663523Y-103370523D01*
X165568285Y-103465761D01*
X165425428Y-103513380D01*
X165187333Y-103513380D01*
X166758761Y-103418142D02*
X166711142Y-103465761D01*
X166568285Y-103513380D01*
X166473047Y-103513380D01*
X166330190Y-103465761D01*
X166234952Y-103370523D01*
X166187333Y-103275285D01*
X166139714Y-103084809D01*
X166139714Y-102941952D01*
X166187333Y-102751476D01*
X166234952Y-102656238D01*
X166330190Y-102561000D01*
X166473047Y-102513380D01*
X166568285Y-102513380D01*
X166711142Y-102561000D01*
X166758761Y-102608619D01*
X167187333Y-103132428D02*
X167949238Y-103132428D01*
X168425428Y-103513380D02*
X168425428Y-102513380D01*
X168663523Y-102513380D01*
X168806380Y-102561000D01*
X168901619Y-102656238D01*
X168949238Y-102751476D01*
X168996857Y-102941952D01*
X168996857Y-103084809D01*
X168949238Y-103275285D01*
X168901619Y-103370523D01*
X168806380Y-103465761D01*
X168663523Y-103513380D01*
X168425428Y-103513380D01*
X169996857Y-103418142D02*
X169949238Y-103465761D01*
X169806380Y-103513380D01*
X169711142Y-103513380D01*
X169568285Y-103465761D01*
X169473047Y-103370523D01*
X169425428Y-103275285D01*
X169377809Y-103084809D01*
X169377809Y-102941952D01*
X169425428Y-102751476D01*
X169473047Y-102656238D01*
X169568285Y-102561000D01*
X169711142Y-102513380D01*
X169806380Y-102513380D01*
X169949238Y-102561000D01*
X169996857Y-102608619D01*
X159782571Y-105115761D02*
X159687333Y-105163380D01*
X159496857Y-105163380D01*
X159401619Y-105115761D01*
X159354000Y-105068142D01*
X159306380Y-104972904D01*
X159306380Y-104687190D01*
X159354000Y-104591952D01*
X159401619Y-104544333D01*
X159496857Y-104496714D01*
X159687333Y-104496714D01*
X159782571Y-104544333D01*
X160354000Y-105163380D02*
X160258761Y-105115761D01*
X160211142Y-105068142D01*
X160163523Y-104972904D01*
X160163523Y-104687190D01*
X160211142Y-104591952D01*
X160258761Y-104544333D01*
X160354000Y-104496714D01*
X160496857Y-104496714D01*
X160592095Y-104544333D01*
X160639714Y-104591952D01*
X160687333Y-104687190D01*
X160687333Y-104972904D01*
X160639714Y-105068142D01*
X160592095Y-105115761D01*
X160496857Y-105163380D01*
X160354000Y-105163380D01*
X161115904Y-104496714D02*
X161115904Y-105163380D01*
X161115904Y-104591952D02*
X161163523Y-104544333D01*
X161258761Y-104496714D01*
X161401619Y-104496714D01*
X161496857Y-104544333D01*
X161544476Y-104639571D01*
X161544476Y-105163380D01*
X161925428Y-104496714D02*
X162163523Y-105163380D01*
X162401619Y-104496714D01*
X163163523Y-105115761D02*
X163068285Y-105163380D01*
X162877809Y-105163380D01*
X162782571Y-105115761D01*
X162734952Y-105020523D01*
X162734952Y-104639571D01*
X162782571Y-104544333D01*
X162877809Y-104496714D01*
X163068285Y-104496714D01*
X163163523Y-104544333D01*
X163211142Y-104639571D01*
X163211142Y-104734809D01*
X162734952Y-104830047D01*
X163639714Y-105163380D02*
X163639714Y-104496714D01*
X163639714Y-104687190D02*
X163687333Y-104591952D01*
X163734952Y-104544333D01*
X163830190Y-104496714D01*
X163925428Y-104496714D01*
X164115904Y-104496714D02*
X164496857Y-104496714D01*
X164258761Y-104163380D02*
X164258761Y-105020523D01*
X164306380Y-105115761D01*
X164401619Y-105163380D01*
X164496857Y-105163380D01*
X165211142Y-105115761D02*
X165115904Y-105163380D01*
X164925428Y-105163380D01*
X164830190Y-105115761D01*
X164782571Y-105020523D01*
X164782571Y-104639571D01*
X164830190Y-104544333D01*
X164925428Y-104496714D01*
X165115904Y-104496714D01*
X165211142Y-104544333D01*
X165258761Y-104639571D01*
X165258761Y-104734809D01*
X164782571Y-104830047D01*
X165687333Y-105163380D02*
X165687333Y-104496714D01*
X165687333Y-104687190D02*
X165734952Y-104591952D01*
X165782571Y-104544333D01*
X165877809Y-104496714D01*
X165973047Y-104496714D01*
X167211142Y-105163380D02*
X167115904Y-105115761D01*
X167068285Y-105068142D01*
X167020666Y-104972904D01*
X167020666Y-104687190D01*
X167068285Y-104591952D01*
X167115904Y-104544333D01*
X167211142Y-104496714D01*
X167354000Y-104496714D01*
X167449238Y-104544333D01*
X167496857Y-104591952D01*
X167544476Y-104687190D01*
X167544476Y-104972904D01*
X167496857Y-105068142D01*
X167449238Y-105115761D01*
X167354000Y-105163380D01*
X167211142Y-105163380D01*
X168401619Y-104496714D02*
X168401619Y-105163380D01*
X167973047Y-104496714D02*
X167973047Y-105020523D01*
X168020666Y-105115761D01*
X168115904Y-105163380D01*
X168258761Y-105163380D01*
X168354000Y-105115761D01*
X168401619Y-105068142D01*
X168734952Y-104496714D02*
X169115904Y-104496714D01*
X168877809Y-104163380D02*
X168877809Y-105020523D01*
X168925428Y-105115761D01*
X169020666Y-105163380D01*
X169115904Y-105163380D01*
X169449238Y-104496714D02*
X169449238Y-105496714D01*
X169449238Y-104544333D02*
X169544476Y-104496714D01*
X169734952Y-104496714D01*
X169830190Y-104544333D01*
X169877809Y-104591952D01*
X169925428Y-104687190D01*
X169925428Y-104972904D01*
X169877809Y-105068142D01*
X169830190Y-105115761D01*
X169734952Y-105163380D01*
X169544476Y-105163380D01*
X169449238Y-105115761D01*
X170782571Y-104496714D02*
X170782571Y-105163380D01*
X170354000Y-104496714D02*
X170354000Y-105020523D01*
X170401619Y-105115761D01*
X170496857Y-105163380D01*
X170639714Y-105163380D01*
X170734952Y-105115761D01*
X170782571Y-105068142D01*
X171115904Y-104496714D02*
X171496857Y-104496714D01*
X171258761Y-104163380D02*
X171258761Y-105020523D01*
X171306380Y-105115761D01*
X171401619Y-105163380D01*
X171496857Y-105163380D01*
X129675523Y-102259380D02*
X129675523Y-102973666D01*
X129627904Y-103116523D01*
X129532666Y-103211761D01*
X129389809Y-103259380D01*
X129294571Y-103259380D01*
X130151714Y-103259380D02*
X130151714Y-102259380D01*
X130532666Y-102259380D01*
X130627904Y-102307000D01*
X130675523Y-102354619D01*
X130723142Y-102449857D01*
X130723142Y-102592714D01*
X130675523Y-102687952D01*
X130627904Y-102735571D01*
X130532666Y-102783190D01*
X130151714Y-102783190D01*
X131675523Y-103259380D02*
X131104095Y-103259380D01*
X131389809Y-103259380D02*
X131389809Y-102259380D01*
X131294571Y-102402238D01*
X131199333Y-102497476D01*
X131104095Y-102545095D01*
X132627904Y-103259380D02*
X132056476Y-103259380D01*
X132342190Y-103259380D02*
X132342190Y-102259380D01*
X132246952Y-102402238D01*
X132151714Y-102497476D01*
X132056476Y-102545095D01*
X133818380Y-103259380D02*
X133818380Y-102259380D01*
X134056476Y-102259380D01*
X134199333Y-102307000D01*
X134294571Y-102402238D01*
X134342190Y-102497476D01*
X134389809Y-102687952D01*
X134389809Y-102830809D01*
X134342190Y-103021285D01*
X134294571Y-103116523D01*
X134199333Y-103211761D01*
X134056476Y-103259380D01*
X133818380Y-103259380D01*
X135389809Y-103164142D02*
X135342190Y-103211761D01*
X135199333Y-103259380D01*
X135104095Y-103259380D01*
X134961238Y-103211761D01*
X134866000Y-103116523D01*
X134818380Y-103021285D01*
X134770761Y-102830809D01*
X134770761Y-102687952D01*
X134818380Y-102497476D01*
X134866000Y-102402238D01*
X134961238Y-102307000D01*
X135104095Y-102259380D01*
X135199333Y-102259380D01*
X135342190Y-102307000D01*
X135389809Y-102354619D01*
X135818380Y-102878428D02*
X136580285Y-102878428D01*
X137056476Y-103259380D02*
X137056476Y-102259380D01*
X137294571Y-102259380D01*
X137437428Y-102307000D01*
X137532666Y-102402238D01*
X137580285Y-102497476D01*
X137627904Y-102687952D01*
X137627904Y-102830809D01*
X137580285Y-103021285D01*
X137532666Y-103116523D01*
X137437428Y-103211761D01*
X137294571Y-103259380D01*
X137056476Y-103259380D01*
X138627904Y-103164142D02*
X138580285Y-103211761D01*
X138437428Y-103259380D01*
X138342190Y-103259380D01*
X138199333Y-103211761D01*
X138104095Y-103116523D01*
X138056476Y-103021285D01*
X138008857Y-102830809D01*
X138008857Y-102687952D01*
X138056476Y-102497476D01*
X138104095Y-102402238D01*
X138199333Y-102307000D01*
X138342190Y-102259380D01*
X138437428Y-102259380D01*
X138580285Y-102307000D01*
X138627904Y-102354619D01*
X129294571Y-104861761D02*
X129199333Y-104909380D01*
X129008857Y-104909380D01*
X128913619Y-104861761D01*
X128866000Y-104814142D01*
X128818380Y-104718904D01*
X128818380Y-104433190D01*
X128866000Y-104337952D01*
X128913619Y-104290333D01*
X129008857Y-104242714D01*
X129199333Y-104242714D01*
X129294571Y-104290333D01*
X129866000Y-104909380D02*
X129770761Y-104861761D01*
X129723142Y-104814142D01*
X129675523Y-104718904D01*
X129675523Y-104433190D01*
X129723142Y-104337952D01*
X129770761Y-104290333D01*
X129866000Y-104242714D01*
X130008857Y-104242714D01*
X130104095Y-104290333D01*
X130151714Y-104337952D01*
X130199333Y-104433190D01*
X130199333Y-104718904D01*
X130151714Y-104814142D01*
X130104095Y-104861761D01*
X130008857Y-104909380D01*
X129866000Y-104909380D01*
X130627904Y-104242714D02*
X130627904Y-104909380D01*
X130627904Y-104337952D02*
X130675523Y-104290333D01*
X130770761Y-104242714D01*
X130913619Y-104242714D01*
X131008857Y-104290333D01*
X131056476Y-104385571D01*
X131056476Y-104909380D01*
X131437428Y-104242714D02*
X131675523Y-104909380D01*
X131913619Y-104242714D01*
X132675523Y-104861761D02*
X132580285Y-104909380D01*
X132389809Y-104909380D01*
X132294571Y-104861761D01*
X132246952Y-104766523D01*
X132246952Y-104385571D01*
X132294571Y-104290333D01*
X132389809Y-104242714D01*
X132580285Y-104242714D01*
X132675523Y-104290333D01*
X132723142Y-104385571D01*
X132723142Y-104480809D01*
X132246952Y-104576047D01*
X133151714Y-104909380D02*
X133151714Y-104242714D01*
X133151714Y-104433190D02*
X133199333Y-104337952D01*
X133246952Y-104290333D01*
X133342190Y-104242714D01*
X133437428Y-104242714D01*
X133627904Y-104242714D02*
X134008857Y-104242714D01*
X133770761Y-103909380D02*
X133770761Y-104766523D01*
X133818380Y-104861761D01*
X133913619Y-104909380D01*
X134008857Y-104909380D01*
X134723142Y-104861761D02*
X134627904Y-104909380D01*
X134437428Y-104909380D01*
X134342190Y-104861761D01*
X134294571Y-104766523D01*
X134294571Y-104385571D01*
X134342190Y-104290333D01*
X134437428Y-104242714D01*
X134627904Y-104242714D01*
X134723142Y-104290333D01*
X134770761Y-104385571D01*
X134770761Y-104480809D01*
X134294571Y-104576047D01*
X135199333Y-104909380D02*
X135199333Y-104242714D01*
X135199333Y-104433190D02*
X135246952Y-104337952D01*
X135294571Y-104290333D01*
X135389809Y-104242714D01*
X135485047Y-104242714D01*
X136580285Y-104909380D02*
X136580285Y-104242714D01*
X136580285Y-103909380D02*
X136532666Y-103957000D01*
X136580285Y-104004619D01*
X136627904Y-103957000D01*
X136580285Y-103909380D01*
X136580285Y-104004619D01*
X137056476Y-104242714D02*
X137056476Y-104909380D01*
X137056476Y-104337952D02*
X137104095Y-104290333D01*
X137199333Y-104242714D01*
X137342190Y-104242714D01*
X137437428Y-104290333D01*
X137485047Y-104385571D01*
X137485047Y-104909380D01*
X137961238Y-104242714D02*
X137961238Y-105242714D01*
X137961238Y-104290333D02*
X138056476Y-104242714D01*
X138246952Y-104242714D01*
X138342190Y-104290333D01*
X138389809Y-104337952D01*
X138437428Y-104433190D01*
X138437428Y-104718904D01*
X138389809Y-104814142D01*
X138342190Y-104861761D01*
X138246952Y-104909380D01*
X138056476Y-104909380D01*
X137961238Y-104861761D01*
X139294571Y-104242714D02*
X139294571Y-104909380D01*
X138866000Y-104242714D02*
X138866000Y-104766523D01*
X138913619Y-104861761D01*
X139008857Y-104909380D01*
X139151714Y-104909380D01*
X139246952Y-104861761D01*
X139294571Y-104814142D01*
X139627904Y-104242714D02*
X140008857Y-104242714D01*
X139770761Y-103909380D02*
X139770761Y-104766523D01*
X139818380Y-104861761D01*
X139913619Y-104909380D01*
X140008857Y-104909380D01*
D11*
X76962000Y-104140000D02*
X76962000Y-107696000D01*
X74676000Y-105918000D02*
G75*
G03X74676000Y-105918000I-1016000J0D01*
G01*
X71120000Y-107696000D02*
X71120000Y-104140000D01*
X78232000Y-107696000D02*
X71120000Y-107696000D01*
X78232000Y-104140000D02*
X78232000Y-107696000D01*
X71120000Y-104140000D02*
X78232000Y-104140000D01*
D10*
X79114380Y-104021380D02*
X79114380Y-103021380D01*
X79590571Y-103354714D02*
X79590571Y-104021380D01*
X79590571Y-103449952D02*
X79638190Y-103402333D01*
X79733428Y-103354714D01*
X79876285Y-103354714D01*
X79971523Y-103402333D01*
X80019142Y-103497571D01*
X80019142Y-104021380D01*
X80447714Y-103973761D02*
X80542952Y-104021380D01*
X80733428Y-104021380D01*
X80828666Y-103973761D01*
X80876285Y-103878523D01*
X80876285Y-103830904D01*
X80828666Y-103735666D01*
X80733428Y-103688047D01*
X80590571Y-103688047D01*
X80495333Y-103640428D01*
X80447714Y-103545190D01*
X80447714Y-103497571D01*
X80495333Y-103402333D01*
X80590571Y-103354714D01*
X80733428Y-103354714D01*
X80828666Y-103402333D01*
X81685809Y-103973761D02*
X81590571Y-104021380D01*
X81400095Y-104021380D01*
X81304857Y-103973761D01*
X81257238Y-103878523D01*
X81257238Y-103497571D01*
X81304857Y-103402333D01*
X81400095Y-103354714D01*
X81590571Y-103354714D01*
X81685809Y-103402333D01*
X81733428Y-103497571D01*
X81733428Y-103592809D01*
X81257238Y-103688047D01*
X82162000Y-104021380D02*
X82162000Y-103354714D01*
X82162000Y-103545190D02*
X82209619Y-103449952D01*
X82257238Y-103402333D01*
X82352476Y-103354714D01*
X82447714Y-103354714D01*
X82638190Y-103354714D02*
X83019142Y-103354714D01*
X82781047Y-103021380D02*
X82781047Y-103878523D01*
X82828666Y-103973761D01*
X82923904Y-104021380D01*
X83019142Y-104021380D01*
X84542952Y-104021380D02*
X84542952Y-103021380D01*
X84542952Y-103973761D02*
X84447714Y-104021380D01*
X84257238Y-104021380D01*
X84162000Y-103973761D01*
X84114380Y-103926142D01*
X84066761Y-103830904D01*
X84066761Y-103545190D01*
X84114380Y-103449952D01*
X84162000Y-103402333D01*
X84257238Y-103354714D01*
X84447714Y-103354714D01*
X84542952Y-103402333D01*
X85447714Y-104021380D02*
X85447714Y-103497571D01*
X85400095Y-103402333D01*
X85304857Y-103354714D01*
X85114380Y-103354714D01*
X85019142Y-103402333D01*
X85447714Y-103973761D02*
X85352476Y-104021380D01*
X85114380Y-104021380D01*
X85019142Y-103973761D01*
X84971523Y-103878523D01*
X84971523Y-103783285D01*
X85019142Y-103688047D01*
X85114380Y-103640428D01*
X85352476Y-103640428D01*
X85447714Y-103592809D01*
X85781047Y-103354714D02*
X86162000Y-103354714D01*
X85923904Y-103021380D02*
X85923904Y-103878523D01*
X85971523Y-103973761D01*
X86066761Y-104021380D01*
X86162000Y-104021380D01*
X86923904Y-104021380D02*
X86923904Y-103497571D01*
X86876285Y-103402333D01*
X86781047Y-103354714D01*
X86590571Y-103354714D01*
X86495333Y-103402333D01*
X86923904Y-103973761D02*
X86828666Y-104021380D01*
X86590571Y-104021380D01*
X86495333Y-103973761D01*
X86447714Y-103878523D01*
X86447714Y-103783285D01*
X86495333Y-103688047D01*
X86590571Y-103640428D01*
X86828666Y-103640428D01*
X86923904Y-103592809D01*
X87400095Y-103354714D02*
X87400095Y-104354714D01*
X87400095Y-103402333D02*
X87495333Y-103354714D01*
X87685809Y-103354714D01*
X87781047Y-103402333D01*
X87828666Y-103449952D01*
X87876285Y-103545190D01*
X87876285Y-103830904D01*
X87828666Y-103926142D01*
X87781047Y-103973761D01*
X87685809Y-104021380D01*
X87495333Y-104021380D01*
X87400095Y-103973761D01*
X88733428Y-104021380D02*
X88733428Y-103497571D01*
X88685809Y-103402333D01*
X88590571Y-103354714D01*
X88400095Y-103354714D01*
X88304857Y-103402333D01*
X88733428Y-103973761D02*
X88638190Y-104021380D01*
X88400095Y-104021380D01*
X88304857Y-103973761D01*
X88257238Y-103878523D01*
X88257238Y-103783285D01*
X88304857Y-103688047D01*
X88400095Y-103640428D01*
X88638190Y-103640428D01*
X88733428Y-103592809D01*
X89638190Y-103973761D02*
X89542952Y-104021380D01*
X89352476Y-104021380D01*
X89257238Y-103973761D01*
X89209619Y-103926142D01*
X89162000Y-103830904D01*
X89162000Y-103545190D01*
X89209619Y-103449952D01*
X89257238Y-103402333D01*
X89352476Y-103354714D01*
X89542952Y-103354714D01*
X89638190Y-103402333D01*
X90066761Y-104021380D02*
X90066761Y-103021380D01*
X90162000Y-103640428D02*
X90447714Y-104021380D01*
X90447714Y-103354714D02*
X90066761Y-103735666D01*
X91542952Y-103354714D02*
X91733428Y-104021380D01*
X91923904Y-103545190D01*
X92114380Y-104021380D01*
X92304857Y-103354714D01*
X92685809Y-104021380D02*
X92685809Y-103354714D01*
X92685809Y-103021380D02*
X92638190Y-103069000D01*
X92685809Y-103116619D01*
X92733428Y-103069000D01*
X92685809Y-103021380D01*
X92685809Y-103116619D01*
X93019142Y-103354714D02*
X93400095Y-103354714D01*
X93162000Y-103021380D02*
X93162000Y-103878523D01*
X93209619Y-103973761D01*
X93304857Y-104021380D01*
X93400095Y-104021380D01*
X93733428Y-104021380D02*
X93733428Y-103021380D01*
X94162000Y-104021380D02*
X94162000Y-103497571D01*
X94114380Y-103402333D01*
X94019142Y-103354714D01*
X93876285Y-103354714D01*
X93781047Y-103402333D01*
X93733428Y-103449952D01*
X95304857Y-103354714D02*
X95495333Y-104021380D01*
X95685809Y-103545190D01*
X95876285Y-104021380D01*
X96066761Y-103354714D01*
X96447714Y-104021380D02*
X96447714Y-103354714D01*
X96447714Y-103021380D02*
X96400095Y-103069000D01*
X96447714Y-103116619D01*
X96495333Y-103069000D01*
X96447714Y-103021380D01*
X96447714Y-103116619D01*
X96923904Y-103354714D02*
X96923904Y-104021380D01*
X96923904Y-103449952D02*
X96971523Y-103402333D01*
X97066761Y-103354714D01*
X97209619Y-103354714D01*
X97304857Y-103402333D01*
X97352476Y-103497571D01*
X97352476Y-104021380D01*
X98257238Y-104021380D02*
X98257238Y-103021380D01*
X98257238Y-103973761D02*
X98162000Y-104021380D01*
X97971523Y-104021380D01*
X97876285Y-103973761D01*
X97828666Y-103926142D01*
X97781047Y-103830904D01*
X97781047Y-103545190D01*
X97828666Y-103449952D01*
X97876285Y-103402333D01*
X97971523Y-103354714D01*
X98162000Y-103354714D01*
X98257238Y-103402333D01*
X98876285Y-104021380D02*
X98781047Y-103973761D01*
X98733428Y-103926142D01*
X98685809Y-103830904D01*
X98685809Y-103545190D01*
X98733428Y-103449952D01*
X98781047Y-103402333D01*
X98876285Y-103354714D01*
X99019142Y-103354714D01*
X99114380Y-103402333D01*
X99162000Y-103449952D01*
X99209619Y-103545190D01*
X99209619Y-103830904D01*
X99162000Y-103926142D01*
X99114380Y-103973761D01*
X99019142Y-104021380D01*
X98876285Y-104021380D01*
X99542952Y-103354714D02*
X99733428Y-104021380D01*
X99923904Y-103545190D01*
X100114380Y-104021380D01*
X100304857Y-103354714D01*
X82662000Y-105004714D02*
X82662000Y-105671380D01*
X82233428Y-105004714D02*
X82233428Y-105528523D01*
X82281047Y-105623761D01*
X82376285Y-105671380D01*
X82519142Y-105671380D01*
X82614380Y-105623761D01*
X82662000Y-105576142D01*
X83138190Y-105004714D02*
X83138190Y-106004714D01*
X83138190Y-105052333D02*
X83233428Y-105004714D01*
X83423904Y-105004714D01*
X83519142Y-105052333D01*
X83566761Y-105099952D01*
X83614380Y-105195190D01*
X83614380Y-105480904D01*
X83566761Y-105576142D01*
X83519142Y-105623761D01*
X83423904Y-105671380D01*
X83233428Y-105671380D01*
X83138190Y-105623761D01*
X83947714Y-105004714D02*
X84138190Y-105671380D01*
X84328666Y-105195190D01*
X84519142Y-105671380D01*
X84709619Y-105004714D01*
X85519142Y-105671380D02*
X85519142Y-105147571D01*
X85471523Y-105052333D01*
X85376285Y-105004714D01*
X85185809Y-105004714D01*
X85090571Y-105052333D01*
X85519142Y-105623761D02*
X85423904Y-105671380D01*
X85185809Y-105671380D01*
X85090571Y-105623761D01*
X85042952Y-105528523D01*
X85042952Y-105433285D01*
X85090571Y-105338047D01*
X85185809Y-105290428D01*
X85423904Y-105290428D01*
X85519142Y-105242809D01*
X85995333Y-105671380D02*
X85995333Y-105004714D01*
X85995333Y-105195190D02*
X86042952Y-105099952D01*
X86090571Y-105052333D01*
X86185809Y-105004714D01*
X86281047Y-105004714D01*
X87042952Y-105671380D02*
X87042952Y-104671380D01*
X87042952Y-105623761D02*
X86947714Y-105671380D01*
X86757238Y-105671380D01*
X86662000Y-105623761D01*
X86614380Y-105576142D01*
X86566761Y-105480904D01*
X86566761Y-105195190D01*
X86614380Y-105099952D01*
X86662000Y-105052333D01*
X86757238Y-105004714D01*
X86947714Y-105004714D01*
X87042952Y-105052333D01*
X87471523Y-105623761D02*
X87566761Y-105671380D01*
X87757238Y-105671380D01*
X87852476Y-105623761D01*
X87900095Y-105528523D01*
X87900095Y-105480904D01*
X87852476Y-105385666D01*
X87757238Y-105338047D01*
X87614380Y-105338047D01*
X87519142Y-105290428D01*
X87471523Y-105195190D01*
X87471523Y-105147571D01*
X87519142Y-105052333D01*
X87614380Y-105004714D01*
X87757238Y-105004714D01*
X87852476Y-105052333D01*
X89233428Y-105671380D02*
X89138190Y-105623761D01*
X89090571Y-105576142D01*
X89042952Y-105480904D01*
X89042952Y-105195190D01*
X89090571Y-105099952D01*
X89138190Y-105052333D01*
X89233428Y-105004714D01*
X89376285Y-105004714D01*
X89471523Y-105052333D01*
X89519142Y-105099952D01*
X89566761Y-105195190D01*
X89566761Y-105480904D01*
X89519142Y-105576142D01*
X89471523Y-105623761D01*
X89376285Y-105671380D01*
X89233428Y-105671380D01*
X89995333Y-105671380D02*
X89995333Y-105004714D01*
X89995333Y-105195190D02*
X90042952Y-105099952D01*
X90090571Y-105052333D01*
X90185809Y-105004714D01*
X90281047Y-105004714D01*
X91233428Y-105004714D02*
X91614380Y-105004714D01*
X91376285Y-104671380D02*
X91376285Y-105528523D01*
X91423904Y-105623761D01*
X91519142Y-105671380D01*
X91614380Y-105671380D01*
X92090571Y-105671380D02*
X91995333Y-105623761D01*
X91947714Y-105576142D01*
X91900095Y-105480904D01*
X91900095Y-105195190D01*
X91947714Y-105099952D01*
X91995333Y-105052333D01*
X92090571Y-105004714D01*
X92233428Y-105004714D01*
X92328666Y-105052333D01*
X92376285Y-105099952D01*
X92423904Y-105195190D01*
X92423904Y-105480904D01*
X92376285Y-105576142D01*
X92328666Y-105623761D01*
X92233428Y-105671380D01*
X92090571Y-105671380D01*
X93614380Y-105671380D02*
X93614380Y-105004714D01*
X93614380Y-105195190D02*
X93662000Y-105099952D01*
X93709619Y-105052333D01*
X93804857Y-105004714D01*
X93900095Y-105004714D01*
X94233428Y-105671380D02*
X94233428Y-105004714D01*
X94233428Y-104671380D02*
X94185809Y-104719000D01*
X94233428Y-104766619D01*
X94281047Y-104719000D01*
X94233428Y-104671380D01*
X94233428Y-104766619D01*
X95138190Y-105004714D02*
X95138190Y-105814238D01*
X95090571Y-105909476D01*
X95042952Y-105957095D01*
X94947714Y-106004714D01*
X94804857Y-106004714D01*
X94709619Y-105957095D01*
X95138190Y-105623761D02*
X95042952Y-105671380D01*
X94852476Y-105671380D01*
X94757238Y-105623761D01*
X94709619Y-105576142D01*
X94662000Y-105480904D01*
X94662000Y-105195190D01*
X94709619Y-105099952D01*
X94757238Y-105052333D01*
X94852476Y-105004714D01*
X95042952Y-105004714D01*
X95138190Y-105052333D01*
X95614380Y-105671380D02*
X95614380Y-104671380D01*
X96042952Y-105671380D02*
X96042952Y-105147571D01*
X95995333Y-105052333D01*
X95900095Y-105004714D01*
X95757238Y-105004714D01*
X95662000Y-105052333D01*
X95614380Y-105099952D01*
X96376285Y-105004714D02*
X96757238Y-105004714D01*
X96519142Y-104671380D02*
X96519142Y-105528523D01*
X96566761Y-105623761D01*
X96662000Y-105671380D01*
X96757238Y-105671380D01*
X97090571Y-105576142D02*
X97138190Y-105623761D01*
X97090571Y-105671380D01*
X97042952Y-105623761D01*
X97090571Y-105576142D01*
X97090571Y-105671380D01*
X183642095Y-122182000D02*
X183546857Y-122134380D01*
X183404000Y-122134380D01*
X183261142Y-122182000D01*
X183165904Y-122277238D01*
X183118285Y-122372476D01*
X183070666Y-122562952D01*
X183070666Y-122705809D01*
X183118285Y-122896285D01*
X183165904Y-122991523D01*
X183261142Y-123086761D01*
X183404000Y-123134380D01*
X183499238Y-123134380D01*
X183642095Y-123086761D01*
X183689714Y-123039142D01*
X183689714Y-122705809D01*
X183499238Y-122705809D01*
X184118285Y-123134380D02*
X184118285Y-122134380D01*
X184689714Y-123134380D01*
X184689714Y-122134380D01*
X185165904Y-123134380D02*
X185165904Y-122134380D01*
X185404000Y-122134380D01*
X185546857Y-122182000D01*
X185642095Y-122277238D01*
X185689714Y-122372476D01*
X185737333Y-122562952D01*
X185737333Y-122705809D01*
X185689714Y-122896285D01*
X185642095Y-122991523D01*
X185546857Y-123086761D01*
X185404000Y-123134380D01*
X185165904Y-123134380D01*
X186023428Y-117038380D02*
X186023428Y-116038380D01*
X186404380Y-116038380D01*
X186499619Y-116086000D01*
X186547238Y-116133619D01*
X186594857Y-116228857D01*
X186594857Y-116371714D01*
X186547238Y-116466952D01*
X186499619Y-116514571D01*
X186404380Y-116562190D01*
X186023428Y-116562190D01*
X187023428Y-117038380D02*
X187023428Y-116371714D01*
X187023428Y-116038380D02*
X186975809Y-116086000D01*
X187023428Y-116133619D01*
X187071047Y-116086000D01*
X187023428Y-116038380D01*
X187023428Y-116133619D01*
X187499619Y-116371714D02*
X187499619Y-117038380D01*
X187499619Y-116466952D02*
X187547238Y-116419333D01*
X187642476Y-116371714D01*
X187785333Y-116371714D01*
X187880571Y-116419333D01*
X187928190Y-116514571D01*
X187928190Y-117038380D01*
X188309142Y-116038380D02*
X188928190Y-116038380D01*
X188594857Y-116419333D01*
X188737714Y-116419333D01*
X188832952Y-116466952D01*
X188880571Y-116514571D01*
X188928190Y-116609809D01*
X188928190Y-116847904D01*
X188880571Y-116943142D01*
X188832952Y-116990761D01*
X188737714Y-117038380D01*
X188452000Y-117038380D01*
X188356761Y-116990761D01*
X188309142Y-116943142D01*
X183165904Y-118324380D02*
X183784952Y-118324380D01*
X183451619Y-118705333D01*
X183594476Y-118705333D01*
X183689714Y-118752952D01*
X183737333Y-118800571D01*
X183784952Y-118895809D01*
X183784952Y-119133904D01*
X183737333Y-119229142D01*
X183689714Y-119276761D01*
X183594476Y-119324380D01*
X183308761Y-119324380D01*
X183213523Y-119276761D01*
X183165904Y-119229142D01*
X184070666Y-118324380D02*
X184404000Y-119324380D01*
X184737333Y-118324380D01*
X184975428Y-118324380D02*
X185594476Y-118324380D01*
X185261142Y-118705333D01*
X185404000Y-118705333D01*
X185499238Y-118752952D01*
X185546857Y-118800571D01*
X185594476Y-118895809D01*
X185594476Y-119133904D01*
X185546857Y-119229142D01*
X185499238Y-119276761D01*
X185404000Y-119324380D01*
X185118285Y-119324380D01*
X185023047Y-119276761D01*
X184975428Y-119229142D01*
X179673428Y-117038380D02*
X179673428Y-116038380D01*
X180054380Y-116038380D01*
X180149619Y-116086000D01*
X180197238Y-116133619D01*
X180244857Y-116228857D01*
X180244857Y-116371714D01*
X180197238Y-116466952D01*
X180149619Y-116514571D01*
X180054380Y-116562190D01*
X179673428Y-116562190D01*
X180673428Y-117038380D02*
X180673428Y-116371714D01*
X180673428Y-116038380D02*
X180625809Y-116086000D01*
X180673428Y-116133619D01*
X180721047Y-116086000D01*
X180673428Y-116038380D01*
X180673428Y-116133619D01*
X181149619Y-116371714D02*
X181149619Y-117038380D01*
X181149619Y-116466952D02*
X181197238Y-116419333D01*
X181292476Y-116371714D01*
X181435333Y-116371714D01*
X181530571Y-116419333D01*
X181578190Y-116514571D01*
X181578190Y-117038380D01*
X182482952Y-116371714D02*
X182482952Y-117038380D01*
X182244857Y-115990761D02*
X182006761Y-116705047D01*
X182625809Y-116705047D01*
X182642952Y-138439380D02*
X182642952Y-137439380D01*
X182881047Y-137439380D01*
X183023904Y-137487000D01*
X183119142Y-137582238D01*
X183166761Y-137677476D01*
X183214380Y-137867952D01*
X183214380Y-138010809D01*
X183166761Y-138201285D01*
X183119142Y-138296523D01*
X183023904Y-138391761D01*
X182881047Y-138439380D01*
X182642952Y-138439380D01*
X184071523Y-138439380D02*
X184071523Y-137915571D01*
X184023904Y-137820333D01*
X183928666Y-137772714D01*
X183738190Y-137772714D01*
X183642952Y-137820333D01*
X184071523Y-138391761D02*
X183976285Y-138439380D01*
X183738190Y-138439380D01*
X183642952Y-138391761D01*
X183595333Y-138296523D01*
X183595333Y-138201285D01*
X183642952Y-138106047D01*
X183738190Y-138058428D01*
X183976285Y-138058428D01*
X184071523Y-138010809D01*
X184404857Y-137772714D02*
X184785809Y-137772714D01*
X184547714Y-137439380D02*
X184547714Y-138296523D01*
X184595333Y-138391761D01*
X184690571Y-138439380D01*
X184785809Y-138439380D01*
X185547714Y-138439380D02*
X185547714Y-137915571D01*
X185500095Y-137820333D01*
X185404857Y-137772714D01*
X185214380Y-137772714D01*
X185119142Y-137820333D01*
X185547714Y-138391761D02*
X185452476Y-138439380D01*
X185214380Y-138439380D01*
X185119142Y-138391761D01*
X185071523Y-138296523D01*
X185071523Y-138201285D01*
X185119142Y-138106047D01*
X185214380Y-138058428D01*
X185452476Y-138058428D01*
X185547714Y-138010809D01*
X186023904Y-137772714D02*
X186023904Y-138772714D01*
X186023904Y-137820333D02*
X186119142Y-137772714D01*
X186309619Y-137772714D01*
X186404857Y-137820333D01*
X186452476Y-137867952D01*
X186500095Y-137963190D01*
X186500095Y-138248904D01*
X186452476Y-138344142D01*
X186404857Y-138391761D01*
X186309619Y-138439380D01*
X186119142Y-138439380D01*
X186023904Y-138391761D01*
X187357238Y-138439380D02*
X187357238Y-137915571D01*
X187309619Y-137820333D01*
X187214380Y-137772714D01*
X187023904Y-137772714D01*
X186928666Y-137820333D01*
X187357238Y-138391761D02*
X187262000Y-138439380D01*
X187023904Y-138439380D01*
X186928666Y-138391761D01*
X186881047Y-138296523D01*
X186881047Y-138201285D01*
X186928666Y-138106047D01*
X187023904Y-138058428D01*
X187262000Y-138058428D01*
X187357238Y-138010809D01*
X188262000Y-138391761D02*
X188166761Y-138439380D01*
X187976285Y-138439380D01*
X187881047Y-138391761D01*
X187833428Y-138344142D01*
X187785809Y-138248904D01*
X187785809Y-137963190D01*
X187833428Y-137867952D01*
X187881047Y-137820333D01*
X187976285Y-137772714D01*
X188166761Y-137772714D01*
X188262000Y-137820333D01*
X188690571Y-138439380D02*
X188690571Y-137439380D01*
X188785809Y-138058428D02*
X189071523Y-138439380D01*
X189071523Y-137772714D02*
X188690571Y-138153666D01*
X190262000Y-138439380D02*
X190262000Y-137772714D01*
X190262000Y-137963190D02*
X190309619Y-137867952D01*
X190357238Y-137820333D01*
X190452476Y-137772714D01*
X190547714Y-137772714D01*
X191262000Y-138391761D02*
X191166761Y-138439380D01*
X190976285Y-138439380D01*
X190881047Y-138391761D01*
X190833428Y-138296523D01*
X190833428Y-137915571D01*
X190881047Y-137820333D01*
X190976285Y-137772714D01*
X191166761Y-137772714D01*
X191262000Y-137820333D01*
X191309619Y-137915571D01*
X191309619Y-138010809D01*
X190833428Y-138106047D01*
X192166761Y-138439380D02*
X192166761Y-137915571D01*
X192119142Y-137820333D01*
X192023904Y-137772714D01*
X191833428Y-137772714D01*
X191738190Y-137820333D01*
X192166761Y-138391761D02*
X192071523Y-138439380D01*
X191833428Y-138439380D01*
X191738190Y-138391761D01*
X191690571Y-138296523D01*
X191690571Y-138201285D01*
X191738190Y-138106047D01*
X191833428Y-138058428D01*
X192071523Y-138058428D01*
X192166761Y-138010809D01*
X193071523Y-138439380D02*
X193071523Y-137439380D01*
X193071523Y-138391761D02*
X192976285Y-138439380D01*
X192785809Y-138439380D01*
X192690571Y-138391761D01*
X192642952Y-138344142D01*
X192595333Y-138248904D01*
X192595333Y-137963190D01*
X192642952Y-137867952D01*
X192690571Y-137820333D01*
X192785809Y-137772714D01*
X192976285Y-137772714D01*
X193071523Y-137820333D01*
X193928666Y-138391761D02*
X193833428Y-138439380D01*
X193642952Y-138439380D01*
X193547714Y-138391761D01*
X193500095Y-138296523D01*
X193500095Y-137915571D01*
X193547714Y-137820333D01*
X193642952Y-137772714D01*
X193833428Y-137772714D01*
X193928666Y-137820333D01*
X193976285Y-137915571D01*
X193976285Y-138010809D01*
X193500095Y-138106047D01*
X194404857Y-138439380D02*
X194404857Y-137772714D01*
X194404857Y-137963190D02*
X194452476Y-137867952D01*
X194500095Y-137820333D01*
X194595333Y-137772714D01*
X194690571Y-137772714D01*
X195738190Y-137391761D02*
X194881047Y-138677476D01*
X195976285Y-137439380D02*
X196214380Y-138439380D01*
X196404857Y-137725095D01*
X196595333Y-138439380D01*
X196833428Y-137439380D01*
X197214380Y-138439380D02*
X197214380Y-137772714D01*
X197214380Y-137963190D02*
X197262000Y-137867952D01*
X197309619Y-137820333D01*
X197404857Y-137772714D01*
X197500095Y-137772714D01*
X197833428Y-138439380D02*
X197833428Y-137772714D01*
X197833428Y-137439380D02*
X197785809Y-137487000D01*
X197833428Y-137534619D01*
X197881047Y-137487000D01*
X197833428Y-137439380D01*
X197833428Y-137534619D01*
X198166761Y-137772714D02*
X198547714Y-137772714D01*
X198309619Y-137439380D02*
X198309619Y-138296523D01*
X198357238Y-138391761D01*
X198452476Y-138439380D01*
X198547714Y-138439380D01*
X199262000Y-138391761D02*
X199166761Y-138439380D01*
X198976285Y-138439380D01*
X198881047Y-138391761D01*
X198833428Y-138296523D01*
X198833428Y-137915571D01*
X198881047Y-137820333D01*
X198976285Y-137772714D01*
X199166761Y-137772714D01*
X199262000Y-137820333D01*
X199309619Y-137915571D01*
X199309619Y-138010809D01*
X198833428Y-138106047D01*
X199738190Y-138439380D02*
X199738190Y-137772714D01*
X199738190Y-137963190D02*
X199785809Y-137867952D01*
X199833428Y-137820333D01*
X199928666Y-137772714D01*
X200023904Y-137772714D01*
X187857238Y-140089380D02*
X187857238Y-139089380D01*
X188428666Y-140089380D01*
X188428666Y-139089380D01*
X189047714Y-140089380D02*
X188952476Y-140041761D01*
X188904857Y-139994142D01*
X188857238Y-139898904D01*
X188857238Y-139613190D01*
X188904857Y-139517952D01*
X188952476Y-139470333D01*
X189047714Y-139422714D01*
X189190571Y-139422714D01*
X189285809Y-139470333D01*
X189333428Y-139517952D01*
X189381047Y-139613190D01*
X189381047Y-139898904D01*
X189333428Y-139994142D01*
X189285809Y-140041761D01*
X189190571Y-140089380D01*
X189047714Y-140089380D01*
X189714380Y-139422714D02*
X189952476Y-140089380D01*
X190190571Y-139422714D01*
X191285809Y-139184619D02*
X191333428Y-139137000D01*
X191428666Y-139089380D01*
X191666761Y-139089380D01*
X191762000Y-139137000D01*
X191809619Y-139184619D01*
X191857238Y-139279857D01*
X191857238Y-139375095D01*
X191809619Y-139517952D01*
X191238190Y-140089380D01*
X191857238Y-140089380D01*
X192476285Y-139089380D02*
X192571523Y-139089380D01*
X192666761Y-139137000D01*
X192714380Y-139184619D01*
X192762000Y-139279857D01*
X192809619Y-139470333D01*
X192809619Y-139708428D01*
X192762000Y-139898904D01*
X192714380Y-139994142D01*
X192666761Y-140041761D01*
X192571523Y-140089380D01*
X192476285Y-140089380D01*
X192381047Y-140041761D01*
X192333428Y-139994142D01*
X192285809Y-139898904D01*
X192238190Y-139708428D01*
X192238190Y-139470333D01*
X192285809Y-139279857D01*
X192333428Y-139184619D01*
X192381047Y-139137000D01*
X192476285Y-139089380D01*
X193190571Y-139184619D02*
X193238190Y-139137000D01*
X193333428Y-139089380D01*
X193571523Y-139089380D01*
X193666761Y-139137000D01*
X193714380Y-139184619D01*
X193762000Y-139279857D01*
X193762000Y-139375095D01*
X193714380Y-139517952D01*
X193142952Y-140089380D01*
X193762000Y-140089380D01*
X194142952Y-139184619D02*
X194190571Y-139137000D01*
X194285809Y-139089380D01*
X194523904Y-139089380D01*
X194619142Y-139137000D01*
X194666761Y-139184619D01*
X194714380Y-139279857D01*
X194714380Y-139375095D01*
X194666761Y-139517952D01*
X194095333Y-140089380D01*
X194714380Y-140089380D01*
X185809619Y-141739380D02*
X185809619Y-140739380D01*
X186142952Y-141453666D01*
X186476285Y-140739380D01*
X186476285Y-141739380D01*
X187333428Y-141691761D02*
X187238190Y-141739380D01*
X187047714Y-141739380D01*
X186952476Y-141691761D01*
X186904857Y-141596523D01*
X186904857Y-141215571D01*
X186952476Y-141120333D01*
X187047714Y-141072714D01*
X187238190Y-141072714D01*
X187333428Y-141120333D01*
X187381047Y-141215571D01*
X187381047Y-141310809D01*
X186904857Y-141406047D01*
X187809619Y-141072714D02*
X187809619Y-141739380D01*
X187809619Y-141167952D02*
X187857238Y-141120333D01*
X187952476Y-141072714D01*
X188095333Y-141072714D01*
X188190571Y-141120333D01*
X188238190Y-141215571D01*
X188238190Y-141739380D01*
X189142952Y-141739380D02*
X189142952Y-141215571D01*
X189095333Y-141120333D01*
X189000095Y-141072714D01*
X188809619Y-141072714D01*
X188714380Y-141120333D01*
X189142952Y-141691761D02*
X189047714Y-141739380D01*
X188809619Y-141739380D01*
X188714380Y-141691761D01*
X188666761Y-141596523D01*
X188666761Y-141501285D01*
X188714380Y-141406047D01*
X188809619Y-141358428D01*
X189047714Y-141358428D01*
X189142952Y-141310809D01*
X190047714Y-141739380D02*
X190047714Y-140739380D01*
X190047714Y-141691761D02*
X189952476Y-141739380D01*
X189762000Y-141739380D01*
X189666761Y-141691761D01*
X189619142Y-141644142D01*
X189571523Y-141548904D01*
X189571523Y-141263190D01*
X189619142Y-141167952D01*
X189666761Y-141120333D01*
X189762000Y-141072714D01*
X189952476Y-141072714D01*
X190047714Y-141120333D01*
X190952476Y-141072714D02*
X190952476Y-141739380D01*
X190523904Y-141072714D02*
X190523904Y-141596523D01*
X190571523Y-141691761D01*
X190666761Y-141739380D01*
X190809619Y-141739380D01*
X190904857Y-141691761D01*
X190952476Y-141644142D01*
X191809619Y-141691761D02*
X191714380Y-141739380D01*
X191523904Y-141739380D01*
X191428666Y-141691761D01*
X191381047Y-141596523D01*
X191381047Y-141215571D01*
X191428666Y-141120333D01*
X191523904Y-141072714D01*
X191714380Y-141072714D01*
X191809619Y-141120333D01*
X191857238Y-141215571D01*
X191857238Y-141310809D01*
X191381047Y-141406047D01*
X193000095Y-140691761D02*
X192142952Y-141977476D01*
X193333428Y-141739380D02*
X193333428Y-140739380D01*
X193714380Y-140739380D01*
X193809619Y-140787000D01*
X193857238Y-140834619D01*
X193904857Y-140929857D01*
X193904857Y-141072714D01*
X193857238Y-141167952D01*
X193809619Y-141215571D01*
X193714380Y-141263190D01*
X193333428Y-141263190D01*
X194333428Y-141739380D02*
X194333428Y-141072714D01*
X194333428Y-141263190D02*
X194381047Y-141167952D01*
X194428666Y-141120333D01*
X194523904Y-141072714D01*
X194619142Y-141072714D01*
X195333428Y-141691761D02*
X195238190Y-141739380D01*
X195047714Y-141739380D01*
X194952476Y-141691761D01*
X194904857Y-141596523D01*
X194904857Y-141215571D01*
X194952476Y-141120333D01*
X195047714Y-141072714D01*
X195238190Y-141072714D01*
X195333428Y-141120333D01*
X195381047Y-141215571D01*
X195381047Y-141310809D01*
X194904857Y-141406047D01*
X195762000Y-141691761D02*
X195857238Y-141739380D01*
X196047714Y-141739380D01*
X196142952Y-141691761D01*
X196190571Y-141596523D01*
X196190571Y-141548904D01*
X196142952Y-141453666D01*
X196047714Y-141406047D01*
X195904857Y-141406047D01*
X195809619Y-141358428D01*
X195762000Y-141263190D01*
X195762000Y-141215571D01*
X195809619Y-141120333D01*
X195904857Y-141072714D01*
X196047714Y-141072714D01*
X196142952Y-141120333D01*
X196476285Y-141072714D02*
X196857238Y-141072714D01*
X196619142Y-140739380D02*
X196619142Y-141596523D01*
X196666761Y-141691761D01*
X196762000Y-141739380D01*
X196857238Y-141739380D01*
X189738190Y-142389380D02*
X190071523Y-143389380D01*
X190404857Y-142389380D01*
X191262000Y-143389380D02*
X190690571Y-143389380D01*
X190976285Y-143389380D02*
X190976285Y-142389380D01*
X190881047Y-142532238D01*
X190785809Y-142627476D01*
X190690571Y-142675095D01*
X191690571Y-143294142D02*
X191738190Y-143341761D01*
X191690571Y-143389380D01*
X191642952Y-143341761D01*
X191690571Y-143294142D01*
X191690571Y-143389380D01*
X192357238Y-142389380D02*
X192452476Y-142389380D01*
X192547714Y-142437000D01*
X192595333Y-142484619D01*
X192642952Y-142579857D01*
X192690571Y-142770333D01*
X192690571Y-143008428D01*
X192642952Y-143198904D01*
X192595333Y-143294142D01*
X192547714Y-143341761D01*
X192452476Y-143389380D01*
X192357238Y-143389380D01*
X192262000Y-143341761D01*
X192214380Y-143294142D01*
X192166761Y-143198904D01*
X192119142Y-143008428D01*
X192119142Y-142770333D01*
X192166761Y-142579857D01*
X192214380Y-142484619D01*
X192262000Y-142437000D01*
X192357238Y-142389380D01*
X103894000Y-157479904D02*
X103846380Y-157575142D01*
X103846380Y-157718000D01*
X103894000Y-157860857D01*
X103989238Y-157956095D01*
X104084476Y-158003714D01*
X104274952Y-158051333D01*
X104417809Y-158051333D01*
X104608285Y-158003714D01*
X104703523Y-157956095D01*
X104798761Y-157860857D01*
X104846380Y-157718000D01*
X104846380Y-157622761D01*
X104798761Y-157479904D01*
X104751142Y-157432285D01*
X104417809Y-157432285D01*
X104417809Y-157622761D01*
X104846380Y-157003714D02*
X103846380Y-157003714D01*
X104846380Y-156432285D01*
X103846380Y-156432285D01*
X104846380Y-155956095D02*
X103846380Y-155956095D01*
X103846380Y-155718000D01*
X103894000Y-155575142D01*
X103989238Y-155479904D01*
X104084476Y-155432285D01*
X104274952Y-155384666D01*
X104417809Y-155384666D01*
X104608285Y-155432285D01*
X104703523Y-155479904D01*
X104798761Y-155575142D01*
X104846380Y-155718000D01*
X104846380Y-155956095D01*
D11*
X177256000Y-104794000D02*
X183266000Y-104794000D01*
X179506000Y-111614000D02*
X183266000Y-111614000D01*
X183266000Y-104794000D02*
X183266000Y-106054000D01*
X183266000Y-111614000D02*
X183266000Y-110354000D01*
X185290000Y-112792000D02*
X188090000Y-112792000D01*
X188090000Y-112792000D02*
X188090000Y-114792000D01*
X188090000Y-114792000D02*
X185290000Y-114792000D01*
X185290000Y-114792000D02*
X185290000Y-112792000D01*
X141317000Y-120634000D02*
X138517000Y-120634000D01*
X138517000Y-120634000D02*
X138517000Y-118634000D01*
X138517000Y-118634000D02*
X141317000Y-118634000D01*
X141317000Y-118634000D02*
X141317000Y-120634000D01*
X181617252Y-102643000D02*
X181094748Y-102643000D01*
X181617252Y-104113000D02*
X181094748Y-104113000D01*
X174725000Y-108465252D02*
X174725000Y-107942748D01*
X173255000Y-108465252D02*
X173255000Y-107942748D01*
X179925001Y-121525001D02*
X182725001Y-121525001D01*
X182725001Y-121525001D02*
X182725001Y-123525001D01*
X182725001Y-123525001D02*
X179925001Y-123525001D01*
X179925001Y-123525001D02*
X179925001Y-121525001D01*
X179925001Y-117975001D02*
X182725001Y-117975001D01*
X182725001Y-117975001D02*
X182725001Y-119975001D01*
X182725001Y-119975001D02*
X179925001Y-119975001D01*
X179925001Y-119975001D02*
X179925001Y-117975001D01*
X186175001Y-121525001D02*
X188975001Y-121525001D01*
X188975001Y-121525001D02*
X188975001Y-123525001D01*
X188975001Y-123525001D02*
X186175001Y-123525001D01*
X186175001Y-123525001D02*
X186175001Y-121525001D01*
X186175001Y-117975001D02*
X188975001Y-117975001D01*
X188975001Y-117975001D02*
X188975001Y-119975001D01*
X188975001Y-119975001D02*
X186175001Y-119975001D01*
X186175001Y-119975001D02*
X186175001Y-117975001D01*
X191576000Y-126432000D02*
X191576000Y-127762000D01*
X190246000Y-126432000D02*
X191576000Y-126432000D01*
X188976000Y-126432000D02*
X188976000Y-129092000D01*
X188976000Y-129092000D02*
X181296000Y-129092000D01*
X188976000Y-126432000D02*
X181296000Y-126432000D01*
X181296000Y-126432000D02*
X181296000Y-129092000D01*
X114600000Y-108000000D02*
X135600000Y-108000000D01*
X121400000Y-159000000D02*
X114600000Y-159000000D01*
X114600000Y-110667000D02*
X117607000Y-110667000D01*
X117607000Y-110667000D02*
X117607000Y-108000000D01*
X114600000Y-108000000D02*
X114600000Y-108300000D01*
X114600000Y-110400000D02*
X114600000Y-110800000D01*
X114600000Y-113000000D02*
X114600000Y-113400000D01*
X114600000Y-115500000D02*
X114600000Y-115900000D01*
X114600000Y-118100000D02*
X114600000Y-118500000D01*
X114600000Y-120600000D02*
X114600000Y-121000000D01*
X114600000Y-123100000D02*
X114600000Y-123500000D01*
X114600000Y-125700000D02*
X114600000Y-126100000D01*
X114600000Y-128200000D02*
X114600000Y-128600000D01*
X114600000Y-130800000D02*
X114600000Y-131200000D01*
X114600000Y-133300000D02*
X114600000Y-133700000D01*
X114600000Y-135800000D02*
X114600000Y-136200000D01*
X114600000Y-138400000D02*
X114600000Y-138800000D01*
X114600000Y-140900000D02*
X114600000Y-141300000D01*
X114600000Y-143500000D02*
X114600000Y-143900000D01*
X114600000Y-146000000D02*
X114600000Y-146400000D01*
X114600000Y-148600000D02*
X114600000Y-149000000D01*
X114600000Y-151100000D02*
X114600000Y-151500000D01*
X114600000Y-153600000D02*
X114600000Y-154000000D01*
X114600000Y-156200000D02*
X114600000Y-156600000D01*
X135600000Y-123100000D02*
X135600000Y-123500000D01*
X135600000Y-128200000D02*
X135600000Y-128600000D01*
X135600000Y-135800000D02*
X135600000Y-136200000D01*
X135600000Y-143500000D02*
X135600000Y-143900000D01*
X135600000Y-113000000D02*
X135600000Y-113400000D01*
X135600000Y-110400000D02*
X135600000Y-110800000D01*
X135600000Y-118100000D02*
X135600000Y-118500000D01*
X135600000Y-151100000D02*
X135600000Y-151500000D01*
X135600000Y-156200000D02*
X135600000Y-156600000D01*
X135600000Y-153600000D02*
X135600000Y-154000000D01*
X135600000Y-138400000D02*
X135600000Y-138800000D01*
X135600000Y-133300000D02*
X135600000Y-133700000D01*
X135600000Y-120600000D02*
X135600000Y-121000000D01*
X135600000Y-125700000D02*
X135600000Y-126100000D01*
X135600000Y-146000000D02*
X135600000Y-146400000D01*
X135600000Y-130800000D02*
X135600000Y-131200000D01*
X135600000Y-108000000D02*
X135600000Y-108300000D01*
X135600000Y-115500000D02*
X135600000Y-115900000D01*
X135600000Y-140900000D02*
X135600000Y-141300000D01*
X135600000Y-148600000D02*
X135600000Y-149000000D01*
X135600000Y-159000000D02*
X128800000Y-159000000D01*
X123600000Y-159000000D02*
X124000000Y-159000000D01*
X126200000Y-159000000D02*
X126600000Y-159000000D01*
X83820000Y-134730000D02*
X83820000Y-114290000D01*
X83820000Y-114290000D02*
X81160000Y-114290000D01*
X81160000Y-114290000D02*
X81160000Y-134730000D01*
X81160000Y-134730000D02*
X83820000Y-134730000D01*
X81160000Y-133780000D02*
X75160000Y-133780000D01*
X75160000Y-133780000D02*
X75160000Y-133020000D01*
X75160000Y-133020000D02*
X81160000Y-133020000D01*
X81160000Y-133720000D02*
X75160000Y-133720000D01*
X81160000Y-133600000D02*
X75160000Y-133600000D01*
X81160000Y-133480000D02*
X75160000Y-133480000D01*
X81160000Y-133360000D02*
X75160000Y-133360000D01*
X81160000Y-133240000D02*
X75160000Y-133240000D01*
X81160000Y-133120000D02*
X75160000Y-133120000D01*
X84217071Y-133780000D02*
X83820000Y-133780000D01*
X84217071Y-133020000D02*
X83820000Y-133020000D01*
X86690000Y-115220000D02*
X86302929Y-115220000D01*
X86690000Y-115980000D02*
X86302929Y-115980000D01*
X83820000Y-132130000D02*
X81160000Y-132130000D01*
X81160000Y-131240000D02*
X75160000Y-131240000D01*
X75160000Y-131240000D02*
X75160000Y-130480000D01*
X75160000Y-130480000D02*
X81160000Y-130480000D01*
X84217071Y-131240000D02*
X83820000Y-131240000D01*
X84217071Y-130480000D02*
X83820000Y-130480000D01*
X86757071Y-117760000D02*
X86302929Y-117760000D01*
X86757071Y-118520000D02*
X86302929Y-118520000D01*
X83820000Y-129590000D02*
X81160000Y-129590000D01*
X81160000Y-128700000D02*
X75160000Y-128700000D01*
X75160000Y-128700000D02*
X75160000Y-127940000D01*
X75160000Y-127940000D02*
X81160000Y-127940000D01*
X84217071Y-128700000D02*
X83820000Y-128700000D01*
X84217071Y-127940000D02*
X83820000Y-127940000D01*
X86757071Y-120300000D02*
X86302929Y-120300000D01*
X86757071Y-121060000D02*
X86302929Y-121060000D01*
X83820000Y-127050000D02*
X81160000Y-127050000D01*
X81160000Y-126160000D02*
X75160000Y-126160000D01*
X75160000Y-126160000D02*
X75160000Y-125400000D01*
X75160000Y-125400000D02*
X81160000Y-125400000D01*
X84217071Y-126160000D02*
X83820000Y-126160000D01*
X84217071Y-125400000D02*
X83820000Y-125400000D01*
X86757071Y-122840000D02*
X86302929Y-122840000D01*
X86757071Y-123600000D02*
X86302929Y-123600000D01*
X83820000Y-124510000D02*
X81160000Y-124510000D01*
X81160000Y-123620000D02*
X75160000Y-123620000D01*
X75160000Y-123620000D02*
X75160000Y-122860000D01*
X75160000Y-122860000D02*
X81160000Y-122860000D01*
X84217071Y-123620000D02*
X83820000Y-123620000D01*
X84217071Y-122860000D02*
X83820000Y-122860000D01*
X86757071Y-125380000D02*
X86302929Y-125380000D01*
X86757071Y-126140000D02*
X86302929Y-126140000D01*
X83820000Y-121970000D02*
X81160000Y-121970000D01*
X81160000Y-121080000D02*
X75160000Y-121080000D01*
X75160000Y-121080000D02*
X75160000Y-120320000D01*
X75160000Y-120320000D02*
X81160000Y-120320000D01*
X84217071Y-121080000D02*
X83820000Y-121080000D01*
X84217071Y-120320000D02*
X83820000Y-120320000D01*
X86757071Y-127920000D02*
X86302929Y-127920000D01*
X86757071Y-128680000D02*
X86302929Y-128680000D01*
X83820000Y-119430000D02*
X81160000Y-119430000D01*
X81160000Y-118540000D02*
X75160000Y-118540000D01*
X75160000Y-118540000D02*
X75160000Y-117780000D01*
X75160000Y-117780000D02*
X81160000Y-117780000D01*
X84217071Y-118540000D02*
X83820000Y-118540000D01*
X84217071Y-117780000D02*
X83820000Y-117780000D01*
X86757071Y-130460000D02*
X86302929Y-130460000D01*
X86757071Y-131220000D02*
X86302929Y-131220000D01*
X83820000Y-116890000D02*
X81160000Y-116890000D01*
X81160000Y-116000000D02*
X75160000Y-116000000D01*
X75160000Y-116000000D02*
X75160000Y-115240000D01*
X75160000Y-115240000D02*
X81160000Y-115240000D01*
X84217071Y-116000000D02*
X83820000Y-116000000D01*
X84217071Y-115240000D02*
X83820000Y-115240000D01*
X86757071Y-133000000D02*
X86302929Y-133000000D01*
X86757071Y-133760000D02*
X86302929Y-133760000D01*
X89070000Y-133400000D02*
X89070000Y-134670000D01*
X89070000Y-134670000D02*
X87800000Y-134670000D01*
D10*
X94800000Y-157000000D02*
X94800000Y-160000000D01*
X93900000Y-156550000D02*
X94200000Y-156550000D01*
X93900000Y-156250000D02*
X93900000Y-156550000D01*
X94200000Y-156250000D02*
X93900000Y-156250000D01*
X94200000Y-156550000D02*
X94200000Y-156250000D01*
X93800000Y-161550000D02*
X86600000Y-161550000D01*
X80800000Y-161550000D02*
X83800000Y-161550000D01*
X80800000Y-158850000D02*
X80800000Y-161550000D01*
X83800000Y-146850000D02*
X81500000Y-146850000D01*
X86600000Y-146850000D02*
X93800000Y-146850000D01*
X94800000Y-157000000D02*
X96100000Y-157000000D01*
X81100000Y-157800000D02*
X80800000Y-158850000D01*
X81300000Y-156700000D02*
X81100000Y-157800000D01*
X81450000Y-155550000D02*
X81300000Y-156700000D01*
X81500000Y-154200000D02*
X81450000Y-155550000D01*
X81500000Y-146850000D02*
X81500000Y-154200000D01*
D11*
X155800000Y-115410000D02*
X158250000Y-115410000D01*
X157600000Y-112190000D02*
X155800000Y-112190000D01*
X98240000Y-127125000D02*
X96550000Y-127125000D01*
X98240000Y-126890000D02*
X98240000Y-127125000D01*
X102100000Y-126890000D02*
X98240000Y-126890000D01*
X105960000Y-126890000D02*
X105960000Y-127125000D01*
X102100000Y-126890000D02*
X105960000Y-126890000D01*
X98240000Y-139910000D02*
X98240000Y-139675000D01*
X102100000Y-139910000D02*
X98240000Y-139910000D01*
X105960000Y-139910000D02*
X105960000Y-139675000D01*
X102100000Y-139910000D02*
X105960000Y-139910000D01*
X97940000Y-111025000D02*
X96250000Y-111025000D01*
X97940000Y-110790000D02*
X97940000Y-111025000D01*
X101800000Y-110790000D02*
X97940000Y-110790000D01*
X105660000Y-110790000D02*
X105660000Y-111025000D01*
X101800000Y-110790000D02*
X105660000Y-110790000D01*
X97940000Y-123810000D02*
X97940000Y-123575000D01*
X101800000Y-123810000D02*
X97940000Y-123810000D01*
X105660000Y-123810000D02*
X105660000Y-123575000D01*
X101800000Y-123810000D02*
X105660000Y-123810000D01*
X159740000Y-124820000D02*
X161200000Y-124820000D01*
X159740000Y-127980000D02*
X161900000Y-127980000D01*
X159740000Y-127980000D02*
X159740000Y-127050000D01*
X159740000Y-124820000D02*
X159740000Y-125750000D01*
X197190000Y-157530000D02*
X197190000Y-157430000D01*
X201590000Y-155730000D02*
X197190000Y-155730000D01*
X197190000Y-159230000D02*
X201590000Y-159230000D01*
X201590000Y-157530000D02*
X201590000Y-157430000D01*
X187665000Y-157530000D02*
X187665000Y-157430000D01*
X192065000Y-155730000D02*
X187665000Y-155730000D01*
X187665000Y-159230000D02*
X192065000Y-159230000D01*
X192065000Y-157530000D02*
X192065000Y-157430000D01*
X177632000Y-157530000D02*
X177632000Y-157430000D01*
X182032000Y-155730000D02*
X177632000Y-155730000D01*
X177632000Y-159230000D02*
X182032000Y-159230000D01*
X182032000Y-157530000D02*
X182032000Y-157430000D01*
X153227064Y-119565000D02*
X152772936Y-119565000D01*
X153227064Y-121035000D02*
X152772936Y-121035000D01*
X157114564Y-116865000D02*
X156660436Y-116865000D01*
X157114564Y-118335000D02*
X156660436Y-118335000D01*
X161035000Y-116727064D02*
X161035000Y-116272936D01*
X159565000Y-116727064D02*
X159565000Y-116272936D01*
X153127064Y-116865000D02*
X152672936Y-116865000D01*
X153127064Y-118335000D02*
X152672936Y-118335000D01*
X157027064Y-119565000D02*
X156572936Y-119565000D01*
X157027064Y-121035000D02*
X156572936Y-121035000D01*
X155760436Y-127035000D02*
X156214564Y-127035000D01*
X155760436Y-125565000D02*
X156214564Y-125565000D01*
X153660436Y-132335000D02*
X154114564Y-132335000D01*
X153660436Y-130865000D02*
X154114564Y-130865000D01*
X165435000Y-126727064D02*
X165435000Y-126272936D01*
X163965000Y-126727064D02*
X163965000Y-126272936D01*
X199925000Y-149990436D02*
X199925000Y-150444564D01*
X201395000Y-149990436D02*
X201395000Y-150444564D01*
X191065000Y-149355436D02*
X191065000Y-149809564D01*
X192535000Y-149355436D02*
X192535000Y-149809564D01*
X181510000Y-149355436D02*
X181510000Y-149809564D01*
X182980000Y-149355436D02*
X182980000Y-149809564D01*
X192893836Y-121306000D02*
X192678164Y-121306000D01*
X192893836Y-122026000D02*
X192678164Y-122026000D01*
X192893836Y-122830000D02*
X192678164Y-122830000D01*
X192893836Y-123550000D02*
X192678164Y-123550000D01*
X149520000Y-127960000D02*
X149520000Y-126500000D01*
X152680000Y-127960000D02*
X152680000Y-125800000D01*
X152680000Y-127960000D02*
X151750000Y-127960000D01*
X149520000Y-127960000D02*
X150450000Y-127960000D01*
X150572500Y-112410000D02*
X151572500Y-112410000D01*
X150572500Y-107390000D02*
X151572500Y-107390000D01*
X165450000Y-109100000D02*
X167750000Y-109100000D01*
X167750000Y-109100000D02*
X167750000Y-110300000D01*
X167750000Y-110300000D02*
X165450000Y-110300000D01*
X165450000Y-110300000D02*
X165450000Y-109100000D01*
X141700000Y-107800000D02*
X144000000Y-107800000D01*
X144000000Y-107800000D02*
X144000000Y-109000000D01*
X144000000Y-109000000D02*
X141700000Y-109000000D01*
X141700000Y-109000000D02*
X141700000Y-107800000D01*
X100470000Y-161930000D02*
X100470000Y-160600000D01*
X101800000Y-161930000D02*
X100470000Y-161930000D01*
X103070000Y-161930000D02*
X103070000Y-159270000D01*
X103070000Y-159270000D02*
X108210000Y-159270000D01*
X103070000Y-161930000D02*
X108210000Y-161930000D01*
X108210000Y-161930000D02*
X108210000Y-159270000D01*
X159550000Y-110800000D02*
X155650000Y-110800000D01*
X159550000Y-108800000D02*
X155650000Y-108800000D01*
X159550000Y-110800000D02*
X159550000Y-108800000D01*
X148861252Y-119965000D02*
X148338748Y-119965000D01*
X148861252Y-121435000D02*
X148338748Y-121435000D01*
X168011252Y-112140000D02*
X166588748Y-112140000D01*
X168011252Y-114860000D02*
X166588748Y-114860000D01*
X161240000Y-110688748D02*
X161240000Y-112111252D01*
X163960000Y-110688748D02*
X163960000Y-112111252D01*
X147140000Y-115188748D02*
X147140000Y-116611252D01*
X149860000Y-115188748D02*
X149860000Y-116611252D01*
D10*
X180340095Y-112482380D02*
X180340095Y-113291904D01*
X180387714Y-113387142D01*
X180435333Y-113434761D01*
X180530571Y-113482380D01*
X180721047Y-113482380D01*
X180816285Y-113434761D01*
X180863904Y-113387142D01*
X180911523Y-113291904D01*
X180911523Y-112482380D01*
X181816285Y-112815714D02*
X181816285Y-113482380D01*
X181578190Y-112434761D02*
X181340095Y-113149047D01*
X181959142Y-113149047D01*
X185856666Y-111444380D02*
X185856666Y-112158666D01*
X185809047Y-112301523D01*
X185713809Y-112396761D01*
X185570952Y-112444380D01*
X185475714Y-112444380D01*
X186332857Y-112444380D02*
X186332857Y-111444380D01*
X186713809Y-111444380D01*
X186809047Y-111492000D01*
X186856666Y-111539619D01*
X186904285Y-111634857D01*
X186904285Y-111777714D01*
X186856666Y-111872952D01*
X186809047Y-111920571D01*
X186713809Y-111968190D01*
X186332857Y-111968190D01*
X187761428Y-111444380D02*
X187570952Y-111444380D01*
X187475714Y-111492000D01*
X187428095Y-111539619D01*
X187332857Y-111682476D01*
X187285238Y-111872952D01*
X187285238Y-112253904D01*
X187332857Y-112349142D01*
X187380476Y-112396761D01*
X187475714Y-112444380D01*
X187666190Y-112444380D01*
X187761428Y-112396761D01*
X187809047Y-112349142D01*
X187856666Y-112253904D01*
X187856666Y-112015809D01*
X187809047Y-111920571D01*
X187761428Y-111872952D01*
X187666190Y-111825333D01*
X187475714Y-111825333D01*
X187380476Y-111872952D01*
X187332857Y-111920571D01*
X187285238Y-112015809D01*
X140644666Y-116800380D02*
X140644666Y-117514666D01*
X140597047Y-117657523D01*
X140501809Y-117752761D01*
X140358952Y-117800380D01*
X140263714Y-117800380D01*
X141120857Y-117800380D02*
X141120857Y-116800380D01*
X141501809Y-116800380D01*
X141597047Y-116848000D01*
X141644666Y-116895619D01*
X141692285Y-116990857D01*
X141692285Y-117133714D01*
X141644666Y-117228952D01*
X141597047Y-117276571D01*
X141501809Y-117324190D01*
X141120857Y-117324190D01*
X142597047Y-116800380D02*
X142120857Y-116800380D01*
X142073238Y-117276571D01*
X142120857Y-117228952D01*
X142216095Y-117181333D01*
X142454190Y-117181333D01*
X142549428Y-117228952D01*
X142597047Y-117276571D01*
X142644666Y-117371809D01*
X142644666Y-117609904D01*
X142597047Y-117705142D01*
X142549428Y-117752761D01*
X142454190Y-117800380D01*
X142216095Y-117800380D01*
X142120857Y-117752761D01*
X142073238Y-117705142D01*
X185253333Y-103227142D02*
X185205714Y-103274761D01*
X185062857Y-103322380D01*
X184967619Y-103322380D01*
X184824761Y-103274761D01*
X184729523Y-103179523D01*
X184681904Y-103084285D01*
X184634285Y-102893809D01*
X184634285Y-102750952D01*
X184681904Y-102560476D01*
X184729523Y-102465238D01*
X184824761Y-102370000D01*
X184967619Y-102322380D01*
X185062857Y-102322380D01*
X185205714Y-102370000D01*
X185253333Y-102417619D01*
X185634285Y-102417619D02*
X185681904Y-102370000D01*
X185777142Y-102322380D01*
X186015238Y-102322380D01*
X186110476Y-102370000D01*
X186158095Y-102417619D01*
X186205714Y-102512857D01*
X186205714Y-102608095D01*
X186158095Y-102750952D01*
X185586666Y-103322380D01*
X186205714Y-103322380D01*
X174093142Y-105068666D02*
X174140761Y-105116285D01*
X174188380Y-105259142D01*
X174188380Y-105354380D01*
X174140761Y-105497238D01*
X174045523Y-105592476D01*
X173950285Y-105640095D01*
X173759809Y-105687714D01*
X173616952Y-105687714D01*
X173426476Y-105640095D01*
X173331238Y-105592476D01*
X173236000Y-105497238D01*
X173188380Y-105354380D01*
X173188380Y-105259142D01*
X173236000Y-105116285D01*
X173283619Y-105068666D01*
X174188380Y-104116285D02*
X174188380Y-104687714D01*
X174188380Y-104402000D02*
X173188380Y-104402000D01*
X173331238Y-104497238D01*
X173426476Y-104592476D01*
X173474095Y-104687714D01*
X176966666Y-121880380D02*
X176966666Y-122594666D01*
X176919047Y-122737523D01*
X176823809Y-122832761D01*
X176680952Y-122880380D01*
X176585714Y-122880380D01*
X177442857Y-122880380D02*
X177442857Y-121880380D01*
X177823809Y-121880380D01*
X177919047Y-121928000D01*
X177966666Y-121975619D01*
X178014285Y-122070857D01*
X178014285Y-122213714D01*
X177966666Y-122308952D01*
X177919047Y-122356571D01*
X177823809Y-122404190D01*
X177442857Y-122404190D01*
X178871428Y-122213714D02*
X178871428Y-122880380D01*
X178633333Y-121832761D02*
X178395238Y-122547047D01*
X179014285Y-122547047D01*
X176712666Y-118324380D02*
X176712666Y-119038666D01*
X176665047Y-119181523D01*
X176569809Y-119276761D01*
X176426952Y-119324380D01*
X176331714Y-119324380D01*
X177188857Y-119324380D02*
X177188857Y-118324380D01*
X177569809Y-118324380D01*
X177665047Y-118372000D01*
X177712666Y-118419619D01*
X177760285Y-118514857D01*
X177760285Y-118657714D01*
X177712666Y-118752952D01*
X177665047Y-118800571D01*
X177569809Y-118848190D01*
X177188857Y-118848190D01*
X178093619Y-118324380D02*
X178712666Y-118324380D01*
X178379333Y-118705333D01*
X178522190Y-118705333D01*
X178617428Y-118752952D01*
X178665047Y-118800571D01*
X178712666Y-118895809D01*
X178712666Y-119133904D01*
X178665047Y-119229142D01*
X178617428Y-119276761D01*
X178522190Y-119324380D01*
X178236476Y-119324380D01*
X178141238Y-119276761D01*
X178093619Y-119229142D01*
X189666666Y-121880380D02*
X189666666Y-122594666D01*
X189619047Y-122737523D01*
X189523809Y-122832761D01*
X189380952Y-122880380D01*
X189285714Y-122880380D01*
X190142857Y-122880380D02*
X190142857Y-121880380D01*
X190523809Y-121880380D01*
X190619047Y-121928000D01*
X190666666Y-121975619D01*
X190714285Y-122070857D01*
X190714285Y-122213714D01*
X190666666Y-122308952D01*
X190619047Y-122356571D01*
X190523809Y-122404190D01*
X190142857Y-122404190D01*
X191095238Y-121975619D02*
X191142857Y-121928000D01*
X191238095Y-121880380D01*
X191476190Y-121880380D01*
X191571428Y-121928000D01*
X191619047Y-121975619D01*
X191666666Y-122070857D01*
X191666666Y-122166095D01*
X191619047Y-122308952D01*
X191047619Y-122880380D01*
X191666666Y-122880380D01*
X189920666Y-118324380D02*
X189920666Y-119038666D01*
X189873047Y-119181523D01*
X189777809Y-119276761D01*
X189634952Y-119324380D01*
X189539714Y-119324380D01*
X190396857Y-119324380D02*
X190396857Y-118324380D01*
X190777809Y-118324380D01*
X190873047Y-118372000D01*
X190920666Y-118419619D01*
X190968285Y-118514857D01*
X190968285Y-118657714D01*
X190920666Y-118752952D01*
X190873047Y-118800571D01*
X190777809Y-118848190D01*
X190396857Y-118848190D01*
X191920666Y-119324380D02*
X191349238Y-119324380D01*
X191634952Y-119324380D02*
X191634952Y-118324380D01*
X191539714Y-118467238D01*
X191444476Y-118562476D01*
X191349238Y-118610095D01*
X192028380Y-128095333D02*
X192742666Y-128095333D01*
X192885523Y-128142952D01*
X192980761Y-128238190D01*
X193028380Y-128381047D01*
X193028380Y-128476285D01*
X193028380Y-127095333D02*
X193028380Y-127666761D01*
X193028380Y-127381047D02*
X192028380Y-127381047D01*
X192171238Y-127476285D01*
X192266476Y-127571523D01*
X192314095Y-127666761D01*
X124338095Y-132952380D02*
X124338095Y-133761904D01*
X124385714Y-133857142D01*
X124433333Y-133904761D01*
X124528571Y-133952380D01*
X124719047Y-133952380D01*
X124814285Y-133904761D01*
X124861904Y-133857142D01*
X124909523Y-133761904D01*
X124909523Y-132952380D01*
X125909523Y-133952380D02*
X125338095Y-133952380D01*
X125623809Y-133952380D02*
X125623809Y-132952380D01*
X125528571Y-133095238D01*
X125433333Y-133190476D01*
X125338095Y-133238095D01*
X107257809Y-158413238D02*
X107295904Y-158298952D01*
X107295904Y-158108476D01*
X107257809Y-158032285D01*
X107219714Y-157994190D01*
X107143523Y-157956095D01*
X107067333Y-157956095D01*
X106991142Y-157994190D01*
X106953047Y-158032285D01*
X106914952Y-158108476D01*
X106876857Y-158260857D01*
X106838761Y-158337047D01*
X106800666Y-158375142D01*
X106724476Y-158413238D01*
X106648285Y-158413238D01*
X106572095Y-158375142D01*
X106534000Y-158337047D01*
X106495904Y-158260857D01*
X106495904Y-158070380D01*
X106534000Y-157956095D01*
X106495904Y-157689428D02*
X107295904Y-157498952D01*
X106724476Y-157346571D01*
X107295904Y-157194190D01*
X106495904Y-157003714D01*
X107295904Y-156698952D02*
X106495904Y-156698952D01*
X106495904Y-156508476D01*
X106534000Y-156394190D01*
X106610190Y-156318000D01*
X106686380Y-156279904D01*
X106838761Y-156241809D01*
X106953047Y-156241809D01*
X107105428Y-156279904D01*
X107181619Y-156318000D01*
X107257809Y-156394190D01*
X107295904Y-156508476D01*
X107295904Y-156698952D01*
X107295904Y-155898952D02*
X106495904Y-155898952D01*
X106495904Y-155365619D02*
X106495904Y-155213238D01*
X106534000Y-155137047D01*
X106610190Y-155060857D01*
X106762571Y-155022761D01*
X107029238Y-155022761D01*
X107181619Y-155060857D01*
X107257809Y-155137047D01*
X107295904Y-155213238D01*
X107295904Y-155365619D01*
X107257809Y-155441809D01*
X107181619Y-155518000D01*
X107029238Y-155556095D01*
X106762571Y-155556095D01*
X106610190Y-155518000D01*
X106534000Y-155441809D01*
X106495904Y-155365619D01*
X102177809Y-158273523D02*
X102215904Y-158159238D01*
X102215904Y-157968761D01*
X102177809Y-157892571D01*
X102139714Y-157854476D01*
X102063523Y-157816380D01*
X101987333Y-157816380D01*
X101911142Y-157854476D01*
X101873047Y-157892571D01*
X101834952Y-157968761D01*
X101796857Y-158121142D01*
X101758761Y-158197333D01*
X101720666Y-158235428D01*
X101644476Y-158273523D01*
X101568285Y-158273523D01*
X101492095Y-158235428D01*
X101454000Y-158197333D01*
X101415904Y-158121142D01*
X101415904Y-157930666D01*
X101454000Y-157816380D01*
X101415904Y-157549714D02*
X102215904Y-157359238D01*
X101644476Y-157206857D01*
X102215904Y-157054476D01*
X101415904Y-156864000D01*
X102139714Y-156102095D02*
X102177809Y-156140190D01*
X102215904Y-156254476D01*
X102215904Y-156330666D01*
X102177809Y-156444952D01*
X102101619Y-156521142D01*
X102025428Y-156559238D01*
X101873047Y-156597333D01*
X101758761Y-156597333D01*
X101606380Y-156559238D01*
X101530190Y-156521142D01*
X101454000Y-156444952D01*
X101415904Y-156330666D01*
X101415904Y-156254476D01*
X101454000Y-156140190D01*
X101492095Y-156102095D01*
X102215904Y-155378285D02*
X102215904Y-155759238D01*
X101415904Y-155759238D01*
X102215904Y-155111619D02*
X101415904Y-155111619D01*
X102215904Y-154654476D02*
X101758761Y-154997333D01*
X101415904Y-154654476D02*
X101873047Y-155111619D01*
X137251597Y-128240964D02*
X137520971Y-127971590D01*
X137359346Y-128456463D02*
X136982223Y-127702216D01*
X137736470Y-128079340D01*
X137682595Y-127055719D02*
X137601783Y-127082656D01*
X137520971Y-127163468D01*
X137467096Y-127271218D01*
X137467096Y-127378967D01*
X137494033Y-127459780D01*
X137574845Y-127594467D01*
X137655658Y-127675279D01*
X137790345Y-127756091D01*
X137871157Y-127783028D01*
X137978906Y-127783028D01*
X138086656Y-127729154D01*
X138140531Y-127675279D01*
X138194406Y-127567529D01*
X138194406Y-127513654D01*
X138005844Y-127325093D01*
X137898094Y-127432842D01*
X138490717Y-127325093D02*
X137925032Y-126759407D01*
X138813966Y-127001844D01*
X138248280Y-126436158D01*
X139083340Y-126732470D02*
X138517654Y-126166784D01*
X138652341Y-126032097D01*
X138760091Y-125978223D01*
X138867841Y-125978223D01*
X138948653Y-126005160D01*
X139083340Y-126085972D01*
X139164152Y-126166784D01*
X139244964Y-126301471D01*
X139271902Y-126382284D01*
X139271902Y-126490033D01*
X139218027Y-126597783D01*
X139083340Y-126732470D01*
X137186158Y-114598155D02*
X137105346Y-114625093D01*
X137024534Y-114705905D01*
X136970659Y-114813654D01*
X136970659Y-114921404D01*
X136997597Y-115002216D01*
X137078409Y-115136903D01*
X137159221Y-115217715D01*
X137293908Y-115298528D01*
X137374720Y-115325465D01*
X137482470Y-115325465D01*
X137590219Y-115271590D01*
X137644094Y-115217715D01*
X137697969Y-115109966D01*
X137697969Y-115056091D01*
X137509407Y-114867529D01*
X137401658Y-114975279D01*
X137994280Y-114867529D02*
X137428595Y-114301844D01*
X138317529Y-114544280D01*
X137751844Y-113978595D01*
X138586903Y-114274906D02*
X138021218Y-113709221D01*
X138155905Y-113574534D01*
X138263654Y-113520659D01*
X138371404Y-113520659D01*
X138452216Y-113547597D01*
X138586903Y-113628409D01*
X138667715Y-113709221D01*
X138748528Y-113843908D01*
X138775465Y-113924720D01*
X138775465Y-114032470D01*
X138721590Y-114140219D01*
X138586903Y-114274906D01*
X137186158Y-139998155D02*
X137105346Y-140025093D01*
X137024534Y-140105905D01*
X136970659Y-140213654D01*
X136970659Y-140321404D01*
X136997597Y-140402216D01*
X137078409Y-140536903D01*
X137159221Y-140617715D01*
X137293908Y-140698528D01*
X137374720Y-140725465D01*
X137482470Y-140725465D01*
X137590219Y-140671590D01*
X137644094Y-140617715D01*
X137697969Y-140509966D01*
X137697969Y-140456091D01*
X137509407Y-140267529D01*
X137401658Y-140375279D01*
X137994280Y-140267529D02*
X137428595Y-139701844D01*
X138317529Y-139944280D01*
X137751844Y-139378595D01*
X138586903Y-139674906D02*
X138021218Y-139109221D01*
X138155905Y-138974534D01*
X138263654Y-138920659D01*
X138371404Y-138920659D01*
X138452216Y-138947597D01*
X138586903Y-139028409D01*
X138667715Y-139109221D01*
X138748528Y-139243908D01*
X138775465Y-139324720D01*
X138775465Y-139432470D01*
X138721590Y-139540219D01*
X138586903Y-139674906D01*
X137186158Y-152698155D02*
X137105346Y-152725093D01*
X137024534Y-152805905D01*
X136970659Y-152913654D01*
X136970659Y-153021404D01*
X136997597Y-153102216D01*
X137078409Y-153236903D01*
X137159221Y-153317715D01*
X137293908Y-153398528D01*
X137374720Y-153425465D01*
X137482470Y-153425465D01*
X137590219Y-153371590D01*
X137644094Y-153317715D01*
X137697969Y-153209966D01*
X137697969Y-153156091D01*
X137509407Y-152967529D01*
X137401658Y-153075279D01*
X137994280Y-152967529D02*
X137428595Y-152401844D01*
X138317529Y-152644280D01*
X137751844Y-152078595D01*
X138586903Y-152374906D02*
X138021218Y-151809221D01*
X138155905Y-151674534D01*
X138263654Y-151620659D01*
X138371404Y-151620659D01*
X138452216Y-151647597D01*
X138586903Y-151728409D01*
X138667715Y-151809221D01*
X138748528Y-151943908D01*
X138775465Y-152024720D01*
X138775465Y-152132470D01*
X138721590Y-152240219D01*
X138586903Y-152374906D01*
X111586158Y-152698155D02*
X111505346Y-152725093D01*
X111424534Y-152805905D01*
X111370659Y-152913654D01*
X111370659Y-153021404D01*
X111397597Y-153102216D01*
X111478409Y-153236903D01*
X111559221Y-153317715D01*
X111693908Y-153398528D01*
X111774720Y-153425465D01*
X111882470Y-153425465D01*
X111990219Y-153371590D01*
X112044094Y-153317715D01*
X112097969Y-153209966D01*
X112097969Y-153156091D01*
X111909407Y-152967529D01*
X111801658Y-153075279D01*
X112394280Y-152967529D02*
X111828595Y-152401844D01*
X112717529Y-152644280D01*
X112151844Y-152078595D01*
X112986903Y-152374906D02*
X112421218Y-151809221D01*
X112555905Y-151674534D01*
X112663654Y-151620659D01*
X112771404Y-151620659D01*
X112852216Y-151647597D01*
X112986903Y-151728409D01*
X113067715Y-151809221D01*
X113148528Y-151943908D01*
X113175465Y-152024720D01*
X113175465Y-152132470D01*
X113121590Y-152240219D01*
X112986903Y-152374906D01*
X111586158Y-139998155D02*
X111505346Y-140025093D01*
X111424534Y-140105905D01*
X111370659Y-140213654D01*
X111370659Y-140321404D01*
X111397597Y-140402216D01*
X111478409Y-140536903D01*
X111559221Y-140617715D01*
X111693908Y-140698528D01*
X111774720Y-140725465D01*
X111882470Y-140725465D01*
X111990219Y-140671590D01*
X112044094Y-140617715D01*
X112097969Y-140509966D01*
X112097969Y-140456091D01*
X111909407Y-140267529D01*
X111801658Y-140375279D01*
X112394280Y-140267529D02*
X111828595Y-139701844D01*
X112717529Y-139944280D01*
X112151844Y-139378595D01*
X112986903Y-139674906D02*
X112421218Y-139109221D01*
X112555905Y-138974534D01*
X112663654Y-138920659D01*
X112771404Y-138920659D01*
X112852216Y-138947597D01*
X112986903Y-139028409D01*
X113067715Y-139109221D01*
X113148528Y-139243908D01*
X113175465Y-139324720D01*
X113175465Y-139432470D01*
X113121590Y-139540219D01*
X112986903Y-139674906D01*
X111586158Y-127298155D02*
X111505346Y-127325093D01*
X111424534Y-127405905D01*
X111370659Y-127513654D01*
X111370659Y-127621404D01*
X111397597Y-127702216D01*
X111478409Y-127836903D01*
X111559221Y-127917715D01*
X111693908Y-127998528D01*
X111774720Y-128025465D01*
X111882470Y-128025465D01*
X111990219Y-127971590D01*
X112044094Y-127917715D01*
X112097969Y-127809966D01*
X112097969Y-127756091D01*
X111909407Y-127567529D01*
X111801658Y-127675279D01*
X112394280Y-127567529D02*
X111828595Y-127001844D01*
X112717529Y-127244280D01*
X112151844Y-126678595D01*
X112986903Y-126974906D02*
X112421218Y-126409221D01*
X112555905Y-126274534D01*
X112663654Y-126220659D01*
X112771404Y-126220659D01*
X112852216Y-126247597D01*
X112986903Y-126328409D01*
X113067715Y-126409221D01*
X113148528Y-126543908D01*
X113175465Y-126624720D01*
X113175465Y-126732470D01*
X113121590Y-126840219D01*
X112986903Y-126974906D01*
X111586158Y-114598155D02*
X111505346Y-114625093D01*
X111424534Y-114705905D01*
X111370659Y-114813654D01*
X111370659Y-114921404D01*
X111397597Y-115002216D01*
X111478409Y-115136903D01*
X111559221Y-115217715D01*
X111693908Y-115298528D01*
X111774720Y-115325465D01*
X111882470Y-115325465D01*
X111990219Y-115271590D01*
X112044094Y-115217715D01*
X112097969Y-115109966D01*
X112097969Y-115056091D01*
X111909407Y-114867529D01*
X111801658Y-114975279D01*
X112394280Y-114867529D02*
X111828595Y-114301844D01*
X112717529Y-114544280D01*
X112151844Y-113978595D01*
X112986903Y-114274906D02*
X112421218Y-113709221D01*
X112555905Y-113574534D01*
X112663654Y-113520659D01*
X112771404Y-113520659D01*
X112852216Y-113547597D01*
X112986903Y-113628409D01*
X113067715Y-113709221D01*
X113148528Y-113843908D01*
X113175465Y-113924720D01*
X113175465Y-114032470D01*
X113121590Y-114140219D01*
X112986903Y-114274906D01*
X137053129Y-110027309D02*
X137807377Y-110404433D01*
X137430253Y-109650186D01*
X138076751Y-109542436D02*
X138184500Y-109488561D01*
X138238375Y-109488561D01*
X138319187Y-109515499D01*
X138400000Y-109596311D01*
X138426937Y-109677123D01*
X138426937Y-109730998D01*
X138400000Y-109811810D01*
X138184500Y-110027309D01*
X137618815Y-109461624D01*
X137807377Y-109273062D01*
X137888189Y-109246125D01*
X137942064Y-109246125D01*
X138022876Y-109273062D01*
X138076751Y-109326937D01*
X138103688Y-109407749D01*
X138103688Y-109461624D01*
X138076751Y-109542436D01*
X137888189Y-109730998D01*
X138184500Y-108895938D02*
X138642436Y-109353874D01*
X138723248Y-109380812D01*
X138777123Y-109380812D01*
X138857935Y-109353874D01*
X138965685Y-109246125D01*
X138992622Y-109165312D01*
X138992622Y-109111438D01*
X138965685Y-109030625D01*
X138507749Y-108572690D01*
X139288934Y-108869001D02*
X139396683Y-108815126D01*
X139531370Y-108680439D01*
X139558308Y-108599627D01*
X139558308Y-108545752D01*
X139531370Y-108464940D01*
X139477496Y-108411065D01*
X139396683Y-108384128D01*
X139342809Y-108384128D01*
X139261996Y-108411065D01*
X139127309Y-108491877D01*
X139046497Y-108518815D01*
X138992622Y-108518815D01*
X138911810Y-108491877D01*
X138857935Y-108438003D01*
X138830998Y-108357190D01*
X138830998Y-108303316D01*
X138857935Y-108222503D01*
X138992622Y-108087816D01*
X139100372Y-108033942D01*
X137020473Y-112569966D02*
X137774720Y-112947089D01*
X137397597Y-112192842D01*
X138097969Y-112569966D02*
X138205719Y-112516091D01*
X138340406Y-112381404D01*
X138367343Y-112300592D01*
X138367343Y-112246717D01*
X138340406Y-112165905D01*
X138286531Y-112112030D01*
X138205719Y-112085093D01*
X138151844Y-112085093D01*
X138071032Y-112112030D01*
X137936345Y-112192842D01*
X137855532Y-112219780D01*
X137801658Y-112219780D01*
X137720845Y-112192842D01*
X137666971Y-112138967D01*
X137640033Y-112058155D01*
X137640033Y-112004280D01*
X137666971Y-111923468D01*
X137801658Y-111788781D01*
X137909407Y-111734906D01*
X138528967Y-111654094D02*
X138798341Y-111923468D01*
X138044094Y-111546345D02*
X138528967Y-111654094D01*
X138421218Y-111169221D01*
X139121590Y-111546345D02*
X139229340Y-111492470D01*
X139364027Y-111357783D01*
X139390964Y-111276971D01*
X139390964Y-111223096D01*
X139364027Y-111142284D01*
X139310152Y-111088409D01*
X139229340Y-111061471D01*
X139175465Y-111061471D01*
X139094653Y-111088409D01*
X138959966Y-111169221D01*
X138879154Y-111196158D01*
X138825279Y-111196158D01*
X138744467Y-111169221D01*
X138690592Y-111115346D01*
X138663654Y-111034534D01*
X138663654Y-110980659D01*
X138690592Y-110899847D01*
X138825279Y-110765160D01*
X138933028Y-110711285D01*
X137022131Y-117458308D02*
X137372317Y-117108122D01*
X137399255Y-117512183D01*
X137480067Y-117431370D01*
X137560879Y-117404433D01*
X137614754Y-117404433D01*
X137695566Y-117431370D01*
X137830253Y-117566057D01*
X137857190Y-117646870D01*
X137857190Y-117700744D01*
X137830253Y-117781557D01*
X137668629Y-117943181D01*
X137587816Y-117970118D01*
X137533942Y-117970118D01*
X137533942Y-116946497D02*
X138288189Y-117323621D01*
X137911065Y-116569374D01*
X138045752Y-116434687D02*
X138395938Y-116084500D01*
X138422876Y-116488561D01*
X138503688Y-116407749D01*
X138584500Y-116380812D01*
X138638375Y-116380812D01*
X138719187Y-116407749D01*
X138853874Y-116542436D01*
X138880812Y-116623248D01*
X138880812Y-116677123D01*
X138853874Y-116757935D01*
X138692250Y-116919560D01*
X138611438Y-116946497D01*
X138557563Y-116946497D01*
X139123248Y-116596311D02*
X139554247Y-116165312D01*
X139338748Y-115680439D02*
X139527309Y-115491877D01*
X139904433Y-115707377D02*
X139635059Y-115976751D01*
X139069374Y-115411065D01*
X139338748Y-115141691D01*
X140146870Y-115464940D02*
X139581184Y-114899255D01*
X140470118Y-115141691D01*
X139904433Y-114576006D01*
X128783847Y-120024592D02*
X129134033Y-119674406D01*
X129160971Y-120078467D01*
X129241783Y-119997654D01*
X129322595Y-119970717D01*
X129376470Y-119970717D01*
X129457282Y-119997654D01*
X129591969Y-120132341D01*
X129618906Y-120213154D01*
X129618906Y-120267028D01*
X129591969Y-120347841D01*
X129430345Y-120509465D01*
X129349532Y-120536402D01*
X129295658Y-120536402D01*
X129295658Y-119512781D02*
X130049905Y-119889905D01*
X129672781Y-119135658D01*
X129807468Y-119000971D02*
X130157654Y-118650784D01*
X130184592Y-119054845D01*
X130265404Y-118974033D01*
X130346216Y-118947096D01*
X130400091Y-118947096D01*
X130480903Y-118974033D01*
X130615590Y-119108720D01*
X130642528Y-119189532D01*
X130642528Y-119243407D01*
X130615590Y-119324219D01*
X130453966Y-119485844D01*
X130373154Y-119512781D01*
X130319279Y-119512781D01*
X128456788Y-123953773D02*
X128726162Y-123684399D01*
X128564537Y-124169272D02*
X128187414Y-123415025D01*
X128941661Y-123792149D01*
X129130223Y-123603587D02*
X128564537Y-123037902D01*
X128699224Y-122903215D01*
X128806974Y-122849340D01*
X128914723Y-122849340D01*
X128995536Y-122876277D01*
X129130223Y-122957089D01*
X129211035Y-123037902D01*
X129291847Y-123172589D01*
X129318784Y-123253401D01*
X129318784Y-123361150D01*
X129264910Y-123468900D01*
X129130223Y-123603587D01*
X129965282Y-122660778D02*
X129965282Y-122714653D01*
X129911407Y-122822402D01*
X129857532Y-122876277D01*
X129749783Y-122930152D01*
X129642033Y-122930152D01*
X129561221Y-122903215D01*
X129426534Y-122822402D01*
X129345722Y-122741590D01*
X129264910Y-122606903D01*
X129237972Y-122526091D01*
X129237972Y-122418341D01*
X129291847Y-122310592D01*
X129345722Y-122256717D01*
X129453471Y-122202842D01*
X129507346Y-122202842D01*
X130180781Y-122660778D02*
X130611780Y-122229780D01*
X130046094Y-121556345D02*
X130800341Y-121933468D01*
X130423218Y-121179221D01*
X131500714Y-121233096D02*
X131042778Y-121152284D01*
X131177465Y-121556345D02*
X130611780Y-120990659D01*
X130827279Y-120775160D01*
X130908091Y-120748223D01*
X130961966Y-120748223D01*
X131042778Y-120775160D01*
X131123590Y-120855972D01*
X131150528Y-120936784D01*
X131150528Y-120990659D01*
X131123590Y-121071471D01*
X130908091Y-121286971D01*
X131446839Y-120694348D02*
X131635401Y-120505786D01*
X132012524Y-120721285D02*
X131743150Y-120990659D01*
X131177465Y-120424974D01*
X131446839Y-120155600D01*
X132147211Y-119993975D02*
X131958650Y-120182537D01*
X132254961Y-120478849D02*
X131689276Y-119913163D01*
X131958650Y-119643789D01*
X137197722Y-124746592D02*
X137116910Y-124773529D01*
X137036097Y-124854341D01*
X136982223Y-124962091D01*
X136982223Y-125069841D01*
X137009160Y-125150653D01*
X137089972Y-125285340D01*
X137170784Y-125366152D01*
X137305471Y-125446964D01*
X137386284Y-125473902D01*
X137494033Y-125473902D01*
X137601783Y-125420027D01*
X137655658Y-125366152D01*
X137709532Y-125258402D01*
X137709532Y-125204528D01*
X137520971Y-125015966D01*
X137413221Y-125123715D01*
X138005844Y-125015966D02*
X137440158Y-124450280D01*
X137655658Y-124234781D01*
X137736470Y-124207844D01*
X137790345Y-124207844D01*
X137871157Y-124234781D01*
X137951969Y-124315593D01*
X137978906Y-124396406D01*
X137978906Y-124450280D01*
X137951969Y-124531093D01*
X137736470Y-124746592D01*
X138032781Y-123965407D02*
X138032781Y-123911532D01*
X138059719Y-123830720D01*
X138194406Y-123696033D01*
X138275218Y-123669096D01*
X138329093Y-123669096D01*
X138409905Y-123696033D01*
X138463780Y-123749908D01*
X138517654Y-123857658D01*
X138517654Y-124504155D01*
X138867841Y-124153969D01*
X138867841Y-123507471D02*
X138787028Y-123534409D01*
X138733154Y-123534409D01*
X138652341Y-123507471D01*
X138625404Y-123480534D01*
X138598467Y-123399722D01*
X138598467Y-123345847D01*
X138625404Y-123265035D01*
X138733154Y-123157285D01*
X138813966Y-123130348D01*
X138867841Y-123130348D01*
X138948653Y-123157285D01*
X138975590Y-123184223D01*
X139002528Y-123265035D01*
X139002528Y-123318910D01*
X138975590Y-123399722D01*
X138867841Y-123507471D01*
X138840903Y-123588284D01*
X138840903Y-123642158D01*
X138867841Y-123722971D01*
X138975590Y-123830720D01*
X139056402Y-123857658D01*
X139110277Y-123857658D01*
X139191089Y-123830720D01*
X139298839Y-123722971D01*
X139325776Y-123642158D01*
X139325776Y-123588284D01*
X139298839Y-123507471D01*
X139191089Y-123399722D01*
X139110277Y-123372784D01*
X139056402Y-123372784D01*
X138975590Y-123399722D01*
X137197722Y-130090592D02*
X137116910Y-130117529D01*
X137036097Y-130198341D01*
X136982223Y-130306091D01*
X136982223Y-130413841D01*
X137009160Y-130494653D01*
X137089972Y-130629340D01*
X137170784Y-130710152D01*
X137305471Y-130790964D01*
X137386284Y-130817902D01*
X137494033Y-130817902D01*
X137601783Y-130764027D01*
X137655658Y-130710152D01*
X137709532Y-130602402D01*
X137709532Y-130548528D01*
X137520971Y-130359966D01*
X137413221Y-130467715D01*
X138005844Y-130359966D02*
X137440158Y-129794280D01*
X137655658Y-129578781D01*
X137736470Y-129551844D01*
X137790345Y-129551844D01*
X137871157Y-129578781D01*
X137951969Y-129659593D01*
X137978906Y-129740406D01*
X137978906Y-129794280D01*
X137951969Y-129875093D01*
X137736470Y-130090592D01*
X138032781Y-129309407D02*
X138032781Y-129255532D01*
X138059719Y-129174720D01*
X138194406Y-129040033D01*
X138275218Y-129013096D01*
X138329093Y-129013096D01*
X138409905Y-129040033D01*
X138463780Y-129093908D01*
X138517654Y-129201658D01*
X138517654Y-129848155D01*
X138867841Y-129497969D01*
X138490717Y-128743722D02*
X138867841Y-128366598D01*
X139191089Y-129174720D01*
X137197722Y-132620592D02*
X137116910Y-132647529D01*
X137036097Y-132728341D01*
X136982223Y-132836091D01*
X136982223Y-132943841D01*
X137009160Y-133024653D01*
X137089972Y-133159340D01*
X137170784Y-133240152D01*
X137305471Y-133320964D01*
X137386284Y-133347902D01*
X137494033Y-133347902D01*
X137601783Y-133294027D01*
X137655658Y-133240152D01*
X137709532Y-133132402D01*
X137709532Y-133078528D01*
X137520971Y-132889966D01*
X137413221Y-132997715D01*
X138005844Y-132889966D02*
X137440158Y-132324280D01*
X137655658Y-132108781D01*
X137736470Y-132081844D01*
X137790345Y-132081844D01*
X137871157Y-132108781D01*
X137951969Y-132189593D01*
X137978906Y-132270406D01*
X137978906Y-132324280D01*
X137951969Y-132405093D01*
X137736470Y-132620592D01*
X138032781Y-131839407D02*
X138032781Y-131785532D01*
X138059719Y-131704720D01*
X138194406Y-131570033D01*
X138275218Y-131543096D01*
X138329093Y-131543096D01*
X138409905Y-131570033D01*
X138463780Y-131623908D01*
X138517654Y-131731658D01*
X138517654Y-132378155D01*
X138867841Y-132027969D01*
X138787028Y-130977410D02*
X138679279Y-131085160D01*
X138652341Y-131165972D01*
X138652341Y-131219847D01*
X138679279Y-131354534D01*
X138760091Y-131489221D01*
X138975590Y-131704720D01*
X139056402Y-131731658D01*
X139110277Y-131731658D01*
X139191089Y-131704720D01*
X139298839Y-131596971D01*
X139325776Y-131516158D01*
X139325776Y-131462284D01*
X139298839Y-131381471D01*
X139164152Y-131246784D01*
X139083340Y-131219847D01*
X139029465Y-131219847D01*
X138948653Y-131246784D01*
X138840903Y-131354534D01*
X138813966Y-131435346D01*
X138813966Y-131489221D01*
X138840903Y-131570033D01*
X137938375Y-135443435D02*
X137480439Y-135362622D01*
X137615126Y-135766683D02*
X137049441Y-135200998D01*
X137264940Y-134985499D01*
X137345752Y-134958561D01*
X137399627Y-134958561D01*
X137480439Y-134985499D01*
X137561251Y-135066311D01*
X137588189Y-135147123D01*
X137588189Y-135200998D01*
X137561251Y-135281810D01*
X137345752Y-135497309D01*
X137615126Y-134635312D02*
X138073062Y-135093248D01*
X138153874Y-135120186D01*
X138207749Y-135120186D01*
X138288561Y-135093248D01*
X138396311Y-134985499D01*
X138423248Y-134904687D01*
X138423248Y-134850812D01*
X138396311Y-134770000D01*
X137938375Y-134312064D01*
X138773435Y-134608375D02*
X138207749Y-134042690D01*
X139096683Y-134285126D01*
X138530998Y-133719441D01*
X137197722Y-137700592D02*
X137116910Y-137727529D01*
X137036097Y-137808341D01*
X136982223Y-137916091D01*
X136982223Y-138023841D01*
X137009160Y-138104653D01*
X137089972Y-138239340D01*
X137170784Y-138320152D01*
X137305471Y-138400964D01*
X137386284Y-138427902D01*
X137494033Y-138427902D01*
X137601783Y-138374027D01*
X137655658Y-138320152D01*
X137709532Y-138212402D01*
X137709532Y-138158528D01*
X137520971Y-137969966D01*
X137413221Y-138077715D01*
X138005844Y-137969966D02*
X137440158Y-137404280D01*
X137655658Y-137188781D01*
X137736470Y-137161844D01*
X137790345Y-137161844D01*
X137871157Y-137188781D01*
X137951969Y-137269593D01*
X137978906Y-137350406D01*
X137978906Y-137404280D01*
X137951969Y-137485093D01*
X137736470Y-137700592D01*
X138032781Y-136919407D02*
X138032781Y-136865532D01*
X138059719Y-136784720D01*
X138194406Y-136650033D01*
X138275218Y-136623096D01*
X138329093Y-136623096D01*
X138409905Y-136650033D01*
X138463780Y-136703908D01*
X138517654Y-136811658D01*
X138517654Y-137458155D01*
X138867841Y-137107969D01*
X138571529Y-136380659D02*
X138571529Y-136326784D01*
X138598467Y-136245972D01*
X138733154Y-136111285D01*
X138813966Y-136084348D01*
X138867841Y-136084348D01*
X138948653Y-136111285D01*
X139002528Y-136165160D01*
X139056402Y-136272910D01*
X139056402Y-136919407D01*
X139406589Y-136569221D01*
X137197722Y-142790592D02*
X137116910Y-142817529D01*
X137036097Y-142898341D01*
X136982223Y-143006091D01*
X136982223Y-143113841D01*
X137009160Y-143194653D01*
X137089972Y-143329340D01*
X137170784Y-143410152D01*
X137305471Y-143490964D01*
X137386284Y-143517902D01*
X137494033Y-143517902D01*
X137601783Y-143464027D01*
X137655658Y-143410152D01*
X137709532Y-143302402D01*
X137709532Y-143248528D01*
X137520971Y-143059966D01*
X137413221Y-143167715D01*
X138005844Y-143059966D02*
X137440158Y-142494280D01*
X137655658Y-142278781D01*
X137736470Y-142251844D01*
X137790345Y-142251844D01*
X137871157Y-142278781D01*
X137951969Y-142359593D01*
X137978906Y-142440406D01*
X137978906Y-142494280D01*
X137951969Y-142575093D01*
X137736470Y-142790592D01*
X138032781Y-142009407D02*
X138032781Y-141955532D01*
X138059719Y-141874720D01*
X138194406Y-141740033D01*
X138275218Y-141713096D01*
X138329093Y-141713096D01*
X138409905Y-141740033D01*
X138463780Y-141793908D01*
X138517654Y-141901658D01*
X138517654Y-142548155D01*
X138867841Y-142197969D01*
X139406589Y-141659221D02*
X139083340Y-141982470D01*
X139244964Y-141820845D02*
X138679279Y-141255160D01*
X138706216Y-141389847D01*
X138706216Y-141497597D01*
X138679279Y-141578409D01*
X137197722Y-145320592D02*
X137116910Y-145347529D01*
X137036097Y-145428341D01*
X136982223Y-145536091D01*
X136982223Y-145643841D01*
X137009160Y-145724653D01*
X137089972Y-145859340D01*
X137170784Y-145940152D01*
X137305471Y-146020964D01*
X137386284Y-146047902D01*
X137494033Y-146047902D01*
X137601783Y-145994027D01*
X137655658Y-145940152D01*
X137709532Y-145832402D01*
X137709532Y-145778528D01*
X137520971Y-145589966D01*
X137413221Y-145697715D01*
X138005844Y-145589966D02*
X137440158Y-145024280D01*
X137655658Y-144808781D01*
X137736470Y-144781844D01*
X137790345Y-144781844D01*
X137871157Y-144808781D01*
X137951969Y-144889593D01*
X137978906Y-144970406D01*
X137978906Y-145024280D01*
X137951969Y-145105093D01*
X137736470Y-145320592D01*
X138032781Y-144539407D02*
X138032781Y-144485532D01*
X138059719Y-144404720D01*
X138194406Y-144270033D01*
X138275218Y-144243096D01*
X138329093Y-144243096D01*
X138409905Y-144270033D01*
X138463780Y-144323908D01*
X138517654Y-144431658D01*
X138517654Y-145078155D01*
X138867841Y-144727969D01*
X138652341Y-143812097D02*
X138706216Y-143758223D01*
X138787028Y-143731285D01*
X138840903Y-143731285D01*
X138921715Y-143758223D01*
X139056402Y-143839035D01*
X139191089Y-143973722D01*
X139271902Y-144108409D01*
X139298839Y-144189221D01*
X139298839Y-144243096D01*
X139271902Y-144323908D01*
X139218027Y-144377783D01*
X139137215Y-144404720D01*
X139083340Y-144404720D01*
X139002528Y-144377783D01*
X138867841Y-144296971D01*
X138733154Y-144162284D01*
X138652341Y-144027597D01*
X138625404Y-143946784D01*
X138625404Y-143892910D01*
X138652341Y-143812097D01*
X137197722Y-147860592D02*
X137116910Y-147887529D01*
X137036097Y-147968341D01*
X136982223Y-148076091D01*
X136982223Y-148183841D01*
X137009160Y-148264653D01*
X137089972Y-148399340D01*
X137170784Y-148480152D01*
X137305471Y-148560964D01*
X137386284Y-148587902D01*
X137494033Y-148587902D01*
X137601783Y-148534027D01*
X137655658Y-148480152D01*
X137709532Y-148372402D01*
X137709532Y-148318528D01*
X137520971Y-148129966D01*
X137413221Y-148237715D01*
X138005844Y-148129966D02*
X137440158Y-147564280D01*
X137655658Y-147348781D01*
X137736470Y-147321844D01*
X137790345Y-147321844D01*
X137871157Y-147348781D01*
X137951969Y-147429593D01*
X137978906Y-147510406D01*
X137978906Y-147564280D01*
X137951969Y-147645093D01*
X137736470Y-147860592D01*
X138867841Y-147267969D02*
X138544592Y-147591218D01*
X138706216Y-147429593D02*
X138140531Y-146863908D01*
X138167468Y-146998595D01*
X138167468Y-147106345D01*
X138140531Y-147187157D01*
X139137215Y-146998595D02*
X139244964Y-146890845D01*
X139271902Y-146810033D01*
X139271902Y-146756158D01*
X139244964Y-146621471D01*
X139164152Y-146486784D01*
X138948653Y-146271285D01*
X138867841Y-146244348D01*
X138813966Y-146244348D01*
X138733154Y-146271285D01*
X138625404Y-146379035D01*
X138598467Y-146459847D01*
X138598467Y-146513722D01*
X138625404Y-146594534D01*
X138760091Y-146729221D01*
X138840903Y-146756158D01*
X138894778Y-146756158D01*
X138975590Y-146729221D01*
X139083340Y-146621471D01*
X139110277Y-146540659D01*
X139110277Y-146486784D01*
X139083340Y-146405972D01*
X137197722Y-150400592D02*
X137116910Y-150427529D01*
X137036097Y-150508341D01*
X136982223Y-150616091D01*
X136982223Y-150723841D01*
X137009160Y-150804653D01*
X137089972Y-150939340D01*
X137170784Y-151020152D01*
X137305471Y-151100964D01*
X137386284Y-151127902D01*
X137494033Y-151127902D01*
X137601783Y-151074027D01*
X137655658Y-151020152D01*
X137709532Y-150912402D01*
X137709532Y-150858528D01*
X137520971Y-150669966D01*
X137413221Y-150777715D01*
X138005844Y-150669966D02*
X137440158Y-150104280D01*
X137655658Y-149888781D01*
X137736470Y-149861844D01*
X137790345Y-149861844D01*
X137871157Y-149888781D01*
X137951969Y-149969593D01*
X137978906Y-150050406D01*
X137978906Y-150104280D01*
X137951969Y-150185093D01*
X137736470Y-150400592D01*
X138867841Y-149807969D02*
X138544592Y-150131218D01*
X138706216Y-149969593D02*
X138140531Y-149403908D01*
X138167468Y-149538595D01*
X138167468Y-149646345D01*
X138140531Y-149727157D01*
X138867841Y-149161471D02*
X138787028Y-149188409D01*
X138733154Y-149188409D01*
X138652341Y-149161471D01*
X138625404Y-149134534D01*
X138598467Y-149053722D01*
X138598467Y-148999847D01*
X138625404Y-148919035D01*
X138733154Y-148811285D01*
X138813966Y-148784348D01*
X138867841Y-148784348D01*
X138948653Y-148811285D01*
X138975590Y-148838223D01*
X139002528Y-148919035D01*
X139002528Y-148972910D01*
X138975590Y-149053722D01*
X138867841Y-149161471D01*
X138840903Y-149242284D01*
X138840903Y-149296158D01*
X138867841Y-149376971D01*
X138975590Y-149484720D01*
X139056402Y-149511658D01*
X139110277Y-149511658D01*
X139191089Y-149484720D01*
X139298839Y-149376971D01*
X139325776Y-149296158D01*
X139325776Y-149242284D01*
X139298839Y-149161471D01*
X139191089Y-149053722D01*
X139110277Y-149026784D01*
X139056402Y-149026784D01*
X138975590Y-149053722D01*
X137197722Y-155480592D02*
X137116910Y-155507529D01*
X137036097Y-155588341D01*
X136982223Y-155696091D01*
X136982223Y-155803841D01*
X137009160Y-155884653D01*
X137089972Y-156019340D01*
X137170784Y-156100152D01*
X137305471Y-156180964D01*
X137386284Y-156207902D01*
X137494033Y-156207902D01*
X137601783Y-156154027D01*
X137655658Y-156100152D01*
X137709532Y-155992402D01*
X137709532Y-155938528D01*
X137520971Y-155749966D01*
X137413221Y-155857715D01*
X138005844Y-155749966D02*
X137440158Y-155184280D01*
X137655658Y-154968781D01*
X137736470Y-154941844D01*
X137790345Y-154941844D01*
X137871157Y-154968781D01*
X137951969Y-155049593D01*
X137978906Y-155130406D01*
X137978906Y-155184280D01*
X137951969Y-155265093D01*
X137736470Y-155480592D01*
X138867841Y-154887969D02*
X138544592Y-155211218D01*
X138706216Y-155049593D02*
X138140531Y-154483908D01*
X138167468Y-154618595D01*
X138167468Y-154726345D01*
X138140531Y-154807157D01*
X138490717Y-154133722D02*
X138867841Y-153756598D01*
X139191089Y-154564720D01*
X137197722Y-158020592D02*
X137116910Y-158047529D01*
X137036097Y-158128341D01*
X136982223Y-158236091D01*
X136982223Y-158343841D01*
X137009160Y-158424653D01*
X137089972Y-158559340D01*
X137170784Y-158640152D01*
X137305471Y-158720964D01*
X137386284Y-158747902D01*
X137494033Y-158747902D01*
X137601783Y-158694027D01*
X137655658Y-158640152D01*
X137709532Y-158532402D01*
X137709532Y-158478528D01*
X137520971Y-158289966D01*
X137413221Y-158397715D01*
X138005844Y-158289966D02*
X137440158Y-157724280D01*
X137655658Y-157508781D01*
X137736470Y-157481844D01*
X137790345Y-157481844D01*
X137871157Y-157508781D01*
X137951969Y-157589593D01*
X137978906Y-157670406D01*
X137978906Y-157724280D01*
X137951969Y-157805093D01*
X137736470Y-158020592D01*
X138867841Y-157427969D02*
X138544592Y-157751218D01*
X138706216Y-157589593D02*
X138140531Y-157023908D01*
X138167468Y-157158595D01*
X138167468Y-157266345D01*
X138140531Y-157347157D01*
X138787028Y-156377410D02*
X138679279Y-156485160D01*
X138652341Y-156565972D01*
X138652341Y-156619847D01*
X138679279Y-156754534D01*
X138760091Y-156889221D01*
X138975590Y-157104720D01*
X139056402Y-157131658D01*
X139110277Y-157131658D01*
X139191089Y-157104720D01*
X139298839Y-156996971D01*
X139325776Y-156916158D01*
X139325776Y-156862284D01*
X139298839Y-156781471D01*
X139164152Y-156646784D01*
X139083340Y-156619847D01*
X139029465Y-156619847D01*
X138948653Y-156646784D01*
X138840903Y-156754534D01*
X138813966Y-156835346D01*
X138813966Y-156889221D01*
X138840903Y-156970033D01*
X111089722Y-158020592D02*
X111008910Y-158047529D01*
X110928097Y-158128341D01*
X110874223Y-158236091D01*
X110874223Y-158343841D01*
X110901160Y-158424653D01*
X110981972Y-158559340D01*
X111062784Y-158640152D01*
X111197471Y-158720964D01*
X111278284Y-158747902D01*
X111386033Y-158747902D01*
X111493783Y-158694027D01*
X111547658Y-158640152D01*
X111601532Y-158532402D01*
X111601532Y-158478528D01*
X111412971Y-158289966D01*
X111305221Y-158397715D01*
X111897844Y-158289966D02*
X111332158Y-157724280D01*
X111547658Y-157508781D01*
X111628470Y-157481844D01*
X111682345Y-157481844D01*
X111763157Y-157508781D01*
X111843969Y-157589593D01*
X111870906Y-157670406D01*
X111870906Y-157724280D01*
X111843969Y-157805093D01*
X111628470Y-158020592D01*
X112759841Y-157427969D02*
X112436592Y-157751218D01*
X112598216Y-157589593D02*
X112032531Y-157023908D01*
X112059468Y-157158595D01*
X112059468Y-157266345D01*
X112032531Y-157347157D01*
X112705966Y-156350473D02*
X112436592Y-156619847D01*
X112679028Y-156916158D01*
X112679028Y-156862284D01*
X112705966Y-156781471D01*
X112840653Y-156646784D01*
X112921465Y-156619847D01*
X112975340Y-156619847D01*
X113056152Y-156646784D01*
X113190839Y-156781471D01*
X113217776Y-156862284D01*
X113217776Y-156916158D01*
X113190839Y-156996971D01*
X113056152Y-157131658D01*
X112975340Y-157158595D01*
X112921465Y-157158595D01*
X111043722Y-155480592D02*
X110962910Y-155507529D01*
X110882097Y-155588341D01*
X110828223Y-155696091D01*
X110828223Y-155803841D01*
X110855160Y-155884653D01*
X110935972Y-156019340D01*
X111016784Y-156100152D01*
X111151471Y-156180964D01*
X111232284Y-156207902D01*
X111340033Y-156207902D01*
X111447783Y-156154027D01*
X111501658Y-156100152D01*
X111555532Y-155992402D01*
X111555532Y-155938528D01*
X111366971Y-155749966D01*
X111259221Y-155857715D01*
X111851844Y-155749966D02*
X111286158Y-155184280D01*
X111501658Y-154968781D01*
X111582470Y-154941844D01*
X111636345Y-154941844D01*
X111717157Y-154968781D01*
X111797969Y-155049593D01*
X111824906Y-155130406D01*
X111824906Y-155184280D01*
X111797969Y-155265093D01*
X111582470Y-155480592D01*
X112713841Y-154887969D02*
X112390592Y-155211218D01*
X112552216Y-155049593D02*
X111986531Y-154483908D01*
X112013468Y-154618595D01*
X112013468Y-154726345D01*
X111986531Y-154807157D01*
X112821590Y-154025972D02*
X113198714Y-154403096D01*
X112471404Y-153945160D02*
X112740778Y-154483908D01*
X113090964Y-154133722D01*
X111089722Y-150400592D02*
X111008910Y-150427529D01*
X110928097Y-150508341D01*
X110874223Y-150616091D01*
X110874223Y-150723841D01*
X110901160Y-150804653D01*
X110981972Y-150939340D01*
X111062784Y-151020152D01*
X111197471Y-151100964D01*
X111278284Y-151127902D01*
X111386033Y-151127902D01*
X111493783Y-151074027D01*
X111547658Y-151020152D01*
X111601532Y-150912402D01*
X111601532Y-150858528D01*
X111412971Y-150669966D01*
X111305221Y-150777715D01*
X111897844Y-150669966D02*
X111332158Y-150104280D01*
X111547658Y-149888781D01*
X111628470Y-149861844D01*
X111682345Y-149861844D01*
X111763157Y-149888781D01*
X111843969Y-149969593D01*
X111870906Y-150050406D01*
X111870906Y-150104280D01*
X111843969Y-150185093D01*
X111628470Y-150400592D01*
X112759841Y-149807969D02*
X112436592Y-150131218D01*
X112598216Y-149969593D02*
X112032531Y-149403908D01*
X112059468Y-149538595D01*
X112059468Y-149646345D01*
X112032531Y-149727157D01*
X112382717Y-149053722D02*
X112732903Y-148703536D01*
X112759841Y-149107597D01*
X112840653Y-149026784D01*
X112921465Y-148999847D01*
X112975340Y-148999847D01*
X113056152Y-149026784D01*
X113190839Y-149161471D01*
X113217776Y-149242284D01*
X113217776Y-149296158D01*
X113190839Y-149376971D01*
X113029215Y-149538595D01*
X112948402Y-149565532D01*
X112894528Y-149565532D01*
X110943722Y-147860592D02*
X110862910Y-147887529D01*
X110782097Y-147968341D01*
X110728223Y-148076091D01*
X110728223Y-148183841D01*
X110755160Y-148264653D01*
X110835972Y-148399340D01*
X110916784Y-148480152D01*
X111051471Y-148560964D01*
X111132284Y-148587902D01*
X111240033Y-148587902D01*
X111347783Y-148534027D01*
X111401658Y-148480152D01*
X111455532Y-148372402D01*
X111455532Y-148318528D01*
X111266971Y-148129966D01*
X111159221Y-148237715D01*
X111751844Y-148129966D02*
X111186158Y-147564280D01*
X111401658Y-147348781D01*
X111482470Y-147321844D01*
X111536345Y-147321844D01*
X111617157Y-147348781D01*
X111697969Y-147429593D01*
X111724906Y-147510406D01*
X111724906Y-147564280D01*
X111697969Y-147645093D01*
X111482470Y-147860592D01*
X112613841Y-147267969D02*
X112290592Y-147591218D01*
X112452216Y-147429593D02*
X111886531Y-146863908D01*
X111913468Y-146998595D01*
X111913468Y-147106345D01*
X111886531Y-147187157D01*
X112317529Y-146540659D02*
X112317529Y-146486784D01*
X112344467Y-146405972D01*
X112479154Y-146271285D01*
X112559966Y-146244348D01*
X112613841Y-146244348D01*
X112694653Y-146271285D01*
X112748528Y-146325160D01*
X112802402Y-146432910D01*
X112802402Y-147079407D01*
X113152589Y-146729221D01*
X110943722Y-145320592D02*
X110862910Y-145347529D01*
X110782097Y-145428341D01*
X110728223Y-145536091D01*
X110728223Y-145643841D01*
X110755160Y-145724653D01*
X110835972Y-145859340D01*
X110916784Y-145940152D01*
X111051471Y-146020964D01*
X111132284Y-146047902D01*
X111240033Y-146047902D01*
X111347783Y-145994027D01*
X111401658Y-145940152D01*
X111455532Y-145832402D01*
X111455532Y-145778528D01*
X111266971Y-145589966D01*
X111159221Y-145697715D01*
X111751844Y-145589966D02*
X111186158Y-145024280D01*
X111401658Y-144808781D01*
X111482470Y-144781844D01*
X111536345Y-144781844D01*
X111617157Y-144808781D01*
X111697969Y-144889593D01*
X111724906Y-144970406D01*
X111724906Y-145024280D01*
X111697969Y-145105093D01*
X111482470Y-145320592D01*
X112613841Y-144727969D02*
X112290592Y-145051218D01*
X112452216Y-144889593D02*
X111886531Y-144323908D01*
X111913468Y-144458595D01*
X111913468Y-144566345D01*
X111886531Y-144647157D01*
X113152589Y-144189221D02*
X112829340Y-144512470D01*
X112990964Y-144350845D02*
X112425279Y-143785160D01*
X112452216Y-143919847D01*
X112452216Y-144027597D01*
X112425279Y-144108409D01*
X111089722Y-142780592D02*
X111008910Y-142807529D01*
X110928097Y-142888341D01*
X110874223Y-142996091D01*
X110874223Y-143103841D01*
X110901160Y-143184653D01*
X110981972Y-143319340D01*
X111062784Y-143400152D01*
X111197471Y-143480964D01*
X111278284Y-143507902D01*
X111386033Y-143507902D01*
X111493783Y-143454027D01*
X111547658Y-143400152D01*
X111601532Y-143292402D01*
X111601532Y-143238528D01*
X111412971Y-143049966D01*
X111305221Y-143157715D01*
X111897844Y-143049966D02*
X111332158Y-142484280D01*
X111547658Y-142268781D01*
X111628470Y-142241844D01*
X111682345Y-142241844D01*
X111763157Y-142268781D01*
X111843969Y-142349593D01*
X111870906Y-142430406D01*
X111870906Y-142484280D01*
X111843969Y-142565093D01*
X111628470Y-142780592D01*
X112759841Y-142187969D02*
X112436592Y-142511218D01*
X112598216Y-142349593D02*
X112032531Y-141783908D01*
X112059468Y-141918595D01*
X112059468Y-142026345D01*
X112032531Y-142107157D01*
X112544341Y-141272097D02*
X112598216Y-141218223D01*
X112679028Y-141191285D01*
X112732903Y-141191285D01*
X112813715Y-141218223D01*
X112948402Y-141299035D01*
X113083089Y-141433722D01*
X113163902Y-141568409D01*
X113190839Y-141649221D01*
X113190839Y-141703096D01*
X113163902Y-141783908D01*
X113110027Y-141837783D01*
X113029215Y-141864720D01*
X112975340Y-141864720D01*
X112894528Y-141837783D01*
X112759841Y-141756971D01*
X112625154Y-141622284D01*
X112544341Y-141487597D01*
X112517404Y-141406784D01*
X112517404Y-141352910D01*
X112544341Y-141272097D01*
X111613096Y-137431218D02*
X111532284Y-137458155D01*
X111451471Y-137538967D01*
X111397597Y-137646717D01*
X111397597Y-137754467D01*
X111424534Y-137835279D01*
X111505346Y-137969966D01*
X111586158Y-138050778D01*
X111720845Y-138131590D01*
X111801658Y-138158528D01*
X111909407Y-138158528D01*
X112017157Y-138104653D01*
X112071032Y-138050778D01*
X112124906Y-137943028D01*
X112124906Y-137889154D01*
X111936345Y-137700592D01*
X111828595Y-137808341D01*
X112421218Y-137700592D02*
X111855532Y-137134906D01*
X112071032Y-136919407D01*
X112151844Y-136892470D01*
X112205719Y-136892470D01*
X112286531Y-136919407D01*
X112367343Y-137000219D01*
X112394280Y-137081032D01*
X112394280Y-137134906D01*
X112367343Y-137215719D01*
X112151844Y-137431218D01*
X113013841Y-137107969D02*
X113121590Y-137000219D01*
X113148528Y-136919407D01*
X113148528Y-136865532D01*
X113121590Y-136730845D01*
X113040778Y-136596158D01*
X112825279Y-136380659D01*
X112744467Y-136353722D01*
X112690592Y-136353722D01*
X112609780Y-136380659D01*
X112502030Y-136488409D01*
X112475093Y-136569221D01*
X112475093Y-136623096D01*
X112502030Y-136703908D01*
X112636717Y-136838595D01*
X112717529Y-136865532D01*
X112771404Y-136865532D01*
X112852216Y-136838595D01*
X112959966Y-136730845D01*
X112986903Y-136650033D01*
X112986903Y-136596158D01*
X112959966Y-136515346D01*
X111613096Y-134891218D02*
X111532284Y-134918155D01*
X111451471Y-134998967D01*
X111397597Y-135106717D01*
X111397597Y-135214467D01*
X111424534Y-135295279D01*
X111505346Y-135429966D01*
X111586158Y-135510778D01*
X111720845Y-135591590D01*
X111801658Y-135618528D01*
X111909407Y-135618528D01*
X112017157Y-135564653D01*
X112071032Y-135510778D01*
X112124906Y-135403028D01*
X112124906Y-135349154D01*
X111936345Y-135160592D01*
X111828595Y-135268341D01*
X112421218Y-135160592D02*
X111855532Y-134594906D01*
X112071032Y-134379407D01*
X112151844Y-134352470D01*
X112205719Y-134352470D01*
X112286531Y-134379407D01*
X112367343Y-134460219D01*
X112394280Y-134541032D01*
X112394280Y-134594906D01*
X112367343Y-134675719D01*
X112151844Y-134891218D01*
X112744467Y-134190845D02*
X112663654Y-134217783D01*
X112609780Y-134217783D01*
X112528967Y-134190845D01*
X112502030Y-134163908D01*
X112475093Y-134083096D01*
X112475093Y-134029221D01*
X112502030Y-133948409D01*
X112609780Y-133840659D01*
X112690592Y-133813722D01*
X112744467Y-133813722D01*
X112825279Y-133840659D01*
X112852216Y-133867597D01*
X112879154Y-133948409D01*
X112879154Y-134002284D01*
X112852216Y-134083096D01*
X112744467Y-134190845D01*
X112717529Y-134271658D01*
X112717529Y-134325532D01*
X112744467Y-134406345D01*
X112852216Y-134514094D01*
X112933028Y-134541032D01*
X112986903Y-134541032D01*
X113067715Y-134514094D01*
X113175465Y-134406345D01*
X113202402Y-134325532D01*
X113202402Y-134271658D01*
X113175465Y-134190845D01*
X113067715Y-134083096D01*
X112986903Y-134056158D01*
X112933028Y-134056158D01*
X112852216Y-134083096D01*
X111713096Y-132321218D02*
X111632284Y-132348155D01*
X111551471Y-132428967D01*
X111497597Y-132536717D01*
X111497597Y-132644467D01*
X111524534Y-132725279D01*
X111605346Y-132859966D01*
X111686158Y-132940778D01*
X111820845Y-133021590D01*
X111901658Y-133048528D01*
X112009407Y-133048528D01*
X112117157Y-132994653D01*
X112171032Y-132940778D01*
X112224906Y-132833028D01*
X112224906Y-132779154D01*
X112036345Y-132590592D01*
X111928595Y-132698341D01*
X112521218Y-132590592D02*
X111955532Y-132024906D01*
X112171032Y-131809407D01*
X112251844Y-131782470D01*
X112305719Y-131782470D01*
X112386531Y-131809407D01*
X112467343Y-131890219D01*
X112494280Y-131971032D01*
X112494280Y-132024906D01*
X112467343Y-132105719D01*
X112251844Y-132321218D01*
X112467343Y-131513096D02*
X112844467Y-131135972D01*
X113167715Y-131944094D01*
X111613096Y-129811218D02*
X111532284Y-129838155D01*
X111451471Y-129918967D01*
X111397597Y-130026717D01*
X111397597Y-130134467D01*
X111424534Y-130215279D01*
X111505346Y-130349966D01*
X111586158Y-130430778D01*
X111720845Y-130511590D01*
X111801658Y-130538528D01*
X111909407Y-130538528D01*
X112017157Y-130484653D01*
X112071032Y-130430778D01*
X112124906Y-130323028D01*
X112124906Y-130269154D01*
X111936345Y-130080592D01*
X111828595Y-130188341D01*
X112421218Y-130080592D02*
X111855532Y-129514906D01*
X112071032Y-129299407D01*
X112151844Y-129272470D01*
X112205719Y-129272470D01*
X112286531Y-129299407D01*
X112367343Y-129380219D01*
X112394280Y-129461032D01*
X112394280Y-129514906D01*
X112367343Y-129595719D01*
X112151844Y-129811218D01*
X112663654Y-128706784D02*
X112555905Y-128814534D01*
X112528967Y-128895346D01*
X112528967Y-128949221D01*
X112555905Y-129083908D01*
X112636717Y-129218595D01*
X112852216Y-129434094D01*
X112933028Y-129461032D01*
X112986903Y-129461032D01*
X113067715Y-129434094D01*
X113175465Y-129326345D01*
X113202402Y-129245532D01*
X113202402Y-129191658D01*
X113175465Y-129110845D01*
X113040778Y-128976158D01*
X112959966Y-128949221D01*
X112906091Y-128949221D01*
X112825279Y-128976158D01*
X112717529Y-129083908D01*
X112690592Y-129164720D01*
X112690592Y-129218595D01*
X112717529Y-129299407D01*
X111613096Y-124731218D02*
X111532284Y-124758155D01*
X111451471Y-124838967D01*
X111397597Y-124946717D01*
X111397597Y-125054467D01*
X111424534Y-125135279D01*
X111505346Y-125269966D01*
X111586158Y-125350778D01*
X111720845Y-125431590D01*
X111801658Y-125458528D01*
X111909407Y-125458528D01*
X112017157Y-125404653D01*
X112071032Y-125350778D01*
X112124906Y-125243028D01*
X112124906Y-125189154D01*
X111936345Y-125000592D01*
X111828595Y-125108341D01*
X112421218Y-125000592D02*
X111855532Y-124434906D01*
X112071032Y-124219407D01*
X112151844Y-124192470D01*
X112205719Y-124192470D01*
X112286531Y-124219407D01*
X112367343Y-124300219D01*
X112394280Y-124381032D01*
X112394280Y-124434906D01*
X112367343Y-124515719D01*
X112151844Y-124731218D01*
X112690592Y-123599847D02*
X112421218Y-123869221D01*
X112663654Y-124165532D01*
X112663654Y-124111658D01*
X112690592Y-124030845D01*
X112825279Y-123896158D01*
X112906091Y-123869221D01*
X112959966Y-123869221D01*
X113040778Y-123896158D01*
X113175465Y-124030845D01*
X113202402Y-124111658D01*
X113202402Y-124165532D01*
X113175465Y-124246345D01*
X113040778Y-124381032D01*
X112959966Y-124407969D01*
X112906091Y-124407969D01*
X111613096Y-122191218D02*
X111532284Y-122218155D01*
X111451471Y-122298967D01*
X111397597Y-122406717D01*
X111397597Y-122514467D01*
X111424534Y-122595279D01*
X111505346Y-122729966D01*
X111586158Y-122810778D01*
X111720845Y-122891590D01*
X111801658Y-122918528D01*
X111909407Y-122918528D01*
X112017157Y-122864653D01*
X112071032Y-122810778D01*
X112124906Y-122703028D01*
X112124906Y-122649154D01*
X111936345Y-122460592D01*
X111828595Y-122568341D01*
X112421218Y-122460592D02*
X111855532Y-121894906D01*
X112071032Y-121679407D01*
X112151844Y-121652470D01*
X112205719Y-121652470D01*
X112286531Y-121679407D01*
X112367343Y-121760219D01*
X112394280Y-121841032D01*
X112394280Y-121894906D01*
X112367343Y-121975719D01*
X112151844Y-122191218D01*
X112852216Y-121275346D02*
X113229340Y-121652470D01*
X112502030Y-121194534D02*
X112771404Y-121733282D01*
X113121590Y-121383096D01*
X111613096Y-119651218D02*
X111532284Y-119678155D01*
X111451471Y-119758967D01*
X111397597Y-119866717D01*
X111397597Y-119974467D01*
X111424534Y-120055279D01*
X111505346Y-120189966D01*
X111586158Y-120270778D01*
X111720845Y-120351590D01*
X111801658Y-120378528D01*
X111909407Y-120378528D01*
X112017157Y-120324653D01*
X112071032Y-120270778D01*
X112124906Y-120163028D01*
X112124906Y-120109154D01*
X111936345Y-119920592D01*
X111828595Y-120028341D01*
X112421218Y-119920592D02*
X111855532Y-119354906D01*
X112071032Y-119139407D01*
X112151844Y-119112470D01*
X112205719Y-119112470D01*
X112286531Y-119139407D01*
X112367343Y-119220219D01*
X112394280Y-119301032D01*
X112394280Y-119354906D01*
X112367343Y-119435719D01*
X112151844Y-119651218D01*
X112367343Y-118843096D02*
X112717529Y-118492910D01*
X112744467Y-118896971D01*
X112825279Y-118816158D01*
X112906091Y-118789221D01*
X112959966Y-118789221D01*
X113040778Y-118816158D01*
X113175465Y-118950845D01*
X113202402Y-119031658D01*
X113202402Y-119085532D01*
X113175465Y-119166345D01*
X113013841Y-119327969D01*
X112933028Y-119354906D01*
X112879154Y-119354906D01*
X111613096Y-109491218D02*
X111532284Y-109518155D01*
X111451471Y-109598967D01*
X111397597Y-109706717D01*
X111397597Y-109814467D01*
X111424534Y-109895279D01*
X111505346Y-110029966D01*
X111586158Y-110110778D01*
X111720845Y-110191590D01*
X111801658Y-110218528D01*
X111909407Y-110218528D01*
X112017157Y-110164653D01*
X112071032Y-110110778D01*
X112124906Y-110003028D01*
X112124906Y-109949154D01*
X111936345Y-109760592D01*
X111828595Y-109868341D01*
X112421218Y-109760592D02*
X111855532Y-109194906D01*
X112071032Y-108979407D01*
X112151844Y-108952470D01*
X112205719Y-108952470D01*
X112286531Y-108979407D01*
X112367343Y-109060219D01*
X112394280Y-109141032D01*
X112394280Y-109194906D01*
X112367343Y-109275719D01*
X112151844Y-109491218D01*
X112528967Y-108521471D02*
X112582842Y-108467597D01*
X112663654Y-108440659D01*
X112717529Y-108440659D01*
X112798341Y-108467597D01*
X112933028Y-108548409D01*
X113067715Y-108683096D01*
X113148528Y-108817783D01*
X113175465Y-108898595D01*
X113175465Y-108952470D01*
X113148528Y-109033282D01*
X113094653Y-109087157D01*
X113013841Y-109114094D01*
X112959966Y-109114094D01*
X112879154Y-109087157D01*
X112744467Y-109006345D01*
X112609780Y-108871658D01*
X112528967Y-108736971D01*
X112502030Y-108656158D01*
X112502030Y-108602284D01*
X112528967Y-108521471D01*
X111513096Y-117111218D02*
X111432284Y-117138155D01*
X111351471Y-117218967D01*
X111297597Y-117326717D01*
X111297597Y-117434467D01*
X111324534Y-117515279D01*
X111405346Y-117649966D01*
X111486158Y-117730778D01*
X111620845Y-117811590D01*
X111701658Y-117838528D01*
X111809407Y-117838528D01*
X111917157Y-117784653D01*
X111971032Y-117730778D01*
X112024906Y-117623028D01*
X112024906Y-117569154D01*
X111836345Y-117380592D01*
X111728595Y-117488341D01*
X112321218Y-117380592D02*
X111755532Y-116814906D01*
X111971032Y-116599407D01*
X112051844Y-116572470D01*
X112105719Y-116572470D01*
X112186531Y-116599407D01*
X112267343Y-116680219D01*
X112294280Y-116761032D01*
X112294280Y-116814906D01*
X112267343Y-116895719D01*
X112051844Y-117111218D01*
X112348155Y-116330033D02*
X112348155Y-116276158D01*
X112375093Y-116195346D01*
X112509780Y-116060659D01*
X112590592Y-116033722D01*
X112644467Y-116033722D01*
X112725279Y-116060659D01*
X112779154Y-116114534D01*
X112833028Y-116222284D01*
X112833028Y-116868781D01*
X113183215Y-116518595D01*
X111513096Y-112021218D02*
X111432284Y-112048155D01*
X111351471Y-112128967D01*
X111297597Y-112236717D01*
X111297597Y-112344467D01*
X111324534Y-112425279D01*
X111405346Y-112559966D01*
X111486158Y-112640778D01*
X111620845Y-112721590D01*
X111701658Y-112748528D01*
X111809407Y-112748528D01*
X111917157Y-112694653D01*
X111971032Y-112640778D01*
X112024906Y-112533028D01*
X112024906Y-112479154D01*
X111836345Y-112290592D01*
X111728595Y-112398341D01*
X112321218Y-112290592D02*
X111755532Y-111724906D01*
X111971032Y-111509407D01*
X112051844Y-111482470D01*
X112105719Y-111482470D01*
X112186531Y-111509407D01*
X112267343Y-111590219D01*
X112294280Y-111671032D01*
X112294280Y-111724906D01*
X112267343Y-111805719D01*
X112051844Y-112021218D01*
X113183215Y-111428595D02*
X112859966Y-111751844D01*
X113021590Y-111590219D02*
X112455905Y-111024534D01*
X112482842Y-111159221D01*
X112482842Y-111266971D01*
X112455905Y-111347783D01*
X79676666Y-138136380D02*
X79676666Y-138850666D01*
X79629047Y-138993523D01*
X79533809Y-139088761D01*
X79390952Y-139136380D01*
X79295714Y-139136380D01*
X80105238Y-138231619D02*
X80152857Y-138184000D01*
X80248095Y-138136380D01*
X80486190Y-138136380D01*
X80581428Y-138184000D01*
X80629047Y-138231619D01*
X80676666Y-138326857D01*
X80676666Y-138422095D01*
X80629047Y-138564952D01*
X80057619Y-139136380D01*
X80676666Y-139136380D01*
X152654095Y-114006380D02*
X152654095Y-114815904D01*
X152701714Y-114911142D01*
X152749333Y-114958761D01*
X152844571Y-115006380D01*
X153035047Y-115006380D01*
X153130285Y-114958761D01*
X153177904Y-114911142D01*
X153225523Y-114815904D01*
X153225523Y-114006380D01*
X154130285Y-114006380D02*
X153939809Y-114006380D01*
X153844571Y-114054000D01*
X153796952Y-114101619D01*
X153701714Y-114244476D01*
X153654095Y-114434952D01*
X153654095Y-114815904D01*
X153701714Y-114911142D01*
X153749333Y-114958761D01*
X153844571Y-115006380D01*
X154035047Y-115006380D01*
X154130285Y-114958761D01*
X154177904Y-114911142D01*
X154225523Y-114815904D01*
X154225523Y-114577809D01*
X154177904Y-114482571D01*
X154130285Y-114434952D01*
X154035047Y-114387333D01*
X153844571Y-114387333D01*
X153749333Y-114434952D01*
X153701714Y-114482571D01*
X153654095Y-114577809D01*
X101338095Y-125502380D02*
X101338095Y-126311904D01*
X101385714Y-126407142D01*
X101433333Y-126454761D01*
X101528571Y-126502380D01*
X101719047Y-126502380D01*
X101814285Y-126454761D01*
X101861904Y-126407142D01*
X101909523Y-126311904D01*
X101909523Y-125502380D01*
X102290476Y-125502380D02*
X102909523Y-125502380D01*
X102576190Y-125883333D01*
X102719047Y-125883333D01*
X102814285Y-125930952D01*
X102861904Y-125978571D01*
X102909523Y-126073809D01*
X102909523Y-126311904D01*
X102861904Y-126407142D01*
X102814285Y-126454761D01*
X102719047Y-126502380D01*
X102433333Y-126502380D01*
X102338095Y-126454761D01*
X102290476Y-126407142D01*
X104902095Y-108926380D02*
X104902095Y-109735904D01*
X104949714Y-109831142D01*
X104997333Y-109878761D01*
X105092571Y-109926380D01*
X105283047Y-109926380D01*
X105378285Y-109878761D01*
X105425904Y-109831142D01*
X105473523Y-109735904D01*
X105473523Y-108926380D01*
X105902095Y-109021619D02*
X105949714Y-108974000D01*
X106044952Y-108926380D01*
X106283047Y-108926380D01*
X106378285Y-108974000D01*
X106425904Y-109021619D01*
X106473523Y-109116857D01*
X106473523Y-109212095D01*
X106425904Y-109354952D01*
X105854476Y-109926380D01*
X106473523Y-109926380D01*
X159238095Y-128352380D02*
X159809523Y-128352380D01*
X159523809Y-129352380D02*
X159523809Y-128352380D01*
X160714285Y-129352380D02*
X160380952Y-128876190D01*
X160142857Y-129352380D02*
X160142857Y-128352380D01*
X160523809Y-128352380D01*
X160619047Y-128400000D01*
X160666666Y-128447619D01*
X160714285Y-128542857D01*
X160714285Y-128685714D01*
X160666666Y-128780952D01*
X160619047Y-128828571D01*
X160523809Y-128876190D01*
X160142857Y-128876190D01*
X161666666Y-129352380D02*
X161095238Y-129352380D01*
X161380952Y-129352380D02*
X161380952Y-128352380D01*
X161285714Y-128495238D01*
X161190476Y-128590476D01*
X161095238Y-128638095D01*
X198206666Y-155284761D02*
X198349523Y-155332380D01*
X198587619Y-155332380D01*
X198682857Y-155284761D01*
X198730476Y-155237142D01*
X198778095Y-155141904D01*
X198778095Y-155046666D01*
X198730476Y-154951428D01*
X198682857Y-154903809D01*
X198587619Y-154856190D01*
X198397142Y-154808571D01*
X198301904Y-154760952D01*
X198254285Y-154713333D01*
X198206666Y-154618095D01*
X198206666Y-154522857D01*
X198254285Y-154427619D01*
X198301904Y-154380000D01*
X198397142Y-154332380D01*
X198635238Y-154332380D01*
X198778095Y-154380000D01*
X199111428Y-154332380D02*
X199349523Y-155332380D01*
X199540000Y-154618095D01*
X199730476Y-155332380D01*
X199968571Y-154332380D01*
X200254285Y-154332380D02*
X200873333Y-154332380D01*
X200540000Y-154713333D01*
X200682857Y-154713333D01*
X200778095Y-154760952D01*
X200825714Y-154808571D01*
X200873333Y-154903809D01*
X200873333Y-155141904D01*
X200825714Y-155237142D01*
X200778095Y-155284761D01*
X200682857Y-155332380D01*
X200397142Y-155332380D01*
X200301904Y-155284761D01*
X200254285Y-155237142D01*
X188681666Y-155284761D02*
X188824523Y-155332380D01*
X189062619Y-155332380D01*
X189157857Y-155284761D01*
X189205476Y-155237142D01*
X189253095Y-155141904D01*
X189253095Y-155046666D01*
X189205476Y-154951428D01*
X189157857Y-154903809D01*
X189062619Y-154856190D01*
X188872142Y-154808571D01*
X188776904Y-154760952D01*
X188729285Y-154713333D01*
X188681666Y-154618095D01*
X188681666Y-154522857D01*
X188729285Y-154427619D01*
X188776904Y-154380000D01*
X188872142Y-154332380D01*
X189110238Y-154332380D01*
X189253095Y-154380000D01*
X189586428Y-154332380D02*
X189824523Y-155332380D01*
X190015000Y-154618095D01*
X190205476Y-155332380D01*
X190443571Y-154332380D01*
X190776904Y-154427619D02*
X190824523Y-154380000D01*
X190919761Y-154332380D01*
X191157857Y-154332380D01*
X191253095Y-154380000D01*
X191300714Y-154427619D01*
X191348333Y-154522857D01*
X191348333Y-154618095D01*
X191300714Y-154760952D01*
X190729285Y-155332380D01*
X191348333Y-155332380D01*
X178648666Y-155284761D02*
X178791523Y-155332380D01*
X179029619Y-155332380D01*
X179124857Y-155284761D01*
X179172476Y-155237142D01*
X179220095Y-155141904D01*
X179220095Y-155046666D01*
X179172476Y-154951428D01*
X179124857Y-154903809D01*
X179029619Y-154856190D01*
X178839142Y-154808571D01*
X178743904Y-154760952D01*
X178696285Y-154713333D01*
X178648666Y-154618095D01*
X178648666Y-154522857D01*
X178696285Y-154427619D01*
X178743904Y-154380000D01*
X178839142Y-154332380D01*
X179077238Y-154332380D01*
X179220095Y-154380000D01*
X179553428Y-154332380D02*
X179791523Y-155332380D01*
X179982000Y-154618095D01*
X180172476Y-155332380D01*
X180410571Y-154332380D01*
X181315333Y-155332380D02*
X180743904Y-155332380D01*
X181029619Y-155332380D02*
X181029619Y-154332380D01*
X180934380Y-154475238D01*
X180839142Y-154570476D01*
X180743904Y-154618095D01*
X152265142Y-122626380D02*
X151931809Y-122150190D01*
X151693714Y-122626380D02*
X151693714Y-121626380D01*
X152074666Y-121626380D01*
X152169904Y-121674000D01*
X152217523Y-121721619D01*
X152265142Y-121816857D01*
X152265142Y-121959714D01*
X152217523Y-122054952D01*
X152169904Y-122102571D01*
X152074666Y-122150190D01*
X151693714Y-122150190D01*
X152646095Y-121721619D02*
X152693714Y-121674000D01*
X152788952Y-121626380D01*
X153027047Y-121626380D01*
X153122285Y-121674000D01*
X153169904Y-121721619D01*
X153217523Y-121816857D01*
X153217523Y-121912095D01*
X153169904Y-122054952D01*
X152598476Y-122626380D01*
X153217523Y-122626380D01*
X153788952Y-122054952D02*
X153693714Y-122007333D01*
X153646095Y-121959714D01*
X153598476Y-121864476D01*
X153598476Y-121816857D01*
X153646095Y-121721619D01*
X153693714Y-121674000D01*
X153788952Y-121626380D01*
X153979428Y-121626380D01*
X154074666Y-121674000D01*
X154122285Y-121721619D01*
X154169904Y-121816857D01*
X154169904Y-121864476D01*
X154122285Y-121959714D01*
X154074666Y-122007333D01*
X153979428Y-122054952D01*
X153788952Y-122054952D01*
X153693714Y-122102571D01*
X153646095Y-122150190D01*
X153598476Y-122245428D01*
X153598476Y-122435904D01*
X153646095Y-122531142D01*
X153693714Y-122578761D01*
X153788952Y-122626380D01*
X153979428Y-122626380D01*
X154074666Y-122578761D01*
X154122285Y-122531142D01*
X154169904Y-122435904D01*
X154169904Y-122245428D01*
X154122285Y-122150190D01*
X154074666Y-122102571D01*
X153979428Y-122054952D01*
X159377142Y-119578380D02*
X159043809Y-119102190D01*
X158805714Y-119578380D02*
X158805714Y-118578380D01*
X159186666Y-118578380D01*
X159281904Y-118626000D01*
X159329523Y-118673619D01*
X159377142Y-118768857D01*
X159377142Y-118911714D01*
X159329523Y-119006952D01*
X159281904Y-119054571D01*
X159186666Y-119102190D01*
X158805714Y-119102190D01*
X160329523Y-119578380D02*
X159758095Y-119578380D01*
X160043809Y-119578380D02*
X160043809Y-118578380D01*
X159948571Y-118721238D01*
X159853333Y-118816476D01*
X159758095Y-118864095D01*
X160900952Y-119006952D02*
X160805714Y-118959333D01*
X160758095Y-118911714D01*
X160710476Y-118816476D01*
X160710476Y-118768857D01*
X160758095Y-118673619D01*
X160805714Y-118626000D01*
X160900952Y-118578380D01*
X161091428Y-118578380D01*
X161186666Y-118626000D01*
X161234285Y-118673619D01*
X161281904Y-118768857D01*
X161281904Y-118816476D01*
X161234285Y-118911714D01*
X161186666Y-118959333D01*
X161091428Y-119006952D01*
X160900952Y-119006952D01*
X160805714Y-119054571D01*
X160758095Y-119102190D01*
X160710476Y-119197428D01*
X160710476Y-119387904D01*
X160758095Y-119483142D01*
X160805714Y-119530761D01*
X160900952Y-119578380D01*
X161091428Y-119578380D01*
X161186666Y-119530761D01*
X161234285Y-119483142D01*
X161281904Y-119387904D01*
X161281904Y-119197428D01*
X161234285Y-119102190D01*
X161186666Y-119054571D01*
X161091428Y-119006952D01*
X162504380Y-117142857D02*
X162028190Y-117476190D01*
X162504380Y-117714285D02*
X161504380Y-117714285D01*
X161504380Y-117333333D01*
X161552000Y-117238095D01*
X161599619Y-117190476D01*
X161694857Y-117142857D01*
X161837714Y-117142857D01*
X161932952Y-117190476D01*
X161980571Y-117238095D01*
X162028190Y-117333333D01*
X162028190Y-117714285D01*
X162504380Y-116190476D02*
X162504380Y-116761904D01*
X162504380Y-116476190D02*
X161504380Y-116476190D01*
X161647238Y-116571428D01*
X161742476Y-116666666D01*
X161790095Y-116761904D01*
X161504380Y-115857142D02*
X161504380Y-115190476D01*
X162504380Y-115619047D01*
X151503142Y-116276380D02*
X151169809Y-115800190D01*
X150931714Y-116276380D02*
X150931714Y-115276380D01*
X151312666Y-115276380D01*
X151407904Y-115324000D01*
X151455523Y-115371619D01*
X151503142Y-115466857D01*
X151503142Y-115609714D01*
X151455523Y-115704952D01*
X151407904Y-115752571D01*
X151312666Y-115800190D01*
X150931714Y-115800190D01*
X152455523Y-116276380D02*
X151884095Y-116276380D01*
X152169809Y-116276380D02*
X152169809Y-115276380D01*
X152074571Y-115419238D01*
X151979333Y-115514476D01*
X151884095Y-115562095D01*
X153074571Y-115276380D02*
X153169809Y-115276380D01*
X153265047Y-115324000D01*
X153312666Y-115371619D01*
X153360285Y-115466857D01*
X153407904Y-115657333D01*
X153407904Y-115895428D01*
X153360285Y-116085904D01*
X153312666Y-116181142D01*
X153265047Y-116228761D01*
X153169809Y-116276380D01*
X153074571Y-116276380D01*
X152979333Y-116228761D01*
X152931714Y-116181142D01*
X152884095Y-116085904D01*
X152836476Y-115895428D01*
X152836476Y-115657333D01*
X152884095Y-115466857D01*
X152931714Y-115371619D01*
X152979333Y-115324000D01*
X153074571Y-115276380D01*
X156633333Y-122402380D02*
X156300000Y-121926190D01*
X156061904Y-122402380D02*
X156061904Y-121402380D01*
X156442857Y-121402380D01*
X156538095Y-121450000D01*
X156585714Y-121497619D01*
X156633333Y-121592857D01*
X156633333Y-121735714D01*
X156585714Y-121830952D01*
X156538095Y-121878571D01*
X156442857Y-121926190D01*
X156061904Y-121926190D01*
X157109523Y-122402380D02*
X157300000Y-122402380D01*
X157395238Y-122354761D01*
X157442857Y-122307142D01*
X157538095Y-122164285D01*
X157585714Y-121973809D01*
X157585714Y-121592857D01*
X157538095Y-121497619D01*
X157490476Y-121450000D01*
X157395238Y-121402380D01*
X157204761Y-121402380D01*
X157109523Y-121450000D01*
X157061904Y-121497619D01*
X157014285Y-121592857D01*
X157014285Y-121830952D01*
X157061904Y-121926190D01*
X157109523Y-121973809D01*
X157204761Y-122021428D01*
X157395238Y-122021428D01*
X157490476Y-121973809D01*
X157538095Y-121926190D01*
X157585714Y-121830952D01*
X155820833Y-125102380D02*
X155487500Y-124626190D01*
X155249404Y-125102380D02*
X155249404Y-124102380D01*
X155630357Y-124102380D01*
X155725595Y-124150000D01*
X155773214Y-124197619D01*
X155820833Y-124292857D01*
X155820833Y-124435714D01*
X155773214Y-124530952D01*
X155725595Y-124578571D01*
X155630357Y-124626190D01*
X155249404Y-124626190D01*
X156392261Y-124530952D02*
X156297023Y-124483333D01*
X156249404Y-124435714D01*
X156201785Y-124340476D01*
X156201785Y-124292857D01*
X156249404Y-124197619D01*
X156297023Y-124150000D01*
X156392261Y-124102380D01*
X156582738Y-124102380D01*
X156677976Y-124150000D01*
X156725595Y-124197619D01*
X156773214Y-124292857D01*
X156773214Y-124340476D01*
X156725595Y-124435714D01*
X156677976Y-124483333D01*
X156582738Y-124530952D01*
X156392261Y-124530952D01*
X156297023Y-124578571D01*
X156249404Y-124626190D01*
X156201785Y-124721428D01*
X156201785Y-124911904D01*
X156249404Y-125007142D01*
X156297023Y-125054761D01*
X156392261Y-125102380D01*
X156582738Y-125102380D01*
X156677976Y-125054761D01*
X156725595Y-125007142D01*
X156773214Y-124911904D01*
X156773214Y-124721428D01*
X156725595Y-124626190D01*
X156677976Y-124578571D01*
X156582738Y-124530952D01*
X153720833Y-130402380D02*
X153387500Y-129926190D01*
X153149404Y-130402380D02*
X153149404Y-129402380D01*
X153530357Y-129402380D01*
X153625595Y-129450000D01*
X153673214Y-129497619D01*
X153720833Y-129592857D01*
X153720833Y-129735714D01*
X153673214Y-129830952D01*
X153625595Y-129878571D01*
X153530357Y-129926190D01*
X153149404Y-129926190D01*
X154054166Y-129402380D02*
X154720833Y-129402380D01*
X154292261Y-130402380D01*
X165044380Y-123102666D02*
X164568190Y-123436000D01*
X165044380Y-123674095D02*
X164044380Y-123674095D01*
X164044380Y-123293142D01*
X164092000Y-123197904D01*
X164139619Y-123150285D01*
X164234857Y-123102666D01*
X164377714Y-123102666D01*
X164472952Y-123150285D01*
X164520571Y-123197904D01*
X164568190Y-123293142D01*
X164568190Y-123674095D01*
X164044380Y-122245523D02*
X164044380Y-122436000D01*
X164092000Y-122531238D01*
X164139619Y-122578857D01*
X164282476Y-122674095D01*
X164472952Y-122721714D01*
X164853904Y-122721714D01*
X164949142Y-122674095D01*
X164996761Y-122626476D01*
X165044380Y-122531238D01*
X165044380Y-122340761D01*
X164996761Y-122245523D01*
X164949142Y-122197904D01*
X164853904Y-122150285D01*
X164615809Y-122150285D01*
X164520571Y-122197904D01*
X164472952Y-122245523D01*
X164425333Y-122340761D01*
X164425333Y-122531238D01*
X164472952Y-122626476D01*
X164520571Y-122674095D01*
X164615809Y-122721714D01*
X202762380Y-150384166D02*
X202286190Y-150717500D01*
X202762380Y-150955595D02*
X201762380Y-150955595D01*
X201762380Y-150574642D01*
X201810000Y-150479404D01*
X201857619Y-150431785D01*
X201952857Y-150384166D01*
X202095714Y-150384166D01*
X202190952Y-150431785D01*
X202238571Y-150479404D01*
X202286190Y-150574642D01*
X202286190Y-150955595D01*
X201762380Y-149479404D02*
X201762380Y-149955595D01*
X202238571Y-150003214D01*
X202190952Y-149955595D01*
X202143333Y-149860357D01*
X202143333Y-149622261D01*
X202190952Y-149527023D01*
X202238571Y-149479404D01*
X202333809Y-149431785D01*
X202571904Y-149431785D01*
X202667142Y-149479404D01*
X202714761Y-149527023D01*
X202762380Y-149622261D01*
X202762380Y-149860357D01*
X202714761Y-149955595D01*
X202667142Y-150003214D01*
X193902380Y-149749166D02*
X193426190Y-150082500D01*
X193902380Y-150320595D02*
X192902380Y-150320595D01*
X192902380Y-149939642D01*
X192950000Y-149844404D01*
X192997619Y-149796785D01*
X193092857Y-149749166D01*
X193235714Y-149749166D01*
X193330952Y-149796785D01*
X193378571Y-149844404D01*
X193426190Y-149939642D01*
X193426190Y-150320595D01*
X193235714Y-148892023D02*
X193902380Y-148892023D01*
X192854761Y-149130119D02*
X193569047Y-149368214D01*
X193569047Y-148749166D01*
X184347380Y-149749166D02*
X183871190Y-150082500D01*
X184347380Y-150320595D02*
X183347380Y-150320595D01*
X183347380Y-149939642D01*
X183395000Y-149844404D01*
X183442619Y-149796785D01*
X183537857Y-149749166D01*
X183680714Y-149749166D01*
X183775952Y-149796785D01*
X183823571Y-149844404D01*
X183871190Y-149939642D01*
X183871190Y-150320595D01*
X183347380Y-149415833D02*
X183347380Y-148796785D01*
X183728333Y-149130119D01*
X183728333Y-148987261D01*
X183775952Y-148892023D01*
X183823571Y-148844404D01*
X183918809Y-148796785D01*
X184156904Y-148796785D01*
X184252142Y-148844404D01*
X184299761Y-148892023D01*
X184347380Y-148987261D01*
X184347380Y-149272976D01*
X184299761Y-149368214D01*
X184252142Y-149415833D01*
X194905333Y-121864380D02*
X194572000Y-121388190D01*
X194333904Y-121864380D02*
X194333904Y-120864380D01*
X194714857Y-120864380D01*
X194810095Y-120912000D01*
X194857714Y-120959619D01*
X194905333Y-121054857D01*
X194905333Y-121197714D01*
X194857714Y-121292952D01*
X194810095Y-121340571D01*
X194714857Y-121388190D01*
X194333904Y-121388190D01*
X195286285Y-120959619D02*
X195333904Y-120912000D01*
X195429142Y-120864380D01*
X195667238Y-120864380D01*
X195762476Y-120912000D01*
X195810095Y-120959619D01*
X195857714Y-121054857D01*
X195857714Y-121150095D01*
X195810095Y-121292952D01*
X195238666Y-121864380D01*
X195857714Y-121864380D01*
X194905333Y-123642380D02*
X194572000Y-123166190D01*
X194333904Y-123642380D02*
X194333904Y-122642380D01*
X194714857Y-122642380D01*
X194810095Y-122690000D01*
X194857714Y-122737619D01*
X194905333Y-122832857D01*
X194905333Y-122975714D01*
X194857714Y-123070952D01*
X194810095Y-123118571D01*
X194714857Y-123166190D01*
X194333904Y-123166190D01*
X195857714Y-123642380D02*
X195286285Y-123642380D01*
X195572000Y-123642380D02*
X195572000Y-122642380D01*
X195476761Y-122785238D01*
X195381523Y-122880476D01*
X195286285Y-122928095D01*
X149042380Y-127809523D02*
X148042380Y-127809523D01*
X148756666Y-127476190D01*
X148042380Y-127142857D01*
X149042380Y-127142857D01*
X149042380Y-126142857D02*
X149042380Y-126714285D01*
X149042380Y-126428571D02*
X148042380Y-126428571D01*
X148185238Y-126523809D01*
X148280476Y-126619047D01*
X148328095Y-126714285D01*
X150905833Y-106652380D02*
X150429642Y-106652380D01*
X150429642Y-105652380D01*
X151762976Y-106652380D02*
X151191547Y-106652380D01*
X151477261Y-106652380D02*
X151477261Y-105652380D01*
X151382023Y-105795238D01*
X151286785Y-105890476D01*
X151191547Y-105938095D01*
X165733333Y-107816666D02*
X165733333Y-108316666D01*
X165700000Y-108416666D01*
X165633333Y-108483333D01*
X165533333Y-108516666D01*
X165466666Y-108516666D01*
X166066666Y-108516666D02*
X166066666Y-107816666D01*
X166333333Y-107816666D01*
X166400000Y-107850000D01*
X166433333Y-107883333D01*
X166466666Y-107950000D01*
X166466666Y-108050000D01*
X166433333Y-108116666D01*
X166400000Y-108150000D01*
X166333333Y-108183333D01*
X166066666Y-108183333D01*
X167133333Y-108516666D02*
X166733333Y-108516666D01*
X166933333Y-108516666D02*
X166933333Y-107816666D01*
X166866666Y-107916666D01*
X166800000Y-107983333D01*
X166733333Y-108016666D01*
X167400000Y-107883333D02*
X167433333Y-107850000D01*
X167500000Y-107816666D01*
X167666666Y-107816666D01*
X167733333Y-107850000D01*
X167766666Y-107883333D01*
X167800000Y-107950000D01*
X167800000Y-108016666D01*
X167766666Y-108116666D01*
X167366666Y-108516666D01*
X167800000Y-108516666D01*
X141983333Y-106516666D02*
X141983333Y-107016666D01*
X141950000Y-107116666D01*
X141883333Y-107183333D01*
X141783333Y-107216666D01*
X141716666Y-107216666D01*
X142316666Y-107216666D02*
X142316666Y-106516666D01*
X142583333Y-106516666D01*
X142650000Y-106550000D01*
X142683333Y-106583333D01*
X142716666Y-106650000D01*
X142716666Y-106750000D01*
X142683333Y-106816666D01*
X142650000Y-106850000D01*
X142583333Y-106883333D01*
X142316666Y-106883333D01*
X143383333Y-107216666D02*
X142983333Y-107216666D01*
X143183333Y-107216666D02*
X143183333Y-106516666D01*
X143116666Y-106616666D01*
X143050000Y-106683333D01*
X142983333Y-106716666D01*
X144050000Y-107216666D02*
X143650000Y-107216666D01*
X143850000Y-107216666D02*
X143850000Y-106516666D01*
X143783333Y-106616666D01*
X143716666Y-106683333D01*
X143650000Y-106716666D01*
X98922380Y-160933333D02*
X99636666Y-160933333D01*
X99779523Y-160980952D01*
X99874761Y-161076190D01*
X99922380Y-161219047D01*
X99922380Y-161314285D01*
X98922380Y-160552380D02*
X98922380Y-159933333D01*
X99303333Y-160266666D01*
X99303333Y-160123809D01*
X99350952Y-160028571D01*
X99398571Y-159980952D01*
X99493809Y-159933333D01*
X99731904Y-159933333D01*
X99827142Y-159980952D01*
X99874761Y-160028571D01*
X99922380Y-160123809D01*
X99922380Y-160409523D01*
X99874761Y-160504761D01*
X99827142Y-160552380D01*
X156741904Y-107894380D02*
X156741904Y-106894380D01*
X156980000Y-106894380D01*
X157122857Y-106942000D01*
X157218095Y-107037238D01*
X157265714Y-107132476D01*
X157313333Y-107322952D01*
X157313333Y-107465809D01*
X157265714Y-107656285D01*
X157218095Y-107751523D01*
X157122857Y-107846761D01*
X156980000Y-107894380D01*
X156741904Y-107894380D01*
X158170476Y-107227714D02*
X158170476Y-107894380D01*
X157932380Y-106846761D02*
X157694285Y-107561047D01*
X158313333Y-107561047D01*
X144899142Y-121007142D02*
X144851523Y-121054761D01*
X144708666Y-121102380D01*
X144613428Y-121102380D01*
X144470571Y-121054761D01*
X144375333Y-120959523D01*
X144327714Y-120864285D01*
X144280095Y-120673809D01*
X144280095Y-120530952D01*
X144327714Y-120340476D01*
X144375333Y-120245238D01*
X144470571Y-120150000D01*
X144613428Y-120102380D01*
X144708666Y-120102380D01*
X144851523Y-120150000D01*
X144899142Y-120197619D01*
X145851523Y-121102380D02*
X145280095Y-121102380D01*
X145565809Y-121102380D02*
X145565809Y-120102380D01*
X145470571Y-120245238D01*
X145375333Y-120340476D01*
X145280095Y-120388095D01*
X146184857Y-120102380D02*
X146851523Y-120102380D01*
X146422952Y-121102380D01*
X166657142Y-116689142D02*
X166609523Y-116736761D01*
X166466666Y-116784380D01*
X166371428Y-116784380D01*
X166228571Y-116736761D01*
X166133333Y-116641523D01*
X166085714Y-116546285D01*
X166038095Y-116355809D01*
X166038095Y-116212952D01*
X166085714Y-116022476D01*
X166133333Y-115927238D01*
X166228571Y-115832000D01*
X166371428Y-115784380D01*
X166466666Y-115784380D01*
X166609523Y-115832000D01*
X166657142Y-115879619D01*
X167609523Y-116784380D02*
X167038095Y-116784380D01*
X167323809Y-116784380D02*
X167323809Y-115784380D01*
X167228571Y-115927238D01*
X167133333Y-116022476D01*
X167038095Y-116070095D01*
X168466666Y-115784380D02*
X168276190Y-115784380D01*
X168180952Y-115832000D01*
X168133333Y-115879619D01*
X168038095Y-116022476D01*
X167990476Y-116212952D01*
X167990476Y-116593904D01*
X168038095Y-116689142D01*
X168085714Y-116736761D01*
X168180952Y-116784380D01*
X168371428Y-116784380D01*
X168466666Y-116736761D01*
X168514285Y-116689142D01*
X168561904Y-116593904D01*
X168561904Y-116355809D01*
X168514285Y-116260571D01*
X168466666Y-116212952D01*
X168371428Y-116165333D01*
X168180952Y-116165333D01*
X168085714Y-116212952D01*
X168038095Y-116260571D01*
X167990476Y-116355809D01*
X161663142Y-108053142D02*
X161615523Y-108100761D01*
X161472666Y-108148380D01*
X161377428Y-108148380D01*
X161234571Y-108100761D01*
X161139333Y-108005523D01*
X161091714Y-107910285D01*
X161044095Y-107719809D01*
X161044095Y-107576952D01*
X161091714Y-107386476D01*
X161139333Y-107291238D01*
X161234571Y-107196000D01*
X161377428Y-107148380D01*
X161472666Y-107148380D01*
X161615523Y-107196000D01*
X161663142Y-107243619D01*
X162615523Y-108148380D02*
X162044095Y-108148380D01*
X162329809Y-108148380D02*
X162329809Y-107148380D01*
X162234571Y-107291238D01*
X162139333Y-107386476D01*
X162044095Y-107434095D01*
X163520285Y-107148380D02*
X163044095Y-107148380D01*
X162996476Y-107624571D01*
X163044095Y-107576952D01*
X163139333Y-107529333D01*
X163377428Y-107529333D01*
X163472666Y-107576952D01*
X163520285Y-107624571D01*
X163567904Y-107719809D01*
X163567904Y-107957904D01*
X163520285Y-108053142D01*
X163472666Y-108100761D01*
X163377428Y-108148380D01*
X163139333Y-108148380D01*
X163044095Y-108100761D01*
X162996476Y-108053142D01*
X146153142Y-116542857D02*
X146200761Y-116590476D01*
X146248380Y-116733333D01*
X146248380Y-116828571D01*
X146200761Y-116971428D01*
X146105523Y-117066666D01*
X146010285Y-117114285D01*
X145819809Y-117161904D01*
X145676952Y-117161904D01*
X145486476Y-117114285D01*
X145391238Y-117066666D01*
X145296000Y-116971428D01*
X145248380Y-116828571D01*
X145248380Y-116733333D01*
X145296000Y-116590476D01*
X145343619Y-116542857D01*
X146248380Y-115590476D02*
X146248380Y-116161904D01*
X146248380Y-115876190D02*
X145248380Y-115876190D01*
X145391238Y-115971428D01*
X145486476Y-116066666D01*
X145534095Y-116161904D01*
X145581714Y-114733333D02*
X146248380Y-114733333D01*
X145200761Y-114971428D02*
X145915047Y-115209523D01*
X145915047Y-114590476D01*
M02*
